<svg id="Layer_1" data-name="Layer 1" xmlns="http://www.w3.org/2000/svg" viewBox="0 0 150 39.25"><defs><style>.cls-1{fill:#13357f;}.cls-2{fill:#f0b765;}</style></defs><title>logo</title><path class="cls-1" d="M7.33,10.82H4.1V8h9.54v2.81H10.42V27.66H7.33Z"/><path class="cls-1" d="M15.41,8H18.5v8h3.31V8h3.09V27.66H21.81V18.82H18.5v8.84H15.41Z"/><path class="cls-1" d="M27.48,8H35.9v2.81H30.56V16H34.8v2.81H30.56v6H35.9v2.81H27.48Z"/><path class="cls-1" d="M45.13,10.82H41.9V8h9.54v2.81H48.21V27.66H45.13Z"/><path class="cls-1" d="M53.21,8h4.57a4.73,4.73,0,0,1,3.48,1.11,4.68,4.68,0,0,1,1.09,3.41v1.21q0,3.06-2,3.87v.06A2.41,2.41,0,0,1,61.92,19a6.93,6.93,0,0,1,.46,2.78v3.45a13.3,13.3,0,0,0,.06,1.36,3.41,3.41,0,0,0,.28,1H59.58a4.54,4.54,0,0,1-.22-.9,13.6,13.6,0,0,1-.06-1.51V21.65a3.05,3.05,0,0,0-.43-1.88,1.84,1.84,0,0,0-1.5-.53H56.3v8.42H53.21Zm4.21,8.42A1.85,1.85,0,0,0,58.81,16a2.26,2.26,0,0,0,.46-1.6V12.84a2.49,2.49,0,0,0-.38-1.54,1.43,1.43,0,0,0-1.19-.48H56.3v5.61Z"/><path class="cls-1" d="M65.87,26.66A5.21,5.21,0,0,1,64.69,23V8h3.09V23.23a2.14,2.14,0,0,0,.41,1.46,1.73,1.73,0,0,0,2.33,0,2.14,2.14,0,0,0,.41-1.46V8h3V23a5.21,5.21,0,0,1-1.18,3.66,5.23,5.23,0,0,1-6.85,0Z"/><path class="cls-1" d="M76.36,8h8.42v2.81H79.45V16h4.24v2.81H79.45v6h5.33v2.81H76.36Z"/><path class="cls-1" d="M91.6,8h3.09V24.85h5.08v2.81H91.6Z"/><path class="cls-1" d="M102.4,26.65A5.14,5.14,0,0,1,101.2,23V12.67A5.14,5.14,0,0,1,102.4,9a5.34,5.34,0,0,1,7,0,5.14,5.14,0,0,1,1.21,3.65V23a5.14,5.14,0,0,1-1.21,3.65,5.34,5.34,0,0,1-7,0Zm5.08-3.45V12.48q0-1.94-1.6-1.94t-1.6,1.94V23.2q0,1.94,1.6,1.94T107.48,23.2Z"/><path class="cls-1" d="M115.26,8h4.18l3.2,19.64h-3.09l-.56-3.9v.06h-3.51l-.56,3.84h-2.86Zm3.37,13.13-1.37-9.71h-.06l-1.35,9.71Z"/><path class="cls-1" d="M124.4,8h3.87l3,11.76h.06V8h2.75V27.66h-3.17l-3.7-14.34h-.06V27.66H124.4Z"/><path class="cls-1" d="M137.28,26.66A5.29,5.29,0,0,1,136.13,23V21.88h2.92v1.35q0,1.91,1.6,1.91a1.5,1.5,0,0,0,1.19-.46,2.25,2.25,0,0,0,.41-1.5,4.16,4.16,0,0,0-.56-2.17,10.39,10.39,0,0,0-2.08-2.26,12.43,12.43,0,0,1-2.67-3,6.2,6.2,0,0,1-.76-3.07A5.12,5.12,0,0,1,137.37,9a4.43,4.43,0,0,1,3.42-1.28A4.25,4.25,0,0,1,144.15,9a5.33,5.33,0,0,1,1.14,3.66v.81h-2.92v-1A2.26,2.26,0,0,0,142,11a1.42,1.42,0,0,0-1.15-.46q-1.54,0-1.54,1.88a3.7,3.7,0,0,0,.58,2,10.93,10.93,0,0,0,2.09,2.25,11.57,11.57,0,0,1,2.67,3.06,6.79,6.79,0,0,1,.73,3.23,5.26,5.26,0,0,1-1.19,3.7,4.48,4.48,0,0,1-3.46,1.29A4.34,4.34,0,0,1,137.28,26.66Z"/><path class="cls-1" d="M26,33.28H24.43v-.57h3.85v.57H26.68V37.9H26Z"/><path class="cls-1" d="M29.46,32.78a7,7,0,0,1,1.29-.11,2.12,2.12,0,0,1,1.5.42,1.3,1.3,0,0,1,.41,1,1.36,1.36,0,0,1-1,1.33v0a1.29,1.29,0,0,1,.76,1,8.23,8.23,0,0,0,.4,1.43h-.69a6.71,6.71,0,0,1-.35-1.24c-.15-.72-.43-1-1-1h-.63V37.9h-.67Zm.67,2.37h.69c.72,0,1.17-.39,1.17-1s-.49-1-1.19-1a2.74,2.74,0,0,0-.66.06Z"/><path class="cls-1" d="M35.1,36.27l-.54,1.63h-.69l1.76-5.19h.81l1.77,5.19H37.5l-.55-1.63Zm1.7-.52-.51-1.5c-.12-.34-.19-.65-.27-.95h0c-.08.31-.16.62-.26.94l-.51,1.5Z"/><path class="cls-1" d="M39.59,37.9V32.71h.73L42,35.33A14.78,14.78,0,0,1,42.92,37h0c-.06-.69-.08-1.33-.08-2.13V32.71h.63V37.9h-.68l-1.65-2.64a16.5,16.5,0,0,1-1-1.73h0c0,.66.05,1.28.05,2.14V37.9Z"/><path class="cls-1" d="M45.18,37.08a2.38,2.38,0,0,0,1.2.34c.69,0,1.09-.36,1.09-.89s-.28-.76-1-1-1.37-.74-1.37-1.47a1.49,1.49,0,0,1,1.68-1.41,2.37,2.37,0,0,1,1.15.25l-.19.55a2.06,2.06,0,0,0-1-.25c-.71,0-1,.42-1,.78s.32.72,1,1c.88.34,1.33.76,1.33,1.53S47.56,38,46.34,38A2.69,2.69,0,0,1,45,37.65Z"/><path class="cls-1" d="M49.69,32.77a7.78,7.78,0,0,1,1.29-.1,2.14,2.14,0,0,1,1.46.43,1.4,1.4,0,0,1,.45,1.09,1.53,1.53,0,0,1-.4,1.11,2.15,2.15,0,0,1-1.59.57,2.34,2.34,0,0,1-.54,0V37.9h-.67Zm.67,2.5a2.22,2.22,0,0,0,.55.05c.81,0,1.3-.39,1.3-1.11s-.49-1-1.23-1a2.79,2.79,0,0,0-.63.05Z"/><path class="cls-1" d="M54.6,36.27l-.54,1.63h-.69l1.76-5.19h.81l1.77,5.19H57l-.55-1.63Zm1.7-.52-.51-1.5c-.12-.34-.19-.65-.27-.95h0c-.08.31-.16.62-.26.94l-.51,1.5Z"/><path class="cls-1" d="M59.09,32.78a7,7,0,0,1,1.29-.11,2.12,2.12,0,0,1,1.5.42,1.3,1.3,0,0,1,.41,1,1.36,1.36,0,0,1-1,1.33v0a1.29,1.29,0,0,1,.76,1,8.23,8.23,0,0,0,.4,1.43h-.69a6.71,6.71,0,0,1-.35-1.24c-.15-.72-.43-1-1-1h-.63V37.9h-.67Zm.67,2.37h.69c.72,0,1.17-.39,1.17-1s-.49-1-1.19-1a2.74,2.74,0,0,0-.66.06Z"/><path class="cls-1" d="M66.54,35.47h-2v1.87h2.25v.56H63.85V32.71h2.8v.56H64.52v1.64h2Z"/><path class="cls-1" d="M68.25,37.9V32.71H69l1.67,2.63A14.78,14.78,0,0,1,71.58,37h0c-.06-.69-.08-1.33-.08-2.13V32.71h.63V37.9h-.68l-1.65-2.64a16.5,16.5,0,0,1-1-1.73h0c0,.66.05,1.28.05,2.14V37.9Z"/><path class="cls-1" d="M74.92,33.28H73.34v-.57h3.85v.57H75.6V37.9h-.68Z"/><path class="cls-1" d="M83.88,37.9l-.49-.51a2.13,2.13,0,0,1-1.52.59,1.47,1.47,0,0,1-1.59-1.46,1.71,1.71,0,0,1,1-1.52v0a1.78,1.78,0,0,1-.43-1.09,1.26,1.26,0,0,1,1.32-1.28,1.08,1.08,0,0,1,1.15,1.1c0,.55-.32,1-1.14,1.39v0c.44.51.93,1.08,1.26,1.45a3.81,3.81,0,0,0,.5-1.52h.62A4,4,0,0,1,83.83,37l.86.92ZM83.06,37c-.31-.34-.89-1-1.46-1.63a1.28,1.28,0,0,0-.67,1.06,1,1,0,0,0,1.06,1A1.45,1.45,0,0,0,83.06,37Zm-1.58-3.17a1.45,1.45,0,0,0,.39.93c.52-.3.86-.58.86-1a.61.61,0,0,0-.6-.67A.68.68,0,0,0,81.48,33.84Z"/><path class="cls-1" d="M88.82,33.28H87.24v-.57h3.85v.57H89.5V37.9h-.68Z"/><path class="cls-1" d="M92.28,32.78a7,7,0,0,1,1.29-.11,2.12,2.12,0,0,1,1.5.42,1.3,1.3,0,0,1,.41,1,1.36,1.36,0,0,1-1,1.33v0a1.29,1.29,0,0,1,.76,1,8.23,8.23,0,0,0,.4,1.43H95a6.71,6.71,0,0,1-.35-1.24c-.15-.72-.43-1-1-1H93V37.9h-.67ZM93,35.14h.69c.72,0,1.17-.39,1.17-1s-.49-1-1.19-1a2.74,2.74,0,0,0-.66.06Z"/><path class="cls-1" d="M97.71,32.71v3.07c0,1.16.52,1.66,1.21,1.66s1.26-.51,1.26-1.66V32.71h.68v3c0,1.59-.84,2.25-2,2.25S97,37.38,97,35.77V32.71Z"/><path class="cls-1" d="M103.63,33.28H102v-.57h3.85v.57h-1.59V37.9h-.68Z"/><path class="cls-1" d="M107.75,32.71v2.17h2.51V32.71h.68V37.9h-.68V35.47h-2.51V37.9h-.67V32.71Z"/><path class="cls-1" d="M112.72,32.71h2.8v.56h-2.13V35h2v.55h-2V37.9h-.67Z"/><path class="cls-1" d="M117.76,32.71v3.07c0,1.16.52,1.66,1.21,1.66s1.26-.51,1.26-1.66V32.71h.68v3c0,1.59-.84,2.25-2,2.25s-1.86-.61-1.86-2.22V32.71Z"/><path class="cls-1" d="M122.69,32.71h.67v4.63h2.22v.56h-2.89Z"/><rect class="cls-2" x="1.97" y="2.17" width="146.07" height="2.43"/><rect class="cls-2" x="2.53" y="34.37" width="17.52" height="2.55"/><rect class="cls-2" x="129.94" y="34.37" width="17.52" height="2.55"/></svg>