<svg id="Layer_1" data-name="Layer 1" xmlns="http://www.w3.org/2000/svg" viewBox="0 0 400 240"><defs><style>.cls-1{fill:#f9e8f2;}.cls-2{fill:#0e2549;}.cls-3{fill:#eab7c2;}.cls-4{fill:#e2d0da;}.cls-5{fill:#1b2746;}.cls-6{fill:#f9e5ef;}.cls-7{fill:#e2474b;}.cls-8{fill:#ceb6c5;}.cls-9{fill:#fff;}.cls-10{fill:#a1c5e2;}</style></defs><title>balance-transfer-of-existing-loan</title><rect class="cls-1" x="72.71" y="136.04" width="37.3" height="69.8" transform="translate(-35.25 24.19) rotate(-12.66)"/><path class="cls-2" d="M67.57,151.88l-2.51-11.18,11-2.47.08.37a11.11,11.11,0,0,1-1.4,8.3,10.7,10.7,0,0,1-6.8,4.9ZM66,141.27,68.14,151a10,10,0,0,0,5.94-4.46,10.35,10.35,0,0,0,1.38-7.36Z"/><path class="cls-2" d="M78.27,143.42a.38.38,0,0,1-.08-.75l12.28-2.76a.38.38,0,0,1,.17.74l-12.28,2.76Z"/><path class="cls-2" d="M81.73,194.65a.38.38,0,0,1-.37-.3l-9.11-40.53a.38.38,0,1,1,.74-.17l9.11,40.53a.38.38,0,0,1-.29.46Z"/><rect class="cls-1" x="68.45" y="163.3" width="37.3" height="69.8" transform="translate(-102.27 93.27) rotate(-37.29)"/><path class="cls-2" d="M80.67,170.2a11.68,11.68,0,0,1-1.43-.09A10.87,10.87,0,0,1,71.83,166l-.23-.3,9.27-7.06,6.94,9.12-.3.23A11.33,11.33,0,0,1,80.67,170.2Zm-8-4.41a10.15,10.15,0,0,0,6.67,3.56,10.7,10.7,0,0,0,7.4-1.79l-6-7.9Z"/><path class="cls-2" d="M57.53,190.78l-6.94-9.12,9-6.83.23.3A11.11,11.11,0,0,1,62,183.26a10.7,10.7,0,0,1-4.14,7.28Zm-5.87-9,6,7.9a10,10,0,0,0,3.54-6.53,10.35,10.35,0,0,0-1.81-7.27Z"/><path class="cls-2" d="M63.57,178.67a.38.38,0,0,1-.23-.68l10-7.63a.38.38,0,0,1,.46.61l-10,7.63A.38.38,0,0,1,63.57,178.67Z"/><path class="cls-2" d="M111,206.08a.38.38,0,0,1-.3-.15l-25.16-33a.38.38,0,0,1,.61-.46l25.16,33a.38.38,0,0,1-.3.61Z"/><path class="cls-2" d="M88.06,223.8a.38.38,0,0,1-.3-.15l-25.16-33a.38.38,0,0,1,.61-.46l25.16,33a.38.38,0,0,1-.3.61Z"/><ellipse class="cls-3" cx="86.8" cy="199.48" rx="9.54" ry="7.78" transform="translate(-103.1 93.35) rotate(-37.29)"/><rect class="cls-1" x="298.49" y="86.3" width="69.8" height="37.3" transform="translate(46.72 304.91) rotate(-52.37)"/><path class="cls-2" d="M339.68,76.91a10.62,10.62,0,0,1-6.52-2.21l-.3-.23,7-9.08,8.93,6.88-.23.3a11.11,11.11,0,0,1-7.28,4.23A11.28,11.28,0,0,1,339.68,76.91Zm-5.75-2.59A10,10,0,0,0,341.16,76a10.35,10.35,0,0,0,6.55-3.64L340,66.45Z"/><path class="cls-2" d="M356.46,85.11a.38.38,0,0,1-.23-.08l-10-7.69a.38.38,0,0,1,.47-.6l10,7.69a.38.38,0,0,1-.23.68Z"/><path class="cls-2" d="M332.38,130.41a.38.38,0,0,1-.3-.61l25.36-32.9a.38.38,0,1,1,.6.47l-25.36,32.9A.38.38,0,0,1,332.38,130.41Z"/><path class="cls-2" d="M309.29,112.82a.38.38,0,0,1-.3-.61l25.36-32.9a.38.38,0,1,1,.6.47l-25.36,32.9A.38.38,0,0,1,309.29,112.82Z"/><rect class="cls-1" x="279.54" y="55.36" width="69.8" height="37.3" transform="translate(171.56 363.73) rotate(-76.99)"/><path class="cls-2" d="M338.35,55.09,338,55A11.42,11.42,0,0,1,331,50a10.87,10.87,0,0,1-1.54-8.36l.09-.37,11.35,2.62Zm-8.2-12.87a10.15,10.15,0,0,0,1.52,7.4,10.7,10.7,0,0,0,6.11,4.55L340,44.49Z"/><path class="cls-2" d="M304,46.88a10.7,10.7,0,0,1-2.41-.28l-.37-.09,2.58-11.17,11,2.54-.09.37A11.06,11.06,0,0,1,304,46.88Zm-1.87-.94a10.24,10.24,0,0,0,11.72-7.48l-9.49-2.19Z"/><path class="cls-2" d="M327,46.4h-.09l-12.26-2.83a.38.38,0,1,1,.17-.74l12.26,2.83a.38.38,0,0,1-.09.75Z"/><path class="cls-2" d="M324,97.61h-.09a.38.38,0,0,1-.29-.46L333,56.67a.38.38,0,0,1,.74.17l-9.35,40.47A.38.38,0,0,1,324,97.61Z"/><path class="cls-2" d="M295.65,91.25h-.09a.38.38,0,0,1-.29-.46l9.35-40.47a.38.38,0,0,1,.74.17L296,91A.38.38,0,0,1,295.65,91.25Z"/><ellipse class="cls-3" cx="313.27" cy="74.6" rx="7.78" ry="9.54" transform="translate(170.08 363.04) rotate(-76.99)"/><polygon class="cls-4" points="324.26 237.74 174.82 237.74 174.82 76.1 324.26 101.69 324.26 237.74"/><path class="cls-5" d="M324.65,238.12H174.44V75.65l150.21,25.72Zm-149.45-.76H323.88V102L175.2,76.56Z"/><polygon class="cls-3" points="87.22 96.18 75.01 107.58 90.32 107.58 87.22 96.18"/><path class="cls-5" d="M90.82,108H74L87.42,95.47ZM76,107.2H89.82L87,96.89Z"/><polygon class="cls-6" points="143.53 48.21 86.45 99.09 86.45 237.74 200.6 237.74 200.6 99.09 143.53 48.21"/><path class="cls-5" d="M201,238.12H86.07V98.92l.13-.11L143.53,47.7l.25.23,57.2,51Zm-114.15-.76H200.22V99.26L143.53,48.72,86.83,99.26Z"/><path class="cls-7" d="M76.58,108.6H66.37l77.21-69.51a0,0,0,0,1,.07,0l-.12,9.62Z"/><path class="cls-2" d="M76.73,109H65.38l78-70.18a.42.42,0,0,1,.71.32l-.12,9.79-.13.11Zm-9.36-.76h9.07l66.72-59.65.1-8.68Z"/><path class="cls-3" d="M144.23,39.8,263.42,39l78,69.58H218.69L144.13,40.06A.15.15,0,0,1,144.23,39.8Z"/><path class="cls-5" d="M342.46,109H218.54l-.11-.1L143.88,40.34a.53.53,0,0,1,.36-.92l119.33-.77.11.1Zm-123.62-.76H340.45L263.28,39.41l-118.45.76Z"/><path class="cls-7" d="M210.18,108.58l10.25,0L143.71,39.08a0,0,0,0,0-.06,0l-.12,9.64Z"/><path class="cls-2" d="M221.43,109,210,109l-.11-.1-66.77-60,.12-9.81a.42.42,0,0,1,.7-.3Zm-11.1-.8,9.11,0L144,39.88l-.1,8.69ZM143.46,39.36h0Z"/><rect class="cls-3" x="86.83" y="221.76" width="113.37" height="15.97"/><rect class="cls-8" x="200.98" y="221.76" width="122.88" height="15.97"/><rect class="cls-7" x="210.78" y="140.15" width="18.58" height="27.6"/><rect class="cls-7" x="233.39" y="140.15" width="18.58" height="27.6"/><rect class="cls-7" x="210.78" y="171.77" width="18.58" height="27.6"/><rect class="cls-7" x="233.39" y="171.77" width="18.58" height="27.6"/><rect class="cls-7" x="269.08" y="140.15" width="18.58" height="27.6"/><rect class="cls-7" x="291.7" y="140.15" width="18.58" height="27.6"/><rect class="cls-7" x="269.08" y="171.77" width="18.58" height="27.6"/><rect class="cls-7" x="291.7" y="171.77" width="18.58" height="27.6"/><rect class="cls-7" x="118.85" y="125.12" width="49.27" height="113.34"/><path class="cls-2" d="M168.5,238.84h-50V124.73h50Zm-49.27-.76h48.5V125.5h-48.5Z"/><rect class="cls-3" x="125.41" y="130.98" width="15.51" height="29.69"/><rect class="cls-3" x="146.05" y="130.98" width="15.51" height="29.69"/><rect class="cls-3" x="125.41" y="165.8" width="15.51" height="29.69"/><rect class="cls-3" x="146.05" y="165.8" width="15.51" height="29.69"/><rect class="cls-3" x="125.41" y="200.62" width="15.51" height="29.69"/><rect class="cls-3" x="146.05" y="200.62" width="15.51" height="29.69"/><path class="cls-7" d="M168.66,108.06H117.14a25.64,25.64,0,0,1,6.31-16.88,24.56,24.56,0,0,1,2-2,25.63,25.63,0,0,1,16-6.79c.47,0,.94,0,1.42,0s1,0,1.42,0A25.65,25.65,0,0,1,160,88.84a24.53,24.53,0,0,1,2,2A25.63,25.63,0,0,1,168.66,108.06Z"/><path class="cls-3" d="M162,90.85l-17.22,17.22h-4.5L123.45,91.18a24.56,24.56,0,0,1,2-2l16,16V82.35h2.84v22.21L160,88.84A24.53,24.53,0,0,1,162,90.85Z"/><circle class="cls-6" cx="162.07" cy="181.43" r="3.29"/><path class="cls-5" d="M162.07,185.1a3.67,3.67,0,1,1,3.67-3.67A3.68,3.68,0,0,1,162.07,185.1Zm0-6.58a2.91,2.91,0,1,0,2.91,2.91A2.91,2.91,0,0,0,162.07,178.52Z"/><polygon class="cls-9" points="58.36 228.07 58.35 233.34 51.98 233.34 51.45 228.34 58.36 228.07"/><path class="cls-2" d="M58.73,233.72H51.64L51,228l7.71-.3Zm-6.4-.76H58v-4.49l-6.1.24Z"/><path class="cls-7" d="M58.71,232.55s9.55,3,9.88,5.53H51.47v-5.53Z"/><polygon class="cls-9" points="36.84 228.14 36.66 233.3 30.2 233.3 29.9 228.03 36.84 228.14"/><path class="cls-2" d="M37,233.68H29.84l-.35-6,7.74.12Zm-6.47-.76H36.3l.15-4.4-6.15-.1Z"/><path class="cls-7" d="M37,232.67s9.55,3,9.88,5.53H29.78v-5.53Z"/><polygon class="cls-2" points="47.52 237.25 47.52 238.68 29.33 238.68 29.33 237.04 47.52 237.25"/><polygon class="cls-2" points="50.93 237.03 50.93 238.57 69.13 238.57 69.13 236.92 50.93 237.03"/><polygon class="cls-2" points="27.62 144.72 27.88 169.53 28.04 184.32 28.52 229.01 39.03 229.01 43.73 183.42 44.48 176.16 49.75 229.01 59.87 229.01 59.05 162.22 57.93 149.95 43.73 147.5 38.23 146.55 27.62 144.72"/><path class="cls-9" d="M45.6,98.35s-.74,7.81-.12,8.68,4.23,2.46,4.23,2.46l-6,17.78L30.75,126l-.84-13.22s5.9-4.8,6.25-5.79c.49-1.36.49-8.66.49-8.66Z"/><path class="cls-2" d="M43.93,127.67l-13.54-1.31-.87-13.74.15-.12c2.86-2.33,5.93-5.07,6.13-5.62.39-1.07.47-6.52.47-8.53a.38.38,0,0,1,.38-.38h0a.38.38,0,0,1,.38.38c0,.75,0,7.4-.52,8.79-.36,1-4.95,4.79-6.22,5.83l.8,12.7,12.29,1.19,5.84-17.17c-.95-.43-3.5-1.65-4.07-2.44s-.13-7.07,0-8.94a.38.38,0,0,1,.76.07c-.36,3.74-.52,7.91-.19,8.42s2.72,1.73,4.08,2.33l.32.14Z"/><path class="cls-9" d="M79,115.94c-2,1.12-9.82,9.41-9.82,9.41L74.84,128s4.57-8.53,5.37-8.64c1.52-.2,6.11-.07,7.59-1.06,2.24-1.5,3.4-3.41,3.13-4-.14-.32-4,2-4.88,2C83.64,116.43,80.44,115.15,79,115.94Z"/><path class="cls-2" d="M75,128.68l-6.66-3.18.46-.49c.32-.34,7.92-8.36,9.93-9.5h0c1-.56,2.55-.28,4.2,0a16.21,16.21,0,0,0,3.06.35,14.81,14.81,0,0,0,2.52-1.1c1.76-.87,2.17-1,2.51-.92a.53.53,0,0,1,.31.28c.44,1-1.1,3.14-3.31,4.62-1.19.8-3.86.92-6,1-.7,0-1.31.06-1.72.11-.62.48-3,4.61-5.08,8.39Zm-5-3.48,4.6,2.2c4.49-8.34,5.26-8.45,5.52-8.48.44-.06,1.1-.09,1.87-.13,1.81-.08,4.56-.21,5.52-.86A8.36,8.36,0,0,0,90.35,115c-.4.18-.93.44-1.36.66a10.44,10.44,0,0,1-2.93,1.2,17.15,17.15,0,0,1-3.25-.37c-1.41-.25-2.86-.5-3.54-.12C77.84,117.18,72.84,122.24,70,125.2Z"/><path class="cls-7" d="M51.68,108.78c3.9,1.42,3,22.27,3,22.27.64,2.45,2.14,15.58,2.14,15.58l-27.36,5.45L26.19,135.7s-2-27.58,8.7-29.2c1-.16,4.17,1.31,7.53,1,1.46-.14,2.2,1.6,2.92-1Z"/><path class="cls-2" d="M45.33,133.77,47.92,107c1.79,0,9.44,4.81,9.44,4.81.12-.25,6.53,11.45,8.29,15.81.2.5,8.31-10.39,8.26-9.79,0,0,7.35,2.52,7.31,3.47s-9.23,17.08-15.45,20c-1.15.54-7.71-3.65-8.05-9.88l.85,15.38L60,162,46.3,162l-.64-12.82Z"/><path class="cls-2" d="M35.56,106l10,28.35c0,2.26.42,11.33,0,20.94-.19,4.39-.45,7.72-.45,6.94,0-.32-19-.25-19-.25l-.59-6.45s-6.34-4.39-6.34-16.81c0-13.92.76-18.65,2.61-25.64C22,112.06,31.92,106,35.56,106Z"/><path class="cls-2" d="M41.15,83.24c1.63,0,5.57-.17,5.94,2.7a74.87,74.87,0,0,1,.36,9.81,1.8,1.8,0,0,1-1.57,1.75L36,98.76a1.8,1.8,0,0,1-2-1.35c-.74-3-2.24-9.33-2-10.34C32.83,83.61,38.58,83.29,41.15,83.24Z"/><path class="cls-9" d="M37,100.8c-.6-.49-1.1-2.65-1.48-5.15a.21.21,0,0,0-.12-.16,2.94,2.94,0,0,1-1.88-2.25c-.11-1.08.69-1,1.35-.68a.17.17,0,0,0,.22-.18c-.34-3-.51-5.69-.51-5.69l11.74-1.51s.32,2.69.6,5.73c0,.14.44,7.4.24,8.08a2,2,0,0,1-.73,1s-.67.71-4.94,1.26Z"/><path class="cls-2" d="M41.54,101.63a.38.38,0,0,1,0-.76c3.93-.5,4.7-1.13,4.73-1.16l0,0a1.66,1.66,0,0,0,.6-.8c.16-.62-.22-7.42-.26-7.95-.21-2.33-.45-4.48-.55-5.33L35,87c.06.83.22,3,.49,5.32a.56.56,0,0,1-.22.51.54.54,0,0,1-.53.07c-.48-.2-.71-.17-.77-.13s-.08.14-.06.42a2.58,2.58,0,0,0,1.65,1.94.59.59,0,0,1,.35.45c.6,3.94,1.14,4.74,1.34,4.91a.38.38,0,1,1-.48.59c-.39-.31-1-1.2-1.61-5.29a3.28,3.28,0,0,1-2-2.52,1.14,1.14,0,0,1,.36-1.11,1.29,1.29,0,0,1,1.18-.09c-.31-2.86-.48-5.35-.48-5.37l0-.36,12.48-1.6,0,.38s.33,2.73.6,5.74c0,.07.46,7.44.23,8.22a2.38,2.38,0,0,1-.84,1.18c-.2.18-1.17.84-5.14,1.35Z"/><path class="cls-2" d="M39.82,93.3a.64.64,0,0,1-.63-.59l0-.24a.64.64,0,0,1,1.27-.1l0,.24a.64.64,0,0,1-.58.68Z"/><path class="cls-2" d="M45,92.8a.64.64,0,0,1-.63-.56l0-.29a.64.64,0,1,1,1.26-.15l0,.29a.64.64,0,0,1-.56.71Z"/><path class="cls-2" d="M38.37,91.38a.38.38,0,0,1-.19-.71,3.22,3.22,0,0,1,2.34-.26.38.38,0,0,1-.22.73,2.47,2.47,0,0,0-1.74.2A.38.38,0,0,1,38.37,91.38Z"/><path class="cls-2" d="M43.16,95.87a.38.38,0,0,1-.13-.74,1.62,1.62,0,0,0,.65-.38c0-.19,0-.23-.59-1.3l-.5-.93v0a3.85,3.85,0,0,1-.35-1.5.9.9,0,0,1,.51-.68,3.71,3.71,0,0,1,3-.26.38.38,0,0,1-.3.7,2.86,2.86,0,0,0-2.41.32,3.29,3.29,0,0,0,.28,1.09l.49.91c.64,1.17.71,1.29.68,1.72,0,.6-.89,1-1.16,1Z"/><path class="cls-10" d="M31.29,157.29a.41.41,0,0,1-.25-.74l7.55-5.74a.41.41,0,1,1,.5.66l-7.55,5.74A.41.41,0,0,1,31.29,157.29Z"/><path class="cls-10" d="M57.88,155.94a.41.41,0,0,1-.19,0l-8.13-4.13a.41.41,0,0,1,.37-.74l8.13,4.13a.41.41,0,0,1-.19.78Z"/><path class="cls-9" d="M47.7,106.2l5.46,6L48.74,114l2.54,6.67L45.43,133a0,0,0,0,1-.09,0Z"/><path class="cls-2" d="M45.39,133.37l-.11,0a.43.43,0,0,1-.31-.45l2.43-27.6,6.41,7.08-4.58,1.84,2.47,6.48-5.92,12.43A.43.43,0,0,1,45.39,133.37Zm.33-.4h0ZM48,107.11l-2.11,24,5-10.45-2.62-6.87,4.26-1.71Z"/><path class="cls-9" d="M35.56,106l-5.27,8,6,.52-1.34,7.08L45,132.83a.09.09,0,0,0,.15-.09Z"/><path class="cls-2" d="M45.06,133.24a.47.47,0,0,1-.35-.16L34.49,121.69l1.29-6.85-6.17-.54,6-9.17,9.85,27.47a.47.47,0,0,1-.44.63Zm-.28-.38h0Zm-9.48-11.4,9,10-8.83-24.64L31,113.66l5.73.5Z"/><path class="cls-10" d="M29,163.11a.41.41,0,0,1,0-.83l15.69-.72c.23-3.92.55-9.89.57-10.24l-.33-18.38a.41.41,0,0,1,.41-.42h0a.41.41,0,0,1,.41.41l.33,18.41h0c0,.07-.36,6.63-.6,10.63l0,.37L29,163.11Z"/><path class="cls-10" d="M43.14,145a1.08,1.08,0,1,1,1.08-1.08A1.08,1.08,0,0,1,43.14,145Z"/><path class="cls-10" d="M46.3,162.39a.41.41,0,0,1,0-.83l13.27,0-2.71-35.48a.41.41,0,1,1,.82-.06l2.78,36.37-14.17,0Z"/><polygon class="cls-7" points="32.7 107.3 35.87 104.83 42.42 107.5 40.32 110 32.7 107.3"/><path class="cls-2" d="M40.44,110.45l-8.53-3,3.89-3,7.25,2.95Zm-7-3.28,6.72,2.38,1.6-1.91-5.87-2.39Z"/><polygon class="cls-7" points="49.67 107.58 47.46 105.24 42.42 107.5 44.32 109.81 49.67 107.58"/><path class="cls-2" d="M44.21,110.27l-2.39-2.92,5.73-2.57,2.78,2.94ZM43,107.64l1.4,1.71,4.57-1.9-1.65-1.75Z"/><polygon class="cls-2" points="40.32 110 42.42 107.5 44.52 110 43.6 111.08 46.05 124.46 45.15 132.74 41.76 123.28 41.85 111.29 40.32 110"/><path class="cls-2" d="M34.3,87.55s9.29,1,12.32-2.12c1.73-1.76-.43-5.81-2-6.07-1.2-.2-2.44,2.09-3.7,2.27-1,.14-3.24.72-4.49,1C33.88,83.3,33,86.1,34.3,87.55Z"/><polygon class="cls-9" points="25.72 150.17 39.93 156.47 35.09 166.36 21.11 160.03 25.72 150.17"/><path class="cls-2" d="M35.27,166.86,20.6,160.21l4.93-10.54,14.92,6.61Zm-13.65-7,13.29,6,4.51-9.21-13.51-6Z"/><path class="cls-9" d="M27.46,152.09a23.85,23.85,0,0,0,3.23,8.32,35,35,0,0,1,2.89,4.87c.13.49-2.34-.72-2.45-.74l-.15.93s-.49.47-.92.29-.56-.74-.91-.83a4.92,4.92,0,0,1-1,0c-.3-.08-.54-.69-.76-.87s-.75.1-1-.07c-.42-.27-.26-.86-.55-1.06s-.7.21-1.16-.15,1.45-3.07,1.42-3.69C26,157,17.24,144.9,21.57,136.61,23.52,132.89,26.54,144.11,27.46,152.09Z"/><path class="cls-2" d="M30.27,166.29a1,1,0,0,1-.41-.08,1.68,1.68,0,0,1-.64-.57,2.35,2.35,0,0,0-.17-.21,3.06,3.06,0,0,1-1,0,1.47,1.47,0,0,1-.79-.73l-.11-.17h-.12a1.33,1.33,0,0,1-.9-.12,1.35,1.35,0,0,1-.54-.91l0-.11h0a1.32,1.32,0,0,1-1.12-.21c-.59-.45-.12-1.35.59-2.7a8,8,0,0,0,.63-1.37,15.59,15.59,0,0,0-1.33-3.07c-2.28-4.63-6.53-13.25-3.16-19.69.49-.94,1.07-1.05,1.47-1,2.47.46,4.69,11.06,5.33,16.63h0a23.26,23.26,0,0,0,3.15,8.09,35.08,35.08,0,0,1,3,5,.57.57,0,0,1-.17.59c-.33.28-.81.18-2.37-.5l-.08.46-.12.11A1.69,1.69,0,0,1,30.27,166.29Zm-1.13-1.86h.12A1.4,1.4,0,0,1,30,165a1.16,1.16,0,0,0,.25.27s.17,0,.28-.1l.21-1.27.52.13.35.15c.53.24.91.4,1.19.5-.61-1.15-1.91-3.18-2.5-4A24.11,24.11,0,0,1,27,152.14h0c-.93-8.08-3.31-15.55-4.54-15.78-.08,0-.25.12-.43.47-3.13,6,1,14.33,3.18,18.8a12.68,12.68,0,0,1,1.43,3.46,4.65,4.65,0,0,1-.74,1.86,11.89,11.89,0,0,0-.72,1.52l.21,0a1,1,0,0,1,.79.1,1.12,1.12,0,0,1,.42.74.69.69,0,0,0,.11.3,1.79,1.79,0,0,0,.28,0,1,1,0,0,1,.8.14,2,2,0,0,1,.36.46,2.29,2.29,0,0,0,.23.31,4.31,4.31,0,0,0,.61,0Zm-2.49-.84Z"/><path class="cls-2" d="M25,158.42a19.53,19.53,0,0,1-7.77-13.52c-1.11-9.21,2.89-24.61,2.89-24.61l8,7.92S26.35,140.7,27,143.56s4.92,14.86,4.92,14.86Z"/><path class="cls-10" d="M32.42,158.83H25a.41.41,0,0,1,0-.83h6.33A65.06,65.06,0,0,0,29,151.33a30.36,30.36,0,0,1-2.53-8.75,39.41,39.41,0,0,1,2.29-16.05.41.41,0,0,1,.77.31,38.53,38.53,0,0,0-2.23,15.68c.21,2.8,1.26,5.44,2.48,8.5a62.32,62.32,0,0,1,2.54,7.29Z"/><path class="cls-2" d="M41.82,96.86c-.08.36,1,1.44,1.89,1.28,1.49-.27,1.61-1.86,1.27-1.71a3.06,3.06,0,0,1-1.47.72C42.54,97.29,41.87,96.62,41.82,96.86Z"/><path class="cls-10" d="M44.49,176.57h0a.41.41,0,0,1-.38-.44l.86-11a.41.41,0,0,1,.82.06l-.86,11A.41.41,0,0,1,44.49,176.57Z"/><polygon class="cls-9" points="350.33 227.51 350.34 232.52 357.1 232.52 357.66 227.77 350.33 227.51"/><path class="cls-2" d="M357.46,232.93h-7.54v-5.85l8.21.29Zm-6.71-.83h6l.47-3.94-6.45-.23Z"/><path class="cls-7" d="M350.05,232s-10,3.18-10.38,5.81h18V232Z"/><polygon class="cls-9" points="370.02 227.38 370.2 232.71 376.88 232.71 377.19 227.26 370.02 227.38"/><path class="cls-2" d="M377.27,233.13H369.8l-.21-6.16,8-.13Zm-6.67-.83h5.89l.27-4.62-6.31.1Z"/><path class="cls-7" d="M369.82,232.14s-10,3.18-10.38,5.81h18v-5.81Z"/><polygon class="cls-2" points="358.79 236.95 358.79 238.46 377.9 238.46 377.9 236.73 358.79 236.95"/><polygon class="cls-2" points="358.22 236.68 358.22 238.29 339.11 238.29 339.11 236.56 358.22 236.68"/><polygon class="cls-2" points="367.71 228.29 378.76 228.29 379.7 139.75 347.86 145.25 348.02 228.23 358.65 228.23 362.05 173.12 360.77 161.02 367.71 228.29"/><path class="cls-9" d="M359.51,93.06s.75,7.86.12,8.73-4.39,2.68-4.39,2.68l6.21,17.69,13-1.26.84-13.31s-5.93-4.83-6.29-5.83c-.5-1.37-.5-8.71-.5-8.71Z"/><path class="cls-2" d="M361.2,122.56l-6.42-19,.39-.09a11,11,0,0,0,4.16-1.91c.34-.5.17-4.71-.19-8.48a.37.37,0,1,1,.73-.07c.18,1.88.71,8.07.05,9s-3.2,1.56-4.31,1.85l6.09,17.91,12.4-1.2.81-12.81c-1.27-1-5.9-4.87-6.26-5.87-.51-1.42-.52-8.53-.52-8.84a.37.37,0,0,1,.73,0c0,2,.09,7.51.47,8.59.22.62,3.75,3.69,6.18,5.67l.15.12v.19l-.86,13.62Z"/><path class="cls-2" d="M361.85,77.51c-1.63.19-5.58.61-5.54,3.52a75.36,75.36,0,0,0,1,9.83,1.81,1.81,0,0,0,1.81,1.52l10-.12a1.81,1.81,0,0,0,1.78-1.63c.31-3.08.92-9.61.55-10.59C370.19,76.72,364.43,77.21,361.85,77.51Z"/><path class="cls-9" d="M368.4,94.44c.53-.57.72-2.8.76-5.34a.21.21,0,0,1,.1-.18,3,3,0,0,0,1.55-2.51c0-1.09-.82-.85-1.44-.49a.17.17,0,0,1-.25-.15c-.09-3.06-.29-5.74-.29-5.74l-11.92.14s.06,2.73.21,5.79c0,.14.6,7.43.89,8.09a2,2,0,0,0,.87.89s.77.62,5.1.56Z"/><path class="cls-2" d="M363.47,95.89c-3.61,0-4.58-.48-4.79-.63a2.38,2.38,0,0,1-1-1c-.34-.75-.92-8.15-.92-8.22-.15-3-.21-5.77-.21-5.8v-.37l12.63-.15,0,.34s.19,2.54.28,5.45a1.3,1.3,0,0,1,1.19-.09,1.13,1.13,0,0,1,.5,1,3.29,3.29,0,0,1-1.65,2.79c-.06,4.17-.51,5.14-.85,5.5a.37.37,0,0,1-.54-.5c.18-.19.61-1.07.66-5.09a.58.58,0,0,1,.28-.49,2.62,2.62,0,0,0,1.38-2.18c0-.27-.07-.39-.12-.42s-.31,0-.76.23a.53.53,0,0,1-.52,0,.54.54,0,0,1-.28-.46c-.07-2.38-.21-4.56-.26-5.38l-11.2.14c0,.85.08,3,.2,5.41,0,.51.61,7.38.86,8a1.68,1.68,0,0,0,.72.72l0,0s.87.53,4.87.48a.37.37,0,1,1,0,.73Zm6.05-6.78h0Zm0-3.34h0Z"/><path class="cls-2" d="M364.8,87.52a.62.62,0,0,1-.62-.59l0-.25a.62.62,0,1,1,1.25-.08l0,.25a.62.62,0,0,1-.58.66Z"/><path class="cls-2" d="M359.32,87.6a.62.62,0,0,1-.62-.61V86.7a.62.62,0,0,1,1.25,0V87a.62.62,0,0,1-.61.64Z"/><path class="cls-2" d="M363.88,85.56a.5.5,0,0,1-.21-1,3.36,3.36,0,0,1,2.46-.07.5.5,0,1,1-.36.93,2.38,2.38,0,0,0-1.67,0A.5.5,0,0,1,363.88,85.56Z"/><path class="cls-2" d="M363.6,91c.19.28-.76,1.24-1.87,1.2-1.82-.06-2.4-1.3-2-1.22a5.5,5.5,0,0,0,1.93.41C362.87,91.46,363.47,90.86,363.6,91Z"/><path class="cls-2" d="M361.62,90.3h-.08c-.36-.07-1.21-.31-1.33-.91-.09-.44,0-.57.44-1.84l.36-1a3.27,3.27,0,0,0,.13-1.1,2.87,2.87,0,0,0-2.39,0,.42.42,0,0,1-.44-.72,3.77,3.77,0,0,1,3-.16.94.94,0,0,1,.62.63,3.91,3.91,0,0,1-.14,1.56v0l-.37,1C361,89,361,89,361,89.19a1.7,1.7,0,0,0,.67.27.42.42,0,0,1-.08.83Z"/><path class="cls-10" d="M375,154.48a.41.41,0,0,0,.47-.68l-1.64-1.14h0l-5-3.5a.41.41,0,0,0-.47.68l4.88,3.38,1.63,73.12a.41.41,0,0,0,.41.4h0a.41.41,0,0,0,.4-.42L374,153.82Z"/><path class="cls-10" d="M362.46,173.05l-2-11.84v-.06a.41.41,0,0,0-.05-.22l-.49-2.88v-7.2a.41.41,0,1,0-.83,0v7.27l.53,3.14L356,226.32a.41.41,0,0,0,.39.44h0a.41.41,0,0,0,.41-.39l3.37-61.42,1.4,8.24a.41.41,0,0,0,.41.34h.07A.41.41,0,0,0,362.46,173.05Z"/><path class="cls-2" d="M346.78,169.64h0c-.29,0-.54-.11-1-1.13-.31-.49-2.83-4.6-3.26-6.16-.27-1,.27-4.85.39-5.69l1.75-31.87,7.79,2.6-.08.47c-1.92,11.1-4.77,27.94-4.78,28.86a9.65,9.65,0,0,0,1.43,2.59c1,1.46,1.47,2.25,1.36,2.84a.72.72,0,0,1-.48.57c-.22.07-.75.24-2.81-1.58a9.93,9.93,0,0,0-.14,2c.18,1.17.75,5.07.44,6A.62.62,0,0,1,346.78,169.64Zm-2.17-9.43a.56.56,0,0,1,.56.54,6.68,6.68,0,0,1,0,.8,5,5,0,0,0,.08,1.72,33.88,33.88,0,0,0,1,3.47c-.09-1-.24-2.16-.43-3.41a16.4,16.4,0,0,1,.3-3.39l.18-1,.75.72a21.59,21.59,0,0,0,1.8,1.55c-.24-.4-.55-.87-.8-1.24-1-1.47-1.61-2.48-1.62-3.21,0-1.15,4-24.15,4.72-28.58l-5.5-1.84L344,156.78v0a27.42,27.42,0,0,0-.42,5.25,7.87,7.87,0,0,0,.5,1.2,6.41,6.41,0,0,1,0-1.8,5.84,5.84,0,0,0,0-.67.56.56,0,0,1,.54-.58Z"/><path class="cls-9" d="M381.5,168.93s2.79-4.49,3.22-6.05c.26-1-.41-5.48-.41-5.48l-1.71-31.17L376,128.46s4.8,27.76,4.79,29-2.95,4.51-2.8,5.33,3.13-2,3.13-2a17,17,0,0,1,.3,3.21c-.23,1.47-.7,5-.46,5.78.18.58,1.49-2.83,2.17-5.62a9.68,9.68,0,0,0,.06-2.62Z"/><path class="cls-2" d="M381,170.32a.62.62,0,0,1-.59-.45c-.31-1,.26-4.86.44-6a9.92,9.92,0,0,0-.14-2c-2.06,1.83-2.59,1.65-2.81,1.58a.72.72,0,0,1-.48-.57c-.11-.59.39-1.38,1.36-2.84a9.63,9.63,0,0,0,1.43-2.6c0-.91-2.86-17.76-4.78-28.85l-.08-.47,7.79-2.6,1.75,31.87c.12.83.66,4.68.39,5.69-.42,1.55-3,5.67-3.26,6.16-.46,1-.71,1.12-1,1.13Zm.47-10.74.18,1a16.4,16.4,0,0,1,.3,3.39c-.19,1.25-.34,2.45-.43,3.41a33.88,33.88,0,0,0,1-3.47,5.05,5.05,0,0,0,.08-1.72,6.63,6.63,0,0,1,0-.8.56.56,0,0,1,1.11,0,5.8,5.8,0,0,0,0,.67,6.42,6.42,0,0,1,0,1.8,7.88,7.88,0,0,0,.5-1.2,27.42,27.42,0,0,0-.42-5.25v-.05L382.09,127l-5.5,1.84c.76,4.43,4.72,27.43,4.72,28.58,0,.72-.64,1.74-1.62,3.21-.24.37-.55.83-.8,1.24a21.52,21.52,0,0,0,1.8-1.55Z"/><polygon class="cls-7" points="371.88 116.52 377.56 156.77 386.26 156.77 385.12 123.41 371.88 116.52"/><path class="cls-2" d="M386.26,157.24h-9.11l-4.85-39a.46.46,0,1,1,.92-.11l4.75,38.2h8.29a.46.46,0,1,1,0,.93Z"/><path class="cls-7" d="M385.05,124.25c.59-1.39-2.47-14.64-4.11-16.07-2.14-1.87-8.18-6.14-10.15-6.42-.48-.07-.23-3.55-1.4-3.59-2.29-.09-8.49.14-10.25,0-.86-.07-.7,3.27-.7,3.27s-1.24.74-2.19,1.21a17.47,17.47,0,0,0-4.24,3,23.86,23.86,0,0,0-5.51,7.57l0,.09v0A35.91,35.91,0,0,0,344,124.68L341.77,156h6.64l.35-4.17h30.67l-2.68-22.28.56-3.53Z"/><path class="cls-2" d="M371.87,79.26a4.07,4.07,0,0,0-2.33-1.16c0-.94-.21-2.81-1.79-2.62-2.09.26-2.29-2-4.26-1.77s-.92.92-2.95,1.44-3-.74-3.6,1-2.16,1.29-2.88,2.47-.52,2.56.46,3S354,83,354.77,84s4.14.9,4.73-.54.91-2.42,2.15-2.49,2.76.65,3.61.39,1.8-1.07,2.32-1a8.75,8.75,0,0,0,.68,2.46c.48.86,1.26,1.51,1,2.72s2.86-.06,2.37-1.48C370.62,81.13,373.14,80.87,371.87,79.26Z"/><path class="cls-2" d="M322.74,99.46s-2.13-3.56.69-5.42c.76-.5,1-2.84,1.43-4.4.35-1.17,5.3-7,12.15-5.22,3.32.86,5.55,1.86,6.77,5,.71,1.83.26,2.83,1.9,5,1.2,1.6,1.93,1.09,2.5,2,1.35,2.09.62,5.56-.88,6.55s1.1,2.5,0,4.44-6.51,2.24-7.69-.35-2-1.12-4-1.07-4.21,1.36-5.62,1-1.65-1.72-3.41-2.13c-.84-.2-2.6,1-3.35.95S320.5,101.74,322.74,99.46Z"/><polygon class="cls-9" points="319.61 170.43 322.02 234.79 327.45 234.79 330.65 171.09 319.61 170.43"/><path class="cls-2" d="M327.82,235.18h-6.16v-.37L319.22,170l11.84.71,0,.38Zm-5.42-.76h4.7l3.16-63L320,170.84Z"/><path class="cls-3" d="M321.46,232.47s-8.72,2.33-8.72,4.22l.1,1.67h14.47l.22-4.38S322.24,234.9,321.46,232.47Z"/><path class="cls-5" d="M327.68,238.73H312.49l-.12-2c0-2,6.89-4,9-4.61l.35-.09.11.35c.56,1.74,4.27,1.49,5.65,1.25l.47-.08ZM313.21,238H327l.18-3.55c-1.3.16-4.9.42-5.9-1.49-4,1.09-8.11,2.8-8.11,3.76Z"/><rect class="cls-2" x="330.75" y="237.52" width="15.49" height="0.86"/><polygon class="cls-9" points="336.04 171.12 337.58 235.03 343.39 235.14 346.99 169.87 336.04 171.12"/><path class="cls-2" d="M343.75,235.53l-6.54-.12V235l-1.55-64.26,11.74-1.35Zm-5.8-.87,5.08.09,3.55-64.46-10.15,1.17Z"/><path class="cls-3" d="M337.69,231.88s-8.2,2.33-8.2,4.22l.1,1.67H343.2l.21-4.38S338.43,234.31,337.69,231.88Z"/><path class="cls-5" d="M343.56,238.15H329.24l-.12-2c0-2.1,7.06-4.21,8.47-4.61l.36-.1.11.36c.52,1.72,4,1.48,5.28,1.24l.47-.09ZM330,237.38h12.88l.17-3.55c-1.25.16-4.59.4-5.54-1.49-3.71,1.09-7.59,2.8-7.59,3.76Z"/><polygon class="cls-9" points="338.83 118.66 338.45 111.69 330.89 111.69 328.67 119.81 338.83 118.66"/><path class="cls-9" d="M338.62,99.81s-.36,8.84,0,9.31c1.16,1.59,4.58,3,5.36,3.2s-12.78,5.38-12.78,5.38l-6.51-3.19,2.51-2.26a14.53,14.53,0,0,0,3-2c.93-1,1.38-10,1.38-10Z"/><path class="cls-2" d="M331.16,118.12,324,114.61l3-2.68,0,0a14.25,14.25,0,0,0,2.93-1.94c.52-.53,1.05-5.36,1.27-9.71l0-.34,7.79-.52,0,.42a83.6,83.6,0,0,0-.07,9.1c1.08,1.44,4.26,2.8,5.13,3a.41.41,0,0,1,.31.38c0,.36,0,.56-6.64,3.22-3.17,1.27-6.39,2.5-6.42,2.51Zm-5.82-3.7,5.85,2.87c4-1.53,10.06-3.92,11.94-4.85-1.34-.52-3.86-1.73-4.85-3.1-.27-.37-.29-3.44-.07-9.12l-6.27.42c-.11,2.08-.55,8.91-1.47,9.86a14.34,14.34,0,0,1-3.09,2.07Z"/><path class="cls-9" d="M338.51,101.26c1-.69,2.86-2.08,2.91-3.45s-1.5-1.2-2-1c-.32.14,0-6.66,0-6.66l-10.53-.56s-1.56,5.85-1.18,9.61,2.11,4.75,4.86,4.87a6.42,6.42,0,0,0,3.27-.67Z"/><path class="cls-2" d="M332.94,104.47h-.36c-3.35-.15-4.86-1.66-5.22-5.22-.38-3.78,1.13-9.51,1.19-9.75l.08-.3,11.22.6,0,.38c-.12,2.49-.18,5.23-.12,6.17a2.07,2.07,0,0,1,1.52.22,1.35,1.35,0,0,1,.57,1.25c-.05,1.44-1.7,2.84-3.08,3.75a.38.38,0,0,1-.42-.64C340,99.81,341,98.66,341,97.8a.6.6,0,0,0-.24-.59,1.51,1.51,0,0,0-1.2,0l-.19.09-.2-.12c-.2-.13-.44-.3-.16-6.62L329.21,90c-.31,1.23-1.41,6-1.1,9.18.36,3.62,2,4.42,4.49,4.53a6.13,6.13,0,0,0,3.08-.62.38.38,0,0,1,.35.68A6.75,6.75,0,0,1,332.94,104.47Z"/><path class="cls-2" d="M324,137l-11.45,32.92s3.36,3.54,5.22,3.72a44.44,44.44,0,0,0,10.73-.8c1.78-.36,10.11,1.29,13.24,1.1,8.15-.5,10.92-4,10.92-4l-7.56-27.68-1.38-4.77Z"/><path class="cls-10" d="M342.16,174.36a.41.41,0,0,1,0-.83c6.92-.42,9.85-3.06,10.48-3.71l-7.5-27.46-1.37-4.76a.41.41,0,1,1,.79-.23l1.38,4.77L353.53,170l-.13.16c-.12.15-3,3.67-11.22,4.18Z"/><path class="cls-10" d="M322.35,145.46a.41.41,0,0,1-.28-.72l4.43-4.07a.41.41,0,0,1,.56.61l-4.43,4.07A.41.41,0,0,1,322.35,145.46Z"/><path class="cls-3" d="M319.06,113.58c-4.61,4.59-2.68,41.18-2.68,41.18l6,.17,1.47-17.55,19.87.12,0,19.28h5.74s5.35-37.51-.1-43.12A7.87,7.87,0,0,0,344,111.5c-2.71,0-7.73.94-17.62-.5C324.75,110.77,320,112.64,319.06,113.58Z"/><path class="cls-5" d="M349.8,157.15h-6.45l0-19.28-19.14-.11-1.47,17.56-6.68-.19,0-.35c-.08-1.5-1.89-36.82,2.79-41.47h0c1-1,5.87-2.93,7.64-2.67a66.08,66.08,0,0,0,15.3.6c.88-.06,1.65-.11,2.27-.11a8.3,8.3,0,0,1,5.65,2.26c5.52,5.67.42,41.9.21,43.44Zm-5.69-.76h5c.51-3.7,5-37.34,0-42.47a7.51,7.51,0,0,0-5.1-2c-.61,0-1.35,0-2.22.11a66.7,66.7,0,0,1-15.46-.6c-1.5-.22-6.17,1.64-7,2.46-4.2,4.18-2.77,36.78-2.59,40.54l5.26.15L323.46,137l20.6.12Z"/><path class="cls-9" d="M348.46,162.5c.21-.75-.62-4.41-.62-4.41l.19-1.32h-2.78a9.34,9.34,0,0,1,.07,1.41c0,.94-2.33,3.56-2.21,4.21s2.47-1.61,2.47-1.61a13.4,13.4,0,0,1,.24,2.53,32,32,0,0,0-.26,4,.27.27,0,0,0,.51.13A42.78,42.78,0,0,0,348.46,162.5Z"/><path class="cls-2" d="M345.84,168l-.16,0a.64.64,0,0,1-.5-.63,32.24,32.24,0,0,1,.26-4.09,8.45,8.45,0,0,0-.12-1.71c-1.67,1.5-2.09,1.36-2.24,1.31a.51.51,0,0,1-.34-.4c-.08-.45.31-1.06,1.07-2.2a7.34,7.34,0,0,0,1.14-2.08,9.2,9.2,0,0,0-.07-1.35l-.07-.44h3.67l-.25,1.69c.17.76.81,3.75.6,4.53a42,42,0,0,1-2.42,5A.64.64,0,0,1,345.84,168Zm0-8,.12.7a12.9,12.9,0,0,1,.24,2.66,32.15,32.15,0,0,0-.25,3.51,34.62,34.62,0,0,0,2.14-4.49h0a19.38,19.38,0,0,0-.63-4.23l0-.07.14-1h-1.92c0,.24,0,.59,0,1a6.12,6.12,0,0,1-1.26,2.5c-.24.37-.57.85-.77,1.22a15.4,15.4,0,0,0,1.65-1.39Z"/><path class="cls-9" d="M317.25,160.48c-.21-.75.62-4.41.62-4.41l-.13-1.27,2.73.08a5.87,5.87,0,0,0-.08,1.28c0,.94,2.33,3.56,2.21,4.21s-2.47-1.61-2.47-1.61a13.4,13.4,0,0,0-.24,2.53,32.09,32.09,0,0,1,.26,4,.27.27,0,0,1-.51.13A42.78,42.78,0,0,1,317.25,160.48Z"/><path class="cls-2" d="M319.86,166a.64.64,0,0,1-.57-.35,42,42,0,0,1-2.42-5h0c-.21-.78.44-3.79.6-4.54l-.17-1.64,3.64.11-.12.46h0a6,6,0,0,0-.07,1.18,7.34,7.34,0,0,0,1.14,2.08c.73,1.11,1.15,1.75,1.07,2.2a.51.51,0,0,1-.34.4c-.15,0-.58.19-2.24-1.31a8.45,8.45,0,0,0-.12,1.71,32.34,32.34,0,0,1,.26,4.09.64.64,0,0,1-.5.63Zm-2.25-5.59a34.61,34.61,0,0,0,2.14,4.49,32.3,32.3,0,0,0-.25-3.51,12.9,12.9,0,0,1,.24-2.66l.12-.7.52.49a15.4,15.4,0,0,0,1.65,1.39c-.2-.36-.53-.85-.77-1.22a6.12,6.12,0,0,1-1.26-2.5c0-.4,0-.7,0-.92l-1.87-.06.09.9v.06a19.41,19.41,0,0,0-.63,4.23Z"/><path class="cls-2" d="M330,96.8h-.08a.64.64,0,0,1-.55-.71l0-.34a.64.64,0,1,1,1.26.17l0,.34A.64.64,0,0,1,330,96.8Z"/><path class="cls-2" d="M334.69,97h-.08a.64.64,0,0,1-.55-.71l0-.34a.64.64,0,0,1,1.26.17l0,.34A.64.64,0,0,1,334.69,97Z"/><path class="cls-2" d="M336.26,95.35a.38.38,0,0,1-.2-.06,2.31,2.31,0,0,0-1.64-.27.38.38,0,0,1-.19-.74,3.09,3.09,0,0,1,2.23.36.38.38,0,0,1-.2.71Z"/><path class="cls-2" d="M331.55,99h-.1c-.24-.06-1.33-.62-1.27-1.4a1.35,1.35,0,0,1,.34-.71,2.51,2.51,0,0,0,.4-.68c.31-.83.25-1.07.22-1.12s-.09-.07-.22-.11l-.09,0a4,4,0,0,0-1.65.07.38.38,0,0,1-.17-.74,4.66,4.66,0,0,1,2.08,0l.08,0a1,1,0,0,1,.66.51,2.32,2.32,0,0,1-.19,1.71,3.25,3.25,0,0,1-.5.88c-.12.16-.18.24-.19.32s.49.52.71.6a.38.38,0,0,1,.27.46A.38.38,0,0,1,331.55,99Z"/><polygon class="cls-3" points="343.7 111.77 340.33 108.95 333.06 111.61 335.26 114.43 343.7 111.77"/><path class="cls-5" d="M335.12,114.88l-2.69-3.45,8-2.92,4.07,3.41Zm-1.44-3.09,1.72,2.2,7.53-2.37-2.67-2.24Z"/><polygon class="cls-3" points="325.13 111.42 327.64 108.95 333.06 111.61 330.89 114.06 325.13 111.42"/><path class="cls-5" d="M331,114.53l-6.52-3,3.1-3.06,6.1,3Zm-5.2-3.22,5,2.29,1.65-1.87-4.72-2.32Z"/><path class="cls-2" d="M343.73,143.23h0a.4.4,0,0,1-.39-.41l.53-17.75a.4.4,0,0,1,.8,0l-.53,17.75A.4.4,0,0,1,343.73,143.23Z"/><path class="cls-2" d="M329.91,99.57c-.17.19.65,1.73,1.37,1.73,1.82,0,2.45-2.06,2-1.86a4.35,4.35,0,0,1-2,.42C330.2,99.78,330.11,99.36,329.91,99.57Z"/><path class="cls-2" d="M332.66,137.61h0a.38.38,0,0,1-.38-.39l.38-25.16a.38.38,0,0,1,.38-.38h0a.38.38,0,0,1,.38.39L333,137.23A.38.38,0,0,1,332.66,137.61Z"/><path class="cls-2" d="M328,89.6s9.6,2.75,11.28,7.46a2.66,2.66,0,0,1,1-.19,1.28,1.28,0,0,1,.74.26l-.29-7.82Z"/><path class="cls-2" d="M349.47,157.15h-6.12V142.83a.38.38,0,0,1,.76,0v13.56h5.36a.38.38,0,0,1,0,.76Z"/><path class="cls-10" d="M342.42,145.46a.41.41,0,0,1-.24-.08l-5.57-4.07a.41.41,0,0,1,.49-.67l5.57,4.07a.41.41,0,0,1-.24.75Z"/><path class="cls-5" d="M323.82,137.75h0a.38.38,0,0,1-.36-.4l.81-13.22a.38.38,0,0,1,.76,0l-.81,13.22A.38.38,0,0,1,323.82,137.75Z"/><path class="cls-2" d="M289.27,82.31H205.54a4.85,4.85,0,0,1-4.85-4.85h0a4.85,4.85,0,0,1,4.85-4.85h83.73a4.85,4.85,0,0,1,4.85,4.85h0A4.85,4.85,0,0,1,289.27,82.31Z"/><path class="cls-6" d="M304.16,19.13a17.59,17.59,0,0,0-14.9-17.38V1.54H222.05a17.14,17.14,0,0,0-17.14,17.14V77.46h84.36V32.23h14.9Z"/><path class="cls-5" d="M289.65,77.84H204.53V18.68A17.54,17.54,0,0,1,222.05,1.16h67.6v.26a18,18,0,0,1,14.9,17.71V32.62h-14.9Zm-84.36-.76h83.59V31.85h14.9V19.13a17.32,17.32,0,0,0-14.57-17l-.32,0V1.93H222.05a16.78,16.78,0,0,0-16.76,16.76Z"/><path class="cls-5" d="M283.4,32.62H233.07V15.5c0-6.56-5.64-11.9-12.58-11.9a.38.38,0,0,1,0-.76c7.36,0,13.35,5.68,13.35,12.67V31.85H283.4a.38.38,0,0,1,0,.76Z"/><path class="cls-5" d="M427,238.84H-9a.38.38,0,0,1-.38-.38.38.38,0,0,1,.38-.38H427a.38.38,0,0,1,0,.76Z"/></svg>