<svg xmlns="http://www.w3.org/2000/svg" xmlns:xlink="http://www.w3.org/1999/xlink" viewBox="0 0 400 240"><defs><style>.cls-1{isolation:isolate;}.cls-2{fill:url(#linear-gradient);}.cls-3{fill:url(#linear-gradient-2);}.cls-4{fill:#c59954;opacity:0.24;mix-blend-mode:multiply;}.cls-5{fill:#f7e5c1;}.cls-6{fill:url(#linear-gradient-3);}.cls-7{fill:url(#linear-gradient-4);}.cls-8{fill:url(#linear-gradient-5);}.cls-9{fill:url(#linear-gradient-6);}.cls-10{fill:url(#linear-gradient-7);}.cls-11{fill:url(#linear-gradient-8);}.cls-12{fill:url(#linear-gradient-9);}.cls-13{fill:url(#linear-gradient-10);}.cls-14{fill:url(#linear-gradient-11);}.cls-15{fill:url(#linear-gradient-12);}.cls-16{fill:#fafafa;}.cls-17{fill:#df635a;}.cls-18{fill:#757ac2;}.cls-19{fill:#404347;}.cls-20{fill:#bdbdbd;}.cls-21{fill:#565a8d;}.cls-22{fill:#dba585;}.cls-23{fill:#3e4148;}.cls-24{fill:#363957;}.cls-25{fill:#dba686;}.cls-26{fill:#1f2531;}.cls-27{fill:#4a5c82;}.cls-28{fill:#6783ca;}.cls-29{fill:#474442;}.cls-30{fill:#997761;}.cls-31{fill:#e7b96b;}.cls-32{fill:#e09637;}.cls-33{fill:#f7f7f7;mix-blend-mode:soft-light;}.cls-34{fill:#3a4965;}.cls-35{fill:#5871ab;}.cls-36{fill:#2c3d54;}.cls-37{fill:#e6d8d1;}.cls-38{fill:#dcac92;}.cls-39{fill:#334862;}.cls-40{fill:#e8b79a;}.cls-41{fill:#3a5271;}.cls-42{fill:#20313f;}.cls-43{fill:#c99a7d;}.cls-44{fill:#a84848;}.cls-45{fill:#f8e9e1;}.cls-46{fill:#61534b;}</style><linearGradient id="linear-gradient" x1="-44.15" y1="214.99" x2="380.61" y2="17.44" gradientUnits="userSpaceOnUse"><stop offset="0" stop-color="#aa4966"/><stop offset="1" stop-color="#dc3b57"/></linearGradient><linearGradient id="linear-gradient-2" x1="316.77" y1="32.04" x2="-23.15" y2="227.94" gradientUnits="userSpaceOnUse"><stop offset="0" stop-color="#eebe63"/><stop offset="1" stop-color="#dc3b57"/></linearGradient><linearGradient id="linear-gradient-3" x1="98.89" y1="219.42" x2="160.86" y2="219.42" gradientUnits="userSpaceOnUse"><stop offset="0" stop-color="#e59148"/><stop offset="1" stop-color="#f1cc52"/></linearGradient><linearGradient id="linear-gradient-4" x1="101.15" y1="211.89" x2="163.12" y2="211.89" gradientUnits="userSpaceOnUse"><stop offset="0" stop-color="#db843a"/><stop offset="1" stop-color="#e4c04c"/></linearGradient><linearGradient id="linear-gradient-5" x1="99.89" y1="204.37" x2="161.85" y2="204.37" xlink:href="#linear-gradient-3"/><linearGradient id="linear-gradient-6" x1="101.15" y1="196.85" x2="163.12" y2="196.85" xlink:href="#linear-gradient-4"/><linearGradient id="linear-gradient-7" x1="102.21" y1="189.32" x2="164.18" y2="189.32" xlink:href="#linear-gradient-3"/><linearGradient id="linear-gradient-8" x1="100.27" y1="181.8" x2="162.23" y2="181.8" xlink:href="#linear-gradient-4"/><linearGradient id="linear-gradient-9" x1="98.89" y1="174.28" x2="160.86" y2="174.28" xlink:href="#linear-gradient-3"/><linearGradient id="linear-gradient-10" x1="101.42" y1="166.75" x2="163.39" y2="166.75" xlink:href="#linear-gradient-4"/><linearGradient id="linear-gradient-11" x1="103.8" y1="226.63" x2="165.77" y2="226.63" xlink:href="#linear-gradient-4"/><linearGradient id="linear-gradient-12" x1="861.53" y1="-1320.61" x2="923.77" y2="-1320.61" gradientTransform="matrix(0.98, 0.2, -0.2, 0.98, -997.23, 1278.42)" xlink:href="#linear-gradient-3"/></defs><title>eligibitlity</title><g class="cls-1"><g id="Layer_1" data-name="Layer 1"><polygon class="cls-2" points="306.42 45.65 306.42 55.73 323.95 55.73 275.13 104.54 247.42 76.82 192.49 131.75 156.43 95.7 143.3 108.83 123.03 88.56 82.24 129.35 70.12 117.22 57.4 117.22 1.86 172.77 8.1 179.01 61.06 126.05 66.47 126.05 82.24 141.83 123.03 101.04 143.3 121.31 156.43 108.18 192.49 144.24 247.42 89.31 275.13 117.02 330.19 61.97 330.19 79.5 340.27 79.5 340.27 45.64 306.42 45.65"/><path class="cls-3" d="M199.53,55.38l20.15-38.8h0s1.2-9.38-8.6-9.38-11.65,9.38-17.21,9.38-4-9.38-12.71-9.38-10.85,9.38-19.59,9.38-3.18-9.38-14-9.38a14.22,14.22,0,0,0-13.77,9.38h0l20.15,38.8C115.52,66,87.21,102.8,87.21,146.57c0,52.07,37.91,70.9,87.35,70.9,23.78,0,45.9-4.36,62.45-14.68h0c17.85-11.13,29.22-29.2,29.22-56.21C266.22,102.8,237.91,66,199.53,55.38Z"/><path class="cls-4" d="M237,202.78c-16.55,10.32-38.66,14.68-62.45,14.68-49.43,0-87.35-18.83-87.35-70.9,0-43.76,28.31-80.56,66.7-91.18l-20.15-38.8a14.22,14.22,0,0,1,13.77-9.38c10.86,0,5.3,9.38,14,9.38a53.29,53.29,0,0,1,5.5,11.27,48.57,48.57,0,0,1,2.5,24.74,41.1,41.1,0,0,1-1.33,5.35c-1.16,3.61-2.33,10.37-3.1,19.07C161.32,120.55,167.69,212.74,237,202.78Z"/><path class="cls-5" d="M176.18,59.16a81.88,81.88,0,0,1-24.45-3.57l.57-3.29c33.27,6.13,50.07-2.54,50.19-2.63l.29,3.85C202.38,53.8,194.24,59.16,176.18,59.16Z"/><path class="cls-5" d="M162.29,56.09c-3.34,0-6.82-.15-10.42-.49l.33-3.51A111.09,111.09,0,0,0,189,49.31,128.17,128.17,0,0,0,205.43,44l-2.32,4.47c-.23.11-3.76,1.89-13.15,4.23A115.58,115.58,0,0,1,162.29,56.09Z"/><path class="cls-5" d="M203.17,48.51s3.65-1.27,2.21-4.53C205.38,44,202.23,47.53,203.17,48.51Z"/><path class="cls-5" d="M202.5,49.66s2.07,1.29.29,3.85C202.79,53.51,201.25,52.52,202.5,49.66Z"/><path class="cls-5" d="M152.21,52.08a2.16,2.16,0,0,0-.47,3.5S154.73,55,152.21,52.08Z"/><path class="cls-5" d="M83.17,117.65l-.32-3.18c29.11-2.94,40.68-10.92,45.87-31.66a59.28,59.28,0,0,1,6.65-16.54A36.12,36.12,0,0,1,143.3,57c5.18-4.2,9.42-4.67,9.61-4.7l.56,3s-3.81.61-8.33,4.35c-4.21,3.48-9.93,10.46-13.31,24-2.87,11.5-7.85,19.3-15.65,24.57C108.73,113.17,98.55,116.1,83.17,117.65Z"/><path class="cls-5" d="M99.77,91.39a7.88,7.88,0,0,1-3.1-.52L98,88h0s2.26.87,6.57-.72c4.11-1.52,10.92-5.6,20-16.41,19.06-22.67,31-18.29,31.53-18.1l-1.17,3h0s-2.59-.89-7.23.7c-4.4,1.51-11.56,5.6-20.7,16.47-7.88,9.37-15.24,15.27-21.88,17.54A16.56,16.56,0,0,1,99.77,91.39Z"/><rect class="cls-6" x="98.89" y="215.66" width="61.97" height="7.52"/><rect class="cls-7" x="101.15" y="208.13" width="61.97" height="7.52"/><rect class="cls-8" x="99.89" y="200.61" width="61.97" height="7.52"/><rect class="cls-9" x="101.15" y="193.09" width="61.97" height="7.52"/><rect class="cls-10" x="102.21" y="185.56" width="61.97" height="7.52"/><rect class="cls-11" x="100.27" y="178.04" width="61.97" height="7.52"/><rect class="cls-12" x="98.89" y="170.52" width="61.97" height="7.52"/><rect class="cls-13" x="101.42" y="162.99" width="61.97" height="7.52"/><rect class="cls-14" x="103.8" y="222.87" width="61.97" height="7.52"/><rect class="cls-15" x="107.09" y="155.79" width="61.97" height="7.52" transform="translate(3.86 -3.26) rotate(1.37)"/><path class="cls-16" d="M241.33,67.93c0-4.34-4.39-7.86-9.81-7.86a12,12,0,0,0-3.49.51,10,10,0,0,0-18.67,1.2,7.27,7.27,0,0,0-2.58-.47,6.79,6.79,0,0,0-7,6.62Z"/><path class="cls-16" d="M160.22,35c0-3.45-3.5-6.26-7.81-6.26a9.5,9.5,0,0,0-2.78.41,7.94,7.94,0,0,0-14.86,1,5.81,5.81,0,0,0-2.05-.37A5.41,5.41,0,0,0,127.18,35Z"/><rect class="cls-17" x="241.61" y="33.35" width="27.48" height="3.35"/><rect class="cls-17" x="235.86" y="41.79" width="27.48" height="3.35"/><path class="cls-18" d="M87.66,153.56s2.77.73,2.83.47.51-2,.51-2a16.64,16.64,0,0,0-3.34-.6Z"/><path class="cls-19" d="M92.14,155.55a7.66,7.66,0,0,1-1.59-1.74,6.88,6.88,0,0,1-2.89-.43s-1.34,3.61-1,4.24,2.09.5,5.67,1c5,.68,4.58-.81,4.24-1.2C96.09,156.84,93,156.11,92.14,155.55Z"/><rect class="cls-20" x="27.77" y="165.67" width="133.51" height="1.27" transform="translate(-80.14 244.32) rotate(-84.46)"/><rect class="cls-20" x="7.28" y="163.68" width="133.51" height="1.27" transform="translate(-96.66 222.15) rotate(-84.47)"/><rect class="cls-20" x="89.9" y="90.94" width="1.27" height="20.59" transform="matrix(0.1, -1, 1, 0.1, -18.97, 181.57)"/><rect class="cls-20" x="88.98" y="100.47" width="1.27" height="20.59" transform="translate(-29.28 189.26) rotate(-84.46)"/><rect class="cls-20" x="88.05" y="110" width="1.27" height="20.59" transform="translate(-39.61 196.94) rotate(-84.46)"/><rect class="cls-20" x="87.13" y="119.52" width="1.27" height="20.59" transform="translate(-49.93 204.63) rotate(-84.46)"/><rect class="cls-20" x="86.2" y="129.05" width="1.27" height="20.59" transform="translate(-60.24 212.32) rotate(-84.46)"/><rect class="cls-20" x="85.28" y="138.58" width="1.27" height="20.59" transform="translate(-70.57 220) rotate(-84.46)"/><rect class="cls-20" x="84.35" y="148.11" width="1.27" height="20.59" transform="translate(-80.88 227.69) rotate(-84.46)"/><rect class="cls-20" x="83.43" y="157.64" width="1.27" height="20.59" transform="translate(-91.2 235.38) rotate(-84.46)"/><rect class="cls-20" x="82.5" y="167.16" width="1.27" height="20.59" transform="translate(-101.52 243.07) rotate(-84.46)"/><rect class="cls-20" x="81.58" y="176.69" width="1.27" height="20.59" transform="translate(-111.84 250.76) rotate(-84.46)"/><rect class="cls-20" x="80.65" y="186.22" width="1.27" height="20.59" transform="translate(-122.16 258.44) rotate(-84.46)"/><rect class="cls-20" x="79.73" y="195.75" width="1.27" height="20.59" transform="matrix(0.1, -1, 1, 0.1, -132.48, 266.12)"/><rect class="cls-20" x="78.8" y="205.28" width="1.27" height="20.59" transform="translate(-142.79 273.82) rotate(-84.46)"/><rect class="cls-20" x="78.8" y="205.28" width="1.27" height="20.59" transform="translate(-142.79 273.82) rotate(-84.46)"/><rect class="cls-20" x="77.88" y="214.8" width="1.27" height="20.59" transform="translate(-153.11 281.5) rotate(-84.46)"/><path class="cls-21" d="M97,124.92c-.53-2.68-2.55-10.17-2.55-10.17-1.49-2.39-15.08-1-15.08-1,1.1,7.52,5.2,7.62,7,11.67s2.09,3.91,4.36,8.83c1.53,3.31-4.33,18.2-4.33,18.2l5.55.89c.63-2.58,6.72-16.89,6.59-18.37S97.44,127.25,97,124.92Z"/><path class="cls-22" d="M84.56,78.33a3.69,3.69,0,0,0-2.3,3.13,14,14,0,0,0,1.77,6c1,1.76,3.74,2.12,5.6,1.43s2-6.31.32-9.11S84.56,78.33,84.56,78.33Z"/><path class="cls-22" d="M89,88.7s-6.52-5.14-5.77-3a38.44,38.44,0,0,1,1.23,4.89s4.88,0,4.63-.49A3.09,3.09,0,0,1,89,88.7Z"/><path class="cls-23" d="M85.21,77.91s-3.39.93-3.26,2.86.62,4.12,1.37,5.08c0,0,.34.56,1.71.34s3.05-2,3.63-2.25.58-.54.58-.54l.36.53.61,0s-.56-1.64.28-2.3S89.62,76.37,85.21,77.91Z"/><path class="cls-22" d="M87.94,82.45c-.32,1,.47,2.32.92,2.2s.49-1.13.3-1.95C89.07,82.39,88.25,81.46,87.94,82.45Z"/><path class="cls-24" d="M90.55,153.8a6.85,6.85,0,0,1-2.89-.44s-1.34,3.61-1,4.24,2.09.5,5.67,1a16.37,16.37,0,0,0,2.35.17l.21-2.15a16.17,16.17,0,0,1-2.73-1.06A7.66,7.66,0,0,1,90.55,153.8Z"/><path class="cls-18" d="M73.92,161.83s2.77.73,2.83.47.51-2,.51-2a16.61,16.61,0,0,0-3.34-.6Z"/><path class="cls-21" d="M78,122.08c-.28,3.86-.78,8.09-1.18,12.13-.45,4.5-1.72,11.77-1.79,14.18S73,161.32,73,161.32l5.18.6s3.37-18.59,4.16-20.49,4.74-15.45,4.87-17-7.85-10.72-7.85-10.72A58.45,58.45,0,0,0,78,122.08Z"/><path class="cls-24" d="M78.4,163.82a7.69,7.69,0,0,1-1.59-1.74,6.87,6.87,0,0,1-2.89-.44s-1.34,3.61-1,4.24,2.09.5,5.66,1c5,.68,4.58-.81,4.24-1.2C82.35,165.12,79.21,164.38,78.4,163.82Z"/><path class="cls-22" d="M117.61,81.41a1.78,1.78,0,0,0-.46-.86.74.74,0,0,0-.26-.67c-.16-.16-.92-.07-1-.06a4.39,4.39,0,0,0-.91.08l-.12,0a21.77,21.77,0,0,0-2.41,2.75l.36,1,.5,1.27s2.14-.49,2.62-.62a3.44,3.44,0,0,0,1-.52l.18-.09c.24-.11.59-.24.59-.24a1.9,1.9,0,0,0,.45-.41c.15-.31-.22-.76-.22-.76A1.11,1.11,0,0,0,117.61,81.41Z"/><path class="cls-24" d="M78.46,91.76c-.16,0-3.73,6.6-3.36,11a2.17,2.17,0,0,0,1,1.26,1.57,1.57,0,0,0,.84.28h.22l3.83.13S83.8,95.26,78.46,91.76Z"/><path class="cls-24" d="M84.31,89.73l-.26.24s-.51,1,1.42,1.07,5,.23,3.53-1.18C89,89.86,86,89.16,84.31,89.73Z"/><path class="cls-24" d="M95.57,92.32a4.53,4.53,0,0,0-.62-.31l-1-.42C91.77,90.7,89,89.86,89,89.86H84.57a37.53,37.53,0,0,0-5.39,1.5,3.76,3.76,0,0,0-.73.4l.6,12.64h0v0c.27,1.78.56,3.88.65,5.35,0,.6-.65,3.83-1,6.79l-1.25,7.08s.72,2.94,18,.46c.44-.06-1.1-13.22-1-14,.08-.55.07-4.83,0-7.49l.48-2.7a12.27,12.27,0,0,1,1.06-.67c.67-.39,1.51-.83,2.44-1.29-.11-.64-.18-1.14-.21-1.43A5.39,5.39,0,0,0,95.57,92.32Z"/><path class="cls-24" d="M112.42,82.38s-7.13,6.76-8.69,7.59c-1.34.71-8,1.44-9.79,1.62l-.47,0c-1.91,2.6.62,8.81,1.68,8.13a29.37,29.37,0,0,1,3.35-1.86c4.13-2.06,9.22-5.81,10.19-6.35,1.49-.83,6.19-6.58,6.19-6.58C114.65,84.12,112.42,82.38,112.42,82.38Z"/><path class="cls-25" d="M282.73,223s-.06-.64,1.22-1.43l-1.74-1.73a10.76,10.76,0,0,0-2,1.52C279.27,222.34,282.73,223,282.73,223Z"/><path class="cls-25" d="M323.17,222.46a4.84,4.84,0,0,1,.29-2.36l-2.12-.36a6.25,6.25,0,0,0-1.05,2.79C320.38,223.55,323.17,222.46,323.17,222.46Z"/><path class="cls-25" d="M286.73,229.16c0,.6,0,.92-1.78.95s-3.58-2.15-4.8-3.68-2.82-2.26-1.82-3.29l.39-.38c1-.92,2.08-1.82,2.23-2s1.81,2,1.81,2a4.11,4.11,0,0,0,.16,1.76c.29.65.76,3,1.62,3.39h0A9.74,9.74,0,0,1,286.73,229.16Z"/><path class="cls-25" d="M328.63,227.46a63.57,63.57,0,0,0-6.56,0c-1.91.2-2.65-.09-2.52-1.46,0-.07,0-.15,0-.23.17-1.34.71-3,.74-3.58s2.46-.26,2.46-.26a10.53,10.53,0,0,0,2,2.25c.7.38,2.8,1.16,3.61,1.52l.19.07h0c.85.29,2.3.33,2.51.79S329.85,227.48,328.63,227.46Z"/><path class="cls-26" d="M328.63,227.46a63.57,63.57,0,0,0-6.56,0c-1.91.2-2.65-.09-2.52-1.46,0-.07,0-.15,0-.23.46-.32,3.77-.13,5.73.13a8.5,8.5,0,0,0,3.24-.13h0c.85.29,2.3.33,2.51.79S329.85,227.48,328.63,227.46Z"/><path class="cls-26" d="M286.79,229.14c0,.6,0,.95-1.84,1s-3.58-2.15-4.8-3.68-2.82-2.26-1.82-3.29l.39-.38a17.12,17.12,0,0,1,3.17,3.4c1.25,2.29,2.59,1.73,2.65,1.74h0A10.9,10.9,0,0,1,286.79,229.14Z"/><path class="cls-27" d="M331,204c-1.89,3.09-7.5,17.86-7.5,17.86l-4.81-.33s3.06-10.32,4.59-14.14c1.14-2.83,2.79-4.26,1.16-5-1.37-.62-9.64-3.61-13.15-5.36a11.53,11.53,0,0,1-1.09-.6l-.29-.21c-1.63-1.39,1.6-11.65,7.26-8.59,0,0,12.39,9.24,13.36,10.84S332.9,200.92,331,204Z"/><path class="cls-27" d="M316.91,187.33s-7.82,11.77-15,18.23c-2,1.83-3.71,3.34-6.64,5.69-1.56,1.25-4.3,3.86-6.53,6l-.09.09c-1.59,1.55-2.9,2.86-3.3,3.26l0,0,0,0-1.45,1.57-2.21-2a59.74,59.74,0,0,0,3.84-5.62c1.94-3.43,4.82-7.25,6.33-8.38,2.6-1.93,5.15-3.11,6.07-4.88s4.05-8.9,4.05-8.9.53-7.33,5-9.09C311,181.72,316.91,187.33,316.91,187.33Z"/><path class="cls-25" d="M320.61,156.6a4.17,4.17,0,0,0-.47,1.14,10.17,10.17,0,0,0-.25,1.23,14.45,14.45,0,0,0-.13,1.57s-4.77-1.23-3.94-2.32.5-4.51.5-4.51S321.27,155.57,320.61,156.6Z"/><path class="cls-22" d="M323.67,147.44s1.19,1.12.52,4.18a10.53,10.53,0,0,0,.54,2.91c.36.44-1,.55-1.19.85a6.12,6.12,0,0,1-1.49,2.57c-1,.83-5.67-2-5.85-3.46s-3.24-8,2-8.05S323.67,147.44,323.67,147.44Z"/><path class="cls-28" d="M323.1,174.32c-.18.35-.39.71-.61,1.08-.61,1-1.36,2.18-2.26,3.52a10.62,10.62,0,0,0-.65,1,34.3,34.3,0,0,0-2.3,7.21l-.1.48c-6.34.35-13.13-3.55-13.13-3.55a34.61,34.61,0,0,0,5.54-8,14.14,14.14,0,0,0,.64-4.34,19.43,19.43,0,0,1,2.71-10.3,9.25,9.25,0,0,1,2.89-3.22l4,2.22c.5,1.44,2.14,3,3.81,6.52C324.82,169.54,324.66,171.42,323.1,174.32Z"/><path class="cls-29" d="M324.37,150.51s.84-6.37-5.41-5.47-3.32,8-2.57,10.33c0,0,0-3.54,3-3.54A8.17,8.17,0,0,0,324.37,150.51Z"/><path class="cls-25" d="M319,150.91a.86.86,0,0,0-1.53.63c.11,1,1.1,2,1.46,1.56A1.92,1.92,0,0,0,319,150.91Z"/><path class="cls-29" d="M316.62,147s-1.74-1.8-3.1.11,1.34,4.76,2.55,3.18A3.62,3.62,0,0,0,316.62,147Z"/><path class="cls-30" d="M320.14,157.74a10.17,10.17,0,0,0-.25,1.23,7.74,7.74,0,0,1-2.68-3.06,12.31,12.31,0,0,0,2.92,1.83Z"/><circle class="cls-31" cx="364.61" cy="198.75" r="33.52" transform="translate(-49.85 173.06) rotate(-25.05)"/><path class="cls-31" d="M380.59,228.21l-28.34-60.63a33.52,33.52,0,0,1,28.34,60.63Z"/><path class="cls-31" d="M334.24,212.94a33.54,33.54,0,0,1,9.19-40.19L371,231.67A33.53,33.53,0,0,1,334.24,212.94Z"/><circle class="cls-32" cx="364.61" cy="198.75" r="25.48" transform="translate(-49.85 173.07) rotate(-25.05)"/><path class="cls-33" d="M385.22,225.19A33.53,33.53,0,0,0,357.54,166Z"/><path class="cls-33" d="M371,231.67l-27.54-58.92a33.62,33.62,0,0,1,7-4.37q.91-.43,1.84-.79l28.34,60.63q-.87.47-1.79.9A33.58,33.58,0,0,1,371,231.67Z"/><path class="cls-29" d="M315.72,146.41a3,3,0,0,0-2.57-1.18c-1.76,0-3.84,2.79-3.16,6.65a14.5,14.5,0,0,1-4,12.31s6.32-3.68,6.74-8.82,2.23-5.21,2.23-5.21Z"/><path class="cls-22" d="M332.3,183.51s1.69,0,2.09,0a2,2,0,0,0,.9,0c.11-.08.9-1.52,1.17-1.87a24.6,24.6,0,0,0,2-3.5,6.53,6.53,0,0,0-3,2.17c-1.27,1.58-2.78,1.07-3.3,1.45S332.3,183.51,332.3,183.51Z"/><path class="cls-34" d="M310.22,196.44s3.37-4.23,3.62-4.73a44.48,44.48,0,0,1-2.53,5.34A11.53,11.53,0,0,1,310.22,196.44Z"/><path class="cls-35" d="M323.1,174.32c-.18.35-.39.71-.61,1.08,0,0-2.2-6-2.44-7.49C320,167.92,322.07,172.1,323.1,174.32Z"/><path class="cls-28" d="M333,181.59s-6.33-1.22-9.51-4c-.83-.74-4.41-13-4.41-13s-1-3.09-3.7-2.1-1.52,4.09-1.52,4.09,4.13,9.63,6.28,13.36c1.78,3.1,13,3.78,13,3.78Z"/><polygon class="cls-28" points="315.31 158.58 316.17 157.44 320.05 159.62 320.14 161.55 315.31 158.58"/><path class="cls-25" d="M176.77,172.75s-1,1-1.34.93a7.19,7.19,0,0,0-1.2.22c-.32,0-1.2-.25-1.52-.11a9.24,9.24,0,0,1-1.07.79c-.27.08-.85.19-.78.42s.62.28.62.28a.42.42,0,0,0-.22.34c0,.44.29.53.29.53s-.25.26-.2.44a.62.62,0,0,0,.39.47.67.67,0,0,0,0,.51.54.54,0,0,0,.58.22c.13.6.44.53,1,.42a8.6,8.6,0,0,0,2.83-2,10.42,10.42,0,0,1,2.07-1.84Z"/><path class="cls-36" d="M185.23,154.34a8.33,8.33,0,0,1-.9,3,13.9,13.9,0,0,0-.94,4.61c-.12.76-2.25,8.11-2.44,8.32A8.22,8.22,0,0,0,178.8,173a18.07,18.07,0,0,1-4.06,4.28l2.28,2.23s6.1-4.22,7-6.63c1-2.57,3.15-9.93,3.15-9.93S189.43,155.64,185.23,154.34Z"/><rect class="cls-37" x="171.29" y="163.38" width="10.94" height="18.26" transform="translate(416.1 233.53) rotate(150)"/><path class="cls-38" d="M184.6,221.55a8.09,8.09,0,0,1-1.23,2.12c-.54.46-2.94,3.58-3.77,3.74s-2.48.27-2.55.62-.11,2.06,2.25,2.12,3,0,3.55-.56,2.82-2.23,3.44-2.22l-.07,2.95h.62A22.72,22.72,0,0,1,188,226c.49-.69,0-3.3-1.13-4.39A1.62,1.62,0,0,0,184.6,221.55Z"/><path class="cls-39" d="M179.6,227.41s2.61.36,3.73-.5,2.5-3,4.72-3c0,0,.79,1-.51,3.34a29,29,0,0,0-.7,3.11h-.62l.07-2.95a12.6,12.6,0,0,0-3.76,2.68s-4.52.72-5.37-.69a1.86,1.86,0,0,1-.26-1.39C177.11,227.28,179.6,227.41,179.6,227.41Z"/><path class="cls-38" d="M189.57,178.51s2.76,3.36-.7,9.34c0,0-.3,3.06-.36,4.21s-.8,5.44-.4,7.53,1.7,5.22,1.21,8.21-2.7,11.63-2.28,13.84l-2.46-.06s-.88-18.29-1.15-18.94a8.51,8.51,0,0,1-1.23-4.88c.13-2.84-2.78-14.47-2.77-17.7S189.57,178.51,189.57,178.51Z"/><path class="cls-40" d="M186.16,221.6a8.11,8.11,0,0,1-1.18,2.15c-.53.47-2.86,3.65-3.68,3.83s-2.47.32-2.53.68-.06,2.06,2.3,2.06,3-.06,3.53-.65,2.77-2.3,3.39-2.3v2.95h.62a22.71,22.71,0,0,1,1.06-4.36c.47-.71,0-3.3-1.24-4.36A1.62,1.62,0,0,0,186.16,221.6Z"/><path class="cls-41" d="M181.3,227.58s2.62.3,3.71-.59,2.43-3,4.65-3.14c0,0,.82,1-.43,3.35a28.79,28.79,0,0,0-.63,3.12H188v-2.95a12.61,12.61,0,0,0-3.69,2.77s-4.5.82-5.38-.56a1.87,1.87,0,0,1-.3-1.39C178.81,227.51,181.3,227.58,181.3,227.58Z"/><path class="cls-40" d="M190.11,178.46s2.84,3.29-.48,9.36c0,0-.22,3.07-.26,4.21s-.67,5.46-.22,7.54,1.82,5.17,1.4,8.17-2.43,11.69-1.95,13.89h-2.46s-1.31-18.26-1.6-18.9a8.51,8.51,0,0,1-1.34-4.85c.06-2.84-3.93-13.73-4-17S190.11,178.46,190.11,178.46Z"/><path class="cls-36" d="M179.22,181.78s3.16,18.2,2.46,20.82a41.48,41.48,0,0,0,9.56-2.13s-2.1-7.12-1.39-10.9,2.31-5.84,1.26-9.66S179.22,181.78,179.22,181.78Z"/><path class="cls-22" d="M163.58,172.85s-1,.29-1.42-.17a3.4,3.4,0,0,0-1.27-.73c-.29-.11-1.07-.78-1.21-.41s1.23,1.16,1.49,1.39-1.24.46-1.48.72.29,2.72,1.3,2.44a9.44,9.44,0,0,0,2.09-1.26,6.36,6.36,0,0,0,.74-.17Z"/><path class="cls-22" d="M159.91,173.53a23.47,23.47,0,0,0-3.18,1.3c-.14.24-.08.4.21.31l3-.94s-3.38,1.86-3.54,2,0,.42.18.39,3.61-1.68,3.61-1.68-3.15,1.74-3.24,1.92a.25.25,0,0,0,.34.31l3.26-1.56a14.63,14.63,0,0,0-2.2,1.61c0,.12.09.4.65,0s2-1.14,2-1.14Z"/><path class="cls-40" d="M181.39,141.23a4.86,4.86,0,0,0-5,4.6,11.82,11.82,0,0,0,.41,1.82c.27.8-.38,3.19-.19,3.3a5.26,5.26,0,0,0,1,.24s.91,2.57,1.82,2.52a7.55,7.55,0,0,0,5.87-4.13C186.83,146.31,187.19,141.35,181.39,141.23Z"/><path class="cls-42" d="M176.41,145.83a12.9,12.9,0,0,0,4.69,1.78c2.32.26,3.87,2.6,3.87,2.6s3.39-4.52.46-8S175.78,141.41,176.41,145.83Z"/><path class="cls-41" d="M191.1,179.91c-3.1,3.35-11.53,2.86-11.89,1.87s-.86-10.19-1-11.18a8.84,8.84,0,0,1,.09-1.51,5.12,5.12,0,0,0,0-1.21,1.36,1.36,0,0,0-.33-.76c-.78-.82-1.92-2.52-1.63-3.7s3.42-5.11,4.37-6.19,3.51-3.51,3.51-3.51c3.64-.06,4.73,7.47,4.15,9.16s-2.27,8.84-1.31,10A74.49,74.49,0,0,1,191.1,179.91Z"/><path class="cls-40" d="M184.55,153.71a11.38,11.38,0,0,1,0-2.89s-4.32,2-3.57,2.54a1.36,1.36,0,0,1,.42.74,8.44,8.44,0,0,1,.19,2.27l-1.43,1.71C178.89,159.81,184.66,154.29,184.55,153.71Z"/><path class="cls-22" d="M182.06,147.47a.71.71,0,0,1,1.23-.54c.75.59-.17,2.75-.78,2.55S182.06,147.93,182.06,147.47Z"/><path class="cls-30" d="M181,153.36a1.72,1.72,0,0,1,.45.84,7.1,7.1,0,0,0,2.5-2.66A7.73,7.73,0,0,1,181,153.36Z"/><path class="cls-41" d="M187.36,156.47s-2.14-1.69-3.63-.56a8.1,8.1,0,0,0-2.23,2.94c-.45.66-5.76,6.62-6,6.73s-4.68,2.58-7.09,3.8-5.87,3.36-5.87,3.36l1.1,2.19s11.81-4.9,14-6.47,8.3-6.53,8.3-6.53S189.75,160.09,187.36,156.47Z"/><path class="cls-43" d="M171.6,175.15s1.46-.75,2-.53,0,.52,0,.52.5-.3.78.07-.34.69-.34.69a.45.45,0,0,1,.57.33c.13.46-.44.61-.44.61s.72.16.36.66a2.53,2.53,0,0,1-1.8.88s-.29,0-.38-.47a.62.62,0,0,1-.6-.79s-.67-.45-.21-.95C171.49,176.16,170.8,175.65,171.6,175.15Z"/><path class="cls-42" d="M181.49,147.67s1.34,5.82-.52,6.95c0,0,3.93-1.06,5.72-3.33,0,0,2-9.43-4.17-10.49S181.49,147.67,181.49,147.67Z"/><path class="cls-42" d="M184.15,163.33c-.14.15-4.73,5-5.8,5.77a5.12,5.12,0,0,0,0-1.21Z"/><circle class="cls-31" cx="234.81" cy="105.47" r="33.06" transform="translate(127.28 339.35) rotate(-89.5)"/><path class="cls-31" d="M236.49,138.5l.58-66a33.07,33.07,0,0,1-.58,66Z"/><path class="cls-31" d="M201.75,105.18A33.08,33.08,0,0,1,227,73.33l-.56,64.14A33.08,33.08,0,0,1,201.75,105.18Z"/><circle class="cls-32" cx="234.81" cy="105.47" r="25.13" transform="translate(127.28 339.35) rotate(-89.5)"/><path class="cls-33" d="M241.9,137.78a33.07,33.07,0,0,0,.57-64.48Z"/><path class="cls-33" d="M226.46,137.47,227,73.33a33.11,33.11,0,0,1,8.08-.92q1,0,2,.08l-.58,66q-1,.05-2,0A33.14,33.14,0,0,1,226.46,137.47Z"/><path class="cls-40" d="M218,137.5a2.34,2.34,0,0,1,0-1.31,6.23,6.23,0,0,0,.56-1.87c-.06-.16-1.72-1-2.34-1.45-.44-.33-3.62-3.57-3.66-3.34a5.74,5.74,0,0,0,1.38,3.85,16.7,16.7,0,0,1,2.37,4.92C216.65,139,218,137.5,218,137.5Z"/><path class="cls-40" d="M248.38,137.74a4.17,4.17,0,0,1-.2-2c.25-.57,1.31-1.22,2.73-1.88s4.35-2.35,4.49-2.22.17,1-1.92,2.82-2.84,2.21-2.82,3.12S248.38,137.74,248.38,137.74Z"/><path class="cls-40" d="M235.68,154.53s-5.06,3.46-4.81,1.35a13.84,13.84,0,0,0-.29-4.31s5-2.18,4.8-.61a6.47,6.47,0,0,0-.05,1.13,11,11,0,0,0,.13,1.26A11.78,11.78,0,0,0,235.68,154.53Z"/><path class="cls-21" d="M252,226.6a15.58,15.58,0,0,1,2.2,1.48c.64.6,3.51.29,4.12,1.89s-2.1,2.4-5,1.54a16.35,16.35,0,0,1-4.42-1.94c-1-.5.06-3.15.06-3.15Z"/><path class="cls-21" d="M222.5,222.55a20,20,0,0,0,.19,2.44c.18,1.21,1.66,3.78,1.55,4.75s-1.91,2.43-3.89.08c-1.47-1.74-1-4.6-1.44-5.4a3.56,3.56,0,0,1,.7-3.74C220.68,219.53,222.5,222.55,222.5,222.55Z"/><path class="cls-24" d="M243.74,181.23s7.74,14.66,8,16.72.57,24.1.89,25.54a2.14,2.14,0,0,1-.48,2.13s-2.58,1-3.36-.14-.54-1.85-.54-1.85-2.56-17.73-2.89-20.64-8.58-15.36-9.32-14.23-2.11,11.83-2.74,13.37-9.92,19.61-10.63,19.61-3.39-.41-3-2.54,6.46-17.79,6.46-19.58,1.89-18.43,2.38-20.67S243.74,181.23,243.74,181.23Z"/><path class="cls-43" d="M252,226.78l.07-.92-3.18-.25.08.95s.07.52,1.59.63S252,226.78,252,226.78Z"/><path class="cls-43" d="M222.69,221.74s-.26,1.08-.31,1.3a2.1,2.1,0,0,1-2.48-.54,1.81,1.81,0,0,1-.23-1.69,2.25,2.25,0,0,1,.21-.65Z"/><path class="cls-21" d="M252.85,225.61a6.72,6.72,0,0,1-4.48.27,4,4,0,0,1-.1-2.26,5,5,0,0,0,4.34-.44A5.08,5.08,0,0,1,252.85,225.61Z"/><path class="cls-44" d="M230.57,183.29c0-.56.06-.75.06-.75l-.22,0s0,.21-.07.77Z"/><path class="cls-21" d="M221.16,217.44l.74-1.6.2.12-.74,1.6Zm1.48-3.21.74-1.61.2.12-.74,1.61Zm1.47-3.22.73-1.61.2.12-.73,1.61Zm1.45-3.23.71-1.62.2.12-.71,1.62Zm1.41-3.25c.27-.64.5-1.19.67-1.64l.21.11c-.18.45-.4,1-.67,1.65Zm1.21-3.32c.11-.48.23-1.07.35-1.76l.22.05c-.12.7-.24,1.3-.35,1.78Zm.63-3.55c.08-.55.16-1.16.24-1.79l.23,0c-.08.64-.17,1.24-.24,1.8Zm.47-3.59c.07-.57.14-1.18.21-1.8l.23,0c-.07.62-.14,1.23-.21,1.8Zm.4-3.6c.06-.58.12-1.19.18-1.8l.23,0c-.06.62-.12,1.22-.18,1.81Zm.35-3.61c.06-.6.11-1.2.16-1.81l.23,0c-.05.6-.11,1.21-.17,1.81Z"/><path class="cls-44" d="M220.27,219.9l.36-.78-.2-.12-.36.78Z"/><path class="cls-21" d="M223.33,221.84s-3.51,0-4-2.37a5.53,5.53,0,0,1,.83-1.64s.59,2,3.83,2.14A7.28,7.28,0,0,1,223.33,221.84Z"/><path class="cls-40" d="M231.53,141.23s4.82-1.7,5,4.26-.44,6.73-2.39,7.17-4.11-.22-5.83-4.73C226.73,143.65,228.5,141.59,231.53,141.23Z"/><path class="cls-45" d="M251.31,148.44c-.37.9-4.29,6.81-4.76,7.88s-2.39,3.82-2.55,4.23-.71,4.89-1.21,6.2,0,10.23.18,11.68a12.43,12.43,0,0,0,.78,2.8,134.59,134.59,0,0,1-15.85,2.33,41,41,0,0,0,.41-5.22c-.1-1.44-1.85-10.47-2.59-11.88s-7.51-11.34-7.78-11.74-3.15-5-3.29-6.1.66-9.55.66-10.69a9.36,9.36,0,0,1,0-1.21l3,.23s.22,4.81.42,6.16,1.31,5.68,1.51,6.44,5,7.35,5.84,7.35a14.5,14.5,0,0,0,3.23-1c.73-.29,1.35-.56,1.6-.68a19.21,19.21,0,0,1,5.46-1.14l.74.08a11.85,11.85,0,0,0,3.79-.08,6.9,6.9,0,0,0,2.85-2.38,35.05,35.05,0,0,0,3.66-4.57c.2-.64.34-6.3.42-7.89a11.73,11.73,0,0,0,0-2c0-.2,3.4-1,3.34-.39s-.08,4.18.06,6.22S251.68,147.54,251.31,148.44Z"/><path class="cls-46" d="M228.88,149.15s-.48-.85,0-1.16a.51.51,0,0,1,.73.13l.48-.08s-.94-1.77.55-2.09,4.62-.59,5.43-1.19c0,0,.33,1.36.36,1.63s.22-.06.22-.06.29-4.31-2.49-5.77-5.8.28-6.3,1.92S227.19,145.75,228.88,149.15Z"/><path class="cls-40" d="M228.94,146.91s-.53-.42-.61,0a4.6,4.6,0,0,0,1.16,2.31C229.74,149.26,229.57,147.42,228.94,146.91Z"/><path class="cls-30" d="M235.44,153.36c-3,.56-4.18-1.21-4.18-1.21a4,4,0,0,0,4.06.12A8,8,0,0,0,235.44,153.36Z"/><path class="cls-40" d="M235.35,161.78c-3.67.22-6-5.92-6-5.92.73-.29,1.35-.56,1.6-.68a17.9,17.9,0,0,1,5.46-1.14l.74.08S239,161.56,235.35,161.78Z"/></g></g></svg>