<svg xmlns="http://www.w3.org/2000/svg" xmlns:xlink="http://www.w3.org/1999/xlink" viewBox="0 0 400 240"><defs><style>.cls-1{isolation:isolate;}.cls-2{fill:#262630;}.cls-3{fill:#444351;}.cls-4{fill:#cad5d8;}.cls-5{fill:#919b2c;}.cls-6,.cls-63,.cls-93{fill:#fff;}.cls-7{fill:#3b3c41;opacity:0.1;}.cls-8{fill:#7a7a1e;}.cls-9{fill:#c9c927;}.cls-10,.cls-58,.cls-63,.cls-91{opacity:0.4;}.cls-11{fill:#35343f;}.cls-12,.cls-15{fill:#0864a5;}.cls-13{fill:#ef9875;}.cls-13,.cls-14,.cls-15,.cls-16,.cls-17,.cls-18,.cls-19,.cls-20,.cls-21,.cls-22,.cls-23,.cls-24,.cls-25,.cls-26,.cls-27,.cls-28,.cls-29,.cls-30,.cls-31,.cls-32,.cls-33,.cls-34,.cls-35,.cls-36,.cls-37,.cls-38,.cls-39,.cls-40,.cls-41,.cls-42,.cls-43,.cls-44,.cls-45,.cls-49,.cls-50,.cls-52,.cls-53,.cls-60,.cls-61,.cls-65,.cls-66,.cls-67,.cls-68,.cls-69,.cls-70,.cls-71,.cls-72,.cls-73,.cls-74,.cls-75,.cls-76,.cls-77,.cls-78,.cls-81,.cls-82,.cls-83,.cls-84,.cls-85,.cls-86{fill-rule:evenodd;}.cls-14{fill:#0095cd;}.cls-16{fill:#f59c78;}.cls-17{fill:#94310a;}.cls-18{fill:#fdb499;}.cls-19{fill:#7c150a;}.cls-20{fill:#f7a17b;}.cls-21{fill:#fefefe;}.cls-22{fill:#de8862;}.cls-23{fill:#f6a27b;}.cls-24{fill:#f7a37c;}.cls-25{fill:#344a69;}.cls-26,.cls-51{fill:#8e5038;}.cls-27{fill:#4c4243;}.cls-28{fill:#f6a17b;}.cls-29{fill:#6f533e;}.cls-30{fill:#e68a6a;}.cls-31{fill:#3e5573;}.cls-32{fill:#394c68;}.cls-33{fill:#f7a17a;}.cls-34{fill:#f5a079;}.cls-35{fill:#946c54;}.cls-36{fill:#946b54;}.cls-37{fill:#892d28;}.cls-38{fill:#efdad3;}.cls-39{fill:#c17694;}.cls-40{fill:#fcf6f3;}.cls-41,.cls-54{fill:#3f2714;}.cls-42{fill:#b8846c;}.cls-43{fill:#d99b82;}.cls-44{fill:#3b3a42;}.cls-45,.cls-50{opacity:0.2;mix-blend-mode:screen;}.cls-45{fill:url(#linear-gradient);}.cls-46,.cls-47{fill:#807f87;}.cls-47,.cls-53{opacity:0.3;mix-blend-mode:multiply;}.cls-48{fill:#3a3942;}.cls-49{fill:#4c4a55;}.cls-50{fill:url(#linear-gradient-2);}.cls-52{fill:#e09375;}.cls-53{fill:#6a4e39;}.cls-55{fill:#ba7a6a;}.cls-56{fill:#fcb692;}.cls-57{fill:#f4a67a;}.cls-58{fill:#5b2f19;}.cls-59{fill:#ffb692;}.cls-60{fill:#f7f9f6;}.cls-61{fill:#75392f;}.cls-61,.cls-92,.cls-95{opacity:0.6;}.cls-62{fill:#a9b9c9;}.cls-64{fill:#798496;}.cls-65{fill:#f8a27b;}.cls-66{fill:#feb59a;}.cls-67{fill:#c2b7b5;}.cls-68{fill:#a09897;}.cls-69,.cls-80{fill:#978787;}.cls-70{fill:#9b3b21;}.cls-71{fill:#442522;}.cls-72{fill:#2c3544;}.cls-73{fill:#afa0a0;}.cls-74{fill:#5d2621;}.cls-75{fill:#948484;}.cls-76{fill:#a09191;}.cls-77{fill:#b2a5a4;}.cls-78{fill:#7c6d69;}.cls-79,.cls-93{opacity:0.7;}.cls-81{fill:#994b28;}.cls-82{fill:#8a4726;}.cls-83{fill:#f88e43;}.cls-84{fill:#fdd8be;}.cls-85{fill:#7b5d58;}.cls-86{fill:#f38e46;}.cls-87{fill:#374044;}.cls-88{fill:url(#linear-gradient-3);}.cls-89{fill:url(#linear-gradient-4);}.cls-90,.cls-92{fill:#b53c3c;}.cls-91{fill:#892f2f;}.cls-94{fill:url(#linear-gradient-5);}.cls-96{fill:#36414a;}</style><linearGradient id="linear-gradient" x1="-8394.12" y1="226.05" x2="-8370.56" y2="226.05" gradientTransform="matrix(-1, 0, 0, 1, -8166.47, 0)" gradientUnits="userSpaceOnUse"><stop offset="0.01" stop-color="#803534"/><stop offset="1" stop-color="#66262f"/></linearGradient><linearGradient id="linear-gradient-2" x1="-8402.82" y1="226.05" x2="-8379.26" y2="226.05" xlink:href="#linear-gradient"/><linearGradient id="linear-gradient-3" x1="107.41" y1="76.03" x2="121.55" y2="165.56" gradientUnits="userSpaceOnUse"><stop offset="0.06" stop-color="#f0735e"/><stop offset="0.52" stop-color="#c4554b"/><stop offset="0.96" stop-color="#9e3b3b"/></linearGradient><linearGradient id="linear-gradient-4" x1="124.48" y1="161.7" x2="123.78" y2="181.44" gradientUnits="userSpaceOnUse"><stop offset="0.1" stop-color="#f0735e"/><stop offset="0.17" stop-color="#e06857"/><stop offset="0.35" stop-color="#bc5048"/><stop offset="0.5" stop-color="#a6413e"/><stop offset="0.59" stop-color="#9e3b3b"/></linearGradient><linearGradient id="linear-gradient-5" x1="134.04" y1="153.14" x2="40.94" y2="37.47" gradientUnits="userSpaceOnUse"><stop offset="0" stop-color="#4a5456"/><stop offset="0.18" stop-color="#545b5d"/><stop offset="0.49" stop-color="#626566"/></linearGradient></defs><title>home-loan-for-salaried-professionals</title><g class="cls-1"><g id="Layer_1" data-name="Layer 1"><path class="cls-2" d="M259.36,157.57a3.11,3.11,0,0,0,3.15,3.51h45.84a3.68,3.68,0,0,0,3.65-3.52s.76-22.56,2.88-42.67,5.72-37.74,5.72-37.74a4.46,4.46,0,0,0-2.47-4.56,10.78,10.78,0,0,0-5.87-1.45c-2.9,0-40.17,3-40.17,3-1.94,1-3.75,0-4,1.92Z"/><path class="cls-3" d="M254.95,156.16a3.11,3.11,0,0,0,3.15,3.51h45.84a3.68,3.68,0,0,0,3.65-3.52s.76-22.56,2.88-42.67,5.84-38.86,5.84-38.86a2.79,2.79,0,0,0-2.84-3.46H267.62a4,4,0,0,0-3.9,3.51Z"/><rect class="cls-2" x="244.7" y="153.67" width="65.94" height="17.28" rx="3.53" ry="3.53"/><polygon class="cls-4" points="180.22 99.58 241.22 99.58 241.26 93.42 201.26 92.25 180.03 86.01 180.22 99.58"/><polygon class="cls-5" points="180.25 99.54 189.77 99.19 185.42 87.59 180.03 86.01 180.25 99.54"/><polygon class="cls-6" points="183.1 87.02 183.1 98.54 201.44 98.54 201.44 94.43 183.1 87.02"/><polygon class="cls-7" points="201.44 96.2 183.1 90.12 183.1 87.02 201.44 94.43 201.44 96.2"/><path class="cls-8" d="M242.27,99.77H199.68a.71.71,0,1,1,0-1.41h42.58a.71.71,0,1,1,0,1.41Z"/><polygon class="cls-5" points="179.94 85.69 219.18 85.69 242.27 92.97 242.19 93.42 199.74 93.42 179.94 85.69"/><path class="cls-8" d="M241.61,94.12H199.74a.71.71,0,1,1,0-1.41h41.88a.71.71,0,1,1,0,1.41Z"/><path class="cls-9" d="M200,99.76H180a.71.71,0,0,1-.71-.71V86.36a.71.71,0,0,1,.94-.66L200,92.75a.71.71,0,1,1-.48,1.33l-18.76-6.72v11H200a.71.71,0,1,1,0,1.41Z"/><g class="cls-10"><path class="cls-11" d="M257.36,137.59l-.63-1a5.19,5.19,0,0,1-1.57-2c0-.28.46-.23,1,.12l.42.42a13.85,13.85,0,0,1,2.75,4.36c.65,1.48.92,3.1,1.5,4.59a24.78,24.78,0,0,1,1.54,10c0,.42.09.62.52.61.91,0,1.82.13,2.73.12,3.15,0,6.3.2,9.46.17a25.77,25.77,0,0,0,12.84-3.23,11.14,11.14,0,0,0,3.41-2.41,9.43,9.43,0,0,0,2-5.8,1.07,1.07,0,0,0-.82-1.2,47.91,47.91,0,0,1-5.56-2.49,91,91,0,0,0-12.38-5.43,26.64,26.64,0,0,0-6.84-1.39c-1.1-.07-2.19-.06-3.29-.16a36,36,0,0,0-5.25,0l-1.27.07c-1.39.12-2.39-1.13-2.21-2.78s1-3,1.81-3h1.24c.3-.32.71-.46.93-.32l.05.21a2.33,2.33,0,0,0,1.48,1.56,37.35,37.35,0,0,0,5,1.93c.77.23.86.18,1.08-.61a31,31,0,0,1,1.29-4.07c.34-.77.3-.85-.54-1a56.69,56.69,0,0,1-6.16-1.32l-.75-.2c0-.48,0-1.7-.08-2.73a14.36,14.36,0,0,1,.32-3.77l.16.07a87.35,87.35,0,0,0,12.57,4.24,32,32,0,0,0,10,1.51,6.11,6.11,0,0,0,5.1-2.8c1.22-1.85-.15-4.29.55-6.46.56-1.74.26-3,.94-4.7.78-2-2.61-3.65-1.88-5.64,1.2-3.26-4-8.36-2.59-11.52,1.25-2.74,4.17-7.18,4.47-10.11.24-2.41-2.13-1.84-2.59-4.23-.65-3.41,3.39-2.91,1.17-5.64l-.06-.07a14.18,14.18,0,0,1,3.75-.28h7.69A4.71,4.71,0,0,1,305,74.58s.06.27.26,2.19c.21,2.1-.42,4.12-.63,6.19-.17,1.7-.66,3.34-.71,5.06-.07,2.24-.22,4.47-.35,6.71-.14,2.56-.3,5.12-.54,7.67-.25,2.71-.49,5.43-.72,8.15a18.34,18.34,0,0,0-.07,5.15,61,61,0,0,1,1.19,9.43c.07,1.87.12,3.74.31,5.59.37,3.55,0,7.09,0,10.64a6.94,6.94,0,0,1-.08.91c-.2,1.61,1.63,17.47-1.51,19.52-4.36,2.85-17.39-3.26-22.39-2.77-4.49.43-9,0-13.52-.12-2.07-.07-4.15-.18-6.22-.07l-1.65.08c-1.82.08-3.93.13-4.69.12l-.07-.44-.08-.48a43.06,43.06,0,0,0,4.27-1.74,4.37,4.37,0,0,0,2.12-3.5,27,27,0,0,0-.12-8.09A18.57,18.57,0,0,0,257.36,137.59Z"/></g><path class="cls-12" d="M225.07,99.48S238,119.7,243.64,120.88s20.92.47,20.92.47l-2.82-28.21L253,99.48l-6.82,5.17-15-2.82Z"/><g id="AaOQWA"><path class="cls-13" d="M213.73,232.3c3.68-.05,7.36-.06,11-.18l7.89-.28a10.37,10.37,0,0,0,2.55-.23,26,26,0,0,0,3.39-2.43c2.34-2.12,4.3-4.51,4.53-7.8a30.68,30.68,0,0,1,.88-5.57,5.56,5.56,0,0,0-.48-3.15c-.21-.62-.43-.53-.68-1.13a7,7,0,0,1-.4-4.19c.19-1,.33-2,.52-3s.13.88.25-.09a74,74,0,0,1,1.66-8,28.5,28.5,0,0,1,1.1-3,49,49,0,0,0,2.64-12c.4-4.22.48-8.43.55-12.66a35.22,35.22,0,0,0-1.13-8.92,12.45,12.45,0,0,1,.07-3.23,7.49,7.49,0,0,1,.71,1.8c.12.34.23.67.64.75a3.89,3.89,0,0,0,3.47-2.57,31.59,31.59,0,0,0,1.24-9.2,11.29,11.29,0,0,0-2.79-7.31,6.73,6.73,0,0,0-6.44-2.1c-1.8.29-3.58.66-5.38.92a3.75,3.75,0,0,0-1.07.34,4.9,4.9,0,0,1-.5.26,5.71,5.71,0,0,0-3.21,3.76c-.48,1.42-1,2.83-1.44,4.25a9.08,9.08,0,0,0-.57,2.88c0,2.48-.32,5-.15,7.42.24,3.47.18,7,.42,10.42.15,2.14.34,4.28.63,6.41a22,22,0,0,1,.17,2.72c0,3.7.46,7.36.82,11,.17,1.71.25,3.44.35,5.17s.22,3.49.37,5.24c0,.35,0,.7,0,1,0,3.88-.06,4.94,0,8.82.05,2.32-.71,3.65-1.7,5.65a24.41,24.41,0,0,1-4,5.6,13.35,13.35,0,0,1-3.23,2.66c-2.48,1.4-4.81,3.06-7.35,4.36a24.47,24.47,0,0,1-5.36,2c-1,.25-1.17.5-.83,1.48A6.36,6.36,0,0,0,213.73,232.3Z"/><path class="cls-14" d="M252.72,115a30,30,0,0,0,4.08,1.81,37.43,37.43,0,0,0,5.67,2.24c3.39,1.12,6.81,2.18,10.3,3a33.57,33.57,0,0,0,5.33.81,9.83,9.83,0,0,0,4.14-.54,6.58,6.58,0,0,0,2.93-2.53c.63-.89,1.13-1.88,1.79-2.76a4.1,4.1,0,0,0,.57-1.12,51.52,51.52,0,0,1,2.46-5.8,24,24,0,0,0,1.22-3.35,156.93,156.93,0,0,1,5.52-15,22.36,22.36,0,0,0,1.41-5.91,26,26,0,0,0-2.25-14.9A13.53,13.53,0,0,0,293.14,67a2.56,2.56,0,0,0-1.4-.74,7.11,7.11,0,0,0-5.11,1,26.75,26.75,0,0,1-3.75,2.05,8.19,8.19,0,0,1-3.41,1.17c-.42.14-.88,0-1.29.16a5.38,5.38,0,0,0-1.08,1.78A33.94,33.94,0,0,1,275.35,76c-1.06,1.73-1.68,3.69-2.76,5.4A60.38,60.38,0,0,1,268,88.12a.87.87,0,0,1-.63.3,18.06,18.06,0,0,1-1,3.18,17.59,17.59,0,0,0-.52,6.86,1.85,1.85,0,0,0,1.28,1.59,9.08,9.08,0,0,0,3.34.7h2.17a4.63,4.63,0,0,0,4.52-3.15,29.08,29.08,0,0,0,1.24-3.72c.6-2.57,1.84-4.89,2.68-7.37a29.44,29.44,0,0,1,1.8-4.33,1.81,1.81,0,0,0,0-1.62,3.92,3.92,0,0,1-.48-2,3,3,0,0,1,.68,1.08c.14.24.18.59.5.63s.5-.3.67-.54a3.37,3.37,0,0,0,.27-.46c-.84,1.92-1.06,4-1.72,6-1.23,3.61-1.82,7.39-2.8,11.07-.67,2.51-1.51,5-2.21,7.46a5.18,5.18,0,0,0,1.48,5.54,7.69,7.69,0,0,1,1.61,2.44c.23.52.46,1.05.66,1.5a21.54,21.54,0,0,0-3.46-3.83c-.15-.14-.35-.3-.56-.14s-.09.38,0,.58.11.24.16.39c-.88-2.19-2.82-2.91-4.84-3.51a47,47,0,0,0-7.7-1.49c-3.34-.42-6.63-1.11-9.92-1.85-.39-.09-.84-.29-1.13.21a3.51,3.51,0,0,0,0,1.46,9.45,9.45,0,0,1,.07,2.72,17.25,17.25,0,0,1-.46,3.11c-.13,1-.38,2-.58,3.06A3.61,3.61,0,0,1,252.72,115Z"/><path class="cls-15" d="M282.88,69.43a15.92,15.92,0,0,0,3.64-1.92,7.09,7.09,0,0,1,5.41-1,3.33,3.33,0,0,1,1.86,1.5,20.53,20.53,0,0,1,4,9.35,25.26,25.26,0,0,1,.38,7.24A26.76,26.76,0,0,1,296,93.11c-1.44,3.16-2.5,6.47-3.7,9.73-.73,2-1.19,4.07-2,6-.68,1.71-1.65,3.32-2.21,5.06a24.78,24.78,0,0,1-3.17,5.88,6.11,6.11,0,0,1-5.1,2.8,32,32,0,0,1-10-1.51c-4.26-1.19-12.87-4.36-13-4.26-.15,1.87.19,3.72.11,5.59-.09.83-.05.87.69,1.07a56.73,56.73,0,0,0,6.16,1.32c.85.13.89.21.54,1a31,31,0,0,0-1.29,4.07c-.23.78-.31.84-1.08.61a37.38,37.38,0,0,1-5-1.93,2.33,2.33,0,0,1-1.48-1.56c-.05-.21-.13-.47-.44-.46-.17.5-.54.57-1,.58-4.76,0-9.52,3.76-14.26,4.18a34,34,0,0,0-7.22,1.65q-2.93.93-5.86,1.88a4,4,0,0,0-2.39,1.71c.18.31.46.17.68.12,3.15-.71,6.25-.15,9.35.38,1.1.19,2.18.51,3.27.73a3.4,3.4,0,0,0,1.3.09c.14-.1.25-.21.14-.4a13.23,13.23,0,0,0-2.69-.75,53.42,53.42,0,0,0-8.58-1.7,66,66,0,0,1,7.35-2.07,55.09,55.09,0,0,1,7.4-1.21,14.6,14.6,0,0,1,7.81,1.14l.38.18a1.1,1.1,0,0,0,.27,0c-1.59,0-3.14.35-4.71.49q-2.93.28-5.86.5a7.06,7.06,0,0,0-1.11.16c-.15,0-.36.06-.37.25s.19.25.34.31a18.15,18.15,0,0,0,2.48.75,33.91,33.91,0,0,0,8.52,1.16c1.56,0,3.12-.24,4.68-.33,1.75-.1,3.5-3.67,5.25-3.51,1.09.09,2.19.09,3.29.16a26.64,26.64,0,0,1,6.84,1.39,91,91,0,0,1,12.38,5.43,47.87,47.87,0,0,0,5.56,2.49,1.07,1.07,0,0,1,.81,1.2,9.43,9.43,0,0,1-2,5.8,11.15,11.15,0,0,1-3.41,2.41A25.77,25.77,0,0,1,270.79,155c-3.16,0-6.3-.18-9.46-.17-.91,0-1.81,3.37-2.73,3.4-.43,0-.54-.19-.52-.61a24.78,24.78,0,0,0-1.54-10c-.58-1.5-.85-3.11-1.5-4.59a13.86,13.86,0,0,0-2.75-4.36,6.46,6.46,0,0,0-5.84-1.85q-1.56.23-3.11.54a3.77,3.77,0,0,1-1.27.08,4.7,4.7,0,0,0-1,.06c-.32.21-.85-.11-1,.43a.57.57,0,0,0,.33.16c.53,0,1.06,0,1.58,0a27.38,27.38,0,0,0,3.74-.49,9.61,9.61,0,0,1,3,.06,7,7,0,0,1,4.4,3.44,18.58,18.58,0,0,1,2.47,7.17,27,27,0,0,1,.12,8.09c-.37,2.7-1.9,4.69-5.33,5-.27.12-1.06.28-1,.76s1.37.43,1.46.46c1.66.07,3.31-.14,5-.22,2.07-.11,4.15-3.53,6.22-3.45,4.51.16,9,.56,13.52.12,5-.48,9.94-1.35,14.31-4.2a16.7,16.7,0,0,0,6.62-8.28,1,1,0,0,1,.52-.68,4.41,4.41,0,0,0,2.45-3.6,7,7,0,0,0,.08-.91c0-3.55.32-7.09,0-10.64-.19-1.85-.24-3.73-.31-5.59a61,61,0,0,0-1.19-9.43,18.32,18.32,0,0,1,.07-5.15c.23-2.72.47-5.43.72-8.15.24-2.55.4-5.11.54-7.67.12-2.24.28-4.47.35-6.71.06-1.72.54-3.36.71-5.06.21-2.06.84-4.08.63-6.19a22.89,22.89,0,0,0-3.13-10.13,9.18,9.18,0,0,0-3.42-2.35,7.45,7.45,0,0,0-6.65.6,13.66,13.66,0,0,0-4.56,3.74C283.06,68.87,282.81,69.08,282.88,69.43Z"/><path class="cls-16" d="M237.63,137.6a39.13,39.13,0,0,0-10.6-1.5c-1,0-1.86.38-2.81.42a6.38,6.38,0,0,1-1.61,1,5.34,5.34,0,0,0-2.38,2,12.61,12.61,0,0,0-2.18,7.33c0,2,.05,3.93,0,5.89a53.79,53.79,0,0,0,.77,9.47c.62,4.45,1.53,8.86,2.09,13.33.26,2.06.85,4.06,1.19,6.11.5,3.06,1,6.12,1.31,9.2.28,2.38.82,4.73,1.15,7.1.4,2.86.7,2.92,1.11,5.78.31,2.13.29,4.28.48,6.41a7.52,7.52,0,0,1-.69,3.9,13.73,13.73,0,0,0-.74,2.46,9,9,0,0,1-2.4,4.21,22.75,22.75,0,0,1-8.54,5.73c-1.93.83-3.85,1.69-5.78,2.51-.51.22-.75.53-.59,1.08,0,.11,0,.23.05.35.4,2,.46,2,2.49,2.06a31.2,31.2,0,0,0,3.78-.1,17.52,17.52,0,0,0-.76-2.47c-.14-.45-.08-.68.44-.79a30,30,0,0,0,9.57-4.32c1.36-.85,2.79-1.62,4.1-2.53a15.06,15.06,0,0,0,3.27-3c.76-1,1.53-1.91,2.26-2.9a19.83,19.83,0,0,0,2.16-4.05,8.52,8.52,0,0,0,.84-4.14c0-3.46,0-4.1,0-7.56,0-3-.33-5.94-.53-8.91-.1-1.46-.15-2.93-.3-4.38s-.28-2.91-.47-4.36c0-.32-.08-.64-.09-1-.09-2.44-.08-4.9-.31-7.33-.26-2.68-.58-5.36-.7-8.05,0-.76-.1-1.53-.1-2.3,0-3.22-.48-6.43-.25-9.64.16-2.22-.2-4.49.51-6.66.65-2,1.25-3.95,2.05-5.86a4.87,4.87,0,0,1,2.56-2.55,6.71,6.71,0,0,0,.59-.36c-.1-.41-.42-.28-.66-.25-1,.13-2.09.16-3.13.3a1.4,1.4,0,0,1-.28,0c-.21,0-.5,0-.54-.21s.26-.26.44-.34a5.73,5.73,0,0,1,1.93-.52A1.59,1.59,0,0,0,237.63,137.6Z"/><path class="cls-17" d="M278.15,70.69c.46-.06.94.12,1.39-.13.09-.31.4-.37.63-.51a45.44,45.44,0,0,0,4.74-3.25A25,25,0,0,0,286.71,65a21.17,21.17,0,0,1,3.16-2.66,1.36,1.36,0,0,0,.66-1.08c.32-3.11.56-6.23,1-9.33.78-5.94,1.87-11.81,3.23-17.64a32.85,32.85,0,0,0,.91-3.6c.1-.88.13-1.77.18-2.65.16-2.84.27-5.7.15-8.54a19.91,19.91,0,0,0-2.74-8.67,14,14,0,0,0-6-6A7,7,0,0,0,285.11,4a.05.05,0,0,1,0,0c0-.05,0-.08.07-.09-1.83-.25-3.58-.92-5.41-1.15a12.73,12.73,0,0,0-3.94.49,35.83,35.83,0,0,0-5.18,1.46c-.63.22-1.1.75-1.66.94a8.11,8.11,0,0,0-2.09,1.09,11.33,11.33,0,0,0-5.2,8.09,8.28,8.28,0,0,0,.19,2.85c.43,0,.41-.35.47-.63a4.21,4.21,0,0,1,.82-2.09c.27-.17-.46-.07-.08-.28a4.21,4.21,0,0,1,.84-.34,9.85,9.85,0,0,0,3.25-1.59c1.93-1.45,4.14-2.41,6.16-3.71a8.27,8.27,0,0,0,1.18-.78,6.87,6.87,0,0,0-1.75,2.39c.52.63.7,1.5,1.38,2a4.3,4.3,0,0,1,1.17,1.53,9.7,9.7,0,0,0,4.29,3.89A41.39,41.39,0,0,0,287.45,21l.34.09c.17.06.4.08.37.34a.44.44,0,0,1-.39.35,5.56,5.56,0,0,1-1.81,0c-.23,0-.46-.09-.69-.12s-.3,0-.39.08.05.31.17.41c.69.59,1.39,1.18,2.11,1.74a.58.58,0,0,1,.25.42.55.55,0,0,0,.39.11,2.33,2.33,0,0,1,2.3,1.07.89.89,0,0,0,.26.22,4,4,0,0,1,1.46,3,10,10,0,0,1-.81,4.77c-1.7,4.1-3.47,8.15-5.51,12.09-.22.43-.4.91-1,1-.28.15-.22.43-.26.68a18.7,18.7,0,0,1-1.85,6.26,21.14,21.14,0,0,1-3.48,4.61c-.25.33-.69.53-.72,1a.35.35,0,0,0,.33.24,2.12,2.12,0,0,0,.89-.3,11,11,0,0,0,3-2c-1.13,1.88-1.59,4.09-2.59,6.08-.4,1-.93,1.86-1.39,2.8a1.66,1.66,0,0,0-.26.71.23.23,0,0,0,.19.21c.65-.34.92-1,1.41-1.52L280.83,64A20.59,20.59,0,0,1,279.68,67a20.67,20.67,0,0,1-1.5,2.92C278.06,70.17,277.72,70.44,278.15,70.69Z"/><path class="cls-18" d="M290.41,25.71a2.71,2.71,0,0,0-3.07-1.45,1.42,1.42,0,0,0-1,.17,6,6,0,0,1-2.94.46,1,1,0,0,1-1-.84,24.56,24.56,0,0,0-1.71-4.35,1.5,1.5,0,0,0-.69-.76,11.67,11.67,0,0,1-4.35-4.15,13.36,13.36,0,0,0-1.54-2.14l-1-1.59c-.1-.17-.16-.39-.43-.38a.68.68,0,0,0-.59.14c-2.25,1.61-4.89,2.37-7.41,3.38a4.74,4.74,0,0,0-1.66.69,1.21,1.21,0,0,0-.71.74,13,13,0,0,0-.57,2.07,38,38,0,0,0-.53,3.78.2.2,0,0,0,.19,0c.24-.1.39-.6.73-.27s.9.54.82,1.17c0,.13-.32.2-.32.34.2.81.94,1.56,1.15,2.37a1.71,1.71,0,0,1-.42,1.78l-.17.11a2.6,2.6,0,0,0-.46.87,2.49,2.49,0,0,1-.19.44,15.81,15.81,0,0,1-.9,1.39c.17-.24-.75.92-1.25,1.64a2,2,0,0,0-.1,2.23c1.22.88,2.55.81,4,.85a1.9,1.9,0,0,0,2-1.34,3.71,3.71,0,0,1-.84,2.13,1.28,1.28,0,0,1-.93.55A5.17,5.17,0,0,1,262,35.5a10.64,10.64,0,0,1-.11,2.2.65.65,0,0,0,.22.62,26.23,26.23,0,0,0,4.16.47,16.11,16.11,0,0,0,3.46-.47c.35-.08.72-.16.84-.61.31.32.32.69.49,1.1a1.34,1.34,0,0,0-1.5-.13,12.84,12.84,0,0,1-4.54.68,20.47,20.47,0,0,1-2.5-.25c-.18.51-.62,1-.4,1.57.13.45.45.55.88.62a16.68,16.68,0,0,0,5,.06,17.65,17.65,0,0,0-2,1.41c-.3.23-.57.06-.84-.08a3.38,3.38,0,0,0-1.72-.51c-.28,0-.57,0-.72.31.2,1.59-.1,3.25.65,4.77a2.61,2.61,0,0,0,.46.75c1,.83,2,.67,3.17.72,1.51.06,3,.08,4.53,0A13.39,13.39,0,0,0,281,44.26a7.42,7.42,0,0,0,1.55-3A27,27,0,0,0,283.89,33a1.83,1.83,0,0,1,.05-.56,6.23,6.23,0,0,0,.24-2.83,2.84,2.84,0,0,1,.28-1.55c.1.24.11.61.39.59s.27-.38.3-.62a1.57,1.57,0,0,1,.33-.84,5.41,5.41,0,0,1,3.08-1.92,1,1,0,0,1,1,.4c.23.29.41.62.64.92s.48.34.56-.14A.72.72,0,0,0,290.41,25.71Z"/><path class="cls-15" d="M254.27,103.52a3.84,3.84,0,0,1,1.89.24c3.22.71,6.45,1.33,9.73,1.74a33.71,33.71,0,0,1,9.58,2.38c.78.35,1.15,1.07,1.65,1.66a13.12,13.12,0,0,0,.95,1.14l-.48-1.33a24.06,24.06,0,0,1,4.36,4.46,12.57,12.57,0,0,0-2.74-4.95,5.63,5.63,0,0,1-1.36-2.18,4.54,4.54,0,0,1,.1-2.4,53.3,53.3,0,0,1,1.58-5.43c.89-3,1.55-6,2.26-9.07.49-2.13,1.22-4.2,1.77-6.32A38.13,38.13,0,0,1,285,78.55a4.6,4.6,0,0,0-1,1.27c-.1.13-.16.32-.34.32s-.19-.22-.25-.36c-.2-.42-.41-.84-.62-1.26-.07-.13-.09-.36-.32-.29a.45.45,0,0,0-.28.38,1.66,1.66,0,0,0,.22,1.08,3.49,3.49,0,0,1-.16,3.46c-.93,1.92-1.48,4-2.37,6-1.2,2.62-1.74,5.45-2.76,8.13a4.58,4.58,0,0,1-4.69,3.32,13.25,13.25,0,0,1-4.63-.46c-1.48-.53-1.81-.86-1.86-2.46a16.89,16.89,0,0,1,1.47-8.16c.2-.41-.08-.78.08-1.16a1.25,1.25,0,0,0,.2-.94c-.09-2.89.12-5.78.16-8.67,0-1.14.13-2.28.24-3.42.2-1.67.45-3.34.73-5-.08-.39,0-.9-.57-1-1.09,3.67-2.37,7.28-2.55,11.17-.12,2.52-.2,5-.29,7.56-.05,1.49-.06,3-.21,4.48a22.72,22.72,0,0,0,.41,5.58c.14.93-.08,1.23-1,1.13a16.62,16.62,0,0,1-3.65-.66,2.57,2.57,0,0,1-1.8-2,15.82,15.82,0,0,1-.06-5.22,72,72,0,0,1,2-9.74c.47-2,1-3.9,1.32-5.88.05-.29.27-.75-.12-.87s-.55.35-.69.66a33.93,33.93,0,0,0-1.68,4.82c-.08.49-.29,1-.31,1.27.05-.36.22-.9.36-1.44.72-2.73,1.38-5.47,2.15-8.18a5.45,5.45,0,0,1,.94-2.08.49.49,0,0,0,.12-.17,4.88,4.88,0,0,1,2.28-2.71.84.84,0,0,0,.3-.38,7.1,7.1,0,0,0,0-2.42,7.84,7.84,0,0,0-4.14,4.42c-1.05,2.84-2.4,5.58-3.19,8.5-.67,2.49-1.45,5-2,7.5a7.42,7.42,0,0,1-1.08,2.48c-1.54,2.48-3.22,4.86-4.94,7.2a64.05,64.05,0,0,1-4,5c-.18.2-.36.45-.7.37-.07.25.1.4.24.54a9.19,9.19,0,0,0,4.47,2.73,1.38,1.38,0,0,0,.61-.07C252.12,103,253.18,103.34,254.27,103.52Z"/><path class="cls-19" d="M285.14,3.92l-.5,0a15,15,0,0,1,6.2,3.81A19.69,19.69,0,0,1,294.56,14a19.1,19.1,0,0,1,1.26,7.37c0,2.21-.15,4.42-.18,6.64a27,27,0,0,1-1.11,6.29c-1.07,4.23-1.88,8.52-2.54,12.83-.45,2.91-.84,5.82-1.14,8.76-.19,1.84-.3,3.7-.52,5.54A.7.7,0,0,1,290,62a30.22,30.22,0,0,0-4.86,4.38,19.25,19.25,0,0,1-3.73,2.69c-.67.42-1.67,1.19-2.33,1.62-.05,0,3.28-.44,3.84-1.26a13.55,13.55,0,0,1,6.38-5c2.77-1.08,5.23-.35,7.5,1.39a4.59,4.59,0,0,0,1.12.82c-1.22-1.7,3.51-5.8,1.93-24.17a73,73,0,0,1-.41-17.32,28.8,28.8,0,0,0-.22-4.39,18.68,18.68,0,0,0-2-7.94A17.3,17.3,0,0,0,285.14,3.92Z"/><path class="cls-20" d="M249.84,161.83c-.06-.37,1.06-.22,1.5-.45-.57-.56-1.49-1.17-1.47-1.88,0-.32,0-.6-.37-.69s-.37-.2-.43-.45c-.16-.63-.36-1.25-.56-1.87-.07-.23-.11-.6-.43-.53s-.23.41-.26.66a12.47,12.47,0,0,0,.45,4.88c.37,1.42.37,2.9.77,4.31a5,5,0,0,1-.09,1.24c0,2.5.06,5,0,7.5-.08,2.22-.31,4.44-.51,6.66a47.94,47.94,0,0,1-1,6.67,57.22,57.22,0,0,1-2.45,7.57,43.28,43.28,0,0,0-1.32,5.27c-.42,1.69-.71.61-.8,2.33s-.59,3.63-.75,5.47a9.09,9.09,0,0,0,.83,3.72c.28.84.58,1,.84,1.81a6.24,6.24,0,0,1-.48,3.88,3.81,3.81,0,0,0-.22,1.36,11,11,0,0,1-.81,4.85,14.23,14.23,0,0,1-3.81,4.93,16.33,16.33,0,0,1-3.66,2.48l.44.07c1.72-.11,3.47-.08,5.16-.36a19,19,0,0,0,3.85-.85,5.32,5.32,0,0,0,2.05-1.54,3,3,0,0,0,.51-2.06,14,14,0,0,0-.68-5.17,4.25,4.25,0,0,1-.38-1.63,26.57,26.57,0,0,0-.56-6,31.89,31.89,0,0,1-.17-6.7c.11-4.85,1.31-6.67,2.41-11.35.91-3.87,1.82-7.75,2.45-11.7.33-2.09.73-4.18,1-6.28a43.28,43.28,0,0,0,.3-10.33,30.65,30.65,0,0,0-.67-4.63C250.29,162.48,249.89,162.12,249.84,161.83Z"/><path class="cls-18" d="M250.87,102.72c-.13,0-.11.24-.32.18a9.49,9.49,0,0,1-4.85-3.17,21.45,21.45,0,0,0-8.44-3.85c-2-.35-4-.6-6-1.05-.5-.11-1-.27-1.47-.43a2.55,2.55,0,0,0-.89-.13c-1.26,0-1.64.76-1,1.84a9,9,0,0,0,5,2.31,4.37,4.37,0,0,1,1.08.29c.22.09.45.2.38.5s-.3.33-.54.35a3.09,3.09,0,0,1-1-.11,3.06,3.06,0,0,1-1.79.12c-4.07-.48-8.16-.15-12.24-.26-.44,0-.94.09-1.06.53-.16.59.39.93.75,1.31a10.61,10.61,0,0,0,4.68,1.3c1.51.16,3,.43,4.53.47a14.06,14.06,0,0,1,5.63,1.81,17.59,17.59,0,0,0,8.85,1.65,14.21,14.21,0,0,0,1.95-.24,3.44,3.44,0,0,1,2.37.36c.51.27,1,.53,1.57.78a1.57,1.57,0,0,0,1.82-.22,3,3,0,0,0,1.24-2.54,2.73,2.73,0,0,1,.07-.83A1,1,0,0,0,250.87,102.72Z"/><path class="cls-13" d="M290.62,26.35l0,.39-.81-1.22a1.1,1.1,0,0,0-1.26-.49,6.28,6.28,0,0,0-2.82,1.6,2.07,2.07,0,0,0-.67,2c-.46-.38-.15-.85-.37-1.18a3.59,3.59,0,0,0-.56,2.81,1.62,1.62,0,0,1,0,.89,10.5,10.5,0,0,0-.37,3,25.34,25.34,0,0,1-1.09,6.16,20.82,20.82,0,0,1-.68,2.05,9.44,9.44,0,0,1-4.31,4.43,13.23,13.23,0,0,1-6.57,1.57c-1.47.06-2.92.22-4.38.22-.95,0-2.06.12-2.82-.6a1.34,1.34,0,0,0-.33-.22c.26.64,1,.81,1.54,1a9.5,9.5,0,0,0,2.53.31,3.57,3.57,0,0,0,2,.15c1.25-.06,1.66.16,2.16,1.33a13.3,13.3,0,0,1,.76,3.76,29.25,29.25,0,0,1-.05,7.54,7.85,7.85,0,0,1-.59,1.93c-.11.25-.26.51-.12.8.34.2.5-.09.7-.26a5.88,5.88,0,0,0,1.8-3.4,25.37,25.37,0,0,0,.43-5.85c0-.39-.21-.92.47-1.06,1.07-.22,1.29-.17,1.67.6.46.94,1,1.86,1.48,2.78a2.4,2.4,0,0,0,.68,1A17.29,17.29,0,0,0,284.29,48c.07-.5.18-1,.26-1.5a4.6,4.6,0,0,0,.46-2.22c.28-2.24.52-4.48.61-6.74,0-.26.07-.51.1-.76a1.16,1.16,0,0,1,.92-1.16.72.72,0,0,0,.45-.31c0-.43-.39-.31-.63-.32a1.48,1.48,0,0,1-1.15-.56,1,1,0,0,1,.34-1.7,11.33,11.33,0,0,0,2.53-1.57,1,1,0,0,1,1.57.22c.15.18.22.49.57.4a.38.38,0,0,0,.14-.16,10.47,10.47,0,0,0,.44-5C290.88,26.53,290.83,26.37,290.62,26.35Z"/><path class="cls-19" d="M271.79,64.52a13.23,13.23,0,0,0,1-4,33.69,33.69,0,0,0-.58-9.31,5.69,5.69,0,0,0-.48-1.31c-.4-.78-1.11-.9-2-.84a8,8,0,0,0-.93.09s1.6,4.68.88,8.29-3.78,6.15-4,6.77a6.63,6.63,0,0,0-.14,2.52,3,3,0,0,0-.13,1.78c0,.36.26.42.52.16a3.77,3.77,0,0,0,.73-1.1,8.55,8.55,0,0,1,.89-1.54,21,21,0,0,0,.33,2.4c.05.29.06.61.35.8l.39,1a.7.7,0,0,0,.05.4c0,.13.13.27.28.28s.28-.15.33-.29c.19-.54.39-1.08.6-1.62.54-1.25,1.15-2.47,1.65-3.74A1.23,1.23,0,0,0,271.79,64.52Z"/><path class="cls-20" d="M251,103.66c-.24.29-.13.63-.12.94a3,3,0,0,1-1.59,2.61,1,1,0,0,1-1,0,6.19,6.19,0,0,1-1-.5c-1.39-1-2.9-.82-4.47-.63a15.63,15.63,0,0,1-8.34-1,35.18,35.18,0,0,0-5.52-2.14,28.3,28.3,0,0,0-3.25-.31c-2.46-.33-4.95-.47-7.28-1.43a2.19,2.19,0,0,0,1.27.81c1.9.63,3.8,1.27,5.71,1.88a4.64,4.64,0,0,1,2,1.29,4.55,4.55,0,0,0,1,.89c1.24.7,2.17,1.84,3.51,2.38a4.8,4.8,0,0,0,1.84.34c3.22,0,6.44-.29,9.65-.13a15,15,0,0,1,5.44,1.64c.14.47.52.48.9.46a.8.8,0,0,0,.73-.65,21,21,0,0,0,.61-2.86c.13-.8.2-1.62.29-2.42A1.24,1.24,0,0,0,251,103.66Z"/><path class="cls-14" d="M255,126.53c.07.09.17.18.19.28a2.68,2.68,0,0,0,1.91,2,42.49,42.49,0,0,0,5.16,1.93c.58.17.73,0,.87-.52a41.44,41.44,0,0,1,1.25-4.07c.58-1.42.55-1.42-1-1.63-2-.27-4-.83-6-1.28-.5-.11-.36-.52-.42-.84a7.47,7.47,0,0,1-1.24,2.67Z"/><path class="cls-21" d="M251,103.66a19.29,19.29,0,0,1-.82,6.44c-.14.57-.69.6-1.4.14a3.32,3.32,0,0,0-.07,2c0,.32.34.39.61.5a12.84,12.84,0,0,1,2.85,1.06c.6.15.94,0,1.11-.74a22.1,22.1,0,0,0,.54-2.42,25.11,25.11,0,0,0,.49-5,1.24,1.24,0,0,0,0-.55q0-.77,0-1.55c-.52-.48-1.21-.4-1.83-.55s-1-.18-1.57-.26Z"/><path class="cls-20" d="M262,35.49c.11.42.34.53.78.43s1.17.13,1.79,0a1.56,1.56,0,0,0,1.16-.64c.52-.78,1.13-1.57.69-2.68-.18.59-.35,1.11-1,1.35a3.08,3.08,0,0,1-1.64.23,6.8,6.8,0,0,1-3.13-.81c-.08-.06-.25-.16-.38,0a1.62,1.62,0,0,0,.8.94A1.66,1.66,0,0,1,262,35.49Z"/><path class="cls-22" d="M262.92,39.41a15.44,15.44,0,0,0,6.41-.45c1.13-.37,1.14-.32,2,.39a5.83,5.83,0,0,0-.55-1.81c-.08-.14-.17-.32-.36-.28s-.2.24-.13.41-.06.29-.26.35a14.18,14.18,0,0,1-6.41.35,17.76,17.76,0,0,1-1.77-.43C261.93,38.26,262.33,39.31,262.92,39.41Z"/><path class="cls-20" d="M262.71,42.49a2.68,2.68,0,0,1,2.51.46.69.69,0,0,0,1-.11,6.91,6.91,0,0,1,2-1.28c.12,0,.32,0,.29-.23s-.21-.22-.38-.23a9.66,9.66,0,0,0-1.8.18,6.69,6.69,0,0,1-2.21-.05,4.22,4.22,0,0,0-1.24-.12c-.37,0-.54-.2-.74-.43C262.2,41.32,262.58,41.86,262.71,42.49Z"/><path class="cls-23" d="M263.37,27.07a1.79,1.79,0,0,0,.74-1.78,22.18,22.18,0,0,0-1-2.58,1.88,1.88,0,0,1-1.7-1.25h-.08a9.83,9.83,0,0,0,.26,3.66c.27,0,.31-.22.39-.4s.06-.61.37-.7.54.2.76.4a1.42,1.42,0,0,1,.38.58,3,3,0,0,1,.24.85,1.29,1.29,0,0,1-.21.75C263.46,26.76,263.27,26.91,263.37,27.07Z"/><path class="cls-24" d="M232.8,99.44a1.49,1.49,0,0,0,1.6.13.55.55,0,0,0-.23-1,5.72,5.72,0,0,0-1.33-.39,8.05,8.05,0,0,1-4.73-2.11c-.08-.07-.16-.1-.23,0,.33.8,1.14,1,1.78,1.4a11.6,11.6,0,0,0,2.64,1.11C232.71,98.74,233.08,98.9,232.8,99.44Z"/><path class="cls-25" d="M253.72,110.67c-.22.86-.42,1.72-.66,2.56a.73.73,0,0,1-.85.53c-.57.26-.3.63-.08.94a.9.9,0,0,0,.6.32c.22,0,.38,0,.44-.33a24.75,24.75,0,0,0,.7-3.75C253.93,110.8,254,110.66,253.72,110.67Z"/><path class="cls-26" d="M263,27.92l.41-.85a1.77,1.77,0,0,0,.12-1.34,1.07,1.07,0,0,0-1.21-.44c-.58.2-.47.77-.53,1.24l.07.64C262,27.95,262.24,28.13,263,27.92Z"/><path class="cls-27" d="M261.75,26.52l0-.06c.42-1.21.42-1.21,1.62-.77.05.07.08.16.17.19a.26.26,0,0,0,.25-.05c.1-.31-.13-.54-.18-.82a1.35,1.35,0,0,0-1.79-.31l-.28.42A3.79,3.79,0,0,0,261.75,26.52Z"/><path class="cls-28" d="M261.7,29c0,.25,0,.35,0,.68a4.72,4.72,0,0,0,1.09-1.38,1,1,0,0,0-1-.15A1.82,1.82,0,0,0,261.7,29Z"/><path class="cls-29" d="M261.86,28.17a1.88,1.88,0,0,0,1,.15l.14-.39a1.05,1.05,0,0,1-1.13-.76A.83.83,0,0,0,261.86,28.17Z"/><path class="cls-30" d="M249.5,158.81c.13.15.27.26.18.53-.19.6.12,1.19.12,1.79,0,.34.33.33.58.36a5.26,5.26,0,0,0,5.38-4.49,24.62,24.62,0,0,0-2-15.23,10.91,10.91,0,0,0-1.32-2,6.87,6.87,0,0,0-6.73-2.39,20.3,20.3,0,0,1-3.57.51,5.67,5.67,0,0,1-1.77,0l-.24,0a1.29,1.29,0,0,0-1.26-.16l-1.22-.14a8.82,8.82,0,0,1-2.29.48,4.24,4.24,0,0,0-1.54.63c-.36.2-.21.46.08.63a1.35,1.35,0,0,0,1,.09c1.14-.21,2.3-.12,3.43-.39a.29.29,0,0,1,.3.13,49.8,49.8,0,0,1,7.75-1.25c3.08-.1,5,1.61,6.36,4.2a13.05,13.05,0,0,1,1.3,7,36.51,36.51,0,0,1-1.34,7.6c-.19.65-.73,1-1.22,1.29A2.92,2.92,0,0,1,249.5,158.81Z"/><path class="cls-18" d="M271.79,64.52,269.84,69a14.36,14.36,0,0,0-.92,4.83c0,.49.06,1,.14,1.46A1.86,1.86,0,0,0,271.36,77c1.06-.1,2.12-.24,3.17-.45.44,0,.66-.32.93-.57A16.11,16.11,0,0,0,277,73l1.14-2.3c-.27-.33,1.32-2.55,1.67-3.62a3.76,3.76,0,0,0,.19-1.15c0-.27.07-.63-.36-.71l-1.27,1.55a1.16,1.16,0,0,0-.36.37,4.38,4.38,0,0,0-.25.42c-.1.06,0,0,0,0a4.87,4.87,0,0,1,.26-.44,1.06,1.06,0,0,0,.21-.47A32.5,32.5,0,0,0,280,63.14c.43-1.33,0-2.59-.29-3.87a.56.56,0,0,0-.29-.37l-.83.3c-.14,0-.37.23-.3-.16l.73-.8-2.27-4.4c-.15-.29-.4-.29-.66-.27-.42,0-.83.1-1.24.14s-.33.32-.33.57c0,1,0,2.1,0,3.15a16.4,16.4,0,0,1-.71,4.45A5.15,5.15,0,0,1,271.79,64.52Z"/><path class="cls-21" d="M275.47,76c-.35,0-.5.4-.83.46a25.32,25.32,0,0,1-2.77.7c-1.52.19-2.79,0-3.52-1.58-.08-.18-.17-.39-.43-.4-.39,3-.35,6.06-.45,9.09,0,1.35,0,2.71,0,4.06l.15.47A54.89,54.89,0,0,0,275.47,76Z"/><path class="cls-31" d="M253.72,110.67a.31.31,0,0,1,.14.28,14.47,14.47,0,0,0,.43-5.89A35.57,35.57,0,0,1,253.72,110.67Z"/><path class="cls-15" d="M241.08,137.63h1c.41-.19.86,0,1.26-.13.8-.12,1.62-.2,2.41-.37a6.74,6.74,0,0,1,5.2.68,9.45,9.45,0,0,1,3.19,3.74,23.27,23.27,0,0,1,1.86,5c.43,1.57,1.15,3.06,1.42,4.67a23.36,23.36,0,0,1,.41,6.73c0,.4.1.51.45.49,1.36-.1,2.7-3.38,4.05-3.38,3.06,0,6.11.19,9.17.14a26.79,26.79,0,0,0,13.45-3.91,8.15,8.15,0,0,0,4-5.59,11.41,11.41,0,0,0,.24-2.71.6.6,0,0,0-.45-.61c-1.47-.64-3-1.09-4.46-1.85a90.44,90.44,0,0,0-10.82-5.1,34.3,34.3,0,0,0-7.66-2.36c-1.11-.14-2.22-.28-3.33-.31-2.38-.07-4.76-.28-7.14-.14-2,.12-4.08,4-6.12,3.91a34.87,34.87,0,0,1-8.3-1.37c-.66-.19-1.32-.4-2-.66,4.13-.41,8.25-.72,12.42-1.34a25.51,25.51,0,0,0-3.1-1.23,19.4,19.4,0,0,0-6.31-.31,66.8,66.8,0,0,0-9.85,1.85c-1.66.44-3.31.95-5,1.56a4.79,4.79,0,0,0,2.07.37c2.48.41,4.93,1,7.35,1.61.81.22,1.63.36,2.45.53C239.65,137.95,240.38,137.68,241.08,137.63Z"/><path class="cls-14" d="M279.88,135.78c.85,0,1.08-.25,1.19-.93a17.38,17.38,0,0,0,.12-3.14,16,16,0,0,1,.36-3.74c.11-.47-.07-.58-.48-.61-2.06-.13-4.08-.61-6.12-.91-2.64-.39-5.26-.88-7.89-1.33-.39-.07-.62,0-.81.48a46.93,46.93,0,0,0-1.66,5c-.13.47,0,.6.4.75a121.45,121.45,0,0,0,12.2,3.76C278.14,135.4,279.11,135.53,279.88,135.78Z"/><path class="cls-32" d="M241.08,137.63a9.16,9.16,0,0,1-2.11-.14l-.13.25,1.26.16C240.37,137.6,240.82,137.94,241.08,137.63Z"/><path class="cls-32" d="M240.34,137.92a3.54,3.54,0,0,0,1.77,0Z"/><path class="cls-32" d="M243.33,137.49c-.42.05-.87-.14-1.26.13C242.48,137.57,242.93,137.76,243.33,137.49Z"/><path class="cls-19" d="M287.1,35.21a.84.84,0,0,1-.61.31c-.78,0-.88.54-.93,1.1-.14,1.41-.24,2.83-.38,4.24-.19,1.9-.41,3.79-.62,5.69,0,.1,0,.27.2.17a1.73,1.73,0,0,0,.74-.71,127.35,127.35,0,0,0,6-13.43A6.71,6.71,0,0,0,291,26.1c-.13-.19-.18-.57-.58-.4l.17.66a9.88,9.88,0,0,1-.42,5.51c-.21.09-.28.3-.37.48a6.64,6.64,0,0,1-2.22,2.42C287.41,34.88,287.17,34.95,287.1,35.21Z"/><path class="cls-19" d="M274.18,12.64a23.54,23.54,0,0,0,3.76,5.09,4.28,4.28,0,0,0,1.3.93A3,3,0,0,1,281,20.53a28.18,28.18,0,0,1,1.39,3.8.8.8,0,0,0,.75.67,5.62,5.62,0,0,0,2.82-.23c.48-.16,1-.35,1.44-.52.06-.11.28-.15,0-.35-.83-.66-1.63-1.37-2.54-2.13a8.91,8.91,0,0,0,2.47.25,3,3,0,0,0,.49,0,.75.75,0,0,0,.64-.66c0-.41-6.23-2.24-8.93-3.45a8.37,8.37,0,0,1-3.68-3.2c-.44-.69-.9-1.35-1.36-2C274.39,12.51,274.29,12.21,274.18,12.64Z"/><path class="cls-19" d="M263.13,14.87a42.89,42.89,0,0,0,8.33-3.34c.47-.24.89-.57,1.34-.86a23.29,23.29,0,0,1,2.11-2.79c-.88.53-1.77,1.06-2.66,1.57-1.25.72-9.09,5.07-9.26,5.23C262.6,15,262.94,14.92,263.13,14.87Z"/><path class="cls-33" d="M279.38,58.9a14.85,14.85,0,0,1,.58,4.24,8.94,8.94,0,0,0,.77-1.72c.6-1.58,1.17-3.18,1.92-4.74A17.4,17.4,0,0,1,279.38,58.9Z"/><path class="cls-34" d="M279.65,65.21a3.23,3.23,0,0,1,.05,2.18,12.06,12.06,0,0,0,1.25-3.83Z"/><path class="cls-35" d="M278.25,59a.65.65,0,0,0-.36.38.86.86,0,0,0,.65-.22C278.43,59.18,278.31,59.18,278.25,59Z"/><path class="cls-36" d="M278.25,66.62,278,67c-.05.15,0,.17.14.14l.27-.42Z"/><path class="cls-37" d="M261.22,21.46a4.78,4.78,0,0,0,.06.82c.64-.12.84.59,1.36.69.07,0,.69-.71.41-1s-.68-.94-1.2-1.13C261.55,20.72,261.28,21.23,261.22,21.46Z"/><path class="cls-38" d="M263.54,25.78l-.13-.09q0,.69,0,1.38a2.41,2.41,0,0,0,.28-.43C263.62,26.35,263.79,26,263.54,25.78Z"/><path class="cls-14" d="M268.32,69.28a19,19,0,0,1-.45-3.11c0-.16,0-.39-.15-.43s-.26.21-.35.35a16,16,0,0,1-1.74,2.81c0-.81,0-1.47,0-2.13a7.45,7.45,0,0,0-2.52,2.64c-1.8,3.42-2.19,7.15-3.13,10.79-.08.16-.2.25.06.24a28.33,28.33,0,0,1,2.17-5.49,3.42,3.42,0,0,1-.1,1.46,10.79,10.79,0,0,1-.34,1.49c-.79,3.3-1.63,6.59-2.34,9.91a38.35,38.35,0,0,0-.69,5.1,14.5,14.5,0,0,0,.23,3.87,2.43,2.43,0,0,0,1.73,1.91,14.64,14.64,0,0,0,4.24.75c.85,0,1.05-.29.92-1.12a23.51,23.51,0,0,1-.39-6.52A33,33,0,0,0,265.6,88c0-2.17.11-4.34.2-6.5A33.44,33.44,0,0,1,267.65,72,10,10,0,0,0,268.32,69.28Z"/><path class="cls-22" d="M267.92,75.19c1.06,2,1.48,2.42,4.23,2.12a5.62,5.62,0,0,0,2.49-.83c-.6-.19-1.14.21-1.73.19-.89,0-1.78.39-2.68,0a1.24,1.24,0,0,1-.9-1,10.66,10.66,0,0,1,.22-5,8.39,8.39,0,0,0,.31-1.71,17.87,17.87,0,0,0-.76,1.91l-.37-.64A27.92,27.92,0,0,0,267.92,75.19Z"/><path class="cls-18" d="M287.1,35.21a6.13,6.13,0,0,0,3.09-3.35c-.2-.33-.28-.72-.68-.93a1.15,1.15,0,0,0-1.41.11,7.9,7.9,0,0,1-2.39,1.51,1.19,1.19,0,0,0-.84,1.48,1.65,1.65,0,0,0,1.4,1.17C286.54,35.22,286.82,35.21,287.1,35.21Z"/><path class="cls-39" d="M261.85,24.7a2.68,2.68,0,0,1,1.79.31,1.64,1.64,0,0,0-.56-.85c-.23-.24-.51-.48-.84-.34A.74.74,0,0,0,261.85,24.7Z"/><path class="cls-40" d="M263.54,25.78c0,.29-.11.6.12.86a2.74,2.74,0,0,0,.17-.81Z"/><path class="cls-41" d="M262,26.57c0,.37.18.64.58.63s.41-.31.39-.61-.11-.7-.52-.69S262,26.25,262,26.57Z"/><path class="cls-42" d="M278.11,67.18,278,67a1,1,0,0,0-.3.57.1.1,0,0,0,.16,0Z"/><path class="cls-43" d="M277.83,67.6h-.16c-.11.07-.28.24-.19.28S277.75,67.74,277.83,67.6Z"/><path class="cls-20" d="M213.89,228.67a24.5,24.5,0,0,0,5.36-2c2.54-1.3,4.87-3,7.35-4.36a13.35,13.35,0,0,0,3.23-2.66l.41-.45a6.36,6.36,0,0,1,1.4-.27c3.31-.28,6.72,4.54,11,4.73h.19a13.85,13.85,0,0,1-4,5.47c-1,.94-2.38.14-3.55.9a10.85,10.85,0,0,1-2.53.59c-2.63.09-5.13.79-7.76.88-3.68.12-7.36.7-11,.75a6.36,6.36,0,0,1-.82-2.07C212.72,229.17,212.86,228.92,213.89,228.67Z"/><path class="cls-44" d="M238.09,224.29c-.53-.09-.65-.12-.91.41s-1.38-.47-4.11-.59c-4-.18-7.14-4.67-10.23-4.41s-3.53,2.2-6.61,3.79-5.44,3.7-8.43,4.5-3.92,1-3.66,2.92.62,1.41.62,1.41l19-.63h14.46C239.15,231.7,238.09,224.29,238.09,224.29Z"/><path class="cls-45" d="M207.79,228c3-.79,5.35-2.91,8.43-4.5s3.53-3.53,6.61-3.79c1.55-.13,3.12.93,4.8,2.05-1.21,1-3.57,2-7.05,3.41-4.67,1.9-6.6,2.88-9.48,3.92-2,.74-1.5,2.31-1.32,3.17l-5,.06s-.35.53-.62-1.41S204.79,228.79,207.79,228Z"/><path class="cls-46" d="M205,233.12l18.69-.53,14.37-.18c.56,0,.57-.32.56-.71s.11-.69-.28-.7c0,0-3.65-.4-6.29-.4s-5.61.4-9.17.57-18.27.53-18.27.53c-.39,0-.4.08-.4.72a.91.91,0,0,0,.14.61C204.47,233.15,205,233.12,205,233.12Z"/><path class="cls-47" d="M209.66,231.58c4.61-.12,11-.29,13.23-.4,3.56-.18,6.52-.57,9.17-.57s6.29.4,6.29.4c.39,0,.27.31.28.7s0,.71-.56.71l-14.37.18-14,.4Z"/><path class="cls-48" d="M204.27,232.06l0-.71c.15,0,15.1-.36,18.62-.53,1.49-.07,2.86-.19,4.18-.29,1.78-.14,3.46-.28,5-.28,2.63,0,6.58.39,6.62.4l-.07.7s-4-.39-6.55-.39c-1.52,0-3.18.14-4.95.28-1.33.11-2.7.22-4.21.29C219.39,231.71,204.42,232.06,204.27,232.06Z"/><path class="cls-49" d="M246.79,220.77c-.53-.09-.65-.12-.91.41s-1.38,3.06-4.11,2.94c-4-.18-7.14-4.67-10.23-4.41s-3.53,2.2-6.61,3.79-5.44,3.7-8.43,4.5-3.92,1-3.66,2.92.62,1.41.62,1.41l19-.63h14.46C247.85,231.7,246.79,220.77,246.79,220.77Z"/><path class="cls-50" d="M216.49,228c3-.79,5.35-2.91,8.43-4.5s3.53-3.53,6.61-3.79c1.55-.13,3.12.93,4.8,2.05-1.21,1-3.57,2-7.05,3.41-4.67,1.9-6.6,2.88-9.48,3.92-2,.74-1.5,2.31-1.32,3.17l-5,.06s-.35.53-.62-1.41S213.49,228.79,216.49,228Z"/><path class="cls-46" d="M213.71,233.12l18.69-.53,14.37-.18c.56,0,.57-.32.56-.71s.11-.69-.28-.7c0,0-3.65-.4-6.3-.4s-5.61.4-9.17.57-18.27.53-18.27.53c-.39,0-.4.08-.4.72a.91.91,0,0,0,.14.61C213.17,233.15,213.71,233.12,213.71,233.12Z"/><path class="cls-47" d="M218.36,231.58c4.61-.12,11-.29,13.24-.4,3.56-.18,6.52-.57,9.17-.57s6.3.4,6.3.4c.39,0,.27.31.28.7s0,.71-.56.71l-14.37.18-14,.4Z"/><path class="cls-48" d="M213,232.06l0-.71c.15,0,15.1-.36,18.62-.53,1.49-.07,2.86-.19,4.18-.29,1.78-.14,3.45-.28,5-.28,2.63,0,6.58.39,6.62.4l-.07.7s-4-.39-6.55-.39c-1.52,0-3.18.14-4.95.28-1.33.11-2.7.22-4.21.29C228.08,231.71,213.12,232.06,213,232.06Z"/></g><path class="cls-20" d="M267.13,21.41a5.89,5.89,0,0,0,.82,1.79c.37.65.73,1.22.58,1.78.36-.08.06-.65.12-.73.9-1.13,1.29-1,2.36,0a12,12,0,0,1,1.93,2.5,8.07,8.07,0,0,1-.78.77c-1,.52-2.14-.09-3.27-.18a5.14,5.14,0,0,0,3.61,0,21.21,21.21,0,0,0,3.26-1.56,3.23,3.23,0,0,0-1-2.14l-2.59-1.82c-1.24-.77-.83-.86-2.29-1-.36,0-1.09-.18-1.32.07C268,21.43,267.79,21.58,267.13,21.41Z"/><path class="cls-37" d="M268,20.36A3.29,3.29,0,0,1,269.7,20c1.79.42,2.76,1.2,4.33,2.76.15.19,1,1.11,1,1.13-.22,0-3.47-2.1-4.81-2.28-.56-.08-1.6-.31-1.93.16-.5.72-.6.83-1.17.42C266.77,21.78,267.1,20.87,268,20.36Z"/><g id="_7sSnV0" data-name="7sSnV0"><path class="cls-39" d="M273.8,26.29a6,6,0,0,0-2.09-3c-1.49-.93-2.83.68-3,.9.56.25,1.34.12,1.89.38a26.93,26.93,0,0,1,2.71,1.56C273.49,26.2,273.62,26.32,273.8,26.29Z"/></g><path class="cls-40" d="M269.31,24.8c-.41.15-.68.46-.41,2,0,0-.21,1.2,1.64,1A5.65,5.65,0,0,0,273,27a2.15,2.15,0,0,0,.71-.65S270.38,24.4,269.31,24.8Z"/><ellipse class="cls-51" cx="269.97" cy="25.97" rx="1.01" ry="1.48"/><path class="cls-52" d="M269.5,27.49a.66.66,0,0,1-.59-.74c-1,2,4,1.13,4.85-.33.06-.09-.09,0-.08-.1A6.49,6.49,0,0,1,269.5,27.49Z"/><path class="cls-53" d="M269.28,24.78c1.07-.4,4.41,1.54,4.41,1.54l-.22.14c-2.27-1-3.56-1.23-4.18-1a.63.63,0,0,0-.46.77C268.73,24.89,268.91,24.91,269.28,24.78Z"/><path class="cls-27" d="M273.82,26.34a11.55,11.55,0,0,0-3.26-2.08A3,3,0,0,0,269,24a1.16,1.16,0,0,0-.61,1.25,6.12,6.12,0,0,0,.45,1,1.66,1.66,0,0,1,0-.36c.09-1.11.16-1.74,4.75.54C273.65,26.43,273.82,26.38,273.82,26.34Z"/><ellipse class="cls-54" cx="269.81" cy="25.94" rx="0.46" ry="0.67"/><rect class="cls-55" x="109.18" y="121.19" width="62.46" height="111.52"/><rect class="cls-56" x="245.1" y="119.78" width="48.14" height="112.94"/><polygon class="cls-57" points="115.35 232.72 108.94 232.72 108.94 119.78 115.35 120.55 115.35 232.72"/><rect class="cls-55" x="252" y="121.19" width="62.46" height="111.52"/><rect class="cls-57" x="105.1" y="117.31" width="142.7" height="7.22"/><rect class="cls-55" x="109.64" y="124.37" width="143.08" height="7.13"/><rect class="cls-58" x="252.04" y="124.14" width="62.49" height="7.13"/><rect class="cls-55" x="247.57" y="117.31" width="70.4" height="7.19"/><polygon class="cls-59" points="247.45 116.95 247.45 116.95 317.98 116.95 317.98 117.79 105.1 117.79 105.1 116.95 247.45 116.95"/><path class="cls-18" d="M273.58,12.57c-.21-.54,0-.88-.29-1.38s1-2.53,1.54-3.2c0,0-2.25,2.91-3.38,3.54a13.06,13.06,0,0,0-1.87,1.25Z"/><polygon class="cls-58" points="171.63 232.71 148.3 232.71 115.5 170.13 115.5 131.06 171.63 131.06 171.63 232.71"/><path class="cls-60" d="M130,56.84,135.67,52s1.76-.94,6.11-.23,15.9,1.47,17.06,13.19S130,56.84,130,56.84Z"/><path class="cls-61" d="M208.61,117s-3.41,6.46-7.64,7.64c-.42.12-2.33,6.61-2.33,6.61H147.88l.43-13.9,11.17-.35Z"/><g id="_6LZDcV" data-name="6LZDcV"><path class="cls-62" d="M146.86,164.29c-.45-3-4.42-5.5-7.49-5.5H108.1a6.66,6.66,0,0,0-6.38,5.5l-10.46,71.2,3,.35,3.17.06,10.16-71.6c.26-1.78-.58-2.92,1.22-2.92h29.79a4,4,0,0,1,3.81,3.29Z"/><polygon class="cls-62" points="142.44 164.68 152.9 235.92 156.7 235.92 146.86 164.29 142.44 164.68"/><path class="cls-63" d="M103.91,160.42h6.89v1h-2c-1.74,0-1,1.06-1.2,2.74h-5.88A6.47,6.47,0,0,1,103.91,160.42Z"/><path class="cls-64" d="M156.6,235.92l-10.46-71.25a4,4,0,0,0-3.81-3.29H111.8a4,4,0,0,0-3.81,3.29L97.53,235.92,95,235.54l10.46-71.25a6.64,6.64,0,0,1,6.37-5.5h30.53a6.64,6.64,0,0,1,6.37,5.5l10.46,71.25Z"/><path class="cls-65" d="M210.73,90.53a2,2,0,0,1-.65,1.87c-.38.39-.78.77-1.15,1.16a.78.78,0,0,0-.06.92c.11.23.38.18.59.12a38.62,38.62,0,0,1,9.65-.6c.94,0,1.89,0,2.8,0,.24.35,0,.54-.17.7a8.53,8.53,0,0,1-2.05,1.77c-.41.21-.68.42-.38.91s0,.82-.31,1.15a28.09,28.09,0,0,0-2.36,2.56,6,6,0,0,0-.61.9c-1.11,2.4-3.14,3.85-5.26,5.22a16.29,16.29,0,0,1-1.55.78,28.3,28.3,0,0,1-2.57-3.06,31,31,0,0,0-3.92-3.76c-.27-.21-.91-.3-.62-.93a2.51,2.51,0,0,1,1.87.38,1.61,1.61,0,0,0,2-.34,12.53,12.53,0,0,1,5.75-3.16A9.93,9.93,0,0,0,214.89,95a12.52,12.52,0,0,0-5.53.52,4.24,4.24,0,0,1-1.93.26.72.72,0,0,1-.74-1,2,2,0,0,1,.88-1.67,6.24,6.24,0,0,0,2.7-2.45A.38.38,0,0,1,210.73,90.53Z"/><path class="cls-66" d="M210.73,90.53a1.57,1.57,0,0,0-.26.34,4.42,4.42,0,0,1-2.34,2.31A1.66,1.66,0,0,0,207,94.82a3.09,3.09,0,0,1-.13.59,3.15,3.15,0,0,0,1.8.06,3,3,0,0,0,.62-.19c2-.8,4-.61,6.16-.57a4,4,0,0,1-1.18,1.19,8.2,8.2,0,0,1-3.61,1.89,11,11,0,0,0-4.81,3,1.3,1.3,0,0,1-1.57.26,7,7,0,0,0-2.27-.7h-.13a1.4,1.4,0,0,1-.39,0c-.13,0-.25-.08-.37,0l-.1,0c-1.13-.62-1.05-.4-.59-1.62.39-1,.8-2,1.15-3.05a6.73,6.73,0,0,1,4.13-4.47,32.73,32.73,0,0,0,3.4-1.47C210,89.24,210.39,89.44,210.73,90.53Z"/><path class="cls-65" d="M201.08,100.34c.21-.28,1.07,0,1.07,0a20.46,20.46,0,0,1,3.77,3.39,20,20,0,0,1,3.3,4.27,28,28,0,0,1-3.33,1.88C204.53,106.45,204.21,102.52,201.08,100.34Z"/><path class="cls-60" d="M207.37,104.69c-1.38-4.61-5.74-7.33-6.35-7a12.88,12.88,0,0,0-2.93,2.56,5,5,0,0,1,3,.89,10.47,10.47,0,0,1,2.68,2.59c1,1.32,1,3.09,1.64,4.65a4,4,0,0,1,.29,1.82C207.17,109.48,208.39,108.13,207.37,104.69Z"/><path class="cls-65" d="M157,122a6.84,6.84,0,0,1,.09-3.93,13,13,0,0,0,.57-3.81,4.51,4.51,0,0,1,.21-1,18.49,18.49,0,0,0,2.61-.06,3.15,3.15,0,0,1,2.46,1A13.73,13.73,0,0,0,165,115.6a2.28,2.28,0,0,1,1.11,1.27,8.24,8.24,0,0,1-2.19.06,2.39,2.39,0,0,0-2.25,1,21.7,21.7,0,0,1-2,2.28,2.65,2.65,0,0,1-1.27.81A3,3,0,0,0,157,122Z"/><path class="cls-67" d="M111.86,147.24l-1.12-.66a1,1,0,0,1-.58-1.26,39.32,39.32,0,0,0,.85-6c.12-2.23.59-1.63.74-3.86.21-3,1-5.87.72-8.87-.06-.6,0-1.26-.68-1.6,1.27-2.3,1.44-4.85,1.67-7.38.51-5.64.66-11.31,1.06-17,.38-5.44.72-10.87,1.34-16.29a.38.38,0,0,0-.09-.33c-.41,5-1.32,10-1.68,15.08-.22,3-.86,5.9-1.16,8.86-.23,2.32-.26,4.64-.58,6.95a9.62,9.62,0,0,1-2.51,5.8,4.43,4.43,0,0,1-4.15,1.41,10.38,10.38,0,0,1-1.49-4.27c-.18-.92-.29-1.86-.4-2.79a6.69,6.69,0,0,1,0-1.3c.11-1.23.28-2.45.35-3.67a54.05,54.05,0,0,1,1.11-8.17c1-4.72,2.34-9.35,3.5-14a13.52,13.52,0,0,1,.54-1.77c1.26-3.16,2.24-6.43,3.82-9.48,1-1.89,1.62-5,2.41-7a4,4,0,0,1,.64-1.25c.22.17.17.4.12.62-.13.89-.4,1.77-.43,2.37-.05-.43.28-1.12.33-1.84a33.52,33.52,0,0,1,.92-3.27,31.15,31.15,0,0,1,1.7-2.76c1.85-2.34,6-6.73,11.59-8.4,1-.09,2.06-.38,3.1-.56,5.46-.91,10.58.3,15.64,2.25a53.87,53.87,0,0,1,9,4.56,5,5,0,0,1,1.73,1.47c.31.49.3.84-.28,1.14a10.2,10.2,0,0,0-5.47,7.81c-.17.93-.36,1.85-.46,2.79a17.7,17.7,0,0,0-.27,3.18,18.41,18.41,0,0,1,.12-2.2c.48-3.66,1.34-7.16,4.28-9.73l.16-.15c2.16-2,3.28-1.9,4.59.69,2,4,4.46,8.71,6.32,12.77s4.41,8,6.67,12c2,3.48,4.48,18.12,4.85,18.92.57,1.25-.77,3.29-1.54,4.11a2.73,2.73,0,0,1-3.51.52c-2.43-1.24-19.75-23.82-23-26.58a1.7,1.7,0,0,0,.39.92q2.14,3.23,4.3,6.45c.86,1.27.82,1.37-.7,1.68.17.36.54.47.83.67a1.64,1.64,0,0,1,.79,1.68c-.34,2.15-.43,4.33-.85,6.48-.46,2.35-.57,4.76-.87,7.13-.34,2.63-.63,5.27-1,7.89a14.86,14.86,0,0,1-2.69,6.15c-.92,1.39-1.91,2.74-2.91,4.08-.07.08-.14.15-.23.22.15-.06.21-.21.33-.31,1-1.06,2.24-1.85,3.26-2.89.23-.23.53-.46.87-.33s.41.58.41.94a29.18,29.18,0,0,0,.2,2.94,32.06,32.06,0,0,0,.54,4.86,3.73,3.73,0,0,1-1.37,4.17,15.45,15.45,0,0,1-4.13,2.18c-4.78,1.84-9.51,3.8-14.61,4.65-2.72.46-5.46.71-8.21,1-2.4.23-4.79.09-7.18.19-1.17.05-2.31-.26-3.47-.24a19.42,19.42,0,0,1-3.15-.67C112.49,147.79,112.06,147.69,111.86,147.24Z"/><path class="cls-68" d="M111.86,147.24a18,18,0,0,0,4.12,1.09,20,20,0,0,0,3.2.34c3.77,0,7.54,0,11.3-.24a59.87,59.87,0,0,0,10.17-1.85c3.29-.79,6.46-2,9.67-3a10,10,0,0,0,3.18-1.64,2.83,2.83,0,0,1,1.05-.56,15.18,15.18,0,0,0,5.21-3.63c.5-.57-.27-5,.47-5,6.16,0,13,1.09,19-.18,3.1-.65,6.63,2.28,9.62,2.89.86.17,1.71.31,2.58.43,2.51.34,4.64,1.78,4.8,4.74a69.44,69.44,0,0,1,0,7.83c-.15,2.65-.27,5.29-.47,7.94-.33,4.27-.77,8.54-1.19,12.8-.46,4.66-.95,12.15-1.45,16.81q-1,9.48-2.31,18.94-.72,5.29-1.21,10.61a1.71,1.71,0,0,1-.29,1,1.94,1.94,0,0,1-1,.4,42.1,42.1,0,0,1-8.3.49,1.56,1.56,0,0,1-1-.32c-1.9.16-2.42-.16-2-2.17a25,25,0,0,0,.3-4.35c.07-2.54.24-5.08.14-7.63-.17-4.32-.38-8.64-.54-13s-.38-11.54-.21-15.9c0-1.23.25-2.46.38-3.68.29-.55-.24-1-.18-1.52.78-3.44,1.51-6.89,2.22-10.34a2.41,2.41,0,0,1,2.06-2.18,24.21,24.21,0,0,1,4.85-.7,2,2,0,0,0,1-.19c-.35-.5-.9-.66-1.33-1-.82-.59-.83-1.1.05-1.53,2.06-1,4-2.15,6.34-3.27a70.85,70.85,0,0,1-16.37,3.67c-3,.27-6,.41-9,.71-1.59.16-3.18.34-4.76.61-3.48.6-7,.72-10.52,1-5,.37-10,.2-15,.46a118.43,118.43,0,0,1-14.59-.29,25.68,25.68,0,0,1-5.48-1.38,5.77,5.77,0,0,1-2.22-2.16c0-.39.24-.4.5-.39a3.47,3.47,0,0,1,1,.23,24.42,24.42,0,0,0,7.51,1.14c5,0,10-.1,15-.65,3.93-.43,6.82-2.43,9.51-5.4a24,24,0,0,0-3.26.89c-4.59,1.57-9.36,2-14.14,2.5a49.78,49.78,0,0,1-14.22-.73,7.15,7.15,0,0,1-4-1.77A1.14,1.14,0,0,1,111.86,147.24Z"/><path class="cls-68" d="M153.53,74.53a14,14,0,0,1,2.22-7.61,8.69,8.69,0,0,1,4.19-3.38,3.6,3.6,0,0,0-2-2,17.33,17.33,0,0,1-2.33-1.39,15.9,15.9,0,0,0-4-2c-1.46-.54-2.9-1.14-4.34-1.73a26.87,26.87,0,0,0-5.77-1.49,27.87,27.87,0,0,0-4.09-.43,29.19,29.19,0,0,0-5.91.72c-.38.07-.76.28-1.11-.09a3,3,0,0,1,.64-.4,21.36,21.36,0,0,1,8.16-1,37.76,37.76,0,0,1,16,5.35c1.07.62,2.13,1.25,3.24,1.8a22.92,22.92,0,0,1,6.22,4.74c2.89,3,17.2,34.56,18.76,36.38a2.44,2.44,0,0,0,1.9,1.11c.37,0,.63.33.89.59s.34.58.7.65a23.82,23.82,0,0,1,2.08,3.78c0,.14.14-.12,0,0s-.05,0-.08-.06c-.3-.7-.67-1.37-1-2s-.66-1.57.06-2.32a1.61,1.61,0,0,1,1.55.21,16.74,16.74,0,0,1,3.7,2.51c.09,0,.11.16.22.12s0,0-.1,0,0,0-.09-.06a20.21,20.21,0,0,1-2.23-2.06c-.23-.25-.61-.45-.43-.9a28.5,28.5,0,0,1,4.31-2.08c.56-.26,1.23-.55,1.76-.84a4,4,0,0,1,4.32.41,10.08,10.08,0,0,1,2.58,2.49,15.85,15.85,0,0,1,2.37,4.15A3.84,3.84,0,0,1,206,110a2.65,2.65,0,0,1-1.29,1.69,19.63,19.63,0,0,0-3.3,2.32,32.59,32.59,0,0,1-6.38,4.16c-1.86.92-3.7,1.87-5.56,2.78a11.88,11.88,0,0,1-3.39,1.17,5.11,5.11,0,0,1-2.48-.15,12.48,12.48,0,0,1-4.08-2c-2.38-2-17.81-19.52-18.31-18a34.71,34.71,0,0,0-1.7,5c-.2,1.22-.15,5.36-.29,6.15a37.76,37.76,0,0,0-.9,6.32,5.87,5.87,0,0,0,.57,4.06,5,5,0,0,1,.47,2.54,11.28,11.28,0,0,0,0,2.61c.58,2.68,1.56,2.4,1.69,2.45a10.71,10.71,0,0,0-.09,1.71c0,3-1.55,5.2-3.8,7a7.55,7.55,0,0,1-2,1.4c-.52-.26-1.28.15-1.63-.59a3.81,3.81,0,0,0,1.13-4.21,28.39,28.39,0,0,1-.49-4.62,33.46,33.46,0,0,1-.21-3.78c-1,.34-1.47,1.26-2.23,1.76a25.9,25.9,0,0,0-2.11,1.7c-.21.05-.3,0-.24-.24a26,26,0,0,1,2-3,25.25,25.25,0,0,0,2.82-4.77,11.74,11.74,0,0,0,.85-3.47c.21-2,.4-4.1.78-6.13.15-.82.17-1.65.28-2.48a73.1,73.1,0,0,1,1-7.41c.22-.9.13-1.87.29-2.8.08-.46.05-.93.17-1.4a1.47,1.47,0,0,0-.79-1.91,3.46,3.46,0,0,1-1.26-1c.54-.43,1.2,0,1.74-.3.17-.25,0-.39-.16-.56q-2.53-3.75-5-7.5a1,1,0,0,1-.23-.9,2.58,2.58,0,0,1,1.19.61c2.2,1.78,17.66,21.78,20.22,24.07.8.49,2,1.78,2.91,2,1.56.41,2.86-.24,3.08-1.82,1.24-5.14-9.33-30.36-10.68-33.38a78.33,78.33,0,0,0-4.29-9c-.89-1.41-1.48-3-2.35-4.43s-1.38-1.64-2.82-.67a10.49,10.49,0,0,0-4.06,5.12,26.34,26.34,0,0,0-1.32,5.15C153.18,75.24,153.46,74.86,153.53,74.53Z"/><path class="cls-68" d="M172.08,182.34a9,9,0,0,1-.77,2.39c-2,4.51-4.11,9-6.09,13.51a38.86,38.86,0,0,1-2.27,4.34,27.53,27.53,0,0,0-2.85,6.7c-.5,1.78-1,3.56-1.51,5.35-.3,1.12-.33,2.3-.7,3.4-.07.2-.14.41-.22.61a.27.27,0,0,1-.29-.08,64.31,64.31,0,0,0-7.94-9.41c-.18-.17-.4-.33-.29-.64a5.73,5.73,0,0,0,1.18-2.77A30.41,30.41,0,0,1,153.9,196c.25-.45.48-.9.71-1.36.86-1.71.89-1.89-.68-3.06-1.9-1.42-4-2.42-6.47-2-.67.11-.64-.25-.49-.71,1-4.16,2.69-10.87,4.78-14.6a66.2,66.2,0,0,0,5-11.95,9.5,9.5,0,0,0,.51-3.76c1.06.95,2.44,1.1,3.72,1.5,2.18.68,4.37,1.37,6.51,2.19a16.39,16.39,0,0,1,6.06,4.69,2,2,0,0,1,.4,1.44A24.18,24.18,0,0,1,173,174,79.29,79.29,0,0,0,172.08,182.34Z"/><path class="cls-69" d="M194.32,169.07c.13-1.88.42-3.73.52-5.61s.4-3.73.6-5.59c.1-.93.15-1.88.19-2.81.06-1.56.29-3.1.3-4.66,0-2.68.33-5.36.19-8a19.78,19.78,0,0,0-.28-2.8c-1.21-3.68-26.53-6.43-33.66-1.74-.48.91-3.31,2.68-4.06,3.35-1.27,1.14-3.37,1.57-4.35,2-.18.08,1.09-1.37.86-1.59-.12-.41.29-.29.44-.43a18.76,18.76,0,0,0,3.86-3.33,7.8,7.8,0,0,0,1.82-4.46,8.56,8.56,0,0,0,0-.87c0-1.31,0-1.31,1.33-1.41,1.55-.17,3.1-.37,4.66-.49a69.24,69.24,0,0,1,9.49,0,106,106,0,0,1,12.19,1.73c2,.36,4.09.62,6.14.95a12.22,12.22,0,0,1,4,1.4,7.2,7.2,0,0,1,2.74,3.32,14.57,14.57,0,0,1,1.64,7.47c-.08,1.42-.44,2.8-.59,4.21-.41,3.69-1.39,7.28-2,10.94-.4,2.59-.65,5.19-1,7.79Z"/><path class="cls-69" d="M199.39,168.35c-.62,4.69-.82,12.23-1.23,16.94,0,.47,0,.94-.06,1.42-.1,4.91-.16,9.82-.3,14.73-.07,2.29-.3,4.57-.48,6.86a22.41,22.41,0,0,0,0,4,1.81,1.81,0,0,1-.78,1.79,13.89,13.89,0,0,1-2.13,1.32c-.6.29-1,.63-1,1.38,0,.1-.07.2-.11.3a1.38,1.38,0,0,0-1.6-.66c-.77.1-1.59.57-2.36,0a40.74,40.74,0,0,1,.39-4.64c.15-1.44.28-2.87.48-4.3.29-2,.54-4.08.8-6.11.18-1.43.44-2.85.53-4.3s.34-2.86.56-4.29c.12-.79.15-1.58.25-2.37.23-1.86.54-3.72.65-5.59s.37-3.67.53-5.5c.15-1.68.23-6.2.57-7.87a18.09,18.09,0,0,0,.21-2.37Z"/><path class="cls-70" d="M176,234.8a3.31,3.31,0,0,1-.15-1.81,35.41,35.41,0,0,1,.54-5,7.18,7.18,0,0,0,.1-1.19,12.87,12.87,0,0,1,1.11-4.5c.11-.26.26-.61.48-.7.72-.29.79-.92,1-1.53.34.26.59.61,1.1.61a7.88,7.88,0,0,1,4.76,1.89,11.21,11.21,0,0,0,4.81,2.17,4.29,4.29,0,0,0,1.73,0,2.2,2.2,0,0,0,2-2.46c0-.83-.23-1.65-.26-2.48,0-.35-.18-.72.15-1,2,.72,3.27,2.24,4.58,3.75.52.6,1,1.24,1.58,1.8a12.06,12.06,0,0,0,5,3.14c1.59.47,3.13,1.14,4.7,1.72a11.19,11.19,0,0,0,4.25.79,7.43,7.43,0,0,1,3,.6,3.93,3.93,0,0,1,2,4.62,6.35,6.35,0,0,1-4.14.5c-2.83-.27-5.66-.17-8.49-.16a47.29,47.29,0,0,1-12-1.37,27.78,27.78,0,0,0-9.06-.89c-2.16.17-4.34-.23-6.53-.17-1.51,0-1.52,0-2,1.41A.69.69,0,0,1,176,234.8Z"/><path class="cls-69" d="M172.09,182.59c-.39-.52-.24-3.95-.17-4.5.31-2.33.85-4.61,1.39-6.9a11.31,11.31,0,0,0,.33-3.12,1.49,1.49,0,0,0-.43-1.07,24.09,24.09,0,0,0-4.36-3.75,10.72,10.72,0,0,0-2.18-1,75.81,75.81,0,0,0-8.41-2.6c-.68-.14-.73-.69-1-1.1a1.72,1.72,0,0,0-1.68-1c-5.09-.13-10.18-.09-15.27,0-4.15.09-8.29.14-12.44,0a28.85,28.85,0,0,1-8.46-1.45,8.33,8.33,0,0,1-3-1.74c.22-.33.49-.19.77-.09,1.16.41,2.37.67,3.56,1a11.56,11.56,0,0,0,2.68.36c3.74.07,7.48.52,11.21.22s7.7,0,11.54-.23a21.93,21.93,0,0,0,4.21-.36,3.62,3.62,0,0,1,1,0,61.2,61.2,0,0,0,7.55-.46c1.72-.17,3.41-.6,5.13-.79.93-.1,1.88-.18,2.8-.32a36.67,36.67,0,0,0,4-.36,3.41,3.41,0,0,1,.76,0c2.24-.06,4.46-.36,6.68-.61a51.21,51.21,0,0,0,8-1.58c1.88-.52,3.74-1.12,5.62-1.67.35-.1.7-.38,1.25-.14a8.27,8.27,0,0,1-2.08,1.28c-1.78.82-1.62,2-3.48,2.65-.2.07-.45.15-.43.42s.23.37.43.46c.76.35,8.08.88,8.72,3.15-.52.18-9.31-1.33-9.84-1.35a23.11,23.11,0,0,0-5.56.8,1.48,1.48,0,0,0-1.29,1.39c-.46,3-1.37,5.91-1.84,8.91a4.11,4.11,0,0,1-.59,2c.2.3,0,.48-.19.67a37,37,0,0,1-2.05,4.17C173.81,175.81,172.79,180.53,172.09,182.59Z"/><path class="cls-71" d="M163.19,235a1.52,1.52,0,0,1-1.63,1.4,24.45,24.45,0,0,1-3,0,72.49,72.49,0,0,0-10.13,0c-.4,0-.8,0-1.2,0-2.07,0-2.07,0-3.46-1.47a9.65,9.65,0,0,1-2.15-3.49,50.6,50.6,0,0,1-2-6.43,5.88,5.88,0,0,0-.47-1.22c-.1-.23-.25-.47-.56-.44-.77.07-1.07-.48-1.38-1a13.68,13.68,0,0,1-1.41-3.29c-.27-1-.57-2-.83-2.93a5.19,5.19,0,0,1,.07-3.21,4.64,4.64,0,0,1,1.52-1.79c2-.73,5.14.42,6.6,2.48a27.23,27.23,0,0,1,3.17,6.31c1,2.65,2.1,5.27,3.31,7.82a11.41,11.41,0,0,0,6.8,6.38,20.73,20.73,0,0,0,5.06.54C162,234.76,162.66,234.54,163.19,235Z"/><path class="cls-70" d="M163.19,235c-1.92.13-3.83-.21-5.75-.21a2.39,2.39,0,0,1-.84-.2,12,12,0,0,1-5.93-4.37,32.55,32.55,0,0,1-2.6-5.11c-1.39-3-2.34-6.16-3.89-9.08a19.46,19.46,0,0,0-1.41-2.32,5.33,5.33,0,0,0-2.58-1.91,9.35,9.35,0,0,0-3.72-.61,11.12,11.12,0,0,1,3.3-2.7c.53-.29,1.05-.62,1.56-.95a2,2,0,0,0,.82-1,2.46,2.46,0,0,1,2.28.59,9.21,9.21,0,0,1,3.61,5.77,13.26,13.26,0,0,0,.69,2.07c.75,1.84,1.6,2.37,3.6,2.21a6,6,0,0,1,.87-.08c1,.07,1.37.73,1,1.74a29.5,29.5,0,0,0,.09,3.15,5.34,5.34,0,0,0,.49,1.88c.49,1.09.94,2.2,1.44,3.28.31.68.52,1.45,1.33,1.75.59,1.31,1.92,1.4,3,1.8a3.78,3.78,0,0,1,2.68,2.61A2,2,0,0,1,163.19,235Z"/><path class="cls-67" d="M147,188.89c.11.17-.09.68.33.49a4.47,4.47,0,0,1,3.27.2,9.29,9.29,0,0,1,4.5,2.71c.66.74.66.81.21,1.67a50.82,50.82,0,0,0-3.82,8.27,29.65,29.65,0,0,0-1,4.32,2.49,2.49,0,0,1-1.28,2c-.51.14-.81-.25-1.13-.51-1.62-1.29-3.36-2.17-5.52-1.75a.43.43,0,0,1-.3-.1,6.6,6.6,0,0,1,.65-1.94,97,97,0,0,0,3.48-13.09A9,9,0,0,1,147,188.89Z"/><path class="cls-67" d="M112.06,148.11a19.11,19.11,0,0,0,5.67,1.76,51.86,51.86,0,0,0,10.28.62,31,31,0,0,0,3.44-.35,20.77,20.77,0,0,1,2.48-.26,36.87,36.87,0,0,0,9.46-1.79,35.49,35.49,0,0,0,4.46-1.38c.14-.06.3-.1.38,0a.41.41,0,0,1-.09.5c-.74.75-1.47,1.51-2.24,2.23-.42.39-1,.67-1.37,1.06a9.25,9.25,0,0,1-5.11,2.15c-2.14.36-4.3.5-6.46.69-3.34.3-6.68.06-10,.2a22.88,22.88,0,0,1-7.68-1.23c-.33-.1-.7-.5-1.08-.06A12.07,12.07,0,0,1,112.06,148.11Z"/><path class="cls-71" d="M176,234.8a1.38,1.38,0,0,0,0-.21c.05-1.78.05-1.78,1.8-1.78h3.38a12.34,12.34,0,0,1,1.83.15,6.71,6.71,0,0,0,2.6,0,6,6,0,0,1,1.84-.07,66.29,66.29,0,0,1,10,1.83,20.7,20.7,0,0,0,2.58.32c4.13.4,8.27.11,12.4.25,1.08,0,2.16.17,3.25.2.92,0,1.79-.26,2.7-.22l0,.22c-.1.11-.08.28-.19.38-.2.63-.67.75-1.28.74-2.22,0-4.44,0-6.65,0H179.49c-.76,0-1.53,0-2.29-.06-1.06-.1-1.07-.14-1.17-1.17C176,235.16,176,235,176,234.8Z"/><path class="cls-72" d="M193.31,218.81c.18.92.18,1.86.37,2.78a2.69,2.69,0,0,1-1.44,3.29,4.65,4.65,0,0,1-2.46.25,11.34,11.34,0,0,1-4.84-2.12,7.8,7.8,0,0,0-5.25-2c-.72,0-.53-.53-.64-.89q0-1.51,0-3a45.57,45.57,0,0,0,10.27-.68,13,13,0,0,0,2.87-.32c1-.14,1-.18,1,.82a1.11,1.11,0,0,0,.06.21Q193.31,218,193.31,218.81Z"/><path class="cls-69" d="M105.7,122.13a.67.67,0,0,1,.68-.23,4.54,4.54,0,0,0,4.11-2.42,10,10,0,0,0,1.57-4.92c.19-2.63.39-5.27.67-7.89.17-1.65.49-3.29.76-4.93.13-.82.21-1.66.26-2.48.15-2.57.53-5.1.87-7.65a38,38,0,0,0,.48-5.4,4.07,4.07,0,0,1,.21-1.17,2.26,2.26,0,0,0,0-1.83c.89.44,1,.57.91,1.39s-.16,1.44-.24,2.16c-.18,1.62-.3,3.24-.43,4.86q-.24,3-.44,6c-.15,2.2-.31,4.4-.43,6.61-.16,2.71-.31,5.42-.44,8.14s-.41,5.19-.64,7.79a16.93,16.93,0,0,1-1.07,4.31.83.83,0,0,1-.7.59,12.12,12.12,0,0,1-3.67-.84A4.2,4.2,0,0,1,105.7,122.13Z"/><path class="cls-72" d="M142.23,206.21a5,5,0,0,1,4.66.7c.79.52,1.53,1.1,2.3,1.66a44.33,44.33,0,0,1,6,6.67,7,7,0,0,0,.63.74,7,7,0,0,1,1.83,2.64c.08.68-.4.76-.88.8a5.87,5.87,0,0,1-2.6-.56c0-.45.18-1-.33-1.29a1.26,1.26,0,0,0-1-.16,5.2,5.2,0,0,1-2.14-.05,2.35,2.35,0,0,1-2-1.59,29.74,29.74,0,0,1-1.39-4.21,7,7,0,0,0-2.77-3.88,2.63,2.63,0,0,1-.51-.4c-.42-.54-.87-.85-1.56-.42-.24.15-.26-.15-.34-.28Z"/><path class="cls-69" d="M190.61,103.44a14.11,14.11,0,0,0,1.77,1.9,6.43,6.43,0,0,1,1.08,1.2h0a3.82,3.82,0,0,1-1.4-.8,18.1,18.1,0,0,1-2.53-1.86l.58-.22a.51.51,0,0,0,.29-.15A.34.34,0,0,1,190.61,103.44Z"/><path class="cls-69" d="M188,103.67a3.06,3.06,0,0,0,.3,2.58,8.21,8.21,0,0,1,.95,2.23c-.06.09-.15.11-.19,0-.69-1.22-1.3-2.48-2.07-3.66a1.36,1.36,0,0,1-.08-.53.88.88,0,0,1,.45-.42.48.48,0,0,1,.22-.15Z"/><path class="cls-73" d="M117.12,66.27c.25.21.11.44,0,.68a14.37,14.37,0,0,0-.75,2.56c-.41,0-.34-.2-.22-.44s0-.46,0-.68A7.73,7.73,0,0,1,117.12,66.27Z"/><path class="cls-74" d="M218.18,235.83a.32.32,0,0,1,.19-.38A.32.32,0,0,1,218.18,235.83Z"/><path class="cls-69" d="M187.57,103.77l-.22.15A.19.19,0,0,1,187.57,103.77Z"/><path class="cls-69" d="M190.41,103.5a.29.29,0,0,1-.29.15A.27.27,0,0,1,190.41,103.5Z"/><path class="cls-75" d="M155.07,141.13l-.44.43a19.18,19.18,0,0,1-3,1.8c-.27.1-.52.27-.79.36-3.65,1.16-7.25,2.49-11,3.37q-3.48.81-7,1.43a37.23,37.23,0,0,1-6.29.26,4.21,4.21,0,0,0-1.62.14,1,1,0,0,1-.54,0c-2-.4-4.05-.1-6.07-.19a7.81,7.81,0,0,1-2.41-.44,71.12,71.12,0,0,0,8.37.2c1.44,0,2.88-.22,4.32-.35s2.8-.28,4.2-.48a48.24,48.24,0,0,0,10.19-2.54c1.56-.59,3.11-1.2,4.68-1.76a27.44,27.44,0,0,0,5.77-2.73c.08.06.19.19.23.17A1.13,1.13,0,0,1,155.07,141.13Z"/><path class="cls-76" d="M153.53,74.53c0,.3-.1.65.22.88,0,1-.34,1.87-.33,2.83C153.43,77,153.07,75.75,153.53,74.53Z"/><path class="cls-77" d="M116.2,69.08a.47.47,0,0,0,.22.44l-.56,2.62A5.94,5.94,0,0,1,116.2,69.08Z"/><path class="cls-69" d="M149.58,130.91l.24.24a1.33,1.33,0,0,1-.78.65A1.08,1.08,0,0,1,149.58,130.91Z"/><path class="cls-78" d="M193.46,106.54s.09,0,.09,0-.05.05-.08-.05Z"/><g class="cls-79"><path class="cls-69" d="M111,139.31c.12-2.23.59-1.63.74-3.86.21-3,1-5.87.72-8.87-.06-.6,0-1.26-.68-1.6,1.27-2.3,1.44-4.85,1.67-7.38.47-5.24-1.12-15.44-.78-20.7h28.07a9.76,9.76,0,0,1,9.34,8.06s2.84,11.5,4.1,19.36a23.75,23.75,0,0,1-1.66,2.84c-.92,1.39-1.91,2.74-2.91,4.08-.07.08-.14.15-.23.22.15-.06.21-.21.33-.31,1-1.06,2.24-1.85,3.26-2.89.23-.23.53-.46.87-.33s.41.58.41.94a29.18,29.18,0,0,0,.2,2.94,32.06,32.06,0,0,0,.54,4.86,3.73,3.73,0,0,1-1.37,4.17,15.45,15.45,0,0,1-4.13,2.18c-4.78,1.84-9.51,3.8-14.61,4.65-2.72.46-5.46.71-8.21,1-2.4.23-4.79.09-7.18.19-1.17.05-2.31-.26-3.47-.24a19.42,19.42,0,0,1-3.15-.67c-.4-.14-.84-.24-1-.69l-1.12-.66a1,1,0,0,1-.58-1.26A39.32,39.32,0,0,0,111,139.31Z"/><path class="cls-69" d="M103.82,113.76c.11-1.23.28-2.45.35-3.67a54.05,54.05,0,0,1,1.11-8.17l0-.07h8.5c-.28,2-.65,4.07-.86,6.13-.23,2.32-.26,4.64-.58,6.95a9.62,9.62,0,0,1-2.51,5.8,4.43,4.43,0,0,1-4.15,1.41,10.38,10.38,0,0,1-1.49-4.27c-.18-.92-.29-1.86-.4-2.79A6.69,6.69,0,0,1,103.82,113.76Z"/></g><path class="cls-69" d="M194.63,169.14c-.46,4.66-.95,12.15-1.45,16.81,0,.24-1.24,12.39-1.26,12.63.1-4.61-1.69-9.31-4.82-11.52-4.29-3-10.31-2.54-10.27-1.35-.11-3.94-.19-8.5-.07-11.62,0-1.23.25-2.46.38-3.68.29-.55-.24-1-.18-1.52s.29-1.29.43-1.93l17.39.59Z"/><path class="cls-69" d="M170.29,184.94c-1.53-1.29-17.28-11.4-19.28-3.17l2.47-14,22.69-.35C175.82,167.43,170.29,184.94,170.29,184.94Z"/></g><path class="cls-80" d="M173.64,169.93l-1,2.64c-2.11,5.49-7,18.34-10.5,23.69-2.82,4.36-4.51,11.87-5.52,16.36a28.51,28.51,0,0,1-.83,3.28h0L157.1,218a6.1,6.1,0,0,1,.53,1l.45-1.24.15-.43a12,12,0,0,0,.42-1.94,14.11,14.11,0,0,1,.29-1.48c.32-1.2.67-2.43,1-3.61l.5-1.73a27,27,0,0,1,2.81-6.61,39,39,0,0,0,2.29-4.38c1.27-2.9,2.6-5.82,3.89-8.65q1.1-2.43,2.2-4.85c.06-.13,1-3.57,1.24-4.27.3-.9,0-4.69.44-6.55.08-.37.17-.75.26-1.12l.1-.44v-.06Z"/><path class="cls-81" d="M133.53,24.55A20.92,20.92,0,0,1,133,15c.14-.9.27-1.81.44-2.7a3.53,3.53,0,0,1,.63-1.48c1.3-1.4,2.37-3,4-4.14a2.31,2.31,0,0,1,1.35-.61.34.34,0,0,1,.17.21s0,.09,0,.09-.16.17-.06.08a9.09,9.09,0,0,1,5.88-1.79c1.32,0,3.79-.42,4.74-1.27-.7-.56-.7-.78,0-1.27A4,4,0,0,1,152,1.45a13.58,13.58,0,0,1,11.53,3.83c.71.73.7,1.13-.16,1.47C160,8.1,158.1,11,156.82,14.1c-.14.35-.25.71-.4,1.05s-.21.6-.51.57-.25-.48-.31-.65a7.13,7.13,0,0,1-1.12,3,34.21,34.21,0,0,0-3.58,8,21.12,21.12,0,0,1-1.6,3.87,4.87,4.87,0,0,1-2,2.08,5,5,0,0,1-3.63-.09A8.83,8.83,0,0,1,140.09,28c.13,1.46.13,1.46,1.16,3.35.14.25.44.54.14.82s-.52,0-.77-.08a5.6,5.6,0,0,1-1.87-1.39,12,12,0,0,1-3.16-7.28,11.7,11.7,0,0,0,1,5.87,2.36,2.36,0,0,1,.3,1,.52.52,0,0,1-.11.27c-.78-.07-.85-.84-1.27-1.28s-.38-.89-.81-1.18a9.52,9.52,0,0,1-.62-2.45A4.2,4.2,0,0,0,133.53,24.55Z"/><path class="cls-82" d="M136.78,30.49a29,29,0,0,1-1.31-3.85,7.91,7.91,0,0,1,.2-3.92c.17.83.33,1.67.5,2.5a10.76,10.76,0,0,0,3.55,6,5,5,0,0,0,1.6.79c-.88-1.43-1.79-2.84-1.41-4.63a.12.12,0,0,1,.17.08,9.87,9.87,0,0,0,3.37,4,4.43,4.43,0,0,0,4.6-.35,7.82,7.82,0,0,0,1.78-3c.6-1.52,1.2-3,1.65-4.6A25.27,25.27,0,0,1,154,18.3a10.19,10.19,0,0,0,1.39-3.58.51.51,0,0,1,.32-.44l.09,1.27.13,0c.29-.75.53-1.51.87-2.23a16.71,16.71,0,0,1,3.69-5.19A10.55,10.55,0,0,1,163,6.72c1.08-.57,1.09-.56.24-1.4a13,13,0,0,0-7.31-3.52,12.52,12.52,0,0,0-4.65.08,2.13,2.13,0,0,0-1.51,1c.25.29.51,0,.75,0s.41.26.17.43a9.7,9.7,0,0,1-4.53,1.55,12.74,12.74,0,0,0-3.53.39,6.21,6.21,0,0,0-3.7,2.16c0-.69.62-.85.53-1.31h0a10.74,10.74,0,0,0-3.77,3.19,4.6,4.6,0,0,1-1.63,1.5,20.13,20.13,0,0,1,3.26-5,8.18,8.18,0,0,1,3.44-2.12c.48-.18,1-.33,1.57-.53l-1.61-.73c0-.51.37-.22.6-.21a14.34,14.34,0,0,1,1.62.17,4.06,4.06,0,0,0,2.89-.52,8.52,8.52,0,0,1,4.38-.75,10,10,0,0,0,2.43-.2c2.79-.21,6-.34,8.65.55s5.1,2.17,6.63,4.65A9.32,9.32,0,0,1,169.07,13c-.4,0-.51-.3-.63-.56-.32-.73-.67-.65-1.21-.18a3.89,3.89,0,0,1-2.23,1.1c-1.54-.2-3.47,1.33-4,2.81A42.09,42.09,0,0,0,160,21.78c-.06.33,0,.69-.3.94-.8,0-1.09-.91-1.82-1a2.67,2.67,0,0,0-3.48,2.06,9,9,0,0,0-.22,2.92,12.7,12.7,0,0,0,1.71,5.79c0,.31-.17.45-.42.47a2.76,2.76,0,0,0-2.13,1.57,16.83,16.83,0,0,0-2,3.87,8.07,8.07,0,0,1-4.88,5,10.69,10.69,0,0,1-2.21.38A4.77,4.77,0,0,1,141.3,43a6.32,6.32,0,0,1-1.21-2.45,15.52,15.52,0,0,0-.92-2.43c-.26.29-.08.62-.24.86-.05,0-.15,0-.16-.06-.65-2.52-2-4.76-2.85-7.19a22.62,22.62,0,0,1-1.21-3.67c.07-.07,0-.47.24-.16.5.7.95,1.44,1.41,2.17a1,1,0,0,0,.42.41.23.23,0,0,1,.08.15l0,.08v-.08A.4.4,0,0,0,136.78,30.49Z"/><path class="cls-83" d="M154.16,56.48a38.26,38.26,0,0,0-5.83-2.91,25.44,25.44,0,0,0-8.62-1.92c-.74,0-1.49,0-2.28,0a1.43,1.43,0,0,1,.54-.91,5.24,5.24,0,0,1,3-.22,28.3,28.3,0,0,1,7.84,1.84c1,.43,2,.77,2.9,1.27a.73.73,0,0,0,1.15-.4c.82-1.83,1.81-3.59,2.64-5.42a12.72,12.72,0,0,0,1-4.46c0-.43,0-.88.33-1.22.39.15.42.48.52.76s.23.64.32,1c.88,3.14,2.88,3.84,6.39,3.63,2.7-.16,2.3.19,3.19-2.77a42.08,42.08,0,0,0,1.44-14.26,7.83,7.83,0,0,0-.59-3,2,2,0,0,0-.6-.93c-1.56-1-1.19-2.4-.79-3.8a6.68,6.68,0,0,0,1.86-.91c.31-.22.61-.55,1.07-.32-.11.25-.21.5-.34.74a2,2,0,0,0-.16,1.68c.19.55.31,1.12.48,1.67a4.22,4.22,0,0,0,1.17,2,8.54,8.54,0,0,1,1.55,2c.29.46.61.9.92,1.35a1.84,1.84,0,0,1-.7,3,2.09,2.09,0,0,0-1.34,1.94,23.34,23.34,0,0,1-1.1,4,14.8,14.8,0,0,0-.82,5.11,4.71,4.71,0,0,1-3.16,4.33,19,19,0,0,1-4.55.57,24.81,24.81,0,0,1-4.44-.09c-1.06-.12-1.14-.07-1.51.92-.5,1.34-.94,2.7-1.42,4a3.85,3.85,0,0,0-.13,1.72Z"/><path class="cls-66" d="M148.83,52.61c-1.4-.41-2.78-.88-4.2-1.23a25.75,25.75,0,0,0-6.67-.65,12.32,12.32,0,0,1,.9-1.93c.7-1.39,1.4-2.78,2-4.22.47-1.13-.56-2.28-.8-3.53a2,2,0,0,1,0-.5l1.37,2.26c.38.63,2.3.78,3,.71,3.69-.35,5.63-2.68,6.76-5.91a11.45,11.45,0,0,1,1.88-3.24c.56.12.38.56.35.9a9.24,9.24,0,0,1-.26,1.4c-.92,3.71-1.31,7.54-2.38,11.22-.41,1.41-1,2.73-1.45,4.13C149.33,52.29,149.25,52.64,148.83,52.61Z"/><path class="cls-83" d="M165.16,13.09a6.39,6.39,0,0,0,2.76-1.81c.61.44.69,1.19,1.15,1.67a33.18,33.18,0,0,1,.35,5c0,.37,0,.74.06,1.11a10.32,10.32,0,0,1-1,2c-.15.25-.28.67-.75.46-.47-1.67-.48-3.41-.8-5.1-.06-.3-.09-.6-.15-.9-.1-.51-.36-.69-.87-.52-1.34.45-2.78.71-3.55,2.11a.65.65,0,0,1-.46.07c-1.06-.47-1.18-1.08-.35-2.07A6.27,6.27,0,0,1,165.16,13.09Z"/><path class="cls-82" d="M167.83,21.47a3.69,3.69,0,0,0,.92-1.55,1.5,1.5,0,0,1,.73-.9c1,.9,1,1.58.21,2.47-.66.39-1.31.78-2,1.15-.21.12-.44.36-.71.07A1.35,1.35,0,0,1,167.83,21.47Z"/><path class="cls-82" d="M133.53,24.55a.82.82,0,0,1,.56,1.07C133.61,25.41,133.56,25,133.53,24.55Z"/><path class="cls-84" d="M154.33,56.51a.32.32,0,0,1,.3.21s-.06.11-.09.11-.16-.09-.18-.19Z"/><path class="cls-83" d="M154.33,56.51a.19.19,0,0,0,0,.14.2.2,0,0,1-.19-.17h0A.35.35,0,0,1,154.33,56.51Z"/><path class="cls-20" d="M167.83,21.47a8.56,8.56,0,0,1-.83,1.25c-.38.41-.06.93-.21,1.36-.38,1.09.2,1.62,1,2.24a3.69,3.69,0,0,1,1.06,2.46,49.27,49.27,0,0,1,.17,8.56,29.81,29.81,0,0,1-1,5.89c-.25,1.09-.61,2.16-.87,3.24A1.32,1.32,0,0,1,166,47.6a12.18,12.18,0,0,1-6.35-.4,2.09,2.09,0,0,1-1-.82A13.1,13.1,0,0,1,157,42.64c0-.09,0-.22-.22-.26a12,12,0,0,1-.4,3.67,11.73,11.73,0,0,1-.78,2.2c-.88,1.81-1.87,3.55-2.63,5.42-.24.6-.43.65-1,.39l-3.14-1.45a.76.76,0,0,0,.24-.43,66.31,66.31,0,0,0,2.25-7.36,14.54,14.54,0,0,0,.62-3.78,4.77,4.77,0,0,1,.42-1.77c.54-1.44.56-3,1-4.45a.43.43,0,0,0-.18-.45c.53-.94,1.14-1.76,2.4-1.67.07,0,.15-.11.23-.17.34-.14.59.07.85.22a2.79,2.79,0,0,0,2.14.3,4.47,4.47,0,0,1-3.12-1.88,5,5,0,0,1-.93-3.37,8,8,0,0,0-.13-1.52,5,5,0,0,1,.21-2.51A2.85,2.85,0,0,1,158,21.51c.66.19,1,.75,1.48,1.18.29,0,.39.57.77.24a15.37,15.37,0,0,0,1-4.33,2.21,2.21,0,0,1,1-1.62,2.71,2.71,0,0,1,2.21-1.87,17.6,17.6,0,0,0,1.84-.6c.34-.12.6-.1.66.33.21,1.44.46,2.87.61,4.31A10.64,10.64,0,0,1,167.83,21.47Z"/><path class="cls-18" d="M158,21.51a.67.67,0,0,1-.56.18,2.42,2.42,0,0,0-2.22,1.54,4.52,4.52,0,0,0-.39,3.17,5.47,5.47,0,0,1,.09,1.72,4.71,4.71,0,0,0,2,4,3.41,3.41,0,0,0,1.41.57,3.7,3.7,0,0,1,1,.36,2.55,2.55,0,0,1-2.45.12c-.39-.21-.76-.44-1.15-.66a6.86,6.86,0,0,1-1.64-3.85c0-.77-.24-1.54-.29-2.31a5.79,5.79,0,0,1,.87-4A2.62,2.62,0,0,1,158,21.51Z"/><path class="cls-82" d="M160.3,23.34c-.56.14-.57-.37-.77-.65a10.91,10.91,0,0,0,.36-2.88,17.16,17.16,0,0,1,.44-3.4,3.67,3.67,0,0,1,2.23-2.54.69.69,0,0,0,.17-.12,2.06,2.06,0,0,1,2.44-.67,11.18,11.18,0,0,1-2,1,4.27,4.27,0,0,0-1.71,1.54c-.22.37-.45.71.13,1,.13.06.2.26.3.4.28.56-.45,1-.55,1.56A27.5,27.5,0,0,0,160.3,23.34Z"/><path class="cls-85" d="M137,30.9a.42.42,0,0,1-.2-.41h0a.42.42,0,0,1,.2.41Z"/><path class="cls-85" d="M137,30.9l.08,0c0,.07,0,.05-.08,0Z"/><path class="cls-85" d="M139.44,6.13s0-.08,0-.08.05,0,0,.08Z"/><path class="cls-86" d="M160.3,23.34a6.75,6.75,0,0,1,.62-4.12,12,12,0,0,0,1-2.24h.4a10.16,10.16,0,0,0-.78,2.16A9.51,9.51,0,0,1,160.3,23.34Z"/><path class="cls-69" d="M161.09,131c-.13,0-1.12.24-1.69-2.45a11.33,11.33,0,0,1,0-2.61,5,5,0,0,0-.47-2.54,5.87,5.87,0,0,1-.57-4.06,37.73,37.73,0,0,1,.9-6.32c.14-.79.09-4.93.29-6.15a30,30,0,0,1,1.62-4.82c-1.71-3.44-6.51-10.49-8.84-14.34a1.93,1.93,0,0,0-.45-.14,1,1,0,0,0,.23.9q2.51,3.76,5,7.5c.12.17.33.31.16.56-.53.26-1.2-.13-1.73.3a3.43,3.43,0,0,0,1.26,1,1.47,1.47,0,0,1,.79,1.91c-.12.47-.1.94-.17,1.4-.16.93-.07,1.9-.29,2.8a73,73,0,0,0-1,7.41c-.11.83-.12,1.66-.28,2.48-.38,2-.57,4.08-.78,6.13a11.71,11.71,0,0,1-.85,3.47,25.19,25.19,0,0,1-2.82,4.77,25.91,25.91,0,0,0-2,3c-.05.22,0,.29.24.24a25.89,25.89,0,0,1,2.11-1.69c.76-.5,1.2-1.41,2.23-1.76a33.47,33.47,0,0,0,.2,3.78,28.39,28.39,0,0,0,.5,4.62,3.81,3.81,0,0,1-1.13,4.21c.34.74,1.11.33,1.63.59a7.56,7.56,0,0,0,2-1.4c2.26-1.78,3.82-4,3.8-7A10.75,10.75,0,0,1,161.09,131Z"/><path class="cls-62" d="M98.43,164.46c-2.55,0-5.38-3.18-7.2-8.26A64.43,64.43,0,0,1,88.68,146l-.21-1.28,2.56-.43.21,1.28c1.48,8.92,4.28,15.64,6.49,15.64,1.25,0,3.09-.06,5.64-.14,6.69-.21,17.89-.57,37.8-.57h1.3v2.59h-1.3c-19.87,0-30.33,1.06-37,1.27C101.58,164.4,99.72,164.46,98.43,164.46Z"/><path class="cls-64" d="M143.51,163.05H100.07c-5.54,0-8.18-12.22-9.05-17.47l2.56-.43c1.45,8.72,4.25,15.3,6.5,15.3h43.43Z"/><path class="cls-87" d="M196.32,165.17a22.85,22.85,0,0,1-11.48,3.15H127.46c-12.77,0-26.47-.93-28.5-6.11s87.69-3.3,87.69-3.3,7.07,1.27,7.81,1.82S196.32,165.17,196.32,165.17Z"/><path class="cls-88" d="M92.33,144.26l-6.21-41.91c-.14-1-4.93-1.37-4.74-2.23.69-3.08,3.63-8,11.34-8h38.87a9.76,9.76,0,0,1,9.34,8.06s6.87,41,6.56,42.21-1.42,3.7-3.45,3.7-51.36.37-51.36.37Z"/><path class="cls-89" d="M147.45,163.32H101.68a3.89,3.89,0,1,1,0-7.77h45.78a3.89,3.89,0,1,1,0,7.77Z"/><path class="cls-90" d="M199.27,169.84a3.89,3.89,0,0,1-3.84-3.35c-.28-1.19-2.23-3.17-7.82-3.17H147.45a3.89,3.89,0,1,1,0-7.77h40.16c5.62,0,9.9,1.49,12.72,4.41a9.71,9.71,0,0,1,2.83,5.88l.11,3.78-3.77.22ZM195.39,166a2.81,2.81,0,0,0,0,.51q0-.12,0-.23T195.39,166Z"/><path class="cls-91" d="M90.24,143.55,84,101.64c-.14-1-3.45-1.37-3.26-2.23.69-3.08,6.71-5.83,10.21-5.83h38.87a9.76,9.76,0,0,1,9.34,8.06l6.21,41.91-2.34,2.22H90.58Z"/><path class="cls-92" d="M101.51,163.44h45.6a3.89,3.89,0,0,0,0-7.77h-1.27c-1.65,4.27-6.42,5.34-24.88,5.34-23.65,0-22-.71-23.33-1.46A3.88,3.88,0,0,0,101.51,163.44Z"/><path class="cls-62" d="M193.17,163.05l-37.46,0-7.27,1c-2.55,0-4.67-3.41-6.49-8.24a58,58,0,0,1-2.56-9.92l-.21-1.28,2.56-.43.21,1.28c1.62,9.7,4.55,14.93,6.5,14.93h44.73Z"/><path class="cls-64" d="M194.22,163.4H150.79c-2.55,0-4.68-2.47-6.5-7.56a64.57,64.57,0,0,1-2.56-10.26l2.56-.43c1.49,8.93,4.28,15.66,6.5,15.66h43.43Z"/><path class="cls-62" d="M144.84,238.37,155,164.3c.27-1.78-.58-3.57,1.22-3.57l29.79.65a4,4,0,0,1,3.81,3.29l10.45,73.72h3.8l-9.84-74.1c-.45-3-4.53-5.39-7.6-5.39l-31.16-.11a6.66,6.66,0,0,0-6.38,5.5L138.65,238l3,.35Z"/><path class="cls-93" d="M151.3,160.42h6.89v1h-2c-1.74,0-1,1.06-1.2,2.74h-5.88A6.47,6.47,0,0,1,151.3,160.42Z"/><path class="cls-64" d="M204,238.38l-10.48-73.71a4,4,0,0,0-3.78-3.28H159.19a4,4,0,0,0-3.78,3.28l-10.48,73.71-2.57-.36,10.48-73.71a6.61,6.61,0,0,1,6.35-5.51h30.53a6.61,6.61,0,0,1,6.35,5.51L206.55,238Z"/><path class="cls-87" d="M89.83,144.26l-6.21-41.91c-.14-1-3.45-1.37-3.26-2.23.69-3.08,6.71-5.83,10.21-5.83h38.87a9.76,9.76,0,0,1,9.34,8.06L145,144.26l-2.34,2.22H90.17Z"/><path class="cls-94" d="M85.64,146.48l-6.21-41.91a6.83,6.83,0,0,1,6.95-8.06h40.72a9.76,9.76,0,0,1,9.34,8.06l6.21,41.91s-12.09,3.08-31.34,3.08S85.64,146.48,85.64,146.48Z"/><rect class="cls-87" x="140.86" y="234.52" width="1.76" height="6.95" transform="translate(-110.39 352.7) rotate(-83.69)"/><rect class="cls-87" x="200" y="237.29" width="6.92" height="1.76" transform="translate(-13.79 12.51) rotate(-3.41)"/><rect class="cls-87" x="93.43" y="232.17" width="1.76" height="6.95" transform="translate(-150.27 303.46) rotate(-83.68)"/><g class="cls-95"><path class="cls-96" d="M127.09,102.15a4.14,4.14,0,0,1,3.76,3.24L136.27,142a154.39,154.39,0,0,1-25,1.94c-10.86,0-17.3-1-20.6-1.79L85,103.74a1.23,1.23,0,0,1,1.37-1.59Zm0-1.76H86.38A3,3,0,0,0,83.26,104l5.86,39.56c2.91.79,9.71,2.13,22.18,2.13a152.22,152.22,0,0,0,27-2.26l-5.67-38.29a5.9,5.9,0,0,0-5.5-4.75Z"/></g></g></g></svg>