<svg id="Layer_1" data-name="Layer 1" xmlns="http://www.w3.org/2000/svg" viewBox="0 0 56 56"><defs><style>.cls-1{fill:#fff;}</style></defs><title>plus</title><g id="_Group_" data-name="&lt;Group&gt;"><g id="_Group_2" data-name="&lt;Group&gt;"><path id="_Path_" data-name="&lt;Path&gt;" class="cls-1" d="M28,55h0a5.73,5.73,0,0,1-5.72-5.72V6.71A5.73,5.73,0,0,1,28,1h0a5.73,5.73,0,0,1,5.72,5.72V49.29A5.73,5.73,0,0,1,28,55Z"/><path id="_Path_2" data-name="&lt;Path&gt;" class="cls-1" d="M1,28H1a5.73,5.73,0,0,1,5.72-5.72H49.29A5.73,5.73,0,0,1,55,28h0a5.73,5.73,0,0,1-5.72,5.72H6.71A5.73,5.73,0,0,1,1,28Z"/></g></g></svg>