<svg xmlns="http://www.w3.org/2000/svg" xmlns:xlink="http://www.w3.org/1999/xlink" viewBox="0 0 400 754"><defs><style>.cls-1{isolation:isolate;}.cls-2{mix-blend-mode:multiply;}.cls-3{fill:#fff;opacity:0;}.cls-4{fill:#f9fafa;opacity:0.02;}.cls-5{fill:#f5f5f6;opacity:0.03;}.cls-6{fill:#f1f2f3;opacity:0.05;}.cls-7{fill:#edeef0;opacity:0.06;}.cls-8{fill:#eaebee;opacity:0.08;}.cls-9{fill:#e6e8eb;opacity:0.09;}.cls-10{fill:#e3e5e8;opacity:0.11;}.cls-11{fill:#dfe2e6;opacity:0.13;}.cls-12{fill:#dce0e4;opacity:0.14;}.cls-13{fill:#d9dde1;opacity:0.16;}.cls-14{fill:#d5dadf;opacity:0.17;}.cls-15{fill:#d2d7dd;opacity:0.19;}.cls-16{fill:#cfd5da;opacity:0.2;}.cls-17{fill:#cbd2d8;opacity:0.22;}.cls-18{fill:#c8cfd6;opacity:0.24;}.cls-19{fill:#c5cdd4;opacity:0.25;}.cls-20{fill:#c2cad1;opacity:0.27;}.cls-21{fill:#bfc8cf;opacity:0.28;}.cls-22{fill:#bcc5cd;opacity:0.3;}.cls-23{fill:#b9c3cb;opacity:0.31;}.cls-24{fill:#b6c0c9;opacity:0.33;}.cls-25{fill:#b3bec7;opacity:0.35;}.cls-26{fill:#b0bbc5;opacity:0.36;}.cls-27{fill:#adb9c3;opacity:0.38;}.cls-28{fill:#aab7c1;opacity:0.39;}.cls-29{fill:#a7b4bf;opacity:0.41;}.cls-30{fill:#a4b2bd;opacity:0.42;}.cls-31{fill:#a1b0bb;opacity:0.44;}.cls-32{fill:#9eaeb9;opacity:0.45;}.cls-33{fill:#9bacb7;opacity:0.47;}.cls-34{fill:#99a9b6;opacity:0.49;}.cls-35{fill:#96a7b4;opacity:0.5;}.cls-36{fill:#93a5b2;opacity:0.52;}.cls-37{fill:#90a3b0;opacity:0.53;}.cls-38{fill:#8ea1ae;opacity:0.55;}.cls-39{fill:#8b9fad;opacity:0.56;}.cls-40{fill:#889dab;opacity:0.58;}.cls-41{fill:#869ba9;opacity:0.6;}.cls-42{fill:#8399a8;opacity:0.61;}.cls-43{fill:#8097a6;opacity:0.63;}.cls-44{fill:#7e95a4;opacity:0.64;}.cls-45{fill:#7b93a3;opacity:0.66;}.cls-46{fill:#7892a1;opacity:0.67;}.cls-47{fill:#76909f;opacity:0.69;}.cls-48{fill:#738e9e;opacity:0.71;}.cls-49{fill:#708c9c;opacity:0.72;}.cls-50{fill:#6e8a9a;opacity:0.74;}.cls-51{fill:#6b8999;opacity:0.75;}.cls-52{fill:#688797;opacity:0.77;}.cls-53{fill:#668596;opacity:0.78;}.cls-54{fill:#638494;opacity:0.8;}.cls-55{fill:url(#linear-gradient);}.cls-56{fill:url(#linear-gradient-2);}.cls-57{fill:#253b7c;}.cls-58{fill:#efb764;}.cls-59{fill:url(#linear-gradient-3);}.cls-60{fill:url(#linear-gradient-4);}.cls-61{fill:url(#linear-gradient-5);}.cls-62{fill:url(#linear-gradient-6);}.cls-63{fill:url(#linear-gradient-7);}.cls-64{fill:url(#linear-gradient-8);}.cls-65{fill:url(#linear-gradient-9);}.cls-66{fill:url(#linear-gradient-10);}.cls-67{fill:#edeff0;}</style><linearGradient id="linear-gradient" x1="215.23" y1="509.27" x2="197.51" y2="597.03" gradientUnits="userSpaceOnUse"><stop offset="0" stop-color="#fff"/><stop offset="0.26" stop-color="#fcfcfc"/><stop offset="0.47" stop-color="#f2f2f2"/><stop offset="0.67" stop-color="#e0e0e1"/><stop offset="0.85" stop-color="#c9c9c9"/><stop offset="1" stop-color="#b0b0b1"/></linearGradient><linearGradient id="linear-gradient-2" x1="207.11" y1="491.2" x2="207.11" y2="558.01" gradientUnits="userSpaceOnUse"><stop offset="0" stop-color="#fff"/><stop offset="0.8" stop-color="#e8e8e9"/><stop offset="1" stop-color="#e1e1e3"/></linearGradient><linearGradient id="linear-gradient-3" x1="215.23" y1="128.74" x2="197.51" y2="216.49" xlink:href="#linear-gradient"/><linearGradient id="linear-gradient-4" x1="207.11" y1="110.66" x2="207.11" y2="177.48" xlink:href="#linear-gradient-2"/><linearGradient id="linear-gradient-5" x1="215.23" y1="255.58" x2="197.51" y2="343.33" xlink:href="#linear-gradient"/><linearGradient id="linear-gradient-6" x1="207.11" y1="237.51" x2="207.11" y2="304.32" xlink:href="#linear-gradient-2"/><linearGradient id="linear-gradient-7" x1="215.23" y1="636.12" x2="197.51" y2="723.87" xlink:href="#linear-gradient"/><linearGradient id="linear-gradient-8" x1="207.11" y1="618.05" x2="207.11" y2="684.86" xlink:href="#linear-gradient-2"/><linearGradient id="linear-gradient-9" x1="215.23" y1="382.43" x2="197.51" y2="470.18" xlink:href="#linear-gradient"/><linearGradient id="linear-gradient-10" x1="207.11" y1="364.35" x2="207.11" y2="431.17" xlink:href="#linear-gradient-2"/></defs><title>trueloan-services</title><g class="cls-1"><g id="Layer_1" data-name="Layer 1"><g class="cls-2"><path class="cls-3" d="M347.79,605.11H44.92c-18.79,0-38.14-13.55-38.14-43.58s29.48-43.58,52.43-43.58H357.93c18.79,0,34,8.84,34,33.55C391.94,588.69,373.19,605.11,347.79,605.11Z"/><path class="cls-4" d="M347.65,604.7H45.15c-18.77,0-37.94-13.51-37.94-43.35S36.59,518,59.44,518H357.92c18.77,0,34,8.9,34,33.51C391.89,588.39,373.1,604.7,347.65,604.7Z"/><path class="cls-5" d="M347.52,604.29H45.38c-18.74,0-37.74-13.47-37.74-43.12s29.29-43.12,52-43.12H357.92c18.74,0,33.92,9,33.92,33.47C391.84,588.1,373,604.29,347.52,604.29Z"/><path class="cls-6" d="M347.38,603.89H45.6c-18.72,0-37.54-13.43-37.54-42.88s29.2-42.88,51.83-42.88h298c18.72,0,33.87,9,33.87,33.43C391.79,587.81,372.91,603.89,347.38,603.89Z"/><path class="cls-7" d="M347.25,603.48H45.83c-18.69,0-37.34-13.39-37.34-42.65s29.11-42.65,51.63-42.65H357.91c18.69,0,33.83,9.09,33.83,33.4C391.74,587.52,372.82,603.48,347.25,603.48Z"/><path class="cls-8" d="M347.11,603.07H46.06c-18.67,0-37.13-13.36-37.13-42.41s29-42.41,51.44-42.41H357.91c18.67,0,33.78,9.16,33.78,33.36C391.69,587.23,372.73,603.07,347.11,603.07Z"/><path class="cls-9" d="M347,602.66H46.29c-18.64,0-36.93-13.32-36.93-42.18S38.28,518.3,60.59,518.3H357.9c18.64,0,33.74,9.22,33.74,33.32C391.64,586.94,372.63,602.66,347,602.66Z"/><path class="cls-10" d="M346.84,602.26H46.51C27.9,602.26,9.78,589,9.78,560.31s28.84-41.95,51-41.95H357.9c18.62,0,33.69,9.28,33.69,33.29C391.59,586.64,372.54,602.26,346.84,602.26Z"/><path class="cls-11" d="M346.71,601.85h-300c-18.59,0-36.53-13.24-36.53-41.71S39,518.42,61.06,518.42H357.89c18.59,0,33.65,9.34,33.65,33.25C391.54,586.35,372.45,601.85,346.71,601.85Z"/><path class="cls-12" d="M346.57,601.44H47c-18.57,0-36.33-13.2-36.33-41.48s28.65-41.48,50.64-41.48h296.6c18.57,0,33.6,9.41,33.6,33.21C391.49,586.06,372.35,601.44,346.57,601.44Z"/><path class="cls-13" d="M346.44,601H47.2c-18.54,0-36.12-13.17-36.12-41.25s28.56-41.24,50.45-41.24H357.88c18.54,0,33.56,9.47,33.56,33.17C391.44,585.77,372.26,601,346.44,601Z"/><path class="cls-14" d="M346.3,600.63H47.42c-18.52,0-35.92-13.13-35.92-41s28.47-41,50.25-41H357.88c18.52,0,33.51,9.53,33.51,33.14C391.39,585.48,372.17,600.63,346.3,600.63Z"/><path class="cls-15" d="M346.17,600.22H47.65c-18.49,0-35.72-13.09-35.72-40.78s28.38-40.78,50-40.78h295.9c18.49,0,33.47,9.6,33.47,33.1C391.34,585.18,372.07,600.22,346.17,600.22Z"/><path class="cls-16" d="M346,599.81H47.88c-18.47,0-35.52-13.05-35.52-40.54s28.29-40.54,49.85-40.54H357.87c18.47,0,33.42,9.66,33.42,33.06C391.29,584.89,372,599.81,346,599.81Z"/><path class="cls-17" d="M345.9,599.41H48.1c-18.44,0-35.32-13-35.32-40.31S41,518.79,62.44,518.79H357.87c18.44,0,33.37,9.72,33.37,33C391.24,584.6,371.89,599.41,345.9,599.41Z"/><path class="cls-18" d="M345.76,599H48.33c-18.42,0-35.11-13-35.11-40.08s28.11-40.07,49.45-40.07H357.86c18.42,0,33.33,9.79,33.33,33C391.19,584.31,371.79,599,345.76,599Z"/><path class="cls-19" d="M345.63,598.59H48.56c-18.39,0-34.91-12.94-34.91-39.84s28-39.84,49.26-39.84h295c18.39,0,33.28,9.85,33.28,33C391.14,584,371.7,598.59,345.63,598.59Z"/><path class="cls-20" d="M345.49,598.18H48.79c-18.37,0-34.71-12.9-34.71-39.61S42,519,63.14,519H357.85c18.37,0,33.24,9.91,33.24,32.91C391.09,583.73,371.61,598.18,345.49,598.18Z"/><path class="cls-21" d="M345.36,597.78H49c-18.34,0-34.51-12.86-34.51-39.37S42.34,519,63.37,519H357.85c18.34,0,33.19,10,33.19,32.88C391,583.43,371.52,597.78,345.36,597.78Z"/><path class="cls-22" d="M345.22,597.37h-296c-18.32,0-34.31-12.83-34.31-39.14s27.74-39.14,48.66-39.14H357.84c18.32,0,33.15,10,33.15,32.84C391,583.14,371.42,597.37,345.22,597.37Z"/><path class="cls-23" d="M345.09,597H49.47c-18.29,0-34.1-12.79-34.1-38.91s27.65-38.9,48.46-38.9h294c18.29,0,33.1,10.1,33.1,32.8C390.94,582.85,371.33,597,345.09,597Z"/><path class="cls-24" d="M345,596.55H49.7c-18.27,0-33.9-12.75-33.9-38.67s27.56-38.67,48.27-38.67H357.84c18.27,0,33.06,10.16,33.06,32.77C390.89,582.56,371.24,596.55,345,596.55Z"/><path class="cls-25" d="M344.82,596.15H49.92c-18.24,0-33.7-12.71-33.7-38.44s27.46-38.44,48.07-38.44H357.83c18.24,0,33,10.23,33,32.73C390.84,582.27,371.14,596.15,344.82,596.15Z"/><path class="cls-26" d="M344.68,595.74H50.15c-18.21,0-33.5-12.68-33.5-38.2s27.37-38.2,47.87-38.2h293.3c18.22,0,33,10.29,33,32.69C390.79,582,371,595.74,344.68,595.74Z"/><path class="cls-27" d="M344.55,595.33H50.38c-18.19,0-33.3-12.64-33.3-38s27.28-38,47.67-38H357.82c18.19,0,32.92,10.35,32.92,32.65C390.74,581.68,371,595.33,344.55,595.33Z"/><path class="cls-28" d="M344.41,594.93H50.61c-18.16,0-33.09-12.6-33.09-37.74S44.7,519.45,65,519.45H357.82c18.17,0,32.88,10.42,32.88,32.62C390.7,581.39,370.86,594.93,344.41,594.93Z"/><path class="cls-29" d="M344.28,594.52H50.83c-18.14,0-32.89-12.56-32.89-37.5s27.1-37.5,47.27-37.5h292.6c18.14,0,32.83,10.48,32.83,32.58C390.65,581.1,370.77,594.52,344.28,594.52Z"/><path class="cls-30" d="M344.14,594.11H51.06c-18.11,0-32.69-12.52-32.69-37.27s27-37.27,47.08-37.27H357.81c18.12,0,32.79,10.54,32.79,32.54C390.6,580.81,370.68,594.11,344.14,594.11Z"/><path class="cls-31" d="M344,593.7H51.29c-18.09,0-32.49-12.49-32.49-37s26.92-37,46.88-37H357.8c18.09,0,32.74,10.6,32.74,32.51C390.55,580.52,370.58,593.7,344,593.7Z"/><path class="cls-32" d="M343.87,593.3H51.52c-18.06,0-32.29-12.45-32.29-36.8s26.82-36.8,46.68-36.8H357.8c18.06,0,32.7,10.67,32.7,32.47C390.5,580.23,370.49,593.3,343.87,593.3Z"/><path class="cls-33" d="M343.74,592.89h-292c-18,0-32.08-12.41-32.08-36.57s26.73-36.57,46.48-36.57H357.79c18,0,32.65,10.73,32.65,32.43C390.45,579.93,370.4,592.89,343.74,592.89Z"/><path class="cls-34" d="M343.6,592.48H52c-18,0-31.88-12.37-31.88-36.33s26.64-36.33,46.28-36.33H357.79c18,0,32.61,10.79,32.61,32.39C390.4,579.64,370.3,592.48,343.6,592.48Z"/><path class="cls-35" d="M343.47,592.07H52.2c-18,0-31.68-12.33-31.68-36.1s26.55-36.1,46.09-36.1H357.79c18,0,32.56,10.86,32.56,32.36C390.35,579.35,370.21,592.07,343.47,592.07Z"/><path class="cls-36" d="M343.33,591.67H52.43c-18,0-31.48-12.3-31.48-35.86s26.46-35.86,45.89-35.86H357.78c18,0,32.52,10.92,32.52,32.32C390.3,579.06,370.12,591.67,343.33,591.67Z"/><path class="cls-37" d="M343.2,591.26H52.65c-17.94,0-31.28-12.26-31.28-35.63S47.74,520,67.07,520H357.78c17.94,0,32.47,11,32.47,32.28C390.25,578.77,370,591.26,343.2,591.26Z"/><path class="cls-38" d="M343.06,590.85H52.88c-17.91,0-31.07-12.22-31.07-35.4s26.28-35.4,45.49-35.4H357.77c17.91,0,32.43,11,32.43,32.25C390.2,578.47,369.93,590.85,343.06,590.85Z"/><path class="cls-39" d="M342.93,590.44H53.11c-17.89,0-30.87-12.18-30.87-35.16s26.18-35.16,45.29-35.16H357.77c17.89,0,32.38,11.11,32.38,32.21C390.15,578.18,369.84,590.44,342.93,590.44Z"/><path class="cls-40" d="M342.79,590H53.34c-17.86,0-30.67-12.15-30.67-34.93s26.09-34.93,45.1-34.93h290c17.86,0,32.34,11.17,32.34,32.17C390.1,577.89,369.75,590,342.79,590Z"/><path class="cls-41" d="M342.66,589.63H53.56c-17.84,0-30.47-12.11-30.47-34.69s26-34.69,44.9-34.69H357.76c17.84,0,32.29,11.23,32.29,32.13C390.05,577.6,369.65,589.63,342.66,589.63Z"/><path class="cls-42" d="M342.52,589.22H53.79c-17.81,0-30.27-12.07-30.27-34.46s25.91-34.46,44.7-34.46H357.75c17.81,0,32.25,11.3,32.25,32.1C390,577.31,369.56,589.22,342.52,589.22Z"/><path class="cls-43" d="M342.39,588.82H54c-17.79,0-30.06-12-30.06-34.23s25.82-34.23,44.5-34.23h289.3c17.79,0,32.2,11.36,32.2,32.06C390,577,369.47,588.82,342.39,588.82Z"/><path class="cls-44" d="M342.26,588.41h-288c-17.76,0-29.86-12-29.86-34s25.73-34,44.3-34H357.75c17.76,0,32.16,11.42,32.16,32C389.9,576.72,369.37,588.41,342.26,588.41Z"/><path class="cls-45" d="M342.12,588H54.47c-17.74,0-29.66-12-29.66-33.76s25.63-33.76,44.1-33.76H357.74c17.74,0,32.11,11.49,32.11,32C389.85,576.43,369.28,588,342.12,588Z"/><path class="cls-46" d="M342,587.59H54.7c-17.71,0-29.46-11.92-29.46-33.53s25.54-33.52,43.91-33.52H357.74c17.71,0,32.07,11.55,32.07,31.95C389.8,576.14,369.19,587.59,342,587.59Z"/><path class="cls-47" d="M341.85,587.19H54.93c-17.69,0-29.26-11.88-29.26-33.29S51.12,520.6,69.38,520.6H357.73c17.69,0,32,11.61,32,31.91C389.75,575.85,369.09,587.19,341.85,587.19Z"/><path class="cls-48" d="M341.72,586.78H55.15c-17.66,0-29.05-11.84-29.05-33.06s25.36-33.06,43.51-33.06H357.73c17.66,0,32,11.68,32,31.88C389.7,575.56,369,586.78,341.72,586.78Z"/><path class="cls-49" d="M341.58,586.37H55.38c-17.64,0-28.85-11.81-28.85-32.82s25.27-32.82,43.31-32.82H357.72c17.64,0,31.93,11.74,31.93,31.84C389.65,575.27,368.91,586.37,341.58,586.37Z"/><path class="cls-50" d="M341.45,586H55.61C38,586,27,574.2,27,553.37s25.18-32.59,43.11-32.59H357.72c17.61,0,31.88,11.8,31.88,31.8C389.6,575,368.81,586,341.45,586Z"/><path class="cls-51" d="M341.31,585.56H55.84c-17.59,0-28.45-11.73-28.45-32.36s25.09-32.35,42.92-32.35H357.71c17.59,0,31.84,11.86,31.84,31.76C389.55,574.68,368.72,585.56,341.31,585.56Z"/><path class="cls-52" d="M341.18,585.15H56.06c-17.56,0-28.25-11.69-28.25-32.12s25-32.12,42.72-32.12H357.71c17.56,0,31.79,11.93,31.79,31.73C389.5,574.39,368.63,585.15,341.18,585.15Z"/><path class="cls-53" d="M341,584.74H56.29c-17.53,0-28-11.65-28-31.89S53.15,521,70.77,521H357.71c17.54,0,31.75,12,31.75,31.69C389.45,574.1,368.54,584.74,341,584.74Z"/><path class="cls-54" d="M340.91,584.33H56.52c-17.51,0-27.84-11.62-27.84-31.65S53.49,521,71,521H357.7c17.51,0,31.7,12.05,31.7,31.65C389.41,573.81,368.44,584.33,340.91,584.33Z"/></g><path class="cls-55" d="M393.22,552.68c0,19.51-14.76,35.32-33,35.32H52.66c-18.21,0-33-15.81-33-35.32h0c0-19.51,15.13-35.32,33.34-35.32H360.26c18.21,0,33,15.81,33,35.32Z"/><path class="cls-56" d="M392,552.68c0,18.45-14.52,33.41-32.42,33.41H54.69c-17.91,0-32.43-15-32.43-33.41h0c0-18.45,14.52-33.41,32.43-33.41H359.53c17.91,0,32.42,15,32.42,33.41Z"/><path class="cls-57" d="M66.9,44.47H60.55V38.95H79.32v5.52H73V77.58H66.9Z"/><path class="cls-57" d="M82.8,38.95h6.07V54.68h6.51V38.95h6.07V77.58H95.38V60.2H88.87V77.58H82.8Z"/><path class="cls-57" d="M106.53,38.95h16.56v5.52H112.6V54.68h8.33V60.2H112.6V72.06h10.49v5.52H106.53Z"/><path class="cls-57" d="M141.25,44.47H134.9V38.95h18.77v5.52h-6.35V77.58h-6.07Z"/><path class="cls-57" d="M157.14,38.95h9q4.69,0,6.84,2.18t2.15,6.71v2.37q0,6-4,7.62v.11a4.74,4.74,0,0,1,3.12,2.7,13.61,13.61,0,0,1,.91,5.46v6.79a25.91,25.91,0,0,0,.11,2.68,6.7,6.7,0,0,0,.55,2h-6.18a8.86,8.86,0,0,1-.44-1.77,26.54,26.54,0,0,1-.11-3V65.77a6,6,0,0,0-.86-3.7,3.62,3.62,0,0,0-3-1h-2.1V77.58h-6.07Zm8.28,16.56a3.64,3.64,0,0,0,2.73-.94,4.43,4.43,0,0,0,.91-3.15v-3a4.9,4.9,0,0,0-.75-3,2.81,2.81,0,0,0-2.35-.94h-2.76v11Z"/><path class="cls-57" d="M182,75.62q-2.32-2.51-2.32-7.2V38.95h6.07V68.86a4.21,4.21,0,0,0,.8,2.87,3.41,3.41,0,0,0,4.58,0,4.21,4.21,0,0,0,.8-2.87V38.95h5.85V68.42q0,4.69-2.32,7.2t-6.73,2.51Q184.35,78.14,182,75.62Z"/><path class="cls-57" d="M202.68,38.95h16.56v5.52H208.75V54.68h8.33V60.2h-8.33V72.06h10.49v5.52H202.68Z"/><path class="cls-57" d="M232.64,38.95h6.07V72.06h10v5.52H232.64Z"/><path class="cls-57" d="M253.89,75.6q-2.37-2.54-2.37-7.18V48.11q0-4.64,2.37-7.18t6.84-2.54q4.47,0,6.84,2.54T270,48.11V68.42q0,4.64-2.37,7.18t-6.84,2.54Q256.27,78.14,253.89,75.6Zm10-6.79V47.72q0-3.81-3.15-3.81t-3.15,3.81V68.81q0,3.81,3.15,3.81T263.88,68.81Z"/><path class="cls-57" d="M279.17,38.95h8.22l6.29,38.64h-6.07l-1.1-7.67V70h-6.9l-1.1,7.56h-5.63Zm6.62,25.83-2.7-19.1H283l-2.65,19.1Z"/><path class="cls-57" d="M297.16,38.95h7.62l5.91,23.13h.11V38.95h5.41V77.58H310l-7.29-28.2h-.11v28.2h-5.41Z"/><path class="cls-57" d="M322.5,75.62q-2.26-2.51-2.26-7.2V66.21H326v2.65q0,3.75,3.15,3.75a3,3,0,0,0,2.35-.91,4.43,4.43,0,0,0,.8-3,8.19,8.19,0,0,0-1.1-4.28A20.45,20.45,0,0,0,327.08,60a24.44,24.44,0,0,1-5.24-6,12.21,12.21,0,0,1-1.49-6q0-4.58,2.32-7.09t6.73-2.51q4.36,0,6.6,2.51t2.24,7.2v1.6h-5.74v-2a4.44,4.44,0,0,0-.77-2.9,2.8,2.8,0,0,0-2.26-.91q-3,0-3,3.7a7.29,7.29,0,0,0,1.13,3.92,21.6,21.6,0,0,0,4.11,4.42,22.74,22.74,0,0,1,5.24,6,13.36,13.36,0,0,1,1.43,6.35q0,4.75-2.35,7.29t-6.82,2.54Q324.76,78.14,322.5,75.62Z"/><path class="cls-57" d="M103.64,88.64h-3.11V87.51h7.56v1.12H105v9.09h-1.33Z"/><path class="cls-57" d="M110.44,87.65a13.75,13.75,0,0,1,2.53-.21,4.18,4.18,0,0,1,3,.83,2.54,2.54,0,0,1,.8,1.94,2.68,2.68,0,0,1-1.92,2.61v0a2.54,2.54,0,0,1,1.5,2.06,16.29,16.29,0,0,0,.79,2.8h-1.36a13.23,13.23,0,0,1-.68-2.44c-.3-1.41-.85-1.94-2-2h-1.24v4.42h-1.32Zm1.32,4.65h1.35c1.41,0,2.3-.77,2.3-1.94,0-1.32-1-1.89-2.35-1.91a5.43,5.43,0,0,0-1.3.12Z"/><path class="cls-57" d="M121.53,94.51l-1.06,3.21H119.1l3.47-10.21h1.59l3.48,10.21h-1.41l-1.09-3.21Zm3.35-1-1-2.94c-.23-.67-.38-1.27-.53-1.86h0c-.15.61-.32,1.23-.52,1.85l-1,3Z"/><path class="cls-57" d="M130.36,97.73V87.51h1.44l3.27,5.17A28.86,28.86,0,0,1,136.9,96l0,0c-.12-1.36-.15-2.61-.15-4.2V87.51H138V97.73h-1.33l-3.24-5.18a32.31,32.31,0,0,1-1.91-3.41l0,0c.08,1.29.11,2.52.11,4.21v4.36Z"/><path class="cls-57" d="M141.36,96.12a4.67,4.67,0,0,0,2.36.67c1.35,0,2.14-.71,2.14-1.74s-.55-1.5-1.92-2c-1.67-.59-2.7-1.45-2.7-2.89,0-1.59,1.32-2.77,3.3-2.77a4.64,4.64,0,0,1,2.26.5l-.36,1.08a4.06,4.06,0,0,0-1.94-.48c-1.39,0-1.92.83-1.92,1.53,0,1,.62,1.42,2,2,1.73.67,2.61,1.5,2.61,3s-1.17,2.94-3.58,2.94a5.28,5.28,0,0,1-2.61-.65Z"/><path class="cls-57" d="M150.22,87.64a15.3,15.3,0,0,1,2.53-.2,4.19,4.19,0,0,1,2.86.85,2.74,2.74,0,0,1,.89,2.14,3,3,0,0,1-.79,2.18,4.23,4.23,0,0,1-3.12,1.12,4.54,4.54,0,0,1-1.06-.09v4.09h-1.32Zm1.32,4.92a4.42,4.42,0,0,0,1.09.11c1.59,0,2.56-.77,2.56-2.18s-1-2-2.41-2a5.54,5.54,0,0,0-1.24.11Z"/><path class="cls-57" d="M159.87,94.51l-1.06,3.21h-1.36l3.47-10.21h1.59L166,97.73h-1.41l-1.09-3.21Zm3.35-1-1-2.94c-.23-.67-.38-1.27-.53-1.86h0c-.15.61-.32,1.23-.52,1.85l-1,3Z"/><path class="cls-57" d="M168.7,87.65a13.75,13.75,0,0,1,2.53-.21,4.18,4.18,0,0,1,3,.83,2.54,2.54,0,0,1,.8,1.94,2.68,2.68,0,0,1-1.92,2.61v0a2.54,2.54,0,0,1,1.5,2.06,16.29,16.29,0,0,0,.79,2.8H174a13.23,13.23,0,0,1-.68-2.44c-.3-1.41-.85-1.94-2-2H170v4.42H168.7ZM170,92.3h1.35c1.41,0,2.3-.77,2.3-1.94,0-1.32-1-1.89-2.35-1.91a5.43,5.43,0,0,0-1.3.12Z"/><path class="cls-57" d="M183.35,92.94h-4v3.68h4.42v1.11h-5.74V87.51h5.52v1.11h-4.2v3.23h4Z"/><path class="cls-57" d="M186.73,97.73V87.51h1.44l3.27,5.17A28.86,28.86,0,0,1,193.27,96l0,0c-.12-1.36-.15-2.61-.15-4.2V87.51h1.24V97.73h-1.33l-3.24-5.18a32.31,32.31,0,0,1-1.91-3.41l0,0c.08,1.29.11,2.52.11,4.21v4.36Z"/><path class="cls-57" d="M199.84,88.64h-3.11V87.51h7.56v1.12h-3.12v9.09h-1.33Z"/><path class="cls-57" d="M217.46,97.73c-.29-.29-.56-.58-1-1a4.18,4.18,0,0,1-3,1.17A2.89,2.89,0,0,1,210.39,95a3.35,3.35,0,0,1,2-3v0a3.51,3.51,0,0,1-.85-2.14,2.48,2.48,0,0,1,2.59-2.52,2.12,2.12,0,0,1,2.26,2.17c0,1.08-.62,1.92-2.24,2.73v0c.86,1,1.83,2.12,2.48,2.85a7.5,7.5,0,0,0,1-3h1.21a7.76,7.76,0,0,1-1.47,3.77l1.68,1.8ZM215.86,96c-.61-.67-1.74-1.91-2.88-3.21a2.51,2.51,0,0,0-1.32,2.08,2,2,0,0,0,2.09,2.06A2.85,2.85,0,0,0,215.86,96Zm-3.11-6.23a2.86,2.86,0,0,0,.77,1.83c1-.59,1.7-1.14,1.7-2A1.2,1.2,0,0,0,214,88.26,1.33,1.33,0,0,0,212.75,89.74Z"/><path class="cls-57" d="M227.19,88.64h-3.11V87.51h7.56v1.12h-3.12v9.09h-1.33Z"/><path class="cls-57" d="M234,87.65a13.74,13.74,0,0,1,2.53-.21,4.18,4.18,0,0,1,3,.83,2.54,2.54,0,0,1,.8,1.94,2.68,2.68,0,0,1-1.92,2.61v0a2.55,2.55,0,0,1,1.5,2.06,16.15,16.15,0,0,0,.79,2.8h-1.36a13.23,13.23,0,0,1-.68-2.44c-.3-1.41-.85-1.94-2-2h-1.24v4.42H234Zm1.32,4.65h1.35c1.41,0,2.3-.77,2.3-1.94,0-1.32-1-1.89-2.35-1.91a5.43,5.43,0,0,0-1.3.12Z"/><path class="cls-57" d="M244.67,87.51v6c0,2.29,1,3.26,2.38,3.26,1.52,0,2.49-1,2.49-3.26v-6h1.33v6c0,3.14-1.65,4.42-3.86,4.42s-3.67-1.2-3.67-4.36v-6Z"/><path class="cls-57" d="M256.3,88.64h-3.11V87.51h7.56v1.12h-3.12v9.09H256.3Z"/><path class="cls-57" d="M264.42,87.51v4.27h4.94V87.51h1.33V97.73h-1.33V92.94h-4.94v4.79H263.1V87.51Z"/><path class="cls-57" d="M274.19,87.51h5.5v1.11h-4.18V92h3.86v1.09h-3.86v4.62h-1.32Z"/><path class="cls-57" d="M284.1,87.51v6c0,2.29,1,3.26,2.38,3.26,1.52,0,2.49-1,2.49-3.26v-6h1.33v6c0,3.14-1.65,4.42-3.86,4.42s-3.67-1.2-3.67-4.36v-6Z"/><path class="cls-57" d="M293.79,87.51h1.32v9.11h4.36v1.11h-5.68Z"/><rect class="cls-58" x="56.36" y="27.46" width="287.29" height="4.78"/><rect class="cls-58" x="57.48" y="90.77" width="34.47" height="5.02"/><rect class="cls-58" x="308.06" y="90.77" width="34.47" height="5.02"/><g class="cls-2"><path class="cls-3" d="M347.79,224.57H44.92C26.13,224.57,6.78,211,6.78,181S36.26,137.4,59.21,137.4H357.93c18.79,0,34,8.84,34,33.55C391.94,208.15,373.19,224.57,347.79,224.57Z"/><path class="cls-4" d="M347.65,224.16H45.15c-18.77,0-37.94-13.51-37.94-43.35s29.39-43.35,52.23-43.35H357.92c18.77,0,34,8.9,34,33.51C391.89,207.86,373.1,224.16,347.65,224.16Z"/><path class="cls-5" d="M347.52,223.76H45.38c-18.74,0-37.74-13.47-37.74-43.12s29.29-43.12,52-43.12H357.92c18.74,0,33.92,9,33.92,33.47C391.84,207.57,373,223.76,347.52,223.76Z"/><path class="cls-6" d="M347.38,223.35H45.6c-18.72,0-37.54-13.43-37.54-42.88s29.2-42.88,51.83-42.88h298c18.72,0,33.87,9,33.87,33.43C391.79,207.27,372.91,223.35,347.38,223.35Z"/><path class="cls-7" d="M347.25,222.94H45.83c-18.69,0-37.34-13.39-37.34-42.65s29.11-42.65,51.63-42.65H357.91c18.69,0,33.83,9.09,33.83,33.4C391.74,207,372.82,222.94,347.25,222.94Z"/><path class="cls-8" d="M347.11,222.54H46.06c-18.67,0-37.13-13.36-37.13-42.41s29-42.41,51.44-42.41H357.91c18.67,0,33.78,9.16,33.78,33.36C391.69,206.69,372.73,222.54,347.11,222.54Z"/><path class="cls-9" d="M347,222.13H46.29c-18.64,0-36.93-13.32-36.93-42.18s28.93-42.18,51.24-42.18H357.9c18.64,0,33.74,9.22,33.74,33.32C391.64,206.4,372.63,222.13,347,222.13Z"/><path class="cls-10" d="M346.84,221.72H46.51c-18.62,0-36.73-13.28-36.73-41.95s28.84-41.95,51-41.95H357.9c18.62,0,33.69,9.28,33.69,33.29C391.59,206.11,372.54,221.72,346.84,221.72Z"/><path class="cls-11" d="M346.71,221.31h-300c-18.59,0-36.53-13.24-36.53-41.71S39,137.89,61.06,137.89H357.89c18.59,0,33.65,9.34,33.65,33.25C391.54,205.82,372.45,221.31,346.71,221.31Z"/><path class="cls-12" d="M346.57,220.91H47c-18.57,0-36.33-13.2-36.33-41.48s28.65-41.48,50.64-41.48h296.6c18.57,0,33.6,9.41,33.6,33.21C391.49,205.52,372.35,220.91,346.57,220.91Z"/><path class="cls-13" d="M346.44,220.5H47.2c-18.54,0-36.12-13.17-36.12-41.25S39.63,138,61.52,138H357.88c18.54,0,33.56,9.47,33.56,33.17C391.44,205.23,372.26,220.5,346.44,220.5Z"/><path class="cls-14" d="M346.3,220.09H47.42c-18.52,0-35.92-13.13-35.92-41s28.47-41,50.25-41H357.88c18.52,0,33.51,9.53,33.51,33.14C391.39,204.94,372.17,220.09,346.3,220.09Z"/><path class="cls-15" d="M346.17,219.68H47.65c-18.49,0-35.72-13.09-35.72-40.78s28.38-40.78,50-40.78h295.9c18.49,0,33.47,9.6,33.47,33.1C391.34,204.65,372.07,219.68,346.17,219.68Z"/><path class="cls-16" d="M346,219.28H47.88c-18.47,0-35.52-13.05-35.52-40.54s28.29-40.54,49.85-40.54H357.87c18.47,0,33.42,9.66,33.42,33.06C391.29,204.36,372,219.28,346,219.28Z"/><path class="cls-17" d="M345.9,218.87H48.1c-18.44,0-35.32-13-35.32-40.31S41,138.25,62.44,138.25H357.87c18.44,0,33.37,9.72,33.37,33C391.24,204.06,371.89,218.87,345.9,218.87Z"/><path class="cls-18" d="M345.76,218.46H48.33c-18.42,0-35.11-13-35.11-40.08s28.11-40.07,49.45-40.07H357.86c18.42,0,33.33,9.79,33.33,33C391.19,203.77,371.79,218.46,345.76,218.46Z"/><path class="cls-19" d="M345.63,218.05H48.56c-18.39,0-34.91-12.94-34.91-39.84s28-39.84,49.26-39.84h295c18.39,0,33.28,9.85,33.28,33C391.14,203.48,371.7,218.05,345.63,218.05Z"/><path class="cls-20" d="M345.49,217.65H48.79c-18.37,0-34.71-12.9-34.71-39.61S42,138.43,63.14,138.43H357.85c18.37,0,33.24,9.91,33.24,32.91C391.09,203.19,371.61,217.65,345.49,217.65Z"/><path class="cls-21" d="M345.36,217.24H49c-18.34,0-34.51-12.86-34.51-39.37s27.83-39.37,48.86-39.37H357.85c18.34,0,33.19,10,33.19,32.88C391,202.9,371.52,217.24,345.36,217.24Z"/><path class="cls-22" d="M345.22,216.83h-296c-18.32,0-34.31-12.83-34.31-39.14s27.74-39.14,48.66-39.14H357.84c18.32,0,33.15,10,33.15,32.84C391,202.61,371.42,216.83,345.22,216.83Z"/><path class="cls-23" d="M345.09,216.43H49.47c-18.29,0-34.1-12.79-34.1-38.91s27.65-38.9,48.46-38.9h294c18.29,0,33.1,10.1,33.1,32.8C390.94,202.31,371.33,216.43,345.09,216.43Z"/><path class="cls-24" d="M345,216H49.7c-18.27,0-33.9-12.75-33.9-38.67s27.56-38.67,48.27-38.67H357.84c18.27,0,33.06,10.16,33.06,32.77C390.89,202,371.24,216,345,216Z"/><path class="cls-25" d="M344.82,215.61H49.92c-18.24,0-33.7-12.71-33.7-38.44s27.46-38.44,48.07-38.44H357.83c18.24,0,33,10.23,33,32.73C390.84,201.73,371.14,215.61,344.82,215.61Z"/><path class="cls-26" d="M344.68,215.2H50.15c-18.21,0-33.5-12.68-33.5-38.2S44,138.8,64.52,138.8h293.3c18.22,0,33,10.29,33,32.69C390.79,201.44,371,215.2,344.68,215.2Z"/><path class="cls-27" d="M344.55,214.8H50.38c-18.19,0-33.3-12.64-33.3-38s27.28-38,47.67-38H357.82c18.19,0,32.92,10.35,32.92,32.65C390.74,201.15,371,214.8,344.55,214.8Z"/><path class="cls-28" d="M344.41,214.39H50.61c-18.16,0-33.09-12.6-33.09-37.74S44.7,138.92,65,138.92H357.82c18.17,0,32.88,10.42,32.88,32.62C390.7,200.86,370.86,214.39,344.41,214.39Z"/><path class="cls-29" d="M344.28,214H50.83c-18.14,0-32.89-12.56-32.89-37.5S45,139,65.22,139h292.6c18.14,0,32.83,10.48,32.83,32.58C390.65,200.56,370.77,214,344.28,214Z"/><path class="cls-30" d="M344.14,213.57H51.06c-18.11,0-32.69-12.52-32.69-37.27S45.38,139,65.45,139H357.81c18.12,0,32.79,10.54,32.79,32.54C390.6,200.27,370.68,213.57,344.14,213.57Z"/><path class="cls-31" d="M344,213.17H51.29c-18.09,0-32.49-12.49-32.49-37s26.92-37,46.88-37H357.8c18.09,0,32.74,10.6,32.74,32.51C390.55,200,370.58,213.17,344,213.17Z"/><path class="cls-32" d="M343.87,212.76H51.52c-18.06,0-32.29-12.45-32.29-36.8s26.82-36.8,46.68-36.8H357.8c18.06,0,32.7,10.67,32.7,32.47C390.5,199.69,370.49,212.76,343.87,212.76Z"/><path class="cls-33" d="M343.74,212.35h-292c-18,0-32.08-12.41-32.08-36.57s26.73-36.57,46.48-36.57H357.79c18,0,32.65,10.73,32.65,32.43C390.45,199.4,370.4,212.35,343.74,212.35Z"/><path class="cls-34" d="M343.6,211.94H52c-18,0-31.88-12.37-31.88-36.33s26.64-36.33,46.28-36.33H357.79c18,0,32.61,10.79,32.61,32.39C390.4,199.11,370.3,211.94,343.6,211.94Z"/><path class="cls-35" d="M343.47,211.54H52.2c-18,0-31.68-12.33-31.68-36.1s26.55-36.1,46.09-36.1H357.79c18,0,32.56,10.86,32.56,32.36C390.35,198.81,370.21,211.54,343.47,211.54Z"/><path class="cls-36" d="M343.33,211.13H52.43c-18,0-31.48-12.3-31.48-35.86S47.41,139.4,66.84,139.4H357.78c18,0,32.52,10.92,32.52,32.32C390.3,198.52,370.12,211.13,343.33,211.13Z"/><path class="cls-37" d="M343.2,210.72H52.65c-17.94,0-31.28-12.26-31.28-35.63s26.37-35.63,45.69-35.63H357.78c17.94,0,32.47,11,32.47,32.28C390.25,198.23,370,210.72,343.2,210.72Z"/><path class="cls-38" d="M343.06,210.32H52.88c-17.91,0-31.07-12.22-31.07-35.4s26.28-35.4,45.49-35.4H357.77c17.91,0,32.43,11,32.43,32.25C390.2,197.94,369.93,210.32,343.06,210.32Z"/><path class="cls-39" d="M342.93,209.91H53.11c-17.89,0-30.87-12.18-30.87-35.16s26.18-35.16,45.29-35.16H357.77c17.89,0,32.38,11.11,32.38,32.21C390.15,197.65,369.84,209.91,342.93,209.91Z"/><path class="cls-40" d="M342.79,209.5H53.34c-17.86,0-30.67-12.15-30.67-34.93s26.09-34.93,45.1-34.93h290c17.86,0,32.34,11.17,32.34,32.17C390.1,197.35,369.75,209.5,342.79,209.5Z"/><path class="cls-41" d="M342.66,209.09H53.56c-17.84,0-30.47-12.11-30.47-34.69s26-34.69,44.9-34.69H357.76c17.84,0,32.29,11.23,32.29,32.13C390.05,197.06,369.65,209.09,342.66,209.09Z"/><path class="cls-42" d="M342.52,208.69H53.79c-17.81,0-30.27-12.07-30.27-34.46s25.91-34.46,44.7-34.46H357.75c17.81,0,32.25,11.3,32.25,32.1C390,196.77,369.56,208.69,342.52,208.69Z"/><path class="cls-43" d="M342.39,208.28H54c-17.79,0-30.06-12-30.06-34.23s25.82-34.23,44.5-34.23h289.3c17.79,0,32.2,11.36,32.2,32.06C390,196.48,369.47,208.28,342.39,208.28Z"/><path class="cls-44" d="M342.26,207.87h-288c-17.76,0-29.86-12-29.86-34s25.73-34,44.3-34H357.75c17.76,0,32.16,11.42,32.16,32C389.9,196.19,369.37,207.87,342.26,207.87Z"/><path class="cls-45" d="M342.12,207.46H54.47c-17.74,0-29.66-12-29.66-33.76s25.63-33.76,44.1-33.76H357.74c17.74,0,32.11,11.49,32.11,32C389.85,195.9,369.28,207.46,342.12,207.46Z"/><path class="cls-46" d="M342,207.06H54.7c-17.71,0-29.46-11.92-29.46-33.53S50.78,140,69.15,140H357.74c17.71,0,32.07,11.55,32.07,31.95C389.8,195.6,369.19,207.06,342,207.06Z"/><path class="cls-47" d="M341.85,206.65H54.93c-17.69,0-29.26-11.88-29.26-33.29s25.45-33.29,43.71-33.29H357.73c17.69,0,32,11.61,32,31.91C389.75,195.31,369.09,206.65,341.85,206.65Z"/><path class="cls-48" d="M341.72,206.24H55.15c-17.66,0-29.05-11.84-29.05-33.06s25.36-33.06,43.51-33.06H357.73c17.66,0,32,11.68,32,31.88C389.7,195,369,206.24,341.72,206.24Z"/><path class="cls-49" d="M341.58,205.83H55.38C37.75,205.83,26.53,194,26.53,173s25.27-32.82,43.31-32.82H357.72c17.64,0,31.93,11.74,31.93,31.84C389.65,194.73,368.91,205.83,341.58,205.83Z"/><path class="cls-50" d="M341.45,205.43H55.61C38,205.43,27,193.66,27,172.84s25.18-32.59,43.11-32.59H357.72c17.61,0,31.88,11.8,31.88,31.8C389.6,194.44,368.81,205.43,341.45,205.43Z"/><path class="cls-51" d="M341.31,205H55.84c-17.59,0-28.45-11.73-28.45-32.36s25.09-32.35,42.92-32.35H357.71c17.59,0,31.84,11.86,31.84,31.76C389.55,194.15,368.72,205,341.31,205Z"/><path class="cls-52" d="M341.18,204.61H56.06c-17.56,0-28.25-11.69-28.25-32.12s25-32.12,42.72-32.12H357.71c17.56,0,31.79,11.93,31.79,31.73C389.5,193.85,368.63,204.61,341.18,204.61Z"/><path class="cls-53" d="M341,204.21H56.29c-17.53,0-28-11.65-28-31.89s24.9-31.89,42.52-31.89H357.71c17.54,0,31.75,12,31.75,31.69C389.45,193.56,368.54,204.21,341,204.21Z"/><path class="cls-54" d="M340.91,203.8H56.52c-17.51,0-27.84-11.62-27.84-31.65S53.49,140.49,71,140.49H357.7c17.51,0,31.7,12.05,31.7,31.65C389.41,193.27,368.44,203.8,340.91,203.8Z"/></g><path class="cls-59" d="M393.22,172.14c0,19.51-14.76,35.32-33,35.32H52.66c-18.21,0-33-15.81-33-35.32h0c0-19.51,15.13-35.32,33.34-35.32H360.26c18.21,0,33,15.81,33,35.32Z"/><path class="cls-60" d="M392,172.14c0,18.45-14.52,33.41-32.42,33.41H54.69c-17.91,0-32.43-15-32.43-33.41h0c0-18.45,14.52-33.41,32.43-33.41H359.53c17.91,0,32.42,15,32.42,33.41Z"/><path class="cls-57" d="M44.68,185.8a8.51,8.51,0,0,0,8-5.58H36.7a8.51,8.51,0,0,0,8,5.58Zm0,0"/><path class="cls-57" d="M82.6,159.65a3.83,3.83,0,0,0,2.82-2,2.22,2.22,0,0,1,1-1,.55.55,0,0,0,.3-.5.53.53,0,0,0-.25-.46.54.54,0,0,0-.53,0,3.32,3.32,0,0,0-1.54,1.49,2.7,2.7,0,0,1-4.84,0,3.26,3.26,0,0,0-2.88-1.8H66.55a3.28,3.28,0,0,0-2.44-2.61v-5H62.55v5a3.28,3.28,0,0,0-2.44,2.61H49.94a3.26,3.26,0,0,0-2.88,1.79,2.71,2.71,0,0,1-4.85,0,3.32,3.32,0,0,0-1.54-1.48.54.54,0,0,0-.53,0,.53.53,0,0,0-.25.46.55.55,0,0,0,.3.5,2.21,2.21,0,0,1,1,1,3.84,3.84,0,0,0,2.82,2L36.72,177.2h-.55v.12a8.34,8.34,0,0,0,.22,1.78H53a8.37,8.37,0,0,0,.19-1.78v-.12h-.52l-7.35-17.57a3.85,3.85,0,0,0,2.76-2,2.16,2.16,0,0,1,1.9-1.19H60.11A3.28,3.28,0,0,0,62.55,159v22.43h1.57V159a3.28,3.28,0,0,0,2.44-2.61H76.73a2.16,2.16,0,0,1,1.9,1.2,3.85,3.85,0,0,0,2.75,2L74,177.2h-.52v.12a8.4,8.4,0,0,0,.19,1.78H90.28a8.34,8.34,0,0,0,.22-1.78v-.12h-.55ZM51.42,177.2H37.93l6.75-16.12Zm23.82,0L82,161.08l6.75,16.12Zm0,0"/><path class="cls-57" d="M82,185.8a8.51,8.51,0,0,0,8-5.58H74a8.51,8.51,0,0,0,8,5.58Zm0,0"/><rect class="cls-57" x="56.73" y="188.49" width="13.19" height="2.35"/><rect class="cls-57" x="61.32" y="182.57" width="4.02" height="4.81"/><rect class="cls-57" x="53.38" y="191.96" width="19.79" height="2.68"/><path class="cls-57" d="M145.58,178V167.19h3.54a4.66,4.66,0,0,1,2.79.74,2.56,2.56,0,0,1,1,2.21,2.17,2.17,0,0,1-.4,1.28,2.51,2.51,0,0,1-1.12.87,2.42,2.42,0,0,1,1.6.9,2.71,2.71,0,0,1,.56,1.7,2.77,2.77,0,0,1-1,2.31,4.3,4.3,0,0,1-2.74.79Zm1.8-6.25h1.93a2,2,0,0,0,1.32-.4,1.37,1.37,0,0,0,.49-1.12,1.4,1.4,0,0,0-.51-1.19,2.43,2.43,0,0,0-1.49-.39h-1.73Zm0,1.34v3.47h2.43a2.17,2.17,0,0,0,1.44-.43,1.53,1.53,0,0,0,.5-1.23,1.72,1.72,0,0,0-.5-1.3,2,2,0,0,0-1.39-.51h-2.48Z"/><path class="cls-57" d="M161.92,175.46H158.1l-.83,2.52h-1.86l3.76-10.79h1.71L164.61,178h-1.86ZM158.6,174h2.84L160,169.71h0Z"/><path class="cls-57" d="M175.43,178h-1.8l-4.78-7.77h0V178H167V167.19h1.8l4.78,7.77h0v-7.76h1.8Z"/><path class="cls-57" d="M181.44,173.32h-.88V178h-1.8V167.19h1.8v4.57h.7l3.51-4.57h2.11l0,0-4,5.07,4.38,5.68H185Z"/><path class="cls-57" d="M202.76,178H201l-4.78-7.77h0V178h-1.8V167.19h1.8l4.78,7.77h0v-7.76h1.8Z"/><path class="cls-57" d="M212.11,173.13h-4.22v3.42h5V178h-6.78V167.19h6.73v1.45h-4.93v3h4.22Z"/><path class="cls-57" d="M223.79,167.19v7.11a3.52,3.52,0,0,1-1.18,2.82,4.5,4.5,0,0,1-3,1,4.36,4.36,0,0,1-3-1,3.56,3.56,0,0,1-1.16-2.82v-7.11h1.8v7.11a2.2,2.2,0,0,0,2.35,2.4,2.47,2.47,0,0,0,1.76-.63,2.32,2.32,0,0,0,.67-1.78v-7.11Z"/><path class="cls-57" d="M234.5,168.64h-3.33V178h-1.8v-9.35h-3.28v-1.45h8.42Z"/><path class="cls-57" d="M238.73,173.51V178h-1.8V167.19h3.71a4.26,4.26,0,0,1,2.79.82,2.85,2.85,0,0,1,1,2.33,2.41,2.41,0,0,1-.43,1.44,3,3,0,0,1-1.26,1,2.28,2.28,0,0,1,1.32.94,3,3,0,0,1,.4,1.62v.9a3.63,3.63,0,0,0,.12.93,1.32,1.32,0,0,0,.39.69V178H243.1a1.19,1.19,0,0,1-.38-.76,6.76,6.76,0,0,1-.08-1v-.87a1.8,1.8,0,0,0-.48-1.32,1.73,1.73,0,0,0-1.3-.49Zm0-1.45h1.82a2.44,2.44,0,0,0,1.58-.42,1.56,1.56,0,0,0,.5-1.27,1.68,1.68,0,0,0-.49-1.28,2.1,2.1,0,0,0-1.49-.46h-1.91Z"/><path class="cls-57" d="M253.27,175.46h-3.82l-.83,2.52h-1.86l3.76-10.79h1.71L256,178h-1.86Zm-3.33-1.5h2.84l-1.39-4.25h0Z"/><path class="cls-57" d="M260.15,176.55h5.05V178h-6.86V167.19h1.8Z"/><path class="cls-57" d="M278.25,175.46h-3.82L273.6,178h-1.86l3.76-10.79h1.71L280.94,178h-1.86Zm-3.33-1.5h2.84l-1.39-4.25h0Z"/><path class="cls-57" d="M283.33,178V167.19h3.57a4.52,4.52,0,0,1,3.34,1.28,4.46,4.46,0,0,1,1.29,3.3v1.64a4.44,4.44,0,0,1-1.29,3.3A4.53,4.53,0,0,1,286.9,178Zm1.8-9.35v7.91h1.76a2.59,2.59,0,0,0,2.06-.88,3.32,3.32,0,0,0,.76-2.26v-1.65a3.29,3.29,0,0,0-.76-2.24,2.59,2.59,0,0,0-2.06-.88Z"/><path class="cls-57" d="M297.87,175.06l.19.79h0l.18-.77,2.58-7.88h1.92L298.94,178h-1.71l-3.85-10.79h1.92Z"/><path class="cls-57" d="M307,178h-1.8V167.19H307Z"/><path class="cls-57" d="M318.41,174.46v0a3.33,3.33,0,0,1-1.06,2.63,4.17,4.17,0,0,1-2.94,1,4,4,0,0,1-3.05-1.27,4.61,4.61,0,0,1-1.17-3.25v-2.05a4.66,4.66,0,0,1,1.16-3.25,3.88,3.88,0,0,1,3-1.28,4.36,4.36,0,0,1,3,1,3.3,3.3,0,0,1,1.06,2.66v0h-1.74a2.22,2.22,0,0,0-.58-1.66,2.36,2.36,0,0,0-1.72-.57,2,2,0,0,0-1.74.87,3.61,3.61,0,0,0-.64,2.2v2.07a3.58,3.58,0,0,0,.65,2.21,2.1,2.1,0,0,0,1.78.87,2,2,0,0,0,2.25-2.25Z"/><path class="cls-57" d="M327.25,173.13H323v3.42h5V178h-6.78V167.19H328v1.45H323v3h4.22Z"/><g class="cls-2"><path class="cls-3" d="M347.79,351.42H44.92c-18.79,0-38.14-13.55-38.14-43.58s29.48-43.58,52.43-43.58H357.93c18.79,0,34,8.84,34,33.55C391.94,335,373.19,351.42,347.79,351.42Z"/><path class="cls-4" d="M347.65,351H45.15C26.38,351,7.21,337.5,7.21,307.66s29.39-43.35,52.23-43.35H357.92c18.77,0,34,8.9,34,33.51C391.89,334.7,373.1,351,347.65,351Z"/><path class="cls-5" d="M347.52,350.6H45.38c-18.74,0-37.74-13.47-37.74-43.12s29.29-43.12,52-43.12H357.92c18.74,0,33.92,9,33.92,33.47C391.84,334.41,373,350.6,347.52,350.6Z"/><path class="cls-6" d="M347.38,350.2H45.6c-18.72,0-37.54-13.43-37.54-42.88s29.2-42.88,51.83-42.88h298c18.72,0,33.87,9,33.87,33.43C391.79,334.12,372.91,350.2,347.38,350.2Z"/><path class="cls-7" d="M347.25,349.79H45.83c-18.69,0-37.34-13.39-37.34-42.65s29.11-42.65,51.63-42.65H357.91c18.69,0,33.83,9.09,33.83,33.4C391.74,333.83,372.82,349.79,347.25,349.79Z"/><path class="cls-8" d="M347.11,349.38H46.06C27.39,349.38,8.93,336,8.93,307s29-42.41,51.44-42.41H357.91c18.67,0,33.78,9.16,33.78,33.36C391.69,333.54,372.73,349.38,347.11,349.38Z"/><path class="cls-9" d="M347,349H46.29c-18.64,0-36.93-13.32-36.93-42.18s28.93-42.18,51.24-42.18H357.9c18.64,0,33.74,9.22,33.74,33.32C391.64,333.24,372.63,349,347,349Z"/><path class="cls-10" d="M346.84,348.57H46.51c-18.62,0-36.73-13.28-36.73-41.95s28.84-41.95,51-41.95H357.9c18.62,0,33.69,9.28,33.69,33.29C391.59,333,372.54,348.57,346.84,348.57Z"/><path class="cls-11" d="M346.71,348.16h-300c-18.59,0-36.53-13.24-36.53-41.71S39,264.73,61.06,264.73H357.89c18.59,0,33.65,9.34,33.65,33.25C391.54,332.66,372.45,348.16,346.71,348.16Z"/><path class="cls-12" d="M346.57,347.75H47c-18.57,0-36.33-13.2-36.33-41.48s28.65-41.48,50.64-41.48h296.6c18.57,0,33.6,9.41,33.6,33.21C391.49,332.37,372.35,347.75,346.57,347.75Z"/><path class="cls-13" d="M346.44,347.34H47.2c-18.54,0-36.12-13.17-36.12-41.25s28.56-41.24,50.45-41.24H357.88c18.54,0,33.56,9.47,33.56,33.17C391.44,332.08,372.26,347.34,346.44,347.34Z"/><path class="cls-14" d="M346.3,346.94H47.42c-18.52,0-35.92-13.13-35.92-41s28.47-41,50.25-41H357.88c18.52,0,33.51,9.53,33.51,33.14C391.39,331.79,372.17,346.94,346.3,346.94Z"/><path class="cls-15" d="M346.17,346.53H47.65c-18.49,0-35.72-13.09-35.72-40.78S40.31,265,62,265h295.9c18.49,0,33.47,9.6,33.47,33.1C391.34,331.49,372.07,346.53,346.17,346.53Z"/><path class="cls-16" d="M346,346.12H47.88c-18.47,0-35.52-13.05-35.52-40.54S40.65,265,62.21,265H357.87c18.47,0,33.42,9.66,33.42,33.06C391.29,331.2,372,346.12,346,346.12Z"/><path class="cls-17" d="M345.9,345.72H48.1c-18.44,0-35.32-13-35.32-40.31S41,265.1,62.44,265.1H357.87c18.44,0,33.37,9.72,33.37,33C391.24,330.91,371.89,345.72,345.9,345.72Z"/><path class="cls-18" d="M345.76,345.31H48.33c-18.42,0-35.11-13-35.11-40.08s28.11-40.07,49.45-40.07H357.86c18.42,0,33.33,9.79,33.33,33C391.19,330.62,371.79,345.31,345.76,345.31Z"/><path class="cls-19" d="M345.63,344.9H48.56c-18.39,0-34.91-12.94-34.91-39.84s28-39.84,49.26-39.84h295c18.39,0,33.28,9.85,33.28,33C391.14,330.33,371.7,344.9,345.63,344.9Z"/><path class="cls-20" d="M345.49,344.49H48.79c-18.37,0-34.71-12.9-34.71-39.61S42,265.28,63.14,265.28H357.85c18.37,0,33.24,9.91,33.24,32.91C391.09,330,371.61,344.49,345.49,344.49Z"/><path class="cls-21" d="M345.36,344.09H49c-18.34,0-34.51-12.86-34.51-39.37s27.83-39.37,48.86-39.37H357.85c18.34,0,33.19,10,33.19,32.88C391,329.74,371.52,344.09,345.36,344.09Z"/><path class="cls-22" d="M345.22,343.68h-296c-18.32,0-34.31-12.83-34.31-39.14S42.68,265.4,63.6,265.4H357.84c18.32,0,33.15,10,33.15,32.84C391,329.45,371.42,343.68,345.22,343.68Z"/><path class="cls-23" d="M345.09,343.27H49.47c-18.29,0-34.1-12.79-34.1-38.91s27.65-38.9,48.46-38.9h294c18.29,0,33.1,10.1,33.1,32.8C390.94,329.16,371.33,343.27,345.09,343.27Z"/><path class="cls-24" d="M345,342.86H49.7c-18.27,0-33.9-12.75-33.9-38.67s27.56-38.67,48.27-38.67H357.84c18.27,0,33.06,10.16,33.06,32.77C390.89,328.87,371.24,342.86,345,342.86Z"/><path class="cls-25" d="M344.82,342.46H49.92c-18.24,0-33.7-12.71-33.7-38.44s27.46-38.44,48.07-38.44H357.83c18.24,0,33,10.23,33,32.73C390.84,328.58,371.14,342.46,344.82,342.46Z"/><path class="cls-26" d="M344.68,342H50.15c-18.21,0-33.5-12.68-33.5-38.2s27.37-38.2,47.87-38.2h293.3c18.22,0,33,10.29,33,32.69C390.79,328.28,371,342,344.68,342Z"/><path class="cls-27" d="M344.55,341.64H50.38c-18.19,0-33.3-12.64-33.3-38s27.28-38,47.67-38H357.82c18.19,0,32.92,10.35,32.92,32.65C390.74,328,371,341.64,344.55,341.64Z"/><path class="cls-28" d="M344.41,341.23H50.61c-18.16,0-33.09-12.6-33.09-37.74S44.7,265.76,65,265.76H357.82c18.17,0,32.88,10.42,32.88,32.62C390.7,327.7,370.86,341.23,344.41,341.23Z"/><path class="cls-29" d="M344.28,340.83H50.83c-18.14,0-32.89-12.56-32.89-37.5s27.1-37.5,47.27-37.5h292.6c18.14,0,32.83,10.48,32.83,32.58C390.65,327.41,370.77,340.83,344.28,340.83Z"/><path class="cls-30" d="M344.14,340.42H51.06c-18.11,0-32.69-12.52-32.69-37.27s27-37.27,47.08-37.27H357.81c18.12,0,32.79,10.54,32.79,32.54C390.6,327.12,370.68,340.42,344.14,340.42Z"/><path class="cls-31" d="M344,340H51.29C33.2,340,18.8,327.53,18.8,303s26.92-37,46.88-37H357.8c18.09,0,32.74,10.6,32.74,32.51C390.55,326.83,370.58,340,344,340Z"/><path class="cls-32" d="M343.87,339.61H51.52c-18.06,0-32.29-12.45-32.29-36.8S46.05,266,65.91,266H357.8c18.06,0,32.7,10.67,32.7,32.47C390.5,326.53,370.49,339.61,343.87,339.61Z"/><path class="cls-33" d="M343.74,339.2h-292c-18,0-32.08-12.41-32.08-36.57s26.73-36.57,46.48-36.57H357.79c18,0,32.65,10.73,32.65,32.43C390.45,326.24,370.4,339.2,343.74,339.2Z"/><path class="cls-34" d="M343.6,338.79H52c-18,0-31.88-12.37-31.88-36.33s26.64-36.33,46.28-36.33H357.79c18,0,32.61,10.79,32.61,32.39C390.4,326,370.3,338.79,343.6,338.79Z"/><path class="cls-35" d="M343.47,338.38H52.2c-18,0-31.68-12.33-31.68-36.1s26.55-36.1,46.09-36.1H357.79c18,0,32.56,10.86,32.56,32.36C390.35,325.66,370.21,338.38,343.47,338.38Z"/><path class="cls-36" d="M343.33,338H52.43c-18,0-31.48-12.3-31.48-35.86s26.46-35.86,45.89-35.86H357.78c18,0,32.52,10.92,32.52,32.32C390.3,325.37,370.12,338,343.33,338Z"/><path class="cls-37" d="M343.2,337.57H52.65c-17.94,0-31.28-12.26-31.28-35.63s26.37-35.63,45.69-35.63H357.78c17.94,0,32.47,11,32.47,32.28C390.25,325.08,370,337.57,343.2,337.57Z"/><path class="cls-38" d="M343.06,337.16H52.88c-17.91,0-31.07-12.22-31.07-35.4s26.28-35.4,45.49-35.4H357.77c17.91,0,32.43,11,32.43,32.25C390.2,324.78,369.93,337.16,343.06,337.16Z"/><path class="cls-39" d="M342.93,336.75H53.11c-17.89,0-30.87-12.18-30.87-35.16s26.18-35.16,45.29-35.16H357.77c17.89,0,32.38,11.11,32.38,32.21C390.15,324.49,369.84,336.75,342.93,336.75Z"/><path class="cls-40" d="M342.79,336.35H53.34c-17.86,0-30.67-12.15-30.67-34.93s26.09-34.93,45.1-34.93h290c17.86,0,32.34,11.17,32.34,32.17C390.1,324.2,369.75,336.35,342.79,336.35Z"/><path class="cls-41" d="M342.66,335.94H53.56c-17.84,0-30.47-12.11-30.47-34.69s26-34.69,44.9-34.69H357.76c17.84,0,32.29,11.23,32.29,32.13C390.05,323.91,369.65,335.94,342.66,335.94Z"/><path class="cls-42" d="M342.52,335.53H53.79c-17.81,0-30.27-12.07-30.27-34.46s25.91-34.46,44.7-34.46H357.75c17.81,0,32.25,11.3,32.25,32.1C390,323.62,369.56,335.53,342.52,335.53Z"/><path class="cls-43" d="M342.39,335.12H54c-17.79,0-30.06-12-30.06-34.23s25.82-34.23,44.5-34.23h289.3c17.79,0,32.2,11.36,32.2,32.06C390,323.33,369.47,335.12,342.39,335.12Z"/><path class="cls-44" d="M342.26,334.72h-288c-17.76,0-29.86-12-29.86-34s25.73-34,44.3-34H357.75c17.76,0,32.16,11.42,32.16,32C389.9,323,369.37,334.72,342.26,334.72Z"/><path class="cls-45" d="M342.12,334.31H54.47c-17.74,0-29.66-12-29.66-33.76s25.63-33.76,44.1-33.76H357.74c17.74,0,32.11,11.49,32.11,32C389.85,322.74,369.28,334.31,342.12,334.31Z"/><path class="cls-46" d="M342,333.9H54.7C37,333.9,25.24,322,25.24,300.38s25.54-33.52,43.91-33.52H357.74c17.71,0,32.07,11.55,32.07,31.95C389.8,322.45,369.19,333.9,342,333.9Z"/><path class="cls-47" d="M341.85,333.5H54.93c-17.69,0-29.26-11.88-29.26-33.29s25.45-33.29,43.71-33.29H357.73c17.69,0,32,11.61,32,31.91C389.75,322.16,369.09,333.5,341.85,333.5Z"/><path class="cls-48" d="M341.72,333.09H55.15c-17.66,0-29.05-11.84-29.05-33.06S51.46,267,69.61,267H357.73c17.66,0,32,11.68,32,31.88C389.7,321.87,369,333.09,341.72,333.09Z"/><path class="cls-49" d="M341.58,332.68H55.38c-17.64,0-28.85-11.81-28.85-32.82S51.8,267,69.84,267H357.72c17.64,0,31.93,11.74,31.93,31.84C389.65,321.57,368.91,332.68,341.58,332.68Z"/><path class="cls-50" d="M341.45,332.27H55.61C38,332.27,27,320.51,27,299.68S52.14,267.1,70.07,267.1H357.72c17.61,0,31.88,11.8,31.88,31.8C389.6,321.28,368.81,332.27,341.45,332.27Z"/><path class="cls-51" d="M341.31,331.87H55.84c-17.59,0-28.45-11.73-28.45-32.36s25.09-32.35,42.92-32.35H357.71c17.59,0,31.84,11.86,31.84,31.76C389.55,321,368.72,331.87,341.31,331.87Z"/><path class="cls-52" d="M341.18,331.46H56.06c-17.56,0-28.25-11.69-28.25-32.12s25-32.12,42.72-32.12H357.71c17.56,0,31.79,11.93,31.79,31.73C389.5,320.7,368.63,331.46,341.18,331.46Z"/><path class="cls-53" d="M341,331.05H56.29c-17.53,0-28-11.65-28-31.89s24.9-31.89,42.52-31.89H357.71c17.54,0,31.75,12,31.75,31.69C389.45,320.41,368.54,331.05,341,331.05Z"/><path class="cls-54" d="M340.91,330.64H56.52C39,330.64,28.68,319,28.68,299S53.49,267.34,71,267.34H357.7c17.51,0,31.7,12.05,31.7,31.65C389.41,320.12,368.44,330.64,340.91,330.64Z"/></g><path class="cls-61" d="M393.22,299c0,19.51-14.76,35.32-33,35.32H52.66c-18.21,0-33-15.81-33-35.32h0c0-19.51,15.13-35.32,33.34-35.32H360.26c18.21,0,33,15.81,33,35.32Z"/><path class="cls-62" d="M392,299c0,18.45-14.52,33.41-32.42,33.41H54.69c-17.91,0-32.43-15-32.43-33.41h0c0-18.45,14.52-33.41,32.43-33.41H359.53c17.91,0,32.42,15,32.42,33.41Z"/><path class="cls-57" d="M75.51,314.1l-37.4-35,2.06-2.2,37.4,35Zm0,0"/><path class="cls-57" d="M59,273.29H59c-3.46.14-6.59,3-8.84,8.13l-.21.48,9.64,9,.08-.44V273.29Zm0,0"/><path class="cls-57" d="M64.15,307.6H62.64v17.09h5.15V311Zm0,0"/><path class="cls-57" d="M59.63,307.6h0a42.44,42.44,0,0,1-.65-4.85L47.34,291.87a54.09,54.09,0,0,0-.46,7.12,44.64,44.64,0,0,0,3.3,17.72c2.3,5.14,5.51,8,9,8h.42Zm0,0"/><rect class="cls-57" x="62.64" y="273.29" width="5.15" height="17.09"/><path class="cls-57" d="M151.54,307.54h-1.8L145,299.77h0v7.76h-1.8V296.75h1.8l4.78,7.77h0v-7.76h1.8Z"/><path class="cls-57" d="M163.35,303.12a4.56,4.56,0,0,1-1.24,3.28,4.26,4.26,0,0,1-3.23,1.3,4.11,4.11,0,0,1-3.15-1.3,4.61,4.61,0,0,1-1.22-3.28v-1.94a4.63,4.63,0,0,1,1.21-3.28,4.11,4.11,0,0,1,3.15-1.3,4.26,4.26,0,0,1,3.22,1.3,4.56,4.56,0,0,1,1.25,3.28Zm-1.8-2a3.36,3.36,0,0,0-.72-2.22,2.4,2.4,0,0,0-1.95-.87,2.26,2.26,0,0,0-1.88.87,3.46,3.46,0,0,0-.69,2.22v2a3.49,3.49,0,0,0,.69,2.23,2.26,2.26,0,0,0,1.88.87,2.4,2.4,0,0,0,2-.87,3.4,3.4,0,0,0,.72-2.24Z"/><path class="cls-57" d="M179.41,296.75v7.11a3.53,3.53,0,0,1-1.18,2.82,4.51,4.51,0,0,1-3,1,4.36,4.36,0,0,1-3-1,3.56,3.56,0,0,1-1.16-2.82v-7.11h1.8v7.11a2.2,2.2,0,0,0,2.35,2.4,2.47,2.47,0,0,0,1.76-.63,2.32,2.32,0,0,0,.67-1.78v-7.11Z"/><path class="cls-57" d="M191,307.54h-1.8l-4.78-7.77h0v7.76h-1.8V296.75h1.8l4.78,7.77h0v-7.76H191Z"/><path class="cls-57" d="M200,304.77a1.42,1.42,0,0,0-.48-1.1,4.41,4.41,0,0,0-1.69-.77,7.22,7.22,0,0,1-2.69-1.26,2.52,2.52,0,0,1-.95-2,2.65,2.65,0,0,1,1-2.15,4.09,4.09,0,0,1,2.67-.85,4,4,0,0,1,2.8.94,2.87,2.87,0,0,1,1,2.32v0H200a1.72,1.72,0,0,0-.57-1.36,2.19,2.19,0,0,0-1.51-.5,2.07,2.07,0,0,0-1.4.43,1.41,1.41,0,0,0-.49,1.11,1.23,1.23,0,0,0,.54,1,5.86,5.86,0,0,0,1.79.77,6.27,6.27,0,0,1,2.59,1.29,2.72,2.72,0,0,1,.89,2.09,2.55,2.55,0,0,1-1.05,2.14,4.45,4.45,0,0,1-2.76.8,4.8,4.8,0,0,1-2.87-.87,2.77,2.77,0,0,1-1.19-2.47v0h1.73a1.7,1.7,0,0,0,.67,1.46,2.68,2.68,0,0,0,1.63.49,2.4,2.4,0,0,0,1.49-.4A1.3,1.3,0,0,0,200,304.77Z"/><path class="cls-57" d="M213.21,303.12A4.56,4.56,0,0,1,212,306.4a4.26,4.26,0,0,1-3.23,1.3,4.12,4.12,0,0,1-3.15-1.3,4.61,4.61,0,0,1-1.21-3.28v-1.94a4.63,4.63,0,0,1,1.21-3.28,4.11,4.11,0,0,1,3.15-1.3,4.26,4.26,0,0,1,3.22,1.3,4.56,4.56,0,0,1,1.25,3.28Zm-1.8-2a3.36,3.36,0,0,0-.72-2.22,2.4,2.4,0,0,0-1.95-.87,2.26,2.26,0,0,0-1.88.87,3.46,3.46,0,0,0-.69,2.22v2a3.49,3.49,0,0,0,.69,2.23,2.26,2.26,0,0,0,1.88.87,2.4,2.4,0,0,0,2-.87,3.4,3.4,0,0,0,.72-2.24Z"/><path class="cls-57" d="M218,306.11H223v1.44h-6.86V296.75H218Z"/><path class="cls-57" d="M227.58,307.54h-1.8V296.75h1.8Z"/><path class="cls-57" d="M238.94,304v0a3.33,3.33,0,0,1-1.06,2.63,4.17,4.17,0,0,1-2.94,1,4,4,0,0,1-3.05-1.27,4.61,4.61,0,0,1-1.17-3.25v-2.05a4.66,4.66,0,0,1,1.16-3.25,3.88,3.88,0,0,1,3-1.28,4.36,4.36,0,0,1,3,1,3.3,3.3,0,0,1,1.06,2.66v0h-1.74a2.22,2.22,0,0,0-.58-1.66,2.36,2.36,0,0,0-1.72-.57,2,2,0,0,0-1.74.87,3.61,3.61,0,0,0-.64,2.2v2.07a3.58,3.58,0,0,0,.65,2.21,2.1,2.1,0,0,0,1.78.87,2,2,0,0,0,2.25-2.25Z"/><path class="cls-57" d="M243.7,307.54h-1.8V296.75h1.8Z"/><path class="cls-57" d="M254.5,298.2h-3.33v9.35h-1.8V298.2h-3.28v-1.45h8.42Z"/><path class="cls-57" d="M263,302.69h-4.22v3.42h5v1.44h-6.78V296.75h6.73v1.45h-4.93v3H263Z"/><path class="cls-57" d="M266.4,307.54V296.75H270A4.52,4.52,0,0,1,273.3,298a4.46,4.46,0,0,1,1.29,3.3V303a4.44,4.44,0,0,1-1.29,3.3,4.53,4.53,0,0,1-3.34,1.27Zm1.8-9.35v7.91H270a2.59,2.59,0,0,0,2.06-.88,3.32,3.32,0,0,0,.76-2.26v-1.65a3.29,3.29,0,0,0-.76-2.24,2.59,2.59,0,0,0-2.06-.88Z"/><path class="cls-57" d="M290.36,304v0a3.33,3.33,0,0,1-1.06,2.63,4.17,4.17,0,0,1-2.94,1,4,4,0,0,1-3.05-1.27,4.61,4.61,0,0,1-1.17-3.25v-2.05a4.66,4.66,0,0,1,1.16-3.25,3.88,3.88,0,0,1,3-1.28,4.36,4.36,0,0,1,3,1,3.3,3.3,0,0,1,1.06,2.66v0h-1.74a2.22,2.22,0,0,0-.58-1.66,2.36,2.36,0,0,0-1.72-.57,2,2,0,0,0-1.74.87,3.61,3.61,0,0,0-.64,2.2v2.07a3.58,3.58,0,0,0,.65,2.21,2.1,2.1,0,0,0,1.78.87,2,2,0,0,0,2.25-2.25Z"/><path class="cls-57" d="M298.79,305H295l-.83,2.52h-1.86L296,296.75h1.71l3.72,10.79h-1.86Zm-3.33-1.5h2.84l-1.39-4.25h0Z"/><path class="cls-57" d="M305.67,306.11h5.05v1.44h-6.86V296.75h1.8Z"/><path class="cls-57" d="M315.11,306.11h5.05v1.44h-6.86V296.75h1.8Z"/><path class="cls-57" d="M328.44,304.77a1.42,1.42,0,0,0-.48-1.1,4.41,4.41,0,0,0-1.69-.77,7.22,7.22,0,0,1-2.69-1.26,2.52,2.52,0,0,1-.94-2,2.65,2.65,0,0,1,1-2.15,4.09,4.09,0,0,1,2.67-.85,4,4,0,0,1,2.8.94,2.87,2.87,0,0,1,1,2.32v0h-1.73a1.72,1.72,0,0,0-.57-1.36,2.19,2.19,0,0,0-1.51-.5,2.07,2.07,0,0,0-1.4.43,1.41,1.41,0,0,0-.49,1.11,1.23,1.23,0,0,0,.54,1,5.87,5.87,0,0,0,1.79.77,6.28,6.28,0,0,1,2.59,1.29,2.72,2.72,0,0,1,.89,2.09,2.55,2.55,0,0,1-1.05,2.14,4.45,4.45,0,0,1-2.76.8,4.8,4.8,0,0,1-2.87-.87,2.77,2.77,0,0,1-1.19-2.47v0h1.73a1.7,1.7,0,0,0,.67,1.46,2.68,2.68,0,0,0,1.63.49,2.4,2.4,0,0,0,1.49-.4A1.3,1.3,0,0,0,328.44,304.77Z"/><path class="cls-57" d="M134.16,561.23V550.44h3.56a4.53,4.53,0,0,1,3.34,1.28,4.46,4.46,0,0,1,1.29,3.3v1.64a4.44,4.44,0,0,1-1.29,3.3,4.54,4.54,0,0,1-3.34,1.27Zm1.8-9.35v7.91h1.76a2.59,2.59,0,0,0,2.06-.88,3.32,3.32,0,0,0,.76-2.26V555a3.29,3.29,0,0,0-.76-2.24,2.59,2.59,0,0,0-2.06-.88Z"/><path class="cls-57" d="M151.41,556.38h-4.22v3.42h5v1.44h-6.78V550.44h6.73v1.45h-4.93v3h4.22Z"/><path class="cls-57" d="M156.66,559.8h5.05v1.44h-6.86V550.44h1.8Z"/><path class="cls-57" d="M166.25,561.23h-1.8V550.44h1.8Z"/><path class="cls-57" d="M173.2,558.31l.19.79h0l.19-.77,2.58-7.88h1.92l-3.85,10.79h-1.71l-3.85-10.79h1.92Z"/><path class="cls-57" d="M186.45,556.38h-4.22v3.42h5v1.44h-6.78V550.44h6.73v1.45h-4.93v3h4.22Z"/><path class="cls-57" d="M191.69,556.76v4.48h-1.8V550.44h3.71a4.26,4.26,0,0,1,2.79.82,2.85,2.85,0,0,1,1,2.33,2.4,2.4,0,0,1-.43,1.44,3,3,0,0,1-1.26,1,2.28,2.28,0,0,1,1.32.94,3,3,0,0,1,.4,1.62v.9a3.64,3.64,0,0,0,.12.93,1.33,1.33,0,0,0,.39.69v.17h-1.85a1.18,1.18,0,0,1-.38-.76,6.65,6.65,0,0,1-.08-1v-.87a1.81,1.81,0,0,0-.48-1.32,1.74,1.74,0,0,0-1.3-.49Zm0-1.45h1.82a2.44,2.44,0,0,0,1.58-.42,1.56,1.56,0,0,0,.5-1.27,1.68,1.68,0,0,0-.49-1.28,2.1,2.1,0,0,0-1.49-.46h-1.91Z"/><path class="cls-57" d="M203.92,555.69l2.6-5.25h2l-3.74,7v3.77H203v-3.88l-3.68-6.91h2Z"/><path class="cls-57" d="M217.74,561.23h-1.8V550.44h1.8Z"/><path class="cls-57" d="M229.65,561.23h-1.8l-4.78-7.77h0v7.76h-1.8V550.44H223l4.78,7.77h0v-7.76h1.8Z"/><path class="cls-57" d="M242.25,561.23h-1.8V552.1h-2.29v-1.43l4.09-.39Z"/><path class="cls-57" d="M254.23,557.37a4.26,4.26,0,0,1-1,2.94,3.61,3.61,0,0,1-5.15,0,4.23,4.23,0,0,1-1-2.94v-3.06a4.26,4.26,0,0,1,1-2.94,3.6,3.6,0,0,1,5.15,0,4.26,4.26,0,0,1,1,2.94Zm-1.8-3.33a2.76,2.76,0,0,0-.46-1.69,1.65,1.65,0,0,0-2.56,0,2.8,2.8,0,0,0-.45,1.69v3.59a2.79,2.79,0,0,0,.46,1.71,1.52,1.52,0,0,0,1.29.61,1.49,1.49,0,0,0,1.28-.61,2.84,2.84,0,0,0,.45-1.71Z"/><path class="cls-57" d="M263.92,557.37a4.26,4.26,0,0,1-1,2.94,3.61,3.61,0,0,1-5.15,0,4.23,4.23,0,0,1-1-2.94v-3.06a4.26,4.26,0,0,1,1-2.94,3.6,3.6,0,0,1,5.15,0,4.26,4.26,0,0,1,1,2.94Zm-1.8-3.33a2.76,2.76,0,0,0-.46-1.69,1.65,1.65,0,0,0-2.56,0,2.8,2.8,0,0,0-.45,1.69v3.59a2.79,2.79,0,0,0,.46,1.71,1.52,1.52,0,0,0,1.29.61,1.49,1.49,0,0,0,1.28-.61,2.84,2.84,0,0,0,.45-1.71Z"/><path class="cls-57" d="M273.61,557.37a4.26,4.26,0,0,1-1,2.94,3.61,3.61,0,0,1-5.15,0,4.23,4.23,0,0,1-1-2.94v-3.06a4.26,4.26,0,0,1,1-2.94,3.6,3.6,0,0,1,5.15,0,4.26,4.26,0,0,1,1,2.94ZM271.8,554a2.76,2.76,0,0,0-.46-1.69,1.65,1.65,0,0,0-2.56,0,2.8,2.8,0,0,0-.45,1.69v3.59a2.79,2.79,0,0,0,.46,1.71,1.52,1.52,0,0,0,1.29.61,1.49,1.49,0,0,0,1.28-.61,2.84,2.84,0,0,0,.45-1.71Z"/><path class="cls-57" d="M280.53,555.3h2.82v1.65h-2.82v3.21h-1.75v-3.21h-2.83V555.3h2.83v-3h1.75Z"/><path class="cls-57" d="M298.83,557.71v0a3.33,3.33,0,0,1-1.06,2.63,4.17,4.17,0,0,1-2.94,1,4,4,0,0,1-3.05-1.27,4.61,4.61,0,0,1-1.17-3.25v-2.05a4.66,4.66,0,0,1,1.16-3.25,3.88,3.88,0,0,1,3-1.28,4.36,4.36,0,0,1,3,1,3.3,3.3,0,0,1,1.06,2.66v0h-1.74a2.22,2.22,0,0,0-.58-1.66,2.36,2.36,0,0,0-1.72-.57,2,2,0,0,0-1.74.87,3.61,3.61,0,0,0-.64,2.2v2.07a3.59,3.59,0,0,0,.65,2.21,2.1,2.1,0,0,0,1.78.87,2,2,0,0,0,2.25-2.25Z"/><path class="cls-57" d="M303.59,561.23h-1.8V550.44h1.8Z"/><path class="cls-57" d="M314.39,551.89h-3.33v9.35h-1.8v-9.35H306v-1.45h8.42Z"/><path class="cls-57" d="M318.77,561.23H317V550.44h1.8Z"/><path class="cls-57" d="M328.27,556.38H324v3.42h5v1.44h-6.78V550.44H329v1.45H324v3h4.22Z"/><path class="cls-57" d="M337.4,558.46a1.42,1.42,0,0,0-.48-1.1,4.42,4.42,0,0,0-1.69-.77,7.22,7.22,0,0,1-2.69-1.26,2.52,2.52,0,0,1-.94-2,2.65,2.65,0,0,1,1-2.15,4.09,4.09,0,0,1,2.67-.84,4,4,0,0,1,2.8.94,2.87,2.87,0,0,1,1,2.32v0h-1.73a1.72,1.72,0,0,0-.57-1.36,2.19,2.19,0,0,0-1.51-.5,2.07,2.07,0,0,0-1.4.43,1.41,1.41,0,0,0-.49,1.11,1.23,1.23,0,0,0,.54,1,5.86,5.86,0,0,0,1.79.77,6.28,6.28,0,0,1,2.59,1.29,2.72,2.72,0,0,1,.89,2.09,2.55,2.55,0,0,1-1.05,2.14,4.45,4.45,0,0,1-2.76.8,4.8,4.8,0,0,1-2.87-.87,2.77,2.77,0,0,1-1.19-2.47v0h1.73a1.7,1.7,0,0,0,.67,1.46,2.68,2.68,0,0,0,1.63.49,2.4,2.4,0,0,0,1.49-.4A1.3,1.3,0,0,0,337.4,558.46Z"/><g class="cls-2"><path class="cls-3" d="M347.79,732H44.92c-18.79,0-38.14-13.55-38.14-43.58s29.48-43.58,52.43-43.58H357.93c18.79,0,34,8.84,34,33.55C391.94,715.53,373.19,732,347.79,732Z"/><path class="cls-4" d="M347.65,731.55H45.15C26.38,731.55,7.21,718,7.21,688.2s29.39-43.35,52.23-43.35H357.92c18.77,0,34,8.9,34,33.51C391.89,715.24,373.1,731.55,347.65,731.55Z"/><path class="cls-5" d="M347.52,731.14H45.38c-18.74,0-37.74-13.47-37.74-43.12s29.29-43.12,52-43.12H357.92c18.74,0,33.92,9,33.92,33.47C391.84,714.95,373,731.14,347.52,731.14Z"/><path class="cls-6" d="M347.38,730.73H45.6c-18.72,0-37.54-13.43-37.54-42.88S37.27,645,59.9,645h298c18.72,0,33.87,9,33.87,33.43C391.79,714.66,372.91,730.73,347.38,730.73Z"/><path class="cls-7" d="M347.25,730.32H45.83c-18.69,0-37.34-13.39-37.34-42.65S37.61,645,60.13,645H357.91c18.69,0,33.83,9.09,33.83,33.4C391.74,714.36,372.82,730.32,347.25,730.32Z"/><path class="cls-8" d="M347.11,729.92H46.06c-18.67,0-37.13-13.36-37.13-42.41s29-42.41,51.44-42.41H357.91c18.67,0,33.78,9.16,33.78,33.36C391.69,714.07,372.73,729.92,347.11,729.92Z"/><path class="cls-9" d="M347,729.51H46.29c-18.64,0-36.93-13.32-36.93-42.18s28.93-42.18,51.24-42.18H357.9c18.64,0,33.74,9.22,33.74,33.32C391.64,713.78,372.63,729.51,347,729.51Z"/><path class="cls-10" d="M346.84,729.1H46.51c-18.62,0-36.73-13.28-36.73-41.95s28.84-41.95,51-41.95H357.9c18.62,0,33.69,9.28,33.69,33.29C391.59,713.49,372.54,729.1,346.84,729.1Z"/><path class="cls-11" d="M346.71,728.7h-300c-18.59,0-36.53-13.24-36.53-41.71S39,645.27,61.06,645.27H357.89c18.59,0,33.65,9.34,33.65,33.25C391.54,713.2,372.45,728.7,346.71,728.7Z"/><path class="cls-12" d="M346.57,728.29H47c-18.57,0-36.33-13.2-36.33-41.48s28.65-41.48,50.64-41.48h296.6c18.57,0,33.6,9.41,33.6,33.21C391.49,712.91,372.35,728.29,346.57,728.29Z"/><path class="cls-13" d="M346.44,727.88H47.2c-18.54,0-36.12-13.17-36.12-41.25s28.56-41.24,50.45-41.24H357.88c18.54,0,33.56,9.47,33.56,33.17C391.44,712.61,372.26,727.88,346.44,727.88Z"/><path class="cls-14" d="M346.3,727.47H47.42c-18.52,0-35.92-13.13-35.92-41s28.47-41,50.25-41H357.88c18.52,0,33.51,9.53,33.51,33.14C391.39,712.32,372.17,727.47,346.3,727.47Z"/><path class="cls-15" d="M346.17,727.07H47.65c-18.49,0-35.72-13.09-35.72-40.78s28.38-40.78,50-40.78h295.9c18.49,0,33.47,9.6,33.47,33.1C391.34,712,372.07,727.07,346.17,727.07Z"/><path class="cls-16" d="M346,726.66H47.88c-18.47,0-35.52-13.05-35.52-40.54s28.29-40.54,49.85-40.54H357.87c18.47,0,33.42,9.66,33.42,33.06C391.29,711.74,372,726.66,346,726.66Z"/><path class="cls-17" d="M345.9,726.25H48.1c-18.44,0-35.32-13-35.32-40.31S41,645.63,62.44,645.63H357.87c18.44,0,33.37,9.72,33.37,33C391.24,711.45,371.89,726.25,345.9,726.25Z"/><path class="cls-18" d="M345.76,725.84H48.33c-18.42,0-35.11-13-35.11-40.08s28.11-40.07,49.45-40.07H357.86c18.42,0,33.33,9.79,33.33,33C391.19,711.15,371.79,725.84,345.76,725.84Z"/><path class="cls-19" d="M345.63,725.44H48.56c-18.39,0-34.91-12.94-34.91-39.84s28-39.84,49.26-39.84h295c18.39,0,33.28,9.85,33.28,33C391.14,710.86,371.7,725.44,345.63,725.44Z"/><path class="cls-20" d="M345.49,725H48.79c-18.37,0-34.71-12.9-34.71-39.61S42,645.81,63.14,645.81H357.85c18.37,0,33.24,9.91,33.24,32.91C391.09,710.57,371.61,725,345.49,725Z"/><path class="cls-21" d="M345.36,724.62H49c-18.34,0-34.51-12.86-34.51-39.37s27.83-39.37,48.86-39.37H357.85c18.34,0,33.19,10,33.19,32.88C391,710.28,371.52,724.62,345.36,724.62Z"/><path class="cls-22" d="M345.22,724.21h-296c-18.32,0-34.31-12.83-34.31-39.14s27.74-39.14,48.66-39.14H357.84c18.32,0,33.15,10,33.15,32.84C391,710,371.42,724.21,345.22,724.21Z"/><path class="cls-23" d="M345.09,723.81H49.47c-18.29,0-34.1-12.79-34.1-38.91S43,646,63.83,646h294c18.29,0,33.1,10.1,33.1,32.8C390.94,709.7,371.33,723.81,345.09,723.81Z"/><path class="cls-24" d="M345,723.4H49.7c-18.27,0-33.9-12.75-33.9-38.67s27.56-38.67,48.27-38.67H357.84c18.27,0,33.06,10.16,33.06,32.77C390.89,709.4,371.24,723.4,345,723.4Z"/><path class="cls-25" d="M344.82,723H49.92c-18.24,0-33.7-12.71-33.7-38.44s27.46-38.44,48.07-38.44H357.83c18.24,0,33,10.23,33,32.73C390.84,709.11,371.14,723,344.82,723Z"/><path class="cls-26" d="M344.68,722.59H50.15c-18.21,0-33.5-12.68-33.5-38.2s27.37-38.2,47.87-38.2h293.3c18.22,0,33,10.29,33,32.69C390.79,708.82,371,722.59,344.68,722.59Z"/><path class="cls-27" d="M344.55,722.18H50.38c-18.19,0-33.3-12.64-33.3-38s27.28-38,47.67-38H357.82c18.19,0,32.92,10.35,32.92,32.65C390.74,708.53,371,722.18,344.55,722.18Z"/><path class="cls-28" d="M344.41,721.77H50.61c-18.16,0-33.09-12.6-33.09-37.74S44.7,646.3,65,646.3H357.82c18.17,0,32.88,10.42,32.88,32.62C390.7,708.24,370.86,721.77,344.41,721.77Z"/><path class="cls-29" d="M344.28,721.36H50.83c-18.14,0-32.89-12.56-32.89-37.5s27.1-37.5,47.27-37.5h292.6c18.14,0,32.83,10.48,32.83,32.58C390.65,707.95,370.77,721.36,344.28,721.36Z"/><path class="cls-30" d="M344.14,721H51.06c-18.11,0-32.69-12.52-32.69-37.27s27-37.27,47.08-37.27H357.81c18.12,0,32.79,10.54,32.79,32.54C390.6,707.65,370.68,721,344.14,721Z"/><path class="cls-31" d="M344,720.55H51.29c-18.09,0-32.49-12.49-32.49-37s26.92-37,46.88-37H357.8c18.09,0,32.74,10.6,32.74,32.51C390.55,707.36,370.58,720.55,344,720.55Z"/><path class="cls-32" d="M343.87,720.14H51.52c-18.06,0-32.29-12.45-32.29-36.8s26.82-36.8,46.68-36.8H357.8c18.06,0,32.7,10.67,32.7,32.47C390.5,707.07,370.49,720.14,343.87,720.14Z"/><path class="cls-33" d="M343.74,719.73h-292c-18,0-32.08-12.41-32.08-36.57S46.39,646.6,66.14,646.6H357.79c18,0,32.65,10.73,32.65,32.43C390.45,706.78,370.4,719.73,343.74,719.73Z"/><path class="cls-34" d="M343.6,719.33H52C34,719.33,20.09,707,20.09,683s26.64-36.33,46.28-36.33H357.79c18,0,32.61,10.79,32.61,32.39C390.4,706.49,370.3,719.33,343.6,719.33Z"/><path class="cls-35" d="M343.47,718.92H52.2c-18,0-31.68-12.33-31.68-36.1s26.55-36.1,46.09-36.1H357.79c18,0,32.56,10.86,32.56,32.36C390.35,706.2,370.21,718.92,343.47,718.92Z"/><path class="cls-36" d="M343.33,718.51H52.43c-18,0-31.48-12.3-31.48-35.86s26.46-35.86,45.89-35.86H357.78c18,0,32.52,10.92,32.52,32.32C390.3,705.9,370.12,718.51,343.33,718.51Z"/><path class="cls-37" d="M343.2,718.1H52.65c-17.94,0-31.28-12.26-31.28-35.63s26.37-35.63,45.69-35.63H357.78c17.94,0,32.47,11,32.47,32.28C390.25,705.61,370,718.1,343.2,718.1Z"/><path class="cls-38" d="M343.06,717.7H52.88c-17.91,0-31.07-12.22-31.07-35.4s26.28-35.4,45.49-35.4H357.77c17.91,0,32.43,11,32.43,32.25C390.2,705.32,369.93,717.7,343.06,717.7Z"/><path class="cls-39" d="M342.93,717.29H53.11c-17.89,0-30.87-12.18-30.87-35.16S48.42,647,67.53,647H357.77c17.89,0,32.38,11.11,32.38,32.21C390.15,705,369.84,717.29,342.93,717.29Z"/><path class="cls-40" d="M342.79,716.88H53.34c-17.86,0-30.67-12.15-30.67-34.93S48.76,647,67.76,647h290c17.86,0,32.34,11.17,32.34,32.17C390.1,704.74,369.75,716.88,342.79,716.88Z"/><path class="cls-41" d="M342.66,716.48H53.56c-17.84,0-30.47-12.11-30.47-34.69s26-34.69,44.9-34.69H357.76c17.84,0,32.29,11.23,32.29,32.13C390.05,704.44,369.65,716.48,342.66,716.48Z"/><path class="cls-42" d="M342.52,716.07H53.79C36,716.07,23.52,704,23.52,681.61s25.91-34.46,44.7-34.46H357.75c17.81,0,32.25,11.3,32.25,32.1C390,704.15,369.56,716.07,342.52,716.07Z"/><path class="cls-43" d="M342.39,715.66H54c-17.79,0-30.06-12-30.06-34.23s25.82-34.23,44.5-34.23h289.3c17.79,0,32.2,11.36,32.2,32.06C390,703.86,369.47,715.66,342.39,715.66Z"/><path class="cls-44" d="M342.26,715.25h-288c-17.76,0-29.86-12-29.86-34s25.73-34,44.3-34H357.75c17.76,0,32.16,11.42,32.16,32C389.9,703.57,369.37,715.25,342.26,715.25Z"/><path class="cls-45" d="M342.12,714.85H54.47c-17.74,0-29.66-12-29.66-33.76s25.63-33.76,44.1-33.76H357.74c17.74,0,32.11,11.49,32.11,32C389.85,703.28,369.28,714.85,342.12,714.85Z"/><path class="cls-46" d="M342,714.44H54.7c-17.71,0-29.46-11.92-29.46-33.53s25.54-33.52,43.91-33.52H357.74c17.71,0,32.07,11.55,32.07,31.95C389.8,703,369.19,714.44,342,714.44Z"/><path class="cls-47" d="M341.85,714H54.93c-17.69,0-29.26-11.88-29.26-33.29s25.45-33.29,43.71-33.29H357.73c17.69,0,32,11.61,32,31.91C389.75,702.69,369.09,714,341.85,714Z"/><path class="cls-48" d="M341.72,713.62H55.15c-17.66,0-29.05-11.84-29.05-33.06s25.36-33.06,43.51-33.06H357.73c17.66,0,32,11.68,32,31.88C389.7,702.4,369,713.62,341.72,713.62Z"/><path class="cls-49" d="M341.58,713.22H55.38c-17.64,0-28.85-11.81-28.85-32.82s25.27-32.82,43.31-32.82H357.72c17.64,0,31.93,11.74,31.93,31.84C389.65,702.11,368.91,713.22,341.58,713.22Z"/><path class="cls-50" d="M341.45,712.81H55.61C38,712.81,27,701,27,680.22s25.18-32.59,43.11-32.59H357.72c17.61,0,31.88,11.8,31.88,31.8C389.6,701.82,368.81,712.81,341.45,712.81Z"/><path class="cls-51" d="M341.31,712.4H55.84c-17.59,0-28.45-11.73-28.45-32.36s25.09-32.35,42.92-32.35H357.71c17.59,0,31.84,11.86,31.84,31.76C389.55,701.53,368.72,712.4,341.31,712.4Z"/><path class="cls-52" d="M341.18,712H56.06c-17.56,0-28.25-11.69-28.25-32.12s25-32.12,42.72-32.12H357.71c17.56,0,31.79,11.93,31.79,31.73C389.5,701.24,368.63,712,341.18,712Z"/><path class="cls-53" d="M341,711.59H56.29c-17.53,0-28-11.65-28-31.89s24.9-31.89,42.52-31.89H357.71c17.54,0,31.75,12,31.75,31.69C389.45,700.94,368.54,711.59,341,711.59Z"/><path class="cls-54" d="M340.91,711.18H56.52c-17.51,0-27.84-11.62-27.84-31.65S53.49,647.87,71,647.87H357.7c17.51,0,31.7,12.05,31.7,31.65C389.41,700.65,368.44,711.18,340.91,711.18Z"/></g><path class="cls-63" d="M393.22,679.53c0,19.51-14.76,35.32-33,35.32H52.66c-18.21,0-33-15.81-33-35.32h0c0-19.51,15.13-35.32,33.34-35.32H360.26c18.21,0,33,15.81,33,35.32Z"/><path class="cls-64" d="M392,679.53c0,18.45-14.52,33.41-32.42,33.41H54.69c-17.91,0-32.43-15-32.43-33.41h0c0-18.45,14.52-33.41,32.43-33.41H359.53c17.91,0,32.42,15,32.42,33.41Z"/><path class="cls-57" d="M149.44,682.25h-3.82l-.83,2.52h-1.86L146.69,674h1.71l3.72,10.79h-1.86Zm-3.33-1.5h2.84l-1.39-4.25h0Z"/><path class="cls-57" d="M161.39,675.42h-3.34v9.35h-1.8v-9.35H153V674h8.42Z"/><path class="cls-57" d="M171.48,675.42h-3.34v9.35h-1.8v-9.35h-3.28V674h8.42Z"/><path class="cls-57" d="M175.72,680.29v4.48h-1.8V674h3.71a4.26,4.26,0,0,1,2.79.82,2.85,2.85,0,0,1,1,2.33,2.41,2.41,0,0,1-.43,1.44,3,3,0,0,1-1.26,1,2.29,2.29,0,0,1,1.32.94,3,3,0,0,1,.4,1.62v.9a3.62,3.62,0,0,0,.12.93,1.33,1.33,0,0,0,.39.69v.17h-1.85a1.19,1.19,0,0,1-.38-.76,6.63,6.63,0,0,1-.08-1v-.87a1.81,1.81,0,0,0-.48-1.32,1.74,1.74,0,0,0-1.3-.49Zm0-1.45h1.82a2.45,2.45,0,0,0,1.58-.42,1.56,1.56,0,0,0,.5-1.27,1.68,1.68,0,0,0-.49-1.28,2.1,2.1,0,0,0-1.49-.46h-1.91Z"/><path class="cls-57" d="M190.25,682.25h-3.82l-.83,2.52h-1.86L187.5,674h1.71l3.72,10.79h-1.86Zm-3.33-1.5h2.84l-1.39-4.25h0Z"/><path class="cls-57" d="M203.14,681.24v0a3.32,3.32,0,0,1-1.06,2.63,4.17,4.17,0,0,1-2.94,1,4,4,0,0,1-3.05-1.27,4.61,4.61,0,0,1-1.17-3.25v-2.05a4.66,4.66,0,0,1,1.16-3.25,3.88,3.88,0,0,1,3-1.28,4.35,4.35,0,0,1,3,1,3.29,3.29,0,0,1,1.06,2.66v0H201.4a2.22,2.22,0,0,0-.59-1.66,2.36,2.36,0,0,0-1.72-.58,2,2,0,0,0-1.74.87,3.61,3.61,0,0,0-.64,2.2v2.07a3.59,3.59,0,0,0,.65,2.21,2.1,2.1,0,0,0,1.78.87,2,2,0,0,0,2.25-2.25Z"/><path class="cls-57" d="M213.27,675.42h-3.34v9.35h-1.8v-9.35h-3.28V674h8.42Z"/><path class="cls-57" d="M217.65,684.77h-1.8V674h1.8Z"/><path class="cls-57" d="M224.6,681.84l.19.79h0l.18-.77L227.6,674h1.92l-3.85,10.79H224L220.11,674H222Z"/><path class="cls-57" d="M237.85,679.91h-4.22v3.42h5v1.44h-6.78V674h6.73v1.45h-4.93v3h4.22Z"/><path class="cls-57" d="M254,681.24v0a3.33,3.33,0,0,1-1.06,2.63,4.17,4.17,0,0,1-2.94,1,4,4,0,0,1-3.05-1.27,4.61,4.61,0,0,1-1.17-3.25v-2.05A4.66,4.66,0,0,1,247,675.1a3.88,3.88,0,0,1,3-1.28,4.36,4.36,0,0,1,3,1,3.29,3.29,0,0,1,1.06,2.66v0h-1.74a2.22,2.22,0,0,0-.58-1.66,2.36,2.36,0,0,0-1.72-.58,2,2,0,0,0-1.74.87,3.61,3.61,0,0,0-.64,2.2v2.07a3.58,3.58,0,0,0,.65,2.21,2.1,2.1,0,0,0,1.78.87,2,2,0,0,0,2.25-2.25Z"/><path class="cls-57" d="M262.45,682.25h-3.82l-.83,2.52h-1.86L259.7,674h1.71l3.72,10.79h-1.86Zm-3.33-1.5H262l-1.39-4.25h0Z"/><path class="cls-57" d="M273.22,682a1.42,1.42,0,0,0-.48-1.1,4.4,4.4,0,0,0-1.69-.77,7.22,7.22,0,0,1-2.69-1.26,2.52,2.52,0,0,1-.94-2,2.65,2.65,0,0,1,1-2.15,4.09,4.09,0,0,1,2.67-.85,4,4,0,0,1,2.8.94,2.87,2.87,0,0,1,1,2.32v0h-1.73a1.72,1.72,0,0,0-.57-1.36,2.19,2.19,0,0,0-1.51-.5,2.07,2.07,0,0,0-1.4.43,1.4,1.4,0,0,0-.49,1.11,1.23,1.23,0,0,0,.54,1,5.88,5.88,0,0,0,1.79.77,6.28,6.28,0,0,1,2.59,1.29A2.72,2.72,0,0,1,275,682a2.55,2.55,0,0,1-1.05,2.14,4.44,4.44,0,0,1-2.76.8,4.8,4.8,0,0,1-2.87-.87,2.77,2.77,0,0,1-1.19-2.47v0h1.73a1.7,1.7,0,0,0,.67,1.46,2.69,2.69,0,0,0,1.63.49,2.4,2.4,0,0,0,1.49-.4A1.3,1.3,0,0,0,273.22,682Z"/><path class="cls-57" d="M286.35,684.77h-1.8v-4.6h-4.83v4.6h-1.8V674h1.8v4.74h4.83V674h1.8Z"/><path class="cls-57" d="M289.68,684.77V674h3.54a4.66,4.66,0,0,1,2.79.74,2.56,2.56,0,0,1,1,2.21,2.17,2.17,0,0,1-.4,1.28,2.52,2.52,0,0,1-1.12.87,2.42,2.42,0,0,1,1.6.9,2.71,2.71,0,0,1,.56,1.7,2.77,2.77,0,0,1-1,2.31,4.3,4.3,0,0,1-2.74.79Zm1.8-6.25h1.93a2,2,0,0,0,1.32-.4,1.37,1.37,0,0,0,.49-1.12,1.4,1.4,0,0,0-.51-1.19,2.43,2.43,0,0,0-1.49-.39h-1.73Zm0,1.34v3.47h2.43a2.17,2.17,0,0,0,1.44-.43,1.53,1.53,0,0,0,.5-1.23,1.72,1.72,0,0,0-.5-1.3,2,2,0,0,0-1.39-.51h-2.48Z"/><path class="cls-57" d="M306,682.25H302.2l-.83,2.52h-1.86L303.28,674H305l3.72,10.79h-1.86Zm-3.33-1.5h2.84l-1.39-4.25h0Z"/><path class="cls-57" d="M318.91,681.24v0a3.33,3.33,0,0,1-1.06,2.63,4.17,4.17,0,0,1-2.94,1,4,4,0,0,1-3.05-1.27,4.61,4.61,0,0,1-1.17-3.25v-2.05a4.66,4.66,0,0,1,1.16-3.25,3.88,3.88,0,0,1,3-1.28,4.36,4.36,0,0,1,3,1,3.29,3.29,0,0,1,1.06,2.66v0h-1.74a2.22,2.22,0,0,0-.58-1.66,2.36,2.36,0,0,0-1.72-.58,2,2,0,0,0-1.74.87,3.61,3.61,0,0,0-.64,2.2v2.07a3.58,3.58,0,0,0,.65,2.21,2.1,2.1,0,0,0,1.78.87,2,2,0,0,0,2.25-2.25Z"/><path class="cls-57" d="M324.41,680.1h-.88v4.67h-1.8V674h1.8v4.57h.7l3.51-4.57h2.11l0,0-4,5.07,4.38,5.68h-2.28Z"/><path class="cls-57" d="M48,663.65H69.54v0a33.33,33.33,0,0,1-2.15,3.13H61.65a7.52,7.52,0,0,1,1.61,3.38h6.13c.07,0,.11,0,.11.09q-2.06,3.09-2.1,3.09h-4a9.14,9.14,0,0,1-1.52,3.83,9.35,9.35,0,0,1-3.51,2.93,13.89,13.89,0,0,1-6,1.5v0a8.26,8.26,0,0,0,1.41,1.86l10.63,12.82v.6c0,.06,0,.09-.11.09H59.63Q47,682.35,47,682.29v-3l0-.11a19.12,19.12,0,0,0,2.62.16q7.07,0,8.79-4.59a3.69,3.69,0,0,0,.27-1.39H45.94a.08.08,0,0,1-.09-.09Q48,670.21,48,670.21H58.18v0a6,6,0,0,0-3.38-2.75,10.55,10.55,0,0,0-3.22-.58H45.9v-.11Q48,663.65,48,663.65Z"/><g class="cls-2"><path class="cls-3" d="M347.79,478.26H44.92c-18.79,0-38.14-13.55-38.14-43.58s29.48-43.58,52.43-43.58H357.93c18.79,0,34,8.84,34,33.55C391.94,461.84,373.19,478.26,347.79,478.26Z"/><path class="cls-4" d="M347.65,477.86H45.15c-18.77,0-37.94-13.51-37.94-43.35s29.39-43.35,52.23-43.35H357.92c18.77,0,34,8.9,34,33.51C391.89,461.55,373.1,477.86,347.65,477.86Z"/><path class="cls-5" d="M347.52,477.45H45.38c-18.74,0-37.74-13.47-37.74-43.12s29.29-43.12,52-43.12H357.92c18.74,0,33.92,9,33.92,33.47C391.84,461.26,373,477.45,347.52,477.45Z"/><path class="cls-6" d="M347.38,477H45.6c-18.72,0-37.54-13.43-37.54-42.88s29.2-42.88,51.83-42.88h298c18.72,0,33.87,9,33.87,33.43C391.79,461,372.91,477,347.38,477Z"/><path class="cls-7" d="M347.25,476.63H45.83C27.14,476.63,8.5,463.24,8.5,434s29.11-42.65,51.63-42.65H357.91c18.69,0,33.83,9.09,33.83,33.4C391.74,460.67,372.82,476.63,347.25,476.63Z"/><path class="cls-8" d="M347.11,476.23H46.06c-18.67,0-37.13-13.36-37.13-42.41s29-42.41,51.44-42.41H357.91c18.67,0,33.78,9.16,33.78,33.36C391.69,460.38,372.73,476.23,347.11,476.23Z"/><path class="cls-9" d="M347,475.82H46.29c-18.64,0-36.93-13.32-36.93-42.18s28.93-42.18,51.24-42.18H357.9c18.64,0,33.74,9.22,33.74,33.32C391.64,460.09,372.63,475.82,347,475.82Z"/><path class="cls-10" d="M346.84,475.41H46.51c-18.62,0-36.73-13.28-36.73-41.95s28.84-41.95,51-41.95H357.9c18.62,0,33.69,9.28,33.69,33.29C391.59,459.8,372.54,475.41,346.84,475.41Z"/><path class="cls-11" d="M346.71,475h-300c-18.59,0-36.53-13.24-36.53-41.71S39,391.58,61.06,391.58H357.89c18.59,0,33.65,9.34,33.65,33.25C391.54,459.51,372.45,475,346.71,475Z"/><path class="cls-12" d="M346.57,474.6H47c-18.57,0-36.33-13.2-36.33-41.48s28.65-41.48,50.64-41.48h296.6c18.57,0,33.6,9.41,33.6,33.21C391.49,459.21,372.35,474.6,346.57,474.6Z"/><path class="cls-13" d="M346.44,474.19H47.2c-18.54,0-36.12-13.17-36.12-41.25S39.63,391.7,61.52,391.7H357.88c18.54,0,33.56,9.47,33.56,33.17C391.44,458.92,372.26,474.19,346.44,474.19Z"/><path class="cls-14" d="M346.3,473.78H47.42c-18.52,0-35.92-13.13-35.92-41s28.47-41,50.25-41H357.88c18.52,0,33.51,9.53,33.51,33.14C391.39,458.63,372.17,473.78,346.3,473.78Z"/><path class="cls-15" d="M346.17,473.38H47.65c-18.49,0-35.72-13.09-35.72-40.78s28.38-40.78,50-40.78h295.9c18.49,0,33.47,9.6,33.47,33.1C391.34,458.34,372.07,473.38,346.17,473.38Z"/><path class="cls-16" d="M346,473H47.88c-18.47,0-35.52-13.05-35.52-40.54s28.29-40.54,49.85-40.54H357.87c18.47,0,33.42,9.66,33.42,33.06C391.29,458,372,473,346,473Z"/><path class="cls-17" d="M345.9,472.56H48.1c-18.44,0-35.32-13-35.32-40.31S41,391.94,62.44,391.94H357.87c18.44,0,33.37,9.72,33.37,33C391.24,457.76,371.89,472.56,345.9,472.56Z"/><path class="cls-18" d="M345.76,472.15H48.33c-18.42,0-35.11-13-35.11-40.08S41.32,392,62.67,392H357.86c18.42,0,33.33,9.79,33.33,33C391.19,457.46,371.79,472.15,345.76,472.15Z"/><path class="cls-19" d="M345.63,471.75H48.56c-18.39,0-34.91-12.94-34.91-39.84s28-39.84,49.26-39.84h295c18.39,0,33.28,9.85,33.28,33C391.14,457.17,371.7,471.75,345.63,471.75Z"/><path class="cls-20" d="M345.49,471.34H48.79c-18.37,0-34.71-12.9-34.71-39.61S42,392.12,63.14,392.12H357.85c18.37,0,33.24,9.91,33.24,32.91C391.09,456.88,371.61,471.34,345.49,471.34Z"/><path class="cls-21" d="M345.36,470.93H49c-18.34,0-34.51-12.86-34.51-39.37s27.83-39.37,48.86-39.37H357.85c18.34,0,33.19,10,33.19,32.88C391,456.59,371.52,470.93,345.36,470.93Z"/><path class="cls-22" d="M345.22,470.52h-296c-18.32,0-34.31-12.83-34.31-39.14s27.74-39.14,48.66-39.14H357.84c18.32,0,33.15,10,33.15,32.84C391,456.3,371.42,470.52,345.22,470.52Z"/><path class="cls-23" d="M345.09,470.12H49.47c-18.29,0-34.1-12.79-34.1-38.91s27.65-38.9,48.46-38.9h294c18.29,0,33.1,10.1,33.1,32.8C390.94,456,371.33,470.12,345.09,470.12Z"/><path class="cls-24" d="M345,469.71H49.7c-18.27,0-33.9-12.75-33.9-38.67s27.56-38.67,48.27-38.67H357.84c18.27,0,33.06,10.16,33.06,32.77C390.89,455.71,371.24,469.71,345,469.71Z"/><path class="cls-25" d="M344.82,469.3H49.92c-18.24,0-33.7-12.71-33.7-38.44s27.46-38.44,48.07-38.44H357.83c18.24,0,33,10.23,33,32.73C390.84,455.42,371.14,469.3,344.82,469.3Z"/><path class="cls-26" d="M344.68,468.89H50.15c-18.21,0-33.5-12.68-33.5-38.2s27.37-38.2,47.87-38.2h293.3c18.22,0,33,10.29,33,32.69C390.79,455.13,371,468.89,344.68,468.89Z"/><path class="cls-27" d="M344.55,468.49H50.38c-18.19,0-33.3-12.64-33.3-38s27.28-38,47.67-38H357.82c18.19,0,32.92,10.35,32.92,32.65C390.74,454.84,371,468.49,344.55,468.49Z"/><path class="cls-28" d="M344.41,468.08H50.61c-18.16,0-33.09-12.6-33.09-37.74S44.7,392.61,65,392.61H357.82c18.17,0,32.88,10.42,32.88,32.62C390.7,454.55,370.86,468.08,344.41,468.08Z"/><path class="cls-29" d="M344.28,467.67H50.83c-18.14,0-32.89-12.56-32.89-37.5s27.1-37.5,47.27-37.5h292.6c18.14,0,32.83,10.48,32.83,32.58C390.65,454.25,370.77,467.67,344.28,467.67Z"/><path class="cls-30" d="M344.14,467.27H51.06c-18.11,0-32.69-12.52-32.69-37.27s27-37.27,47.08-37.27H357.81c18.12,0,32.79,10.54,32.79,32.54C390.6,454,370.68,467.27,344.14,467.27Z"/><path class="cls-31" d="M344,466.86H51.29c-18.09,0-32.49-12.49-32.49-37s26.92-37,46.88-37H357.8c18.09,0,32.74,10.6,32.74,32.51C390.55,453.67,370.58,466.86,344,466.86Z"/><path class="cls-32" d="M343.87,466.45H51.52c-18.06,0-32.29-12.45-32.29-36.8s26.82-36.8,46.68-36.8H357.8c18.06,0,32.7,10.67,32.7,32.47C390.5,453.38,370.49,466.45,343.87,466.45Z"/><path class="cls-33" d="M343.74,466h-292c-18,0-32.08-12.41-32.08-36.57s26.73-36.57,46.48-36.57H357.79c18,0,32.65,10.73,32.65,32.43C390.45,453.09,370.4,466,343.74,466Z"/><path class="cls-34" d="M343.6,465.64H52c-18,0-31.88-12.37-31.88-36.33S46.73,393,66.37,393H357.79c18,0,32.61,10.79,32.61,32.39C390.4,452.8,370.3,465.64,343.6,465.64Z"/><path class="cls-35" d="M343.47,465.23H52.2c-18,0-31.68-12.33-31.68-36.1S47.07,393,66.6,393H357.79c18,0,32.56,10.86,32.56,32.36C390.35,452.5,370.21,465.23,343.47,465.23Z"/><path class="cls-36" d="M343.33,464.82H52.43c-18,0-31.48-12.3-31.48-35.86s26.46-35.86,45.89-35.86H357.78c18,0,32.52,10.92,32.52,32.32C390.3,452.21,370.12,464.82,343.33,464.82Z"/><path class="cls-37" d="M343.2,464.41H52.65c-17.94,0-31.28-12.26-31.28-35.63s26.37-35.63,45.69-35.63H357.78c17.94,0,32.47,11,32.47,32.28C390.25,451.92,370,464.41,343.2,464.41Z"/><path class="cls-38" d="M343.06,464H52.88c-17.91,0-31.07-12.22-31.07-35.4s26.28-35.4,45.49-35.4H357.77c17.91,0,32.43,11,32.43,32.25C390.2,451.63,369.93,464,343.06,464Z"/><path class="cls-39" d="M342.93,463.6H53.11c-17.89,0-30.87-12.18-30.87-35.16s26.18-35.16,45.29-35.16H357.77c17.89,0,32.38,11.11,32.38,32.21C390.15,451.34,369.84,463.6,342.93,463.6Z"/><path class="cls-40" d="M342.79,463.19H53.34c-17.86,0-30.67-12.15-30.67-34.93s26.09-34.93,45.1-34.93h290c17.86,0,32.34,11.17,32.34,32.17C390.1,451,369.75,463.19,342.79,463.19Z"/><path class="cls-41" d="M342.66,462.78H53.56c-17.84,0-30.47-12.11-30.47-34.69s26-34.69,44.9-34.69H357.76c17.84,0,32.29,11.23,32.29,32.13C390.05,450.75,369.65,462.78,342.66,462.78Z"/><path class="cls-42" d="M342.52,462.38H53.79c-17.81,0-30.27-12.07-30.27-34.46s25.91-34.46,44.7-34.46H357.75c17.81,0,32.25,11.3,32.25,32.1C390,450.46,369.56,462.38,342.52,462.38Z"/><path class="cls-43" d="M342.39,462H54C36.23,462,24,449.94,24,427.74s25.82-34.23,44.5-34.23h289.3c17.79,0,32.2,11.36,32.2,32.06C390,450.17,369.47,462,342.39,462Z"/><path class="cls-44" d="M342.26,461.56h-288c-17.76,0-29.86-12-29.86-34s25.73-34,44.3-34H357.75c17.76,0,32.16,11.42,32.16,32C389.9,449.88,369.37,461.56,342.26,461.56Z"/><path class="cls-45" d="M342.12,461.16H54.47c-17.74,0-29.66-12-29.66-33.76s25.63-33.76,44.1-33.76H357.74c17.74,0,32.11,11.49,32.11,32C389.85,449.59,369.28,461.16,342.12,461.16Z"/><path class="cls-46" d="M342,460.75H54.7c-17.71,0-29.46-11.92-29.46-33.53S50.78,393.7,69.15,393.7H357.74c17.71,0,32.07,11.55,32.07,31.95C389.8,449.3,369.19,460.75,342,460.75Z"/><path class="cls-47" d="M341.85,460.34H54.93c-17.69,0-29.26-11.88-29.26-33.29s25.45-33.29,43.71-33.29H357.73c17.69,0,32,11.61,32,31.91C389.75,449,369.09,460.34,341.85,460.34Z"/><path class="cls-48" d="M341.72,459.93H55.15c-17.66,0-29.05-11.84-29.05-33.06s25.36-33.06,43.51-33.06H357.73c17.66,0,32,11.68,32,31.88C389.7,448.71,369,459.93,341.72,459.93Z"/><path class="cls-49" d="M341.58,459.53H55.38c-17.64,0-28.85-11.81-28.85-32.82s25.27-32.82,43.31-32.82H357.72c17.64,0,31.93,11.74,31.93,31.84C389.65,448.42,368.91,459.53,341.58,459.53Z"/><path class="cls-50" d="M341.45,459.12H55.61C38,459.12,27,447.35,27,426.53s25.18-32.59,43.11-32.59H357.72c17.61,0,31.88,11.8,31.88,31.8C389.6,448.13,368.81,459.12,341.45,459.12Z"/><path class="cls-51" d="M341.31,458.71H55.84c-17.59,0-28.45-11.73-28.45-32.36S52.47,394,70.3,394H357.71c17.59,0,31.84,11.86,31.84,31.76C389.55,447.84,368.72,458.71,341.31,458.71Z"/><path class="cls-52" d="M341.18,458.3H56.06c-17.56,0-28.25-11.69-28.25-32.12s25-32.12,42.72-32.12H357.71c17.56,0,31.79,11.93,31.79,31.73C389.5,447.54,368.63,458.3,341.18,458.3Z"/><path class="cls-53" d="M341,457.9H56.29c-17.53,0-28-11.65-28-31.89s24.9-31.89,42.52-31.89H357.71c17.54,0,31.75,12,31.75,31.69C389.45,447.25,368.54,457.9,341,457.9Z"/><path class="cls-54" d="M340.91,457.49H56.52c-17.51,0-27.84-11.62-27.84-31.65S53.49,394.18,71,394.18H357.7c17.51,0,31.7,12.05,31.7,31.65C389.41,447,368.44,457.49,340.91,457.49Z"/></g><path class="cls-65" d="M393.22,425.84c0,19.51-14.76,35.32-33,35.32H52.66c-18.21,0-33-15.81-33-35.32h0c0-19.51,15.13-35.32,33.34-35.32H360.26c18.21,0,33,15.81,33,35.32Z"/><path class="cls-66" d="M392,425.84c0,18.45-14.52,33.41-32.42,33.41H54.69c-17.91,0-32.43-15-32.43-33.41h0c0-18.45,14.52-33.41,32.43-33.41H359.53c17.91,0,32.42,15,32.42,33.41Z"/><path class="cls-57" d="M160.27,425h-3.34v9.35h-1.8V425h-3.28V423.6h8.42Z"/><path class="cls-57" d="M171,430a4.56,4.56,0,0,1-1.24,3.28,4.26,4.26,0,0,1-3.23,1.3,4.11,4.11,0,0,1-3.15-1.3,4.61,4.61,0,0,1-1.22-3.28V428a4.63,4.63,0,0,1,1.21-3.28,4.11,4.11,0,0,1,3.15-1.3,4.26,4.26,0,0,1,3.22,1.3A4.56,4.56,0,0,1,171,428Zm-1.8-2a3.36,3.36,0,0,0-.72-2.22,2.4,2.4,0,0,0-1.95-.87,2.26,2.26,0,0,0-1.88.87,3.46,3.46,0,0,0-.69,2.22v2a3.49,3.49,0,0,0,.69,2.23,2.26,2.26,0,0,0,1.88.87,2.4,2.4,0,0,0,2-.87,3.4,3.4,0,0,0,.72-2.24Z"/><path class="cls-57" d="M175.76,430.3v4.09H174V423.6h4.14a4,4,0,0,1,2.8.92,3.43,3.43,0,0,1,0,4.86,4,4,0,0,1-2.8.92Zm0-1.45h2.33a2,2,0,0,0,1.5-.53,1.9,1.9,0,0,0,.5-1.36,1.82,1.82,0,0,0-2-1.92h-2.33Z"/><path class="cls-57" d="M189.52,434.39V423.6h3.56a4.53,4.53,0,0,1,3.34,1.28,4.46,4.46,0,0,1,1.29,3.3v1.64a4.44,4.44,0,0,1-1.29,3.3,4.54,4.54,0,0,1-3.34,1.27Zm1.8-9.35V433h1.76a2.59,2.59,0,0,0,2.06-.88,3.32,3.32,0,0,0,.76-2.26v-1.65a3.29,3.29,0,0,0-.76-2.24,2.59,2.59,0,0,0-2.06-.88Z"/><path class="cls-57" d="M202.7,434.39h-1.8V423.6h1.8Z"/><path class="cls-57" d="M214.18,432.93a3.77,3.77,0,0,1-1.42,1.12,5.58,5.58,0,0,1-2.52.49,4.26,4.26,0,0,1-3.15-1.23,4.32,4.32,0,0,1-1.23-3.19v-2.25a4.4,4.4,0,0,1,1.19-3.19,4.08,4.08,0,0,1,3.07-1.23,4.23,4.23,0,0,1,2.93.95,3.09,3.09,0,0,1,1,2.48l0,0h-1.71a2,2,0,0,0-.57-1.47,2.49,2.49,0,0,0-3.43.28,3.25,3.25,0,0,0-.69,2.13v2.27a3.2,3.2,0,0,0,.71,2.15,2.33,2.33,0,0,0,1.86.84,3.88,3.88,0,0,0,1.37-.2,2,2,0,0,0,.76-.48V430.2h-2.26v-1.35h4.06Z"/><path class="cls-57" d="M219.39,434.39h-1.8V423.6h1.8Z"/><path class="cls-57" d="M230.19,425h-3.33v9.35h-1.8V425h-3.28V423.6h8.42Z"/><path class="cls-57" d="M237.44,431.87h-3.82l-.83,2.52h-1.86l3.76-10.79h1.71l3.72,10.79h-1.86Zm-3.33-1.5h2.84l-1.39-4.25h0Z"/><path class="cls-57" d="M244.32,433h5.05v1.44h-6.86V423.6h1.8Z"/><path class="cls-57" d="M262.49,431.62a1.42,1.42,0,0,0-.48-1.1,4.41,4.41,0,0,0-1.69-.77,7.22,7.22,0,0,1-2.69-1.26,2.52,2.52,0,0,1-.94-2,2.65,2.65,0,0,1,1-2.15,4.09,4.09,0,0,1,2.67-.85,4,4,0,0,1,2.8.94,2.87,2.87,0,0,1,1,2.32v0h-1.73a1.72,1.72,0,0,0-.57-1.36,2.19,2.19,0,0,0-1.51-.5,2.07,2.07,0,0,0-1.4.43,1.41,1.41,0,0,0-.49,1.11,1.23,1.23,0,0,0,.54,1,5.87,5.87,0,0,0,1.79.77,6.28,6.28,0,0,1,2.59,1.29,2.72,2.72,0,0,1,.89,2.09,2.55,2.55,0,0,1-1.05,2.14,4.45,4.45,0,0,1-2.76.8,4.8,4.8,0,0,1-2.87-.87,2.77,2.77,0,0,1-1.19-2.47v0h1.73a1.7,1.7,0,0,0,.67,1.46,2.68,2.68,0,0,0,1.63.49,2.4,2.4,0,0,0,1.49-.4A1.3,1.3,0,0,0,262.49,431.62Z"/><path class="cls-57" d="M273.22,429.53H269V433h5v1.44H267.2V423.6h6.73V425H269v3h4.22Z"/><path class="cls-57" d="M278.46,429.91v4.48h-1.8V423.6h3.71a4.26,4.26,0,0,1,2.79.82,2.85,2.85,0,0,1,1,2.33,2.41,2.41,0,0,1-.43,1.44,3,3,0,0,1-1.26,1,2.28,2.28,0,0,1,1.32.94,3,3,0,0,1,.4,1.62v.9a3.63,3.63,0,0,0,.12.93,1.32,1.32,0,0,0,.39.69v.17h-1.85a1.19,1.19,0,0,1-.38-.76,6.76,6.76,0,0,1-.08-1v-.87a1.8,1.8,0,0,0-.48-1.32,1.73,1.73,0,0,0-1.3-.49Zm0-1.45h1.82a2.44,2.44,0,0,0,1.58-.42,1.56,1.56,0,0,0,.5-1.27,1.68,1.68,0,0,0-.49-1.28,2.1,2.1,0,0,0-1.49-.46h-1.91Z"/><path class="cls-57" d="M290.71,431.46l.19.79h0l.18-.77,2.58-7.88h1.92l-3.85,10.79h-1.71l-3.85-10.79h1.92Z"/><path class="cls-57" d="M299.89,434.39h-1.8V423.6h1.8Z"/><path class="cls-57" d="M311.25,430.86v0a3.33,3.33,0,0,1-1.06,2.63,4.17,4.17,0,0,1-2.94,1,4,4,0,0,1-3.05-1.27A4.61,4.61,0,0,1,303,430V428a4.66,4.66,0,0,1,1.16-3.25,3.88,3.88,0,0,1,3-1.28,4.36,4.36,0,0,1,3,1,3.3,3.3,0,0,1,1.06,2.66v0h-1.74a2.22,2.22,0,0,0-.58-1.66,2.36,2.36,0,0,0-1.72-.57,2,2,0,0,0-1.74.87,3.61,3.61,0,0,0-.64,2.2V430a3.58,3.58,0,0,0,.65,2.21,2.1,2.1,0,0,0,1.78.87,2,2,0,0,0,2.25-2.25Z"/><path class="cls-57" d="M320.09,429.53h-4.22V433h5v1.44h-6.78V423.6h6.73V425h-4.93v3h4.22Z"/><rect class="cls-57" x="43.44" y="422.54" width="16.05" height="27.52"/><path class="cls-57" d="M59.5,451.21H43.44a1.15,1.15,0,0,1-1.15-1.15V422.54a1.15,1.15,0,0,1,1.15-1.15H59.5a1.15,1.15,0,0,1,1.15,1.15v27.52A1.15,1.15,0,0,1,59.5,451.21Zm-14.91-2.29H58.35V423.69H44.59Z"/><path class="cls-67" d="M59.5,445.47a11.88,11.88,0,0,0,6.88,2.29H87.59a4,4,0,0,0,2.75-6.93A4,4,0,0,0,92.63,434,4,4,0,0,0,94,426.44,4.59,4.59,0,0,0,91.6,418H75.55a36.6,36.6,0,0,0,2.29-10.32c0-4.3-3.73-8-5.73-8a6,6,0,0,0-3.44,1.15v8l-6.88,14.91-2.29,1.15Z"/><path class="cls-57" d="M87.59,448.91H66.37a12.87,12.87,0,0,1-7.69-2.63,1.15,1.15,0,0,1-.33-.81V424.84a1.15,1.15,0,0,1,.63-1l1.93-1,6.61-14.31v-7.78a1.15,1.15,0,0,1,.43-.9,7.2,7.2,0,0,1,4.16-1.4c2.65,0,6.88,4.2,6.88,9.17a33,33,0,0,1-1.83,9.17H91.6a5.73,5.73,0,0,1,5.73,5.73,5.66,5.66,0,0,1-1.49,3.84,5.13,5.13,0,0,1-1.34,8.2,5.08,5.08,0,0,1,.54,2.29,5.14,5.14,0,0,1-2.83,4.59,5.08,5.08,0,0,1,.54,2.29A5.17,5.17,0,0,1,87.59,448.91Zm-26.95-4a11.81,11.81,0,0,0,5.73,1.67H87.59a2.87,2.87,0,0,0,2.87-2.87,2.83,2.83,0,0,0-.91-2.08,1.15,1.15,0,0,1,.66-2,2.84,2.84,0,0,0,1.64-4.91,1.15,1.15,0,0,1,.66-2,2.84,2.84,0,0,0,1-5.37,1.15,1.15,0,0,1-.08-2,3.44,3.44,0,0,0-1.79-6.36H75.55a1.15,1.15,0,0,1-1.07-1.55,35.65,35.65,0,0,0,2.22-9.91c0-3.76-3.33-6.88-4.59-6.88a4.83,4.83,0,0,0-2.29.62v7.4a1.16,1.16,0,0,1-.11.48l-6.88,14.91a1.15,1.15,0,0,1-.53.54l-1.66.83Z"/><path class="cls-57" d="M82.25,545.69c0,12.38-15.16,29.29-18.55,32.91a.91.91,0,0,1-1.33,0c-3.38-3.65-18.55-20.74-18.55-32.91a19.22,19.22,0,0,1,38.43,0ZM63,531.74a14,14,0,1,0,14,14A14,14,0,0,0,63,531.74Z"/></g></g></svg>