<svg xmlns="http://www.w3.org/2000/svg" xmlns:xlink="http://www.w3.org/1999/xlink" viewBox="0 0 400 240"><defs><style>.cls-1{mask:url(#mask);filter:url(#luminosity-noclip-2);}.cls-2{mix-blend-mode:multiply;fill:url(#linear-gradient);}.cls-3{fill:#859da8;}.cls-4{isolation:isolate;}.cls-5{mask:url(#mask-2);}.cls-6{fill:url(#linear-gradient-2);}.cls-7{fill:#f8bb66;}.cls-8{fill:#f89829;}.cls-9{fill:#f8f8f8;mix-blend-mode:soft-light;}.cls-10{fill:url(#linear-gradient-3);}.cls-11{fill:#dbd8e3;}.cls-12{fill:#323657;}.cls-13{fill:#eea987;}.cls-14{fill:#e8734d;}.cls-15{fill:#c4c1cc;}.cls-16{fill:#eea886;}.cls-17{fill:#16202e;}.cls-18{fill:#a77860;}.cls-19{fill:#efaa88;}.cls-20{fill:url(#linear-gradient-4);}.cls-21{fill:url(#linear-gradient-5);}.cls-22{fill:#4682db;}.cls-23{clip-path:url(#clip-path);}.cls-24{fill:url(#linear-gradient-6);}.cls-25{fill:#5c5c5c;}.cls-26{fill:#fff;}.cls-27{fill:url(#linear-gradient-7);}.cls-28{fill:url(#linear-gradient-8);}.cls-29{fill:#e2d2ca;}.cls-30{fill:url(#linear-gradient-9);}.cls-31{fill:url(#linear-gradient-10);}.cls-32{fill:url(#linear-gradient-11);}.cls-33{fill:url(#linear-gradient-12);}.cls-34{fill:url(#linear-gradient-13);}.cls-35{fill:url(#linear-gradient-14);}.cls-36{fill:url(#linear-gradient-15);}.cls-37{fill:url(#linear-gradient-16);}.cls-38{fill:url(#linear-gradient-17);}.cls-39{fill:url(#linear-gradient-18);}.cls-40{fill:url(#linear-gradient-19);}.cls-41{fill:url(#linear-gradient-20);}.cls-42{fill:url(#linear-gradient-21);}.cls-43{fill:url(#linear-gradient-22);}.cls-44{fill:url(#linear-gradient-23);}.cls-45{fill:url(#linear-gradient-24);}.cls-46{fill:url(#linear-gradient-25);}.cls-47{fill:url(#linear-gradient-26);}.cls-48{fill:url(#linear-gradient-27);}.cls-49{fill:url(#linear-gradient-28);}.cls-50{fill:url(#linear-gradient-29);}.cls-51{fill:url(#linear-gradient-30);}.cls-52{filter:url(#luminosity-noclip);}</style><filter id="luminosity-noclip" x="87.37" y="-8307" width="203.29" height="32766" filterUnits="userSpaceOnUse" color-interpolation-filters="sRGB"><feFlood flood-color="#fff" result="bg"/><feBlend in="SourceGraphic" in2="bg"/></filter><mask id="mask" x="87.37" y="-8307" width="203.29" height="32766" maskUnits="userSpaceOnUse"><g class="cls-52"/></mask><linearGradient id="linear-gradient" x1="188.81" y1="87.79" x2="210.44" y2="193.13" gradientUnits="userSpaceOnUse"><stop offset="0" stop-color="#fff"/><stop offset="1"/></linearGradient><filter id="luminosity-noclip-2" x="87.37" y="44.11" width="203.29" height="171.58" filterUnits="userSpaceOnUse" color-interpolation-filters="sRGB"><feFlood flood-color="#fff" result="bg"/><feBlend in="SourceGraphic" in2="bg"/></filter><mask id="mask-2" x="87.37" y="44.11" width="203.29" height="171.58" maskUnits="userSpaceOnUse"><g class="cls-1"><polygon class="cls-2" points="196.87 44.11 196.38 44.81 289.56 110.62 240.26 214.36 97.28 105.45 161.89 96.77 162.3 97.03 162.78 96.32 162.46 96.11 162.42 95.83 162.1 95.87 87.84 46.09 87.37 46.81 160.81 96.04 95.1 104.88 240.59 215.68 290.5 110.67 290.65 110.34 196.87 44.11"/></g></mask><linearGradient id="linear-gradient-2" x1="188.81" y1="87.79" x2="210.44" y2="193.13" gradientUnits="userSpaceOnUse"><stop offset="0" stop-color="#f8bb66"/><stop offset="1" stop-color="#f8bb66"/></linearGradient><linearGradient id="linear-gradient-3" x1="268.28" y1="170.59" x2="204.36" y2="273.85" gradientTransform="translate(8.61 -9.49) rotate(2.28)" gradientUnits="userSpaceOnUse"><stop offset="0" stop-color="#d9ffff"/><stop offset="1" stop-color="#57f"/></linearGradient><linearGradient id="linear-gradient-4" x1="282.73" y1="231.05" x2="297.53" y2="53.11" gradientUnits="userSpaceOnUse"><stop offset="0" stop-color="#ff7575"/><stop offset="1" stop-color="#ffd455"/></linearGradient><linearGradient id="linear-gradient-5" x1="287.27" y1="231.43" x2="302.07" y2="53.48" xlink:href="#linear-gradient-4"/><clipPath id="clip-path"><rect class="cls-3" x="64.96" y="228.92" width="265.19" height="3.89"/></clipPath><linearGradient id="linear-gradient-6" x1="-129.95" y1="5369.47" x2="-110.51" y2="5314.47" gradientTransform="translate(-5253.27 16.41) rotate(-90)" xlink:href="#linear-gradient-4"/><linearGradient id="linear-gradient-7" x1="-113.63" y1="5423.8" x2="-113.63" y2="5344.94" gradientTransform="translate(-5253.27 16.41) rotate(-90)" xlink:href="#linear-gradient-4"/><linearGradient id="linear-gradient-8" x1="-113.63" y1="5431.7" x2="-113.63" y2="5352.85" gradientTransform="translate(-5253.27 16.41) rotate(-90)" xlink:href="#linear-gradient-4"/><linearGradient id="linear-gradient-9" x1="-186.1" y1="5358.34" x2="-166.65" y2="5303.34" gradientTransform="translate(-5253.27 16.41) rotate(-90)" xlink:href="#linear-gradient-4"/><linearGradient id="linear-gradient-10" x1="-169.77" y1="5412.67" x2="-169.77" y2="5333.82" gradientTransform="translate(-5253.27 16.41) rotate(-90)" xlink:href="#linear-gradient-4"/><linearGradient id="linear-gradient-11" x1="-169.77" y1="5420.58" x2="-169.77" y2="5341.72" gradientTransform="translate(-5253.27 16.41) rotate(-90)" xlink:href="#linear-gradient-4"/><linearGradient id="linear-gradient-12" x1="-186.1" y1="5381.79" x2="-166.65" y2="5326.8" gradientTransform="translate(-5253.27 16.41) rotate(-90)" xlink:href="#linear-gradient-4"/><linearGradient id="linear-gradient-13" x1="-169.77" y1="5436.13" x2="-169.77" y2="5357.27" gradientTransform="translate(-5253.27 16.41) rotate(-90)" xlink:href="#linear-gradient-4"/><linearGradient id="linear-gradient-14" x1="-169.77" y1="5444.03" x2="-169.77" y2="5365.17" gradientTransform="translate(-5253.27 16.41) rotate(-90)" xlink:href="#linear-gradient-4"/><linearGradient id="linear-gradient-15" x1="-129.92" y1="5392.93" x2="-110.47" y2="5337.93" gradientTransform="translate(-5253.27 16.41) rotate(-90)" xlink:href="#linear-gradient-4"/><linearGradient id="linear-gradient-16" x1="-113.59" y1="5447.26" x2="-113.59" y2="5368.4" gradientTransform="translate(-5253.27 16.41) rotate(-90)" xlink:href="#linear-gradient-4"/><linearGradient id="linear-gradient-17" x1="-113.59" y1="5455.16" x2="-113.59" y2="5376.31" gradientTransform="translate(-5253.27 16.41) rotate(-90)" xlink:href="#linear-gradient-4"/><linearGradient id="linear-gradient-18" x1="-186.1" y1="5405.19" x2="-166.65" y2="5350.2" gradientTransform="translate(-5253.27 16.41) rotate(-90)" xlink:href="#linear-gradient-4"/><linearGradient id="linear-gradient-19" x1="-169.77" y1="5459.53" x2="-169.77" y2="5380.67" gradientTransform="translate(-5253.27 16.41) rotate(-90)" xlink:href="#linear-gradient-4"/><linearGradient id="linear-gradient-20" x1="-169.77" y1="5467.43" x2="-169.77" y2="5388.57" gradientTransform="translate(-5253.27 16.41) rotate(-90)" xlink:href="#linear-gradient-4"/><linearGradient id="linear-gradient-21" x1="196.54" y1="230.79" x2="246.66" y2="230.79" gradientUnits="userSpaceOnUse"><stop offset="0" stop-color="#ff9340"/><stop offset="1" stop-color="#ffce45"/></linearGradient><linearGradient id="linear-gradient-22" x1="198.37" y1="224.71" x2="248.49" y2="224.71" gradientUnits="userSpaceOnUse"><stop offset="0" stop-color="#f58631"/><stop offset="1" stop-color="#f2c23f"/></linearGradient><linearGradient id="linear-gradient-23" x1="197.34" y1="218.62" x2="247.47" y2="218.62" xlink:href="#linear-gradient-21"/><linearGradient id="linear-gradient-24" x1="198.37" y1="212.53" x2="248.49" y2="212.53" xlink:href="#linear-gradient-22"/><linearGradient id="linear-gradient-25" x1="199.22" y1="206.45" x2="249.35" y2="206.45" xlink:href="#linear-gradient-21"/><linearGradient id="linear-gradient-26" x1="200.51" y1="236.62" x2="250.63" y2="236.62" xlink:href="#linear-gradient-22"/><linearGradient id="linear-gradient-27" x1="254.59" y1="236.47" x2="304.72" y2="236.47" xlink:href="#linear-gradient-22"/><linearGradient id="linear-gradient-28" x1="253.48" y1="230.39" x2="303.6" y2="230.39" xlink:href="#linear-gradient-21"/><linearGradient id="linear-gradient-29" x1="255.53" y1="224.3" x2="305.65" y2="224.3" xlink:href="#linear-gradient-22"/><linearGradient id="linear-gradient-30" x1="1023.95" y1="-1295.56" x2="1074.29" y2="-1295.56" gradientTransform="translate(-998.61 1281.95) rotate(11.36)" xlink:href="#linear-gradient-21"/></defs><title>home-loan-for-self-employed</title><g class="cls-4"><g id="Layer_1" data-name="Layer 1"><g class="cls-5"><polygon class="cls-6" points="196.87 44.11 196.38 44.81 289.56 110.62 240.26 214.36 97.28 105.45 161.89 96.77 162.3 97.03 162.78 96.32 162.46 96.11 162.42 95.83 162.1 95.87 87.84 46.09 87.37 46.81 160.81 96.04 95.1 104.88 240.59 215.68 290.5 110.67 290.65 110.34 196.87 44.11"/></g><path class="cls-7" d="M90.46,135.57a29.9,29.9,0,0,1-1.17-59.78v.32a29.59,29.59,0,0,0,2.35,59.12v.32Z"/><path class="cls-8" d="M188,65.28A32.49,32.49,0,0,1,186.71.33V.65A32.17,32.17,0,0,0,188,65l1.3,0a32.17,32.17,0,0,0,30.87-33.42h.32a32.49,32.49,0,0,1-31.17,33.75Z"/><circle class="cls-7" cx="288.63" cy="95.09" r="34.71" transform="translate(-12.09 51.31) rotate(-9.95)"/><path class="cls-7" d="M296.65,128.86l-12-68.26a34.71,34.71,0,0,1,12,68.26Z"/><path class="cls-7" d="M254.44,101.09a34.73,34.73,0,0,1,20-37.7l11.64,66.33A34.73,34.73,0,0,1,254.44,101.09Z"/><circle class="cls-8" cx="288.63" cy="95.09" r="26.38" transform="translate(186.06 381.14) rotate(-88.51)"/><path class="cls-9" d="M302.09,127.09a34.72,34.72,0,0,0-11.7-66.68Z"/><path class="cls-9" d="M286.1,129.72,274.46,63.39a34.78,34.78,0,0,1,8.16-2.49q1-.18,2-.3l12,68.26q-1,.24-2,.42A34.78,34.78,0,0,1,286.1,129.72Z"/><circle class="cls-7" cx="188" cy="32.81" r="17.93" transform="matrix(0.98, -0.17, 0.17, 0.98, -2.84, 32.98)"/><path class="cls-7" d="M192.15,50.25,186,15a17.93,17.93,0,0,1,6.19,35.25Z"/><path class="cls-7" d="M170.35,35.91a17.93,17.93,0,0,1,10.34-19.47l6,34.26A17.93,17.93,0,0,1,170.35,35.91Z"/><circle class="cls-8" cx="188" cy="32.81" r="13.63" transform="translate(150.31 219.89) rotate(-88.51)"/><path class="cls-9" d="M195,49.34a17.93,17.93,0,0,0-6-34.43Z"/><path class="cls-9" d="M186.7,50.69l-6-34.26a18,18,0,0,1,4.22-1.29q.53-.09,1.06-.15l6.19,35.25q-.52.12-1,.22A18,18,0,0,1,186.7,50.69Z"/><circle class="cls-7" cx="87.31" cy="46.51" r="13.35" transform="translate(-6.72 15.79) rotate(-9.95)"/><path class="cls-7" d="M90.39,59.5l-4.6-26.24a13.35,13.35,0,0,1,4.6,26.24Z"/><path class="cls-7" d="M74.16,48.82a13.35,13.35,0,0,1,7.7-14.49l4.47,25.5A13.35,13.35,0,0,1,74.16,48.82Z"/><circle class="cls-8" cx="87.31" cy="46.51" r="10.14" transform="translate(38.54 132.58) rotate(-88.51)"/><path class="cls-9" d="M92.48,58.81A13.35,13.35,0,0,0,88,33.18Z"/><path class="cls-9" d="M86.34,59.82l-4.47-25.5a13.38,13.38,0,0,1,3.14-1l.79-.11,4.6,26.24-.78.16A13.37,13.37,0,0,1,86.34,59.82Z"/><circle class="cls-7" cx="90.48" cy="105.67" r="20.13" transform="matrix(0.98, -0.17, 0.17, 0.98, -16.9, 17.23)"/><path class="cls-7" d="M95.14,125.26,88.19,85.66a20.13,20.13,0,0,1,6.95,39.59Z"/><path class="cls-7" d="M70.65,109.15A20.14,20.14,0,0,1,82.27,87.28L89,125.75A20.14,20.14,0,0,1,70.65,109.15Z"/><circle class="cls-8" cx="90.48" cy="105.67" r="15.3" transform="translate(-17.51 193.37) rotate(-88.51)"/><path class="cls-9" d="M98.29,124.23a20.14,20.14,0,0,0-6.79-38.67Z"/><path class="cls-9" d="M89,125.75,82.27,87.28A20.17,20.17,0,0,1,87,85.84q.6-.1,1.19-.17l6.95,39.59q-.58.14-1.18.24A20.17,20.17,0,0,1,89,125.75Z"/><circle class="cls-10" cx="242.88" cy="211.63" r="15.87" transform="translate(-8.22 9.83) rotate(-2.28)"/><path class="cls-11" d="M237.31,152.73q.93-12.5,1.29-23.39c-2-1.07-4.43-2.31-6.36-3.23-6-2.85-14.33-6.69-19.68-9.14-3.13-1.44-6.2-2.49-6.2-2.49s-21.39-2-23.12-1.94a53.75,53.75,0,0,0-6.73,2.3c-7.58,2.88-22.21,8.74-24.53,10.41-3.41,2.44-15.63,62.33-16,66.39s16.61,9.35,32.29,13.5c0,6.07-.13,14.58-.27,22.34,0,1.33,0,2.63-.07,3.89h68.61c-.09-1.33-.17-2.65-.24-3.89,0-.17,0-.33,0-.49-.26-5.26-1.28-14.68-1-23.85,0,0-.17-9.67.79-13.83C236.2,170.92,237.31,152.73,237.31,152.73Zm-87,35.21c.11-7.8,10.49-22.3,10.49-22.3a4,4,0,0,1,.49-.18l.54-.07s1.61-1.53,1.62-1.53c.38,1.39,3.82,21,4.66,32.37C158.37,194.31,150.26,191.65,150.31,187.93Z"/><path class="cls-12" d="M238.58,227.47c-.45-3.25-.88-6.49-1.26-9.67,0,0,0,0,0,0-.12-1.06-.25-2.1-.37-3.14,0,0,0-.11,0-.17-.5-4.38-.92-8.58-1.22-12.42a39.27,39.27,0,0,1,.38-8.64c1.19-19.66,1.78-40.39,1.78-40.39.63-8.48,1-16.41,1.23-23.8,0,0-26.85-12.69-29.29-13.42,0,0,5.09,12,8.91,38.7,1.47,10.27,4.19,27.55,6.16,45.19h0c1.07,9.52,3.07,19.22,4.6,27.8q.35,2,.66,3.89h9Q238.85,229.42,238.58,227.47Z"/><path class="cls-12" d="M193.87,195.89c1.06-9.94,2-19.86,1.55-25.3-3.7-43.7-14.18-55.27-15.7-57-1.17.45-5.65,2.13-7,2.65-7.17,2.83-21.78,8-23.75,9.42-3.41,2.44-16.88,65.22-17.28,69.28-.27,2.74,17.3,8.48,35.22,13.6-.17,4.91.3,11.84-1.33,19.08a16.74,16.74,0,0,0-.77,3.79l25-.1q.23-1.94.47-3.89c.48-3.91,1-7.91,1.47-12.16,7.49,1.94,12.59,3.19,12.59,3.19s7-11.9,9.08-16.72C213.78,201,204.72,198.79,193.87,195.89Zm-32.31-15c-.24-8.95-.19-15.19-.19-15.19.89,3.07,2.11,11.82,3.19,20.53C160.93,184.37,161.61,182.66,161.56,180.85Z"/><path class="cls-13" d="M182.12,113.22s2.72-5.14,2-19.73c-.21-4,21.24,9.59,21.24,9.59s-.07,1.39-.12,3.27c0,.78,0,1.64,0,2.52,0,.24,0,.49,0,.73,0,.4,0,.79,0,1.19s0,1,.05,1.43.06,1,.11,1.48a13.48,13.48,0,0,0,.79,2.86C207.12,118.83,190.15,119,182.12,113.22Z"/><path class="cls-14" d="M200.1,122.5l4,5.31s-2.32,3.1-6.43.81Z"/><path class="cls-14" d="M203,128s14.48,35.36,11.39,80.28l-4.57,8.29-5.15-7.06s-.83-59.66-4.94-81.65Z"/><path class="cls-13" d="M204.33,117.55l-4.23,5s-6.79-1.32-8.78-4.86S204.33,117.55,204.33,117.55Z"/><path class="cls-15" d="M205.3,113.22s-.49,3.77-5.2,9.28l5.14,6.91L208,115.08Z"/><path class="cls-15" d="M183.41,108.68s9.82,11.11,16.69,13.82l-3.19,7.9-15.67-17.29Z"/><path class="cls-12" d="M284.36,209.16s-13-12.64-21.58-14.74c-4-1-9.16-6.43-14.1-12.84-1.63-2.11-3.23-4.33-4.75-6.52h0c-6.07-8.76-10.82-17.16-10.82-17.16s-17.94-21-3.54-30.39c0,0,6.17-.13,9.55,1.7s10.9,17.38,12.16,20.12,14.89,28.21,15.8,28.79a37.75,37.75,0,0,0,7.89,5.6c6.68,3.6,17.17,14.12,17.17,14.12Z"/><path class="cls-16" d="M201.05,55.83S224.6,50.16,219.64,80s-10.61,32.23-25,26.29-13.35-25-14.2-34.34S193.52,56.27,201.05,55.83Z"/><path class="cls-16" d="M188.68,76.48c-.35-2.62-5.55-3.5-5.91.44s2.52,10.8,4.47,10.09S189.16,80.09,188.68,76.48Z"/><path class="cls-17" d="M181.86,87.15s.47-9.38,3.89-9.72,4,3.42,4,3.42l3.46.6s-1.21-8.19,2.18-9.68,22.2,4.19,24.91,1.74,1.17-19.09-3.82-21.29-18.77-7.11-28.7-.17c0,0-7.84-.78-8.9,5.55S179.67,82.49,181.86,87.15Z"/><path class="cls-18" d="M205.24,112.22h0a22.52,22.52,0,0,1-17.52-11,26.11,26.11,0,0,0,17.46,7.66c0,.24,0,.49,0,.73,0,.4,0,.79,0,1.19S205.21,111.76,205.24,112.22Z"/><path class="cls-19" d="M221.8,223.79a8.29,8.29,0,0,1-2.6-.49s-1.36-.87-2.37-1.44a7.82,7.82,0,0,0-.79-.4,15.18,15.18,0,0,1-4.38-2.09c-1.71-1.31-7.3-6.53-7.3-6.53l3.61-5.55,1.67-5.5s13,1.3,14.76,2.33a5.14,5.14,0,0,1,.48.32c1.39,1,2,2.36,2.66,3,.24.23,2.51,2.66,2.39,3.64a3.25,3.25,0,0,1-1.7,2.66s-.46,2.66-1.84,3.85a4.82,4.82,0,0,1-2.48,3.46S223.27,223.5,221.8,223.79Z"/><path class="cls-12" d="M214.07,201.79l-9.72,16.71s-25.76-6.64-31.76-8.33l13.74-16.35S206.58,198.45,214.07,201.79Z"/><polygon class="cls-20" points="243.78 165.2 236.91 229.05 327.32 229.05 334.19 165.2 243.78 165.2"/><path class="cls-21" d="M332.48,226.11H241.37l6.94-64.56h91.11Zm-90.33-.71h89.69l6.79-63.15H248.94Z"/><rect class="cls-22" x="229.72" y="223.31" width="15.1" height="5.75" transform="translate(474.54 452.36) rotate(180)"/><rect class="cls-3" x="64.96" y="228.92" width="265.19" height="3.89"/><g class="cls-23"><rect class="cls-3" x="64.96" y="228.92" width="4.08" height="3.89"/><rect class="cls-3" x="69.04" y="228.92" width="4.08" height="3.89"/><rect class="cls-3" x="73.12" y="228.92" width="4.08" height="3.89"/><rect class="cls-3" x="77.2" y="228.92" width="4.08" height="3.89"/><rect class="cls-3" x="81.28" y="228.92" width="4.08" height="3.89"/><rect class="cls-3" x="85.36" y="228.92" width="4.08" height="3.89"/><rect class="cls-3" x="89.44" y="228.92" width="4.08" height="3.89"/><rect class="cls-3" x="93.52" y="228.92" width="4.08" height="3.89"/><rect class="cls-3" x="97.6" y="228.92" width="4.08" height="3.89"/><rect class="cls-3" x="101.68" y="228.92" width="4.08" height="3.89"/><rect class="cls-3" x="105.76" y="228.92" width="4.08" height="3.89"/><rect class="cls-3" x="109.84" y="228.92" width="4.08" height="3.89"/><rect class="cls-3" x="113.92" y="228.92" width="4.08" height="3.89"/><rect class="cls-3" x="118" y="228.92" width="4.08" height="3.89"/><rect class="cls-3" x="122.08" y="228.92" width="4.08" height="3.89"/><rect class="cls-3" x="126.16" y="228.92" width="4.08" height="3.89"/><rect class="cls-3" x="130.24" y="228.92" width="4.08" height="3.89"/><rect class="cls-3" x="134.32" y="228.92" width="4.08" height="3.89"/><rect class="cls-3" x="138.4" y="228.92" width="4.08" height="3.89"/><rect class="cls-3" x="142.48" y="228.92" width="4.08" height="3.89"/><rect class="cls-3" x="146.56" y="228.92" width="4.08" height="3.89"/><rect class="cls-3" x="150.64" y="228.92" width="4.08" height="3.89"/><rect class="cls-3" x="154.72" y="228.92" width="4.08" height="3.89"/><rect class="cls-3" x="158.8" y="228.92" width="4.08" height="3.89"/><rect class="cls-3" x="162.88" y="228.92" width="4.08" height="3.89"/><rect class="cls-3" x="166.96" y="228.92" width="4.08" height="3.89"/><rect class="cls-3" x="171.04" y="228.92" width="4.08" height="3.89"/><rect class="cls-3" x="175.12" y="228.92" width="4.08" height="3.89"/><rect class="cls-3" x="179.2" y="228.92" width="4.08" height="3.89"/><rect class="cls-3" x="183.28" y="228.92" width="4.08" height="3.89"/><rect class="cls-3" x="187.36" y="228.92" width="4.08" height="3.89"/><rect class="cls-3" x="191.44" y="228.92" width="4.08" height="3.89"/><rect class="cls-3" x="195.52" y="228.92" width="4.08" height="3.89"/><rect class="cls-3" x="199.6" y="228.92" width="4.08" height="3.89"/><rect class="cls-3" x="203.68" y="228.92" width="4.08" height="3.89"/><rect class="cls-3" x="207.76" y="228.92" width="4.08" height="3.89"/><rect class="cls-3" x="211.84" y="228.92" width="4.08" height="3.89"/><rect class="cls-3" x="215.92" y="228.92" width="4.08" height="3.89"/><rect class="cls-3" x="220" y="228.92" width="4.08" height="3.89"/><rect class="cls-3" x="224.08" y="228.92" width="4.08" height="3.89"/><rect class="cls-3" x="228.16" y="228.92" width="4.08" height="3.89"/><rect class="cls-3" x="232.24" y="228.92" width="4.08" height="3.89"/><rect class="cls-3" x="236.32" y="228.92" width="4.08" height="3.89"/><rect class="cls-3" x="240.4" y="228.92" width="4.08" height="3.89"/><rect class="cls-3" x="244.48" y="228.92" width="4.08" height="3.89"/><rect class="cls-3" x="248.56" y="228.92" width="4.08" height="3.89"/><rect class="cls-3" x="252.64" y="228.92" width="4.08" height="3.89"/><rect class="cls-3" x="256.72" y="228.92" width="4.08" height="3.89"/><rect class="cls-3" x="260.8" y="228.92" width="4.08" height="3.89"/><rect class="cls-3" x="264.88" y="228.92" width="4.08" height="3.89"/><rect class="cls-3" x="268.96" y="228.92" width="4.08" height="3.89"/><rect class="cls-3" x="273.04" y="228.92" width="4.08" height="3.89"/><rect class="cls-3" x="277.12" y="228.92" width="4.08" height="3.89"/><rect class="cls-3" x="281.2" y="228.92" width="4.08" height="3.89"/><rect class="cls-3" x="285.28" y="228.92" width="4.08" height="3.89"/><rect class="cls-3" x="289.36" y="228.92" width="4.08" height="3.89"/><rect class="cls-3" x="293.44" y="228.92" width="4.08" height="3.89"/><rect class="cls-3" x="297.52" y="228.92" width="4.08" height="3.89"/><rect class="cls-3" x="301.59" y="228.92" width="4.08" height="3.89"/><rect class="cls-3" x="305.67" y="228.92" width="4.08" height="3.89"/><rect class="cls-3" x="309.75" y="228.92" width="4.08" height="3.89"/><rect class="cls-3" x="313.83" y="228.92" width="4.08" height="3.89"/><rect class="cls-3" x="317.91" y="228.92" width="4.08" height="3.89"/><rect class="cls-3" x="321.99" y="228.92" width="4.08" height="3.89"/><rect class="cls-3" x="326.07" y="228.92" width="4.08" height="3.89"/></g><path class="cls-24" d="M136.7,119.42,125,170.9a2.56,2.56,0,0,1-2.56,1.88H88.77A2.43,2.43,0,0,1,86.21,170l11.73-51.48a2.56,2.56,0,0,1,2.56-1.88h33.63A2.43,2.43,0,0,1,136.7,119.42Z"/><polygon class="cls-25" points="123.5 116.6 110.49 172.78 118.02 172.78 131.03 116.6 123.5 116.6"/><path class="cls-26" d="M110,155.65l-2.66,11.08a2.85,2.85,0,0,1-2.84,2.06h-4.8a2.7,2.7,0,0,1-2.84-3.16l2.66-11.08a2.85,2.85,0,0,1,2.84-2.06h4.8A2.7,2.7,0,0,1,110,155.65Z"/><polygon class="cls-27" points="111.47 119.98 106.82 140.1 105.05 140.1 109.71 119.98 111.47 119.98"/><polygon class="cls-28" points="108.48 119.98 103.82 140.1 102.06 140.1 106.71 119.98 108.48 119.98"/><path class="cls-29" d="M148.43,170,136.7,118.48a2.56,2.56,0,0,0-2.56-1.88H100.5a2.43,2.43,0,0,0-2.56,2.82l11.73,51.48a2.56,2.56,0,0,0,2.56,1.88h33.63A2.43,2.43,0,0,0,148.43,170Z"/><path class="cls-26" d="M125.57,124l3.19,13.5a3.61,3.61,0,0,0,3.6,2.62h0a3.42,3.42,0,0,0,3.6-4l-3.19-13.5a3.61,3.61,0,0,0-3.6-2.62h0A3.42,3.42,0,0,0,125.57,124Z"/><path class="cls-26" d="M117.64,160.62l1.74,7.1a.92.92,0,0,1-1,1.08h-5.32a1,1,0,0,1-1-.7l-1.74-7.1a.92.92,0,0,1,1-1.08h5.32A1,1,0,0,1,117.64,160.62Z"/><polygon class="cls-26" points="125.88 151.06 131.23 168.8 129.74 168.8 124.39 151.06 125.88 151.06"/><polygon class="cls-26" points="129.14 151.06 134.49 168.8 133 168.8 127.65 151.06 129.14 151.06"/><path class="cls-30" d="M125.57,175.56,113.84,227a2.56,2.56,0,0,1-2.56,1.88H77.65a2.43,2.43,0,0,1-2.56-2.82l11.73-51.48a2.56,2.56,0,0,1,2.56-1.88H123A2.43,2.43,0,0,1,125.57,175.56Z"/><polygon class="cls-25" points="112.37 172.75 99.36 228.92 106.89 228.92 119.91 172.75 112.37 172.75"/><path class="cls-26" d="M98.84,211.79l-2.66,11.08a2.85,2.85,0,0,1-2.84,2.06h-4.8a2.7,2.7,0,0,1-2.84-3.16l2.66-11.08a2.85,2.85,0,0,1,2.84-2.06H96A2.7,2.7,0,0,1,98.84,211.79Z"/><polygon class="cls-31" points="100.34 176.13 95.69 196.24 93.93 196.24 98.58 176.13 100.34 176.13"/><polygon class="cls-32" points="97.35 176.13 92.7 196.24 90.94 196.24 95.59 176.13 97.35 176.13"/><path class="cls-29" d="M137.3,226.11l-11.73-51.48a2.56,2.56,0,0,0-2.56-1.88H89.38a2.43,2.43,0,0,0-2.56,2.82L98.55,227a2.56,2.56,0,0,0,2.56,1.88h33.63A2.43,2.43,0,0,0,137.3,226.11Z"/><path class="cls-26" d="M114.44,180.12l3.19,13.5a3.61,3.61,0,0,0,3.6,2.62h0a3.42,3.42,0,0,0,3.6-4l-3.19-13.5a3.61,3.61,0,0,0-3.6-2.62h0A3.42,3.42,0,0,0,114.44,180.12Z"/><path class="cls-26" d="M106.52,216.76l1.74,7.1a.92.92,0,0,1-1,1.08H102a1,1,0,0,1-1-.7l-1.74-7.1a.92.92,0,0,1,1-1.08h5.32A1,1,0,0,1,106.52,216.76Z"/><polygon class="cls-26" points="114.75 207.2 120.1 224.94 118.61 224.94 113.26 207.2 114.75 207.2"/><polygon class="cls-26" points="118.01 207.2 123.36 224.94 121.87 224.94 116.52 207.2 118.01 207.2"/><path class="cls-33" d="M149,175.56,137.29,227a2.56,2.56,0,0,1-2.56,1.88H101.1a2.43,2.43,0,0,1-2.56-2.82l11.73-51.48a2.56,2.56,0,0,1,2.56-1.88h33.63A2.43,2.43,0,0,1,149,175.56Z"/><polygon class="cls-25" points="135.82 172.75 122.81 228.92 130.34 228.92 143.36 172.75 135.82 172.75"/><path class="cls-26" d="M122.3,211.79l-2.66,11.08a2.85,2.85,0,0,1-2.84,2.06H112a2.7,2.7,0,0,1-2.84-3.16l2.66-11.08a2.85,2.85,0,0,1,2.84-2.06h4.8A2.7,2.7,0,0,1,122.3,211.79Z"/><polygon class="cls-34" points="123.8 176.13 119.14 196.24 117.38 196.24 122.03 176.13 123.8 176.13"/><polygon class="cls-35" points="120.8 176.13 116.15 196.24 114.39 196.24 119.04 176.13 120.8 176.13"/><path class="cls-29" d="M160.75,226.11,149,174.62a2.56,2.56,0,0,0-2.56-1.88H112.83a2.43,2.43,0,0,0-2.56,2.82L122,227a2.56,2.56,0,0,0,2.56,1.88h33.63A2.43,2.43,0,0,0,160.75,226.11Z"/><path class="cls-26" d="M137.9,180.12l3.19,13.5a3.61,3.61,0,0,0,3.6,2.62h0a3.42,3.42,0,0,0,3.6-4l-3.19-13.5a3.61,3.61,0,0,0-3.6-2.62h0A3.42,3.42,0,0,0,137.9,180.12Z"/><path class="cls-26" d="M130,216.76l1.74,7.1a.92.92,0,0,1-1,1.08h-5.32a1,1,0,0,1-1-.7l-1.74-7.1a.92.92,0,0,1,1-1.08H129A1,1,0,0,1,130,216.76Z"/><polygon class="cls-26" points="138.2 207.2 143.56 224.94 142.06 224.94 136.71 207.2 138.2 207.2"/><polygon class="cls-26" points="141.46 207.2 146.82 224.94 145.32 224.94 139.97 207.2 141.46 207.2"/><path class="cls-36" d="M160.16,119.39l-11.73,51.48a2.56,2.56,0,0,1-2.56,1.88H112.23a2.43,2.43,0,0,1-2.56-2.82l11.73-51.48a2.56,2.56,0,0,1,2.56-1.88H157.6A2.43,2.43,0,0,1,160.16,119.39Z"/><polygon class="cls-25" points="146.96 116.57 133.95 172.75 141.48 172.75 154.49 116.57 146.96 116.57"/><path class="cls-26" d="M133.43,155.62l-2.66,11.08a2.85,2.85,0,0,1-2.84,2.06h-4.8a2.7,2.7,0,0,1-2.84-3.16l2.66-11.08a2.85,2.85,0,0,1,2.84-2.06h4.8A2.7,2.7,0,0,1,133.43,155.62Z"/><polygon class="cls-37" points="134.93 119.95 130.28 140.06 128.51 140.06 133.17 119.95 134.93 119.95"/><polygon class="cls-38" points="131.94 119.95 127.28 140.06 125.52 140.06 130.17 119.95 131.94 119.95"/><path class="cls-29" d="M171.89,169.93l-11.73-51.48a2.56,2.56,0,0,0-2.56-1.88H124a2.43,2.43,0,0,0-2.56,2.82l11.73,51.48a2.56,2.56,0,0,0,2.56,1.88h33.63A2.43,2.43,0,0,0,171.89,169.93Z"/><path class="cls-26" d="M149,123.95l3.19,13.5a3.61,3.61,0,0,0,3.6,2.62h0a3.42,3.42,0,0,0,3.6-4l-3.19-13.5a3.61,3.61,0,0,0-3.6-2.62h0A3.42,3.42,0,0,0,149,123.95Z"/><path class="cls-26" d="M141.1,160.58l1.74,7.1a.92.92,0,0,1-1,1.08h-5.32a1,1,0,0,1-1-.7l-1.74-7.1a.92.92,0,0,1,1-1.08h5.32A1,1,0,0,1,141.1,160.58Z"/><polygon class="cls-26" points="149.34 151.03 154.69 168.77 153.2 168.77 147.85 151.03 149.34 151.03"/><polygon class="cls-26" points="152.6 151.03 157.95 168.77 156.46 168.77 151.11 151.03 152.6 151.03"/><path class="cls-39" d="M172.42,175.56,160.69,227a2.56,2.56,0,0,1-2.56,1.88H124.5a2.43,2.43,0,0,1-2.56-2.82l11.73-51.48a2.56,2.56,0,0,1,2.56-1.88h33.63A2.43,2.43,0,0,1,172.42,175.56Z"/><polygon class="cls-25" points="159.22 172.75 146.21 228.92 153.75 228.92 166.76 172.75 159.22 172.75"/><path class="cls-26" d="M145.7,211.79,143,222.87a2.85,2.85,0,0,1-2.84,2.06h-4.8a2.7,2.7,0,0,1-2.84-3.16l2.66-11.08a2.85,2.85,0,0,1,2.84-2.06h4.8A2.7,2.7,0,0,1,145.7,211.79Z"/><polygon class="cls-40" points="147.2 176.13 142.54 196.24 140.78 196.24 145.43 176.13 147.2 176.13"/><polygon class="cls-41" points="144.2 176.13 139.55 196.24 137.79 196.24 142.44 176.13 144.2 176.13"/><path class="cls-29" d="M184.15,226.11l-11.73-51.48a2.56,2.56,0,0,0-2.56-1.88H136.23a2.43,2.43,0,0,0-2.56,2.82L145.4,227a2.56,2.56,0,0,0,2.56,1.88h33.63A2.43,2.43,0,0,0,184.15,226.11Z"/><path class="cls-26" d="M161.3,180.12l3.19,13.5a3.61,3.61,0,0,0,3.6,2.62h0a3.42,3.42,0,0,0,3.6-4l-3.19-13.5a3.61,3.61,0,0,0-3.6-2.62h0A3.42,3.42,0,0,0,161.3,180.12Z"/><path class="cls-26" d="M153.37,216.76l1.74,7.1a.92.92,0,0,1-1,1.08h-5.32a1,1,0,0,1-1-.7l-1.74-7.1a.92.92,0,0,1,1-1.08h5.32A1,1,0,0,1,153.37,216.76Z"/><polygon class="cls-26" points="161.6 207.2 166.96 224.94 165.47 224.94 160.11 207.2 161.6 207.2"/><polygon class="cls-26" points="164.86 207.2 170.22 224.94 168.72 224.94 163.37 207.2 164.86 207.2"/><rect class="cls-42" x="196.54" y="227.75" width="50.12" height="6.09"/><rect class="cls-43" x="198.37" y="221.66" width="50.12" height="6.09"/><rect class="cls-44" x="197.34" y="215.58" width="50.12" height="6.09"/><rect class="cls-45" x="198.37" y="209.49" width="50.12" height="6.09"/><rect class="cls-46" x="199.22" y="203.41" width="50.12" height="6.09"/><rect class="cls-47" x="200.51" y="233.58" width="50.12" height="6.09"/><rect class="cls-48" x="254.59" y="233.43" width="50.12" height="6.09"/><rect class="cls-49" x="253.48" y="227.34" width="50.12" height="6.09"/><rect class="cls-50" x="255.53" y="221.26" width="50.12" height="6.09"/><rect class="cls-51" x="260.11" y="215.43" width="50.12" height="6.09" transform="translate(5.31 -6.76) rotate(1.37)"/></g></g></svg>