<svg xmlns="http://www.w3.org/2000/svg" viewBox="0 0 400 240"><defs><style>.cls-1{isolation:isolate;}.cls-2{fill:#81cc3d;}.cls-3{fill:#ffa830;}.cls-4{fill:#e66b00;}.cls-5{fill:#f8cb20;}.cls-20,.cls-6{fill:none;stroke-miterlimit:10;}.cls-6{stroke:#403f4b;stroke-width:8px;}.cls-7{fill:#ecf1ff;}.cls-8{fill:#d6e0ff;}.cls-9{fill:#ccd6ff;}.cls-10{fill:#ff8500;}.cls-11{fill:#e7edff;}.cls-12{fill:#b9c1fa;}.cls-13{fill:#98a7e4;}.cls-14{fill:#403f4b;}.cls-15{fill:#279c43;}.cls-16{fill:#71b221;}.cls-17{fill:#6a73f2;}.cls-18{fill:#fff;}.cls-19{fill:#555eab;}.cls-20{stroke:#6a73f2;stroke-linecap:round;stroke-width:6px;}.cls-21{fill:#fdbf98;}.cls-22{fill:#b7c5f3;}.cls-23{fill:#e89d70;}.cls-24{fill:#5b1a73;opacity:0.3;mix-blend-mode:multiply;}</style></defs><title>loan-against-property</title><g class="cls-1"><g id="Layer_1" data-name="Layer 1"><path class="cls-2" d="M310.72,239.24c5.74-13.71,16.64-7.58,16.64-7.58s4.49-16.05,22.47-16.05S374.21,231,374.21,231s15-5.8,24.67,8.92h-88.2Z"/><path class="cls-3" d="M371.83,236.7c5.49-3.76,9.25-11.24,9.28-19.87s-3.67-16.14-9.13-19.94v-2.61l-8.07,0c-9.54,0-17.31,10-17.36,22.45s7.65,22.54,17.19,22.58l8.07,0Z"/><path class="cls-4" d="M346.71,219.82l27.87.1v-2.69l-28-.1Q346.58,218.49,346.71,219.82Z"/><path class="cls-4" d="M346.68,214.15l28.77.11v-2.69L347,211.46Q346.8,212.78,346.68,214.15Z"/><path class="cls-4" d="M380.46,222.81l-7.6,1.92-25.23-.09c2.43,8.53,8.72,14.62,16.12,14.65l8.07,0V236.7C376,233.85,379.17,228.84,380.46,222.81Z"/><ellipse class="cls-5" cx="371.9" cy="216.8" rx="22.51" ry="17.28" transform="translate(153.71 587.88) rotate(-89.79)"/><ellipse class="cls-3" cx="373.22" cy="216.8" rx="15.99" ry="12.27" transform="translate(155.03 589.21) rotate(-89.79)"/><path class="cls-4" d="M383.23,216.84c0,8.34-4.95,15.16-11.2,15.88a9.54,9.54,0,0,0,1.13.07c6.78,0,12.3-7.11,12.33-15.95s-5.43-16-12.21-16a9.54,9.54,0,0,0-1.13.07C378.39,201.64,383.26,208.5,383.23,216.84Z"/><path class="cls-3" d="M352.34,214.19c5.49-3.76,9.25-11.24,9.28-19.87s-3.67-16.14-9.13-19.94v-2.61l-8.07,0c-9.54,0-17.31,10-17.36,22.45s7.65,22.54,17.19,22.58l8.07,0Z"/><path class="cls-4" d="M327.22,197.3l27.87.1v-2.69l-28-.1Q327.09,196,327.22,197.3Z"/><path class="cls-4" d="M327.19,191.64l28.77.11v-2.69L327.56,189Q327.32,190.27,327.19,191.64Z"/><path class="cls-4" d="M361,200.29l-7.6,1.92-25.23-.09c2.43,8.53,8.72,14.62,16.12,14.65l8.07,0v-2.61C356.51,211.33,359.68,206.32,361,200.29Z"/><ellipse class="cls-5" cx="352.41" cy="194.28" rx="22.51" ry="17.28" transform="translate(156.81 545.97) rotate(-89.79)"/><ellipse class="cls-3" cx="353.73" cy="194.29" rx="15.99" ry="12.27" transform="translate(158.12 547.29) rotate(-89.79)"/><path class="cls-4" d="M363.74,194.33c0,8.34-4.95,15.16-11.2,15.88a9.56,9.56,0,0,0,1.13.07c6.78,0,12.3-7.11,12.33-15.95s-5.43-16-12.21-16a9.54,9.54,0,0,0-1.13.07C358.91,179.13,363.77,186,363.74,194.33Z"/><path class="cls-3" d="M348.47,236.7c5.49-3.76,9.25-11.24,9.28-19.87s-3.67-16.14-9.13-19.94v-2.61l-8.07,0c-9.54,0-17.31,10-17.36,22.45s7.65,22.54,17.19,22.58l8.07,0Z"/><path class="cls-4" d="M323.36,219.82l27.87.1v-2.69l-28-.1Q323.22,218.49,323.36,219.82Z"/><path class="cls-4" d="M323.33,214.15l28.77.11v-2.69l-28.41-.11Q323.45,212.78,323.33,214.15Z"/><path class="cls-4" d="M357.11,222.81l-7.6,1.92-25.23-.09c2.43,8.53,8.72,14.62,16.12,14.65l8.07,0V236.7C352.65,233.85,355.81,228.84,357.11,222.81Z"/><ellipse class="cls-5" cx="348.55" cy="216.8" rx="22.51" ry="17.28" transform="translate(130.45 564.53) rotate(-89.79)"/><ellipse class="cls-3" cx="349.87" cy="216.8" rx="15.99" ry="12.27" transform="translate(131.76 565.86) rotate(-89.79)"/><path class="cls-4" d="M359.88,216.84c0,8.34-4.95,15.16-11.2,15.88a9.54,9.54,0,0,0,1.13.07c6.78,0,12.3-7.11,12.33-15.95s-5.43-16-12.21-16a9.54,9.54,0,0,0-1.13.07C355,201.64,359.91,208.5,359.88,216.84Z"/><path class="cls-3" d="M122.65,236.7c5.49-3.76,9.25-11.24,9.28-19.87s-3.67-16.14-9.13-19.94v-2.61l-8.07,0c-9.54,0-17.31,10-17.36,22.45s7.65,22.54,17.19,22.58l8.07,0Z"/><path class="cls-4" d="M97.54,219.81l27.87.1v-2.69l-28-.1Q97.4,218.49,97.54,219.81Z"/><path class="cls-4" d="M97.5,214.15l28.77.11v-2.69l-28.41-.11Q97.63,212.78,97.5,214.15Z"/><path class="cls-4" d="M131.29,222.8l-7.6,1.92-25.23-.09c2.43,8.53,8.72,14.62,16.12,14.65l8.07,0V236.7C126.83,233.84,130,228.83,131.29,222.8Z"/><ellipse class="cls-5" cx="122.73" cy="216.79" rx="22.51" ry="17.28" transform="translate(-94.52 338.71) rotate(-89.79)"/><ellipse class="cls-3" cx="124.05" cy="216.8" rx="15.99" ry="12.27" transform="translate(-93.21 340.04) rotate(-89.79)"/><path class="cls-4" d="M134.06,216.84c0,8.34-4.95,15.16-11.2,15.88a9.54,9.54,0,0,0,1.13.07c6.78,0,12.3-7.11,12.33-15.95s-5.43-16-12.21-16a9.56,9.56,0,0,0-1.13.07C129.22,201.64,134.09,208.5,134.06,216.84Z"/><path class="cls-3" d="M154.65,208.48c5.49-3.76,9.25-11.24,9.28-19.87s-3.67-16.14-9.13-19.94v-2.61l-8.07,0c-9.54,0-17.31,10-17.36,22.45S137,211,146.57,211.05l8.07,0Z"/><path class="cls-4" d="M129.53,191.59l27.87.1V189l-28-.1Q129.4,190.27,129.53,191.59Z"/><path class="cls-4" d="M129.5,185.93l28.77.11v-2.69l-28.41-.11Q129.62,184.55,129.5,185.93Z"/><path class="cls-4" d="M163.28,194.58l-7.6,1.92-25.23-.09c2.43,8.53,8.72,14.62,16.12,14.65l8.07,0v-2.61C158.82,205.62,162,200.61,163.28,194.58Z"/><ellipse class="cls-5" cx="154.72" cy="188.57" rx="22.51" ry="17.28" transform="translate(-34.43 342.58) rotate(-89.79)"/><ellipse class="cls-3" cx="156.04" cy="188.57" rx="15.99" ry="12.27" transform="translate(-33.11 343.91) rotate(-89.79)"/><path class="cls-4" d="M166,188.61c0,8.34-4.95,15.16-11.2,15.88a9.56,9.56,0,0,0,1.13.07c6.78,0,12.3-7.11,12.33-15.95s-5.43-16-12.21-16a9.54,9.54,0,0,0-1.13.07C161.21,173.42,166.08,180.28,166,188.61Z"/><rect class="cls-4" x="117.56" y="228.65" width="37.63" height="10.87" rx="3.55" ry="3.55" transform="translate(272.75 468.17) rotate(180)"/><rect class="cls-3" x="126.62" y="228.65" width="37.63" height="10.87" rx="3.55" ry="3.55" transform="translate(290.86 468.17) rotate(180)"/><path class="cls-5" d="M146.84,239.52V228.65h15.28a2.12,2.12,0,0,1,2.12,2.12v6.63a2.12,2.12,0,0,1-2.12,2.12Z"/><rect class="cls-5" x="140.89" y="228.65" width="3.86" height="10.87"/><rect class="cls-5" x="136.81" y="228.65" width="2.04" height="10.87"/><rect class="cls-4" x="120.31" y="217.83" width="37.63" height="10.87" rx="3.55" ry="3.55" transform="translate(278.25 446.54) rotate(180)"/><rect class="cls-3" x="129.36" y="217.83" width="37.63" height="10.87" rx="3.55" ry="3.55" transform="translate(296.35 446.54) rotate(180)"/><path class="cls-5" d="M149.59,228.71V217.83h15.28A2.12,2.12,0,0,1,167,220v6.63a2.12,2.12,0,0,1-2.12,2.12Z"/><rect class="cls-5" x="143.64" y="217.83" width="3.86" height="10.87"/><rect class="cls-5" x="139.56" y="217.83" width="2.04" height="10.87"/><rect class="cls-4" x="116.53" y="207.01" width="37.63" height="10.87" rx="3.55" ry="3.55" transform="translate(270.69 424.9) rotate(180)"/><rect class="cls-3" x="125.59" y="207.01" width="37.63" height="10.87" rx="3.55" ry="3.55" transform="translate(288.8 424.9) rotate(180)"/><path class="cls-5" d="M145.81,217.89V207h15.28a2.12,2.12,0,0,1,2.12,2.12v6.63a2.12,2.12,0,0,1-2.12,2.12Z"/><rect class="cls-5" x="139.86" y="207.01" width="3.86" height="10.87"/><rect class="cls-5" x="135.78" y="207.01" width="2.04" height="10.87"/><rect class="cls-4" x="120.31" y="196.2" width="37.63" height="10.87" rx="3.55" ry="3.55" transform="translate(278.25 403.27) rotate(180)"/><rect class="cls-3" x="129.36" y="196.2" width="37.63" height="10.87" rx="3.55" ry="3.55" transform="translate(296.35 403.27) rotate(180)"/><path class="cls-5" d="M149.59,207.07V196.2h15.28a2.12,2.12,0,0,1,2.12,2.12V205a2.12,2.12,0,0,1-2.12,2.12Z"/><rect class="cls-5" x="143.64" y="196.2" width="3.86" height="10.87"/><rect class="cls-5" x="139.56" y="196.2" width="2.04" height="10.87"/><path class="cls-6" d="M277.09,67.76s5.6,24.11,1.94,43.76"/><rect class="cls-7" x="154.89" y="160.06" width="101.95" height="79.89"/><polygon class="cls-8" points="256.8 169.63 256.84 169.47 256.84 160.06 154.89 160.06 154.89 169.63 256.8 169.63"/><polygon class="cls-8" points="256.8 239.88 337.76 239.88 337.76 159.99 297.27 119.58 256.8 159.99 256.8 239.88"/><polygon class="cls-9" points="297.27 119.58 256.8 159.99 256.8 169.63 297.27 129.22 337.76 169.63 337.76 159.99 297.27 119.58"/><polygon class="cls-8" points="152.75 226.56 152.75 228.16 152.75 239.95 340.16 239.95 340.16 228.14 340.16 226.56 152.75 226.56"/><polygon class="cls-9" points="256.79 226.56 256.79 228.16 256.79 239.95 340.16 239.95 340.16 228.14 340.16 226.56 256.79 226.56"/><path class="cls-4" d="M154.89,160.06l-5.51-5.52H251.27l5.49,5.49S155.16,160.33,154.89,160.06Z"/><path class="cls-10" d="M256.76,160l40.49-40.49L337.73,160l5.62-5.62-46.08-46.08-46.1,46.1Z"/><polygon class="cls-3" points="149.38 154.54 195.63 108.29 297.27 108.29 251.28 154.55 149.38 154.54"/><polygon class="cls-4" points="215.41 108.29 214.39 108.29 168.14 154.54 169.16 154.54 215.41 108.29"/><polygon class="cls-4" points="228.1 108.29 227.08 108.29 180.83 154.54 181.85 154.54 228.1 108.29"/><polygon class="cls-4" points="156.47 154.54 202.72 108.29 201.7 108.29 155.45 154.54 156.47 154.54"/><polygon class="cls-4" points="240.79 108.29 239.77 108.29 193.52 154.54 194.54 154.54 240.79 108.29"/><polygon class="cls-4" points="291.55 108.29 290.53 108.29 244.28 154.55 245.3 154.55 291.55 108.29"/><polygon class="cls-4" points="278.86 108.29 277.84 108.29 231.59 154.55 232.61 154.55 278.86 108.29"/><polygon class="cls-4" points="253.48 108.29 252.46 108.29 206.21 154.54 207.23 154.54 253.48 108.29"/><polygon class="cls-4" points="266.17 108.29 265.15 108.29 218.9 154.55 219.92 154.55 266.17 108.29"/><polygon class="cls-11" points="184.84 133.73 196.95 121.61 264.9 121.61 252.82 133.72 184.84 133.73"/><rect class="cls-12" x="184.84" y="133.71" width="67.98" height="4.82"/><polygon class="cls-13" points="252.82 138.53 264.94 126.42 264.94 121.61 252.82 133.72 252.82 138.53"/><polygon class="cls-14" points="196.9 128.6 199.18 126.32 251.72 126.32 249.46 128.59 196.9 128.6"/><rect class="cls-15" x="191.3" y="72.89" width="70.17" height="41.18" transform="translate(132.66 319.77) rotate(-89.94)"/><polygon class="cls-2" points="203.9 58.38 245.08 58.42 245.01 128.6 203.82 128.61 203.9 58.38"/><polygon class="cls-15" points="208.31 62.8 240.66 62.83 240.59 128.6 238.39 128.59 238.46 65.03 210.51 65 210.45 128.6 208.24 128.6 208.31 62.8"/><path class="cls-15" d="M239.56,63.93l0,8.12a8.12,8.12,0,0,1-8.1-8.24Z"/><path class="cls-15" d="M209.4,63.9l8.12-.07A8.12,8.12,0,0,1,209.31,72Z"/><circle class="cls-15" cx="224.45" cy="101.06" r="10.5" transform="translate(123.15 325.4) rotate(-89.94)"/><rect class="cls-15" x="191.3" y="72.89" width="70.17" height="41.18" transform="translate(132.66 319.77) rotate(-89.94)"/><polygon class="cls-2" points="203.9 58.38 245.08 58.42 245.01 128.6 203.82 128.61 203.9 58.38"/><path class="cls-16" d="M245,121.31c-6.88,2.22-19.2,4.34-41.19,4.65v2.65H245Z"/><polygon class="cls-15" points="208.31 62.8 240.66 62.83 240.59 128.6 238.39 128.59 238.46 65.03 210.51 65 210.45 128.6 208.24 128.6 208.31 62.8"/><path class="cls-15" d="M239.56,63.93l0,8.12a8.12,8.12,0,0,1-8.1-8.24Z"/><path class="cls-15" d="M209.4,63.9l8.12-.07A8.12,8.12,0,0,1,209.31,72Z"/><circle class="cls-15" cx="224.45" cy="101.06" r="10.5" transform="translate(123.15 325.4) rotate(-89.94)"/><rect class="cls-17" x="165.17" y="171.62" width="29.56" height="45.62"/><rect class="cls-18" x="168.06" y="174.52" width="23.77" height="11.83"/><rect class="cls-18" x="168.06" y="189.4" width="9.93" height="24.95"/><rect class="cls-9" x="168.06" y="174.52" width="1.82" height="11.83"/><rect class="cls-9" x="168.06" y="189.4" width="1.82" height="24.95"/><rect class="cls-19" x="194.73" y="171.62" width="3.43" height="45.62" transform="translate(392.89 388.87) rotate(180)"/><rect class="cls-18" x="181.16" y="189.4" width="10.66" height="24.95"/><rect class="cls-9" x="181.16" y="189.4" width="1.82" height="24.95"/><rect class="cls-17" x="209.67" y="171.62" width="29.56" height="45.62"/><rect class="cls-18" x="212.56" y="174.52" width="23.77" height="11.83"/><rect class="cls-18" x="212.56" y="189.4" width="9.93" height="24.95"/><rect class="cls-9" x="212.56" y="174.52" width="1.82" height="11.83"/><rect class="cls-9" x="212.56" y="189.4" width="1.82" height="24.95"/><rect class="cls-19" x="239.22" y="171.62" width="3.43" height="45.62" transform="translate(481.88 388.87) rotate(180)"/><rect class="cls-18" x="225.65" y="189.4" width="10.66" height="24.95"/><rect class="cls-9" x="225.65" y="189.4" width="1.82" height="24.95"/><rect class="cls-19" x="266.91" y="171.62" width="29.56" height="45.62" transform="translate(563.37 388.87) rotate(180)"/><rect class="cls-18" x="269.8" y="174.52" width="23.77" height="11.83" transform="translate(563.37 360.86) rotate(180)"/><rect class="cls-18" x="283.64" y="189.4" width="9.93" height="24.95" transform="translate(577.21 403.75) rotate(180)"/><rect class="cls-9" x="291.75" y="174.52" width="1.82" height="11.83" transform="translate(585.32 360.86) rotate(180)"/><rect class="cls-9" x="291.75" y="189.4" width="1.82" height="24.95" transform="translate(585.32 403.75) rotate(180)"/><rect class="cls-17" x="263.48" y="171.62" width="3.43" height="45.62"/><rect class="cls-18" x="269.83" y="189.4" width="10.66" height="24.95" transform="translate(550.31 403.75) rotate(180)"/><rect class="cls-9" x="278.66" y="189.4" width="1.82" height="24.95" transform="translate(559.14 403.75) rotate(180)"/><path class="cls-17" d="M316.92,168.3h0a14,14,0,0,1,14,14V240a0,0,0,0,1,0,0H302.89a0,0,0,0,1,0,0V182.33A14,14,0,0,1,316.92,168.3Z"/><path class="cls-19" d="M315.36,168.39a14,14,0,0,0-12.48,13.94V240h25V182.33A14,14,0,0,0,315.36,168.39Z"/><path class="cls-14" d="M274.13,72.34h-.85a6.63,6.63,0,0,1-6.63-6.63h14.12A6.63,6.63,0,0,1,274.13,72.34Z"/><path class="cls-17" d="M265.81,109.43l.44,3.07s-5.59,2.39-5.26,6.45l10.9-3.07-1.54-6.67Z"/><path class="cls-17" d="M281,66.44H266.51l-1.24-18.19a22.6,22.6,0,0,1,17,0C281.9,56.49,281.35,57.91,281,66.44Z"/><path class="cls-20" d="M267.88,51.07c-19.64-2-9-23.88-9-23.88"/><path class="cls-6" d="M270.1,67.76s-5.6,24.11-1.94,43.76"/><path class="cls-21" d="M259.49,27.42h0a3.13,3.13,0,0,1-3.13-3.13V22.82h6.27v1.47A3.13,3.13,0,0,1,259.49,27.42Z"/><path class="cls-20" d="M279.66,51.07c16.65-10.24,5.57-29.14,5.57-29.14"/><path class="cls-21" d="M284.66,22.16h0A3.13,3.13,0,0,0,287.79,19V17.56h-6.27V19A3.13,3.13,0,0,0,284.66,22.16Z"/><path class="cls-8" d="M259.92,23.19c3-2.05,5.05-6.14,5.07-10.86s-2-8.82-5-10.89V0l-4.41,0c-5.21,0-9.46,5.47-9.48,12.26s4.18,12.32,9.39,12.34l4.41,0Z"/><ellipse class="cls-22" cx="259.96" cy="12.32" rx="12.3" ry="9.44" transform="translate(246.67 272.23) rotate(-89.79)"/><path class="cls-22" d="M294.44,7.92H261.65v9.43h8.21l1.9,1.9h1.81l1.9-1.9h2l1.27,1.27h1.1l.68-.68h.83l1.36,1.36h3.81l1.67-1.67h1.48l.91.91h1.93l1.2-1.2h.73a4.72,4.72,0,1,0,0-9.43Z"/><path class="cls-8" d="M257.16,15.31a3.63,3.63,0,0,1-1.4-3,3.63,3.63,0,0,1,1.37-3V8.92h1.22c1.44,0,2.61,1.51,2.61,3.38s-1.15,3.39-2.59,3.4h-1.22Z"/><ellipse class="cls-18" cx="257.14" cy="12.31" rx="2.6" ry="3.39" transform="translate(-0.04 0.96) rotate(-0.21)"/><path class="cls-21" d="M271.29,42.55h5a0,0,0,0,1,0,0v3.88a2.5,2.5,0,0,1-2.5,2.5h0a2.5,2.5,0,0,1-2.5-2.5V42.55A0,0,0,0,1,271.29,42.55Z"/><path class="cls-23" d="M271.29,45.58a11.83,11.83,0,0,0,5,1.43,2.27,2.27,0,0,0,0-.36v-4.1h-5Z"/><ellipse class="cls-21" cx="273.83" cy="38.42" rx="6.19" ry="7.04"/><path class="cls-10" d="M268.09,40.29a11.09,11.09,0,0,1-.31-9.29,12.31,12.31,0,0,1,9.17-1.68l.44-2.62s5.11,5.3,2.68,12c0,0-.3-6.32-6.46-5.86C267.29,33.27,268.09,40.29,268.09,40.29Z"/><circle class="cls-21" cx="267.43" cy="39.17" r="1.59"/><circle class="cls-21" cx="280.11" cy="39.17" r="1.59"/><path class="cls-18" d="M271.19,40.94h5.58a2.84,2.84,0,0,1-2.93,2A2.4,2.4,0,0,1,271.19,40.94Z"/><ellipse class="cls-14" cx="271.5" cy="38.45" rx="0.81" ry="1.02"/><ellipse class="cls-14" cx="276.52" cy="38.45" rx="0.81" ry="1.02"/><path class="cls-8" d="M44.93,166.81c8.27,1.59,15.88.47,18.29-11L66.08,157S68,173.58,44,175.07L42.35,172C41.25,169.82,42.56,166.35,44.93,166.81Z"/><ellipse class="cls-21" cx="64.9" cy="155.34" rx="2.42" ry="3.16"/><ellipse class="cls-21" cx="63.02" cy="156.87" rx="1.15" ry="1.94" transform="translate(-104.34 133.02) rotate(-60)"/><path class="cls-17" d="M34.07,238.82l-7.57-4.43A4.78,4.78,0,0,1,28,231.3l4.15,2.43,2.16,3A1.51,1.51,0,0,1,34.07,238.82Z"/><polygon class="cls-14" points="43.88 190.87 43.97 216.62 31.87 233.9 27.66 231.64 37.37 216.22 32.98 190.81 43.88 190.87"/><path class="cls-17" d="M64.44,239.93H55.67a4.78,4.78,0,0,1-.24-3.44h4.81l3.36,1.46A1.51,1.51,0,0,1,64.44,239.93Z"/><polygon class="cls-14" points="44.17 190.99 54.3 213.74 60.08 236.65 55.06 236.98 48.15 215.03 32.87 191.16 44.17 190.99"/><path class="cls-8" d="M39.14,166.17a7.72,7.72,0,0,0-8,4.81A17.09,17.09,0,0,0,30,178.8a74.4,74.4,0,0,0,2.79,12.38l11.43,0s3.57-11.35,3.3-16.47a11.9,11.9,0,0,0-4.2-8.15Z"/><polygon class="cls-2" points="102.04 165.85 1.13 184.17 8.39 225.53 109.3 207.2 102.04 165.85"/><polygon class="cls-15" points="11.36 221.29 5.36 187.14 99.06 170.09 105.06 204.23 11.36 221.29"/><path class="cls-2" d="M97.53,182.5a8.3,8.3,0,0,1-9.61-6.74L17.78,188.68A8.3,8.3,0,0,1,11,198.29l1.86,10.58a8.3,8.3,0,0,1,9.61,6.74l70.13-12.92a8.3,8.3,0,0,1,6.74-9.61Z"/><circle class="cls-15" cx="55.42" cy="195.52" r="10.8" transform="translate(-32.99 12.54) rotate(-9.96)"/><path class="cls-24" d="M59.37,192.14a.56.56,0,0,0,.2-.11,3.5,3.5,0,0,0,2.25.11c1.59-.4,2.85-1.75,2.35-2.84-.87-1.89-2.22-.67-3.82-.27l-.64.17a.56.56,0,0,0-.33-.07c-2.89.3-13.8.53-18.45-12.21l-8.83,1.6C35.23,185.88,42.79,196.75,59.37,192.14Z"/><path class="cls-21" d="M59.28,189.91c.29,1.16,1.74,1.73,3.34,1.32s2.85-1.75,2.35-2.84c-.87-1.89-2.22-.67-3.82-.27S59,188.74,59.28,189.91Z"/><path class="cls-8" d="M60.23,188.41c-3.38.38-17.7.85-19.84-18.43,0,0-2.32-3.87-5.75-2.29a5.59,5.59,0,0,0-3.13,4.11,5.12,5.12,0,0,0,.06,2.31c1.11,4.38,7.15,23.05,28.6,17.12a.58.58,0,0,0,.43-.47l.25-1.76A.53.53,0,0,0,60.23,188.41Z"/><path class="cls-14" d="M50.82,164s-11.49,6.32-20.53-.29c0,0,4.07-4.29,5.63-8.78s9.14-4.28,10.68-1.89S50.82,164,50.82,164Z"/><ellipse class="cls-21" cx="41.98" cy="159.4" rx="5.68" ry="6.77" transform="matrix(1, -0.07, 0.07, 1, -11.21, 3.38)"/><path class="cls-14" d="M46.6,153c-1.55-2.39-9.13-2.6-10.68,1.89a17.86,17.86,0,0,1-1.16,2.59l1.11.29c4.9,1.87,10.77-.21,12.81-1.44A22,22,0,0,0,46.6,153Z"/><ellipse class="cls-21" cx="37.36" cy="159.24" rx="1.71" ry="2.3" transform="translate(-71.2 36.9) rotate(-28.38)"/><path class="cls-21" d="M37.31,162.47l-.92,4.75s5.93,4.69,7.49,4.06S42.47,167,42.47,167v-1.56Z"/><path class="cls-18" d="M41.2,161.81l4.76.25a2.56,2.56,0,0,1-2.6,1.89A2.21,2.21,0,0,1,41.2,161.81Z"/><ellipse class="cls-14" cx="42.19" cy="159.41" rx="1.02" ry="0.81" transform="translate(-119.21 193.16) rotate(-86.99)"/><ellipse class="cls-14" cx="46.28" cy="159.64" rx="1.02" ry="0.81" transform="translate(-115.57 197.47) rotate(-86.99)"/></g></g></svg>